<?xml version="1.0" encoding="UTF-8"?>
<!DOCTYPE svg PUBLIC "-//W3C//DTD SVG 1.1//EN" "http://www.w3.org/Graphics/SVG/1.1/DTD/svg11.dtd">
<svg version="1.2" width="200mm" height="200mm" viewBox="0 0 20000 20000" preserveAspectRatio="xMidYMid" fill-rule="evenodd" stroke-width="28.222" stroke-linejoin="round" xmlns="http://www.w3.org/2000/svg" xmlns:ooo="http://xml.openoffice.org/svg/export" xmlns:xlink="http://www.w3.org/1999/xlink" xmlns:presentation="http://sun.com/xmlns/staroffice/presentation" xmlns:smil="http://www.w3.org/2001/SMIL20/" xmlns:anim="urn:oasis:names:tc:opendocument:xmlns:animation:1.0" xml:space="preserve">
 <defs class="ClipPathGroup">
  <clipPath id="presentation_clip_path" clipPathUnits="userSpaceOnUse">
   <rect x="0" y="0" width="20000" height="20000"/>
  </clipPath>
  <clipPath id="presentation_clip_path_shrink" clipPathUnits="userSpaceOnUse">
   <rect x="20" y="20" width="19960" height="19960"/>
  </clipPath>
 </defs>
 <defs class="TextShapeIndex">
  <g ooo:slide="id1" ooo:id-list="id3 id4 id5 id6 id7 id8 id9"/>
 </defs>
 <defs class="EmbeddedBulletChars">
  <g id="bullet-char-template-57356" transform="scale(0.00048828125,-0.00048828125)">
   <path d="M 580,1141 L 1163,571 580,0 -4,571 580,1141 Z"/>
  </g>
  <g id="bullet-char-template-57354" transform="scale(0.00048828125,-0.00048828125)">
   <path d="M 8,1128 L 1137,1128 1137,0 8,0 8,1128 Z"/>
  </g>
  <g id="bullet-char-template-10146" transform="scale(0.00048828125,-0.00048828125)">
   <path d="M 174,0 L 602,739 174,1481 1456,739 174,0 Z M 1358,739 L 309,1346 659,739 1358,739 Z"/>
  </g>
  <g id="bullet-char-template-10132" transform="scale(0.00048828125,-0.00048828125)">
   <path d="M 2015,739 L 1276,0 717,0 1260,543 174,543 174,936 1260,936 717,1481 1274,1481 2015,739 Z"/>
  </g>
  <g id="bullet-char-template-10007" transform="scale(0.00048828125,-0.00048828125)">
   <path d="M 0,-2 C -7,14 -16,27 -25,37 L 356,567 C 262,823 215,952 215,954 215,979 228,992 255,992 264,992 276,990 289,987 310,991 331,999 354,1012 L 381,999 492,748 772,1049 836,1024 860,1049 C 881,1039 901,1025 922,1006 886,937 835,863 770,784 769,783 710,716 594,584 L 774,223 C 774,196 753,168 711,139 L 727,119 C 717,90 699,76 672,76 641,76 570,178 457,381 L 164,-76 C 142,-110 111,-127 72,-127 30,-127 9,-110 8,-76 1,-67 -2,-52 -2,-32 -2,-23 -1,-13 0,-2 Z"/>
  </g>
  <g id="bullet-char-template-10004" transform="scale(0.00048828125,-0.00048828125)">
   <path d="M 285,-33 C 182,-33 111,30 74,156 52,228 41,333 41,471 41,549 55,616 82,672 116,743 169,778 240,778 293,778 328,747 346,684 L 369,508 C 377,444 397,411 428,410 L 1163,1116 C 1174,1127 1196,1133 1229,1133 1271,1133 1292,1118 1292,1087 L 1292,965 C 1292,929 1282,901 1262,881 L 442,47 C 390,-6 338,-33 285,-33 Z"/>
  </g>
  <g id="bullet-char-template-9679" transform="scale(0.00048828125,-0.00048828125)">
   <path d="M 813,0 C 632,0 489,54 383,161 276,268 223,411 223,592 223,773 276,916 383,1023 489,1130 632,1184 813,1184 992,1184 1136,1130 1245,1023 1353,916 1407,772 1407,592 1407,412 1353,268 1245,161 1136,54 992,0 813,0 Z"/>
  </g>
  <g id="bullet-char-template-8226" transform="scale(0.00048828125,-0.00048828125)">
   <path d="M 346,457 C 273,457 209,483 155,535 101,586 74,649 74,723 74,796 101,859 155,911 209,963 273,989 346,989 419,989 480,963 531,910 582,859 608,796 608,723 608,648 583,586 532,535 482,483 420,457 346,457 Z"/>
  </g>
  <g id="bullet-char-template-8211" transform="scale(0.00048828125,-0.00048828125)">
   <path d="M -4,459 L 1135,459 1135,606 -4,606 -4,459 Z"/>
  </g>
  <g id="bullet-char-template-61548" transform="scale(0.00048828125,-0.00048828125)">
   <path d="M 173,740 C 173,903 231,1043 346,1159 462,1274 601,1332 765,1332 928,1332 1067,1274 1183,1159 1299,1043 1357,903 1357,740 1357,577 1299,437 1183,322 1067,206 928,148 765,148 601,148 462,206 346,322 231,437 173,577 173,740 Z"/>
  </g>
 </defs>
 <g>
  <g id="id2" class="Master_Slide">
   <g id="bg-id2" class="Background"/>
   <g id="bo-id2" class="BackgroundObjects"/>
  </g>
 </g>
 <g class="SlideGroup">
  <g>
   <g id="container-id1">
    <g id="id1" class="Slide" clip-path="url(#presentation_clip_path)">
     <g class="Page">
      <g class="Group">
       <g class="com.sun.star.drawing.ClosedBezierShape">
        <g id="id3">
         <rect class="BoundingBox" stroke="none" fill="none" x="894" y="893" width="18215" height="18215"/>
         <path fill="rgb(117,117,117)" stroke="none" d="M 15797,8447 C 15524,7430 14989,6502 14244,5757 13499,5012 12571,4477 11554,4204 10536,3931 9465,3931 8448,4204 7430,4477 6503,5012 5758,5757 5013,6502 4477,7430 4205,8447 3932,9464 3932,10536 4205,11553 4477,12570 5013,13498 5758,14243 6503,14988 7430,15523 8448,15796 9465,16069 10536,16069 11554,15796 12571,15523 13499,14988 14244,14243 14989,13498 15524,12570 15797,11553 16069,10536 16069,9464 15797,8447 Z M 4255,5493 L 5493,4255 4702,2725 C 5216,2350 5768,2032 6349,1774 L 7279,3225 8969,2772 9049,1050 C 9681,983 10319,983 10951,1050 L 11030,2772 12721,3224 13651,1773 C 14233,2031 14785,2350 15299,2724 L 14507,4255 15745,5493 17276,4701 C 17650,5215 17969,5767 18227,6348 L 16775,7279 17228,8969 18951,9049 C 19018,9681 19018,10319 18951,10951 L 17228,11030 16776,12721 18227,13651 C 17969,14233 17650,14785 17276,15299 L 15745,14507 14507,15745 15299,17276 C 14785,17650 14233,17969 13652,18227 L 12721,16775 11031,17228 10951,18950 C 10319,19017 9681,19017 9049,18950 L 8970,17228 7279,16776 6349,18226 C 5768,17968 5215,17649 4701,17275 L 5493,15745 4255,14507 2725,15298 C 2351,14784 2032,14232 1774,13651 L 3225,12721 2772,11031 1051,10951 C 983,10319 983,9681 1051,9049 L 2772,8970 3224,7279 1774,6349 C 2032,5768 2351,5215 2725,4701 L 4255,5493 Z"/>
         <path fill="none" stroke="rgb(66,66,66)" stroke-width="212" stroke-linejoin="round" d="M 15797,8447 C 15524,7430 14989,6502 14244,5757 13499,5012 12571,4477 11554,4204 10536,3931 9465,3931 8448,4204 7430,4477 6503,5012 5758,5757 5013,6502 4477,7430 4205,8447 3932,9464 3932,10536 4205,11553 4477,12570 5013,13498 5758,14243 6503,14988 7430,15523 8448,15796 9465,16069 10536,16069 11554,15796 12571,15523 13499,14988 14244,14243 14989,13498 15524,12570 15797,11553 16069,10536 16069,9464 15797,8447 Z"/>
         <path fill="none" stroke="rgb(66,66,66)" stroke-width="212" stroke-linejoin="round" d="M 4255,5493 L 5493,4255 4702,2725 C 5216,2350 5768,2032 6349,1774 L 7279,3225 8969,2772 9049,1050 C 9681,983 10319,983 10951,1050 L 11030,2772 12721,3224 13651,1773 C 14233,2031 14785,2350 15299,2724 L 14507,4255 15745,5493 17276,4701 C 17650,5215 17969,5767 18227,6348 L 16775,7279 17228,8969 18951,9049 C 19018,9681 19018,10319 18951,10951 L 17228,11030 16776,12721 18227,13651 C 17969,14233 17650,14785 17276,15299 L 15745,14507 14507,15745 15299,17276 C 14785,17650 14233,17969 13652,18227 L 12721,16775 11031,17228 10951,18950 C 10319,19017 9681,19017 9049,18950 L 8970,17228 7279,16776 6349,18226 C 5768,17968 5215,17649 4701,17275 L 5493,15745 4255,14507 2725,15298 C 2351,14784 2032,14232 1774,13651 L 3225,12721 2772,11031 1051,10951 C 983,10319 983,9681 1051,9049 L 2772,8970 3224,7279 1774,6349 C 2032,5768 2351,5215 2725,4701 L 4255,5493 Z"/>
        </g>
       </g>
       <g class="com.sun.star.drawing.ClosedBezierShape">
        <g id="id4">
         <rect class="BoundingBox" stroke="none" fill="none" x="4000" y="3999" width="12003" height="12003"/>
         <path fill="rgb(66,66,66)" stroke="none" d="M 14831,8706 C 14604,7858 14157,7085 13537,6464 12916,5843 12143,5397 11295,5170 10447,4943 9554,4943 8706,5170 7859,5397 7085,5843 6465,6464 5844,7085 5398,7858 5171,8706 4943,9554 4943,10446 5171,11294 5398,12142 5844,12915 6465,13536 7085,14157 7859,14603 8706,14830 9554,15057 10447,15057 11295,14830 12143,14603 12916,14157 13537,13536 14157,12915 14604,12142 14831,11294 15058,10446 15058,9554 14831,8706 Z M 15797,8447 C 16069,9464 16069,10536 15797,11553 15524,12570 14989,13498 14244,14243 13499,14988 12571,15523 11554,15796 10536,16069 9465,16069 8448,15796 7430,15523 6503,14988 5758,14243 5013,13498 4477,12570 4205,11553 3932,10536 3932,9464 4205,8447 4477,7430 5013,6502 5758,5757 6503,5012 7430,4477 8448,4204 9465,3931 10536,3931 11554,4204 12571,4477 13499,5012 14244,5757 14989,6502 15524,7430 15797,8447 Z"/>
        </g>
       </g>
       <g class="com.sun.star.drawing.CustomShape">
        <g id="id5">
         <rect class="BoundingBox" stroke="none" fill="none" x="5934" y="10530" width="3537" height="3538"/>
         <path fill="rgb(66,66,66)" stroke="none" d="M 8055,12652 L 6641,14066 5934,13359 8762,10531 9470,11238 8055,12652 Z"/>
        </g>
       </g>
       <g class="com.sun.star.drawing.CustomShape">
        <g id="id6">
         <rect class="BoundingBox" stroke="none" fill="none" x="10530" y="10530" width="3538" height="3537"/>
         <path fill="rgb(66,66,66)" stroke="none" d="M 12652,11945 L 14066,13359 13359,14066 10531,11238 11238,10530 12652,11945 Z"/>
        </g>
       </g>
       <g class="com.sun.star.drawing.ClosedBezierShape">
        <g id="id7">
         <rect class="BoundingBox" stroke="none" fill="none" x="8000" y="7999" width="4003" height="4003"/>
         <path fill="rgb(66,66,66)" stroke="none" d="M 10967,9741 C 10922,9571 10832,9417 10708,9293 10584,9168 10429,9079 10260,9034 10090,8988 9911,8988 9742,9034 9572,9079 9417,9168 9293,9293 9169,9417 9080,9571 9034,9741 8989,9911 8989,10089 9034,10259 9080,10429 9169,10583 9293,10707 9417,10832 9572,10921 9742,10966 9911,11012 10090,11012 10260,10966 10429,10921 10584,10832 10708,10707 10832,10583 10922,10429 10967,10259 11013,10089 11013,9911 10967,9741 Z M 11933,9482 C 12024,9821 12024,10179 11933,10518 11842,10857 11664,11166 11415,11415 11167,11663 10858,11841 10518,11932 10179,12023 9822,12023 9483,11932 9144,11841 8834,11663 8586,11415 8338,11166 8159,10857 8068,10518 7977,10179 7977,9821 8068,9482 8159,9143 8338,8834 8586,8585 8834,8337 9144,8159 9483,8068 9822,7977 10179,7977 10518,8068 10858,8159 11167,8337 11415,8585 11664,8834 11842,9143 11933,9482 Z"/>
        </g>
       </g>
       <g class="com.sun.star.drawing.CustomShape">
        <g id="id8">
         <rect class="BoundingBox" stroke="none" fill="none" x="5757" y="5757" width="3538" height="3537"/>
         <path fill="rgb(66,66,66)" stroke="none" d="M 7879,7172 L 9293,8586 8586,9293 5758,6465 6465,5757 7879,7172 Z"/>
        </g>
       </g>
       <g class="com.sun.star.drawing.CustomShape">
        <g id="id9">
         <rect class="BoundingBox" stroke="none" fill="none" x="10707" y="5757" width="3537" height="3538"/>
         <path fill="rgb(66,66,66)" stroke="none" d="M 12828,7879 L 11414,9293 10707,8586 13535,5758 14243,6465 12828,7879 Z"/>
        </g>
       </g>
      </g>
     </g>
    </g>
   </g>
  </g>
 </g>
</svg>