<?xml version="1.0" encoding="UTF-8"?>
<!DOCTYPE svg PUBLIC "-//W3C//DTD SVG 1.1//EN" "http://www.w3.org/Graphics/SVG/1.1/DTD/svg11.dtd">
<svg version="1.2" width="200.26mm" height="200.26mm" viewBox="0 0 20026 20026" preserveAspectRatio="xMidYMid" fill-rule="evenodd" stroke-width="28.222" stroke-linejoin="round" xmlns="http://www.w3.org/2000/svg" xmlns:ooo="http://xml.openoffice.org/svg/export" xmlns:xlink="http://www.w3.org/1999/xlink" xmlns:presentation="http://sun.com/xmlns/staroffice/presentation" xmlns:smil="http://www.w3.org/2001/SMIL20/" xmlns:anim="urn:oasis:names:tc:opendocument:xmlns:animation:1.0" xml:space="preserve">
 <defs class="ClipPathGroup">
  <clipPath id="presentation_clip_path" clipPathUnits="userSpaceOnUse">
   <rect x="0" y="0" width="20026" height="20026"/>
  </clipPath>
  <clipPath id="presentation_clip_path_shrink" clipPathUnits="userSpaceOnUse">
   <rect x="20" y="20" width="19986" height="19986"/>
  </clipPath>
 </defs>
 <defs class="TextShapeIndex">
  <g ooo:slide="id1" ooo:id-list="id3"/>
 </defs>
 <defs class="EmbeddedBulletChars">
  <g id="bullet-char-template-57356" transform="scale(0.00048828125,-0.00048828125)">
   <path d="M 580,1141 L 1163,571 580,0 -4,571 580,1141 Z"/>
  </g>
  <g id="bullet-char-template-57354" transform="scale(0.00048828125,-0.00048828125)">
   <path d="M 8,1128 L 1137,1128 1137,0 8,0 8,1128 Z"/>
  </g>
  <g id="bullet-char-template-10146" transform="scale(0.00048828125,-0.00048828125)">
   <path d="M 174,0 L 602,739 174,1481 1456,739 174,0 Z M 1358,739 L 309,1346 659,739 1358,739 Z"/>
  </g>
  <g id="bullet-char-template-10132" transform="scale(0.00048828125,-0.00048828125)">
   <path d="M 2015,739 L 1276,0 717,0 1260,543 174,543 174,936 1260,936 717,1481 1274,1481 2015,739 Z"/>
  </g>
  <g id="bullet-char-template-10007" transform="scale(0.00048828125,-0.00048828125)">
   <path d="M 0,-2 C -7,14 -16,27 -25,37 L 356,567 C 262,823 215,952 215,954 215,979 228,992 255,992 264,992 276,990 289,987 310,991 331,999 354,1012 L 381,999 492,748 772,1049 836,1024 860,1049 C 881,1039 901,1025 922,1006 886,937 835,863 770,784 769,783 710,716 594,584 L 774,223 C 774,196 753,168 711,139 L 727,119 C 717,90 699,76 672,76 641,76 570,178 457,381 L 164,-76 C 142,-110 111,-127 72,-127 30,-127 9,-110 8,-76 1,-67 -2,-52 -2,-32 -2,-23 -1,-13 0,-2 Z"/>
  </g>
  <g id="bullet-char-template-10004" transform="scale(0.00048828125,-0.00048828125)">
   <path d="M 285,-33 C 182,-33 111,30 74,156 52,228 41,333 41,471 41,549 55,616 82,672 116,743 169,778 240,778 293,778 328,747 346,684 L 369,508 C 377,444 397,411 428,410 L 1163,1116 C 1174,1127 1196,1133 1229,1133 1271,1133 1292,1118 1292,1087 L 1292,965 C 1292,929 1282,901 1262,881 L 442,47 C 390,-6 338,-33 285,-33 Z"/>
  </g>
  <g id="bullet-char-template-9679" transform="scale(0.00048828125,-0.00048828125)">
   <path d="M 813,0 C 632,0 489,54 383,161 276,268 223,411 223,592 223,773 276,916 383,1023 489,1130 632,1184 813,1184 992,1184 1136,1130 1245,1023 1353,916 1407,772 1407,592 1407,412 1353,268 1245,161 1136,54 992,0 813,0 Z"/>
  </g>
  <g id="bullet-char-template-8226" transform="scale(0.00048828125,-0.00048828125)">
   <path d="M 346,457 C 273,457 209,483 155,535 101,586 74,649 74,723 74,796 101,859 155,911 209,963 273,989 346,989 419,989 480,963 531,910 582,859 608,796 608,723 608,648 583,586 532,535 482,483 420,457 346,457 Z"/>
  </g>
  <g id="bullet-char-template-8211" transform="scale(0.00048828125,-0.00048828125)">
   <path d="M -4,459 L 1135,459 1135,606 -4,606 -4,459 Z"/>
  </g>
  <g id="bullet-char-template-61548" transform="scale(0.00048828125,-0.00048828125)">
   <path d="M 173,740 C 173,903 231,1043 346,1159 462,1274 601,1332 765,1332 928,1332 1067,1274 1183,1159 1299,1043 1357,903 1357,740 1357,577 1299,437 1183,322 1067,206 928,148 765,148 601,148 462,206 346,322 231,437 173,577 173,740 Z"/>
  </g>
 </defs>
 <g>
  <g id="id2" class="Master_Slide">
   <g id="bg-id2" class="Background"/>
   <g id="bo-id2" class="BackgroundObjects"/>
  </g>
 </g>
 <g class="SlideGroup">
  <g>
   <g id="container-id1">
    <g id="id1" class="Slide" clip-path="url(#presentation_clip_path)">
     <g class="Page">
      <g class="Graphic">
       <g id="id3">
        <rect class="BoundingBox" stroke="none" fill="none" x="1814" y="1814" width="16251" height="16251"/>
        <path fill="rgb(117,117,117)" stroke="none" d="M 14643,8679 C 14421,7854 13987,7101 13383,6496 12778,5892 12025,5457 11200,5236 10374,5014 9505,5014 8680,5236 7854,5457 7101,5892 6497,6496 5892,7101 5457,7854 5237,8679 5015,9504 5015,10374 5237,11199 5457,12024 5892,12777 6497,13382 7101,13986 7854,14421 8680,14642 9505,14864 10374,14864 11200,14642 12025,14421 12778,13986 13383,13382 13987,12777 14421,12024 14643,11199 14864,10374 14864,9504 14643,8679 L 14643,8679 Z M 5277,6282 L 6282,5277 5640,4036 C 6057,3732 6505,3474 6976,3264 L 7731,4442 9102,4074 9167,2677 C 9680,2622 10198,2622 10711,2677 L 10775,4074 12147,4441 12902,3263 C 13374,3473 13822,3732 14239,4035 L 13596,5277 14601,6282 15843,5639 C 16146,6056 16405,6504 16615,6976 L 15436,7731 15804,9102 17202,9167 C 17256,9680 17256,10198 17202,10711 L 15804,10775 15437,12147 16615,12902 C 16405,13374 16146,13822 15843,14239 L 14601,13596 13596,14601 14239,15843 C 13822,16146 13374,16405 12902,16615 L 12147,15436 10776,15804 10711,17201 C 10198,17256 9680,17256 9167,17201 L 9103,15804 7731,15437 6976,16614 C 6505,16404 6056,16146 5639,15842 L 6282,14601 5277,13596 4036,14238 C 3732,13821 3474,13373 3264,12902 L 4442,12147 4074,10776 2678,10711 C 2622,10198 2622,9680 2678,9167 L 4074,9103 4441,7731 3264,6976 C 3474,6505 3732,6056 4036,5639 L 5277,6282 5277,6282 Z"/>
        <path fill="none" stroke="rgb(66,66,66)" stroke-width="172" stroke-linejoin="round" d="M 14643,8679 C 14421,7854 13987,7101 13383,6496 12778,5892 12025,5457 11200,5236 10374,5014 9505,5014 8680,5236 7854,5457 7101,5892 6497,6496 5892,7101 5457,7854 5237,8679 5015,9504 5015,10374 5237,11199 5457,12024 5892,12777 6497,13382 7101,13986 7854,14421 8680,14642 9505,14864 10374,14864 11200,14642 12025,14421 12778,13986 13383,13382 13987,12777 14421,12024 14643,11199 14864,10374 14864,9504 14643,8679 Z"/>
        <path fill="none" stroke="rgb(66,66,66)" stroke-width="172" stroke-linejoin="round" d="M 5277,6282 L 6282,5277 5640,4036 C 6057,3732 6505,3474 6976,3264 L 7731,4442 9102,4074 9167,2677 C 9680,2622 10198,2622 10711,2677 L 10775,4074 12147,4441 12902,3263 C 13374,3473 13822,3732 14239,4035 L 13596,5277 14601,6282 15843,5639 C 16146,6056 16405,6504 16615,6976 L 15436,7731 15804,9102 17202,9167 C 17256,9680 17256,10198 17202,10711 L 15804,10775 15437,12147 16615,12902 C 16405,13374 16146,13822 15843,14239 L 14601,13596 13596,14601 14239,15843 C 13822,16146 13374,16405 12902,16615 L 12147,15436 10776,15804 10711,17201 C 10198,17256 9680,17256 9167,17201 L 9103,15804 7731,15437 6976,16614 C 6505,16404 6056,16146 5639,15842 L 6282,14601 5277,13596 4036,14238 C 3732,13821 3474,13373 3264,12902 L 4442,12147 4074,10776 2678,10711 C 2622,10198 2622,9680 2678,9167 L 4074,9103 4441,7731 3264,6976 C 3474,6505 3732,6056 4036,5639 L 5277,6282 Z"/>
        <path fill="rgb(66,66,66)" stroke="none" d="M 13859,8889 C 13675,8201 13312,7574 12809,7070 12305,6566 11678,6204 10990,6020 10302,5836 9577,5836 8889,6020 8202,6204 7574,6566 7071,7070 6567,7574 6205,8201 6021,8889 5836,9577 5836,10301 6021,10989 6205,11677 6567,12304 7071,12808 7574,13312 8202,13674 8889,13858 9577,14042 10302,14042 10990,13858 11678,13674 12305,13312 12809,12808 13312,12304 13675,11677 13859,10989 14043,10301 14043,9577 13859,8889 L 13859,8889 Z M 14643,8679 C 14864,9504 14864,10374 14643,11199 14421,12024 13987,12777 13383,13382 12778,13986 12025,14421 11200,14642 10374,14864 9505,14864 8680,14642 7854,14421 7101,13986 6497,13382 5892,12777 5457,12024 5237,11199 5015,10374 5015,9504 5237,8679 5457,7854 5892,7101 6497,6496 7101,5892 7854,5457 8680,5236 9505,5014 10374,5014 11200,5236 12025,5457 12778,5892 13383,6496 13987,7101 14421,7854 14643,8679 L 14643,8679 Z"/>
        <path fill="rgb(66,66,66)" stroke="none" d="M 8361,12091 L 7213,13238 6640,12665 8934,10370 9509,10944 8361,12091 8361,12091 Z"/>
        <path fill="rgb(66,66,66)" stroke="none" d="M 12091,11517 L 13238,12665 12665,13238 10370,10944 10944,10369 12091,11517 12091,11517 Z"/>
        <path fill="rgb(66,66,66)" stroke="none" d="M 10724,9729 C 10687,9591 10614,9466 10513,9365 10413,9264 10287,9192 10150,9155 10012,9118 9867,9118 9730,9155 9592,9192 9466,9264 9365,9365 9265,9466 9192,9591 9155,9729 9119,9867 9119,10011 9155,10149 9192,10287 9265,10412 9365,10513 9466,10614 9592,10686 9730,10723 9867,10760 10012,10760 10150,10723 10287,10686 10413,10614 10513,10513 10614,10412 10687,10287 10724,10149 10761,10011 10761,9867 10724,9729 L 10724,9729 Z M 11507,9519 C 11581,9794 11581,10084 11507,10359 11434,10634 11289,10885 11087,11087 10886,11288 10635,11433 10359,11507 10084,11581 9795,11581 9519,11507 9244,11433 8993,11288 8792,11087 8590,10885 8445,10634 8371,10359 8297,10084 8297,9794 8371,9519 8445,9244 8590,8993 8792,8791 8993,8590 9244,8445 9519,8371 9795,8297 10084,8297 10359,8371 10635,8445 10886,8590 11087,8791 11289,8993 11434,9244 11507,9519 L 11507,9519 Z"/>
        <path fill="rgb(66,66,66)" stroke="none" d="M 8218,7644 L 9365,8792 8792,9365 6497,7071 7071,6496 8218,7644 8218,7644 Z"/>
        <path fill="rgb(66,66,66)" stroke="none" d="M 12234,8218 L 11086,9365 10513,8792 12807,6497 13382,7071 12234,8218 12234,8218 Z"/>
       </g>
      </g>
     </g>
    </g>
   </g>
  </g>
 </g>
</svg>