<?xml version="1.0" encoding="UTF-8"?>
<!DOCTYPE svg PUBLIC "-//W3C//DTD SVG 1.1//EN" "http://www.w3.org/Graphics/SVG/1.1/DTD/svg11.dtd">
<svg version="1.2" width="200mm" height="200mm" viewBox="0 0 20000 20000" preserveAspectRatio="xMidYMid" fill-rule="evenodd" stroke-width="28.222" stroke-linejoin="round" xmlns="http://www.w3.org/2000/svg" xmlns:ooo="http://xml.openoffice.org/svg/export" xmlns:xlink="http://www.w3.org/1999/xlink" xmlns:presentation="http://sun.com/xmlns/staroffice/presentation" xmlns:smil="http://www.w3.org/2001/SMIL20/" xmlns:anim="urn:oasis:names:tc:opendocument:xmlns:animation:1.0" xml:space="preserve">
 <defs class="ClipPathGroup">
  <clipPath id="presentation_clip_path" clipPathUnits="userSpaceOnUse">
   <rect x="0" y="0" width="20000" height="20000"/>
  </clipPath>
  <clipPath id="presentation_clip_path_shrink" clipPathUnits="userSpaceOnUse">
   <rect x="20" y="20" width="19960" height="19960"/>
  </clipPath>
 </defs>
 <defs class="TextShapeIndex">
  <g ooo:slide="id1" ooo:id-list="id3 id4 id5 id6 id7 id8 id9 id10 id11 id12 id13 id14 id15 id16"/>
 </defs>
 <defs class="EmbeddedBulletChars">
  <g id="bullet-char-template-57356" transform="scale(0.00048828125,-0.00048828125)">
   <path d="M 580,1141 L 1163,571 580,0 -4,571 580,1141 Z"/>
  </g>
  <g id="bullet-char-template-57354" transform="scale(0.00048828125,-0.00048828125)">
   <path d="M 8,1128 L 1137,1128 1137,0 8,0 8,1128 Z"/>
  </g>
  <g id="bullet-char-template-10146" transform="scale(0.00048828125,-0.00048828125)">
   <path d="M 174,0 L 602,739 174,1481 1456,739 174,0 Z M 1358,739 L 309,1346 659,739 1358,739 Z"/>
  </g>
  <g id="bullet-char-template-10132" transform="scale(0.00048828125,-0.00048828125)">
   <path d="M 2015,739 L 1276,0 717,0 1260,543 174,543 174,936 1260,936 717,1481 1274,1481 2015,739 Z"/>
  </g>
  <g id="bullet-char-template-10007" transform="scale(0.00048828125,-0.00048828125)">
   <path d="M 0,-2 C -7,14 -16,27 -25,37 L 356,567 C 262,823 215,952 215,954 215,979 228,992 255,992 264,992 276,990 289,987 310,991 331,999 354,1012 L 381,999 492,748 772,1049 836,1024 860,1049 C 881,1039 901,1025 922,1006 886,937 835,863 770,784 769,783 710,716 594,584 L 774,223 C 774,196 753,168 711,139 L 727,119 C 717,90 699,76 672,76 641,76 570,178 457,381 L 164,-76 C 142,-110 111,-127 72,-127 30,-127 9,-110 8,-76 1,-67 -2,-52 -2,-32 -2,-23 -1,-13 0,-2 Z"/>
  </g>
  <g id="bullet-char-template-10004" transform="scale(0.00048828125,-0.00048828125)">
   <path d="M 285,-33 C 182,-33 111,30 74,156 52,228 41,333 41,471 41,549 55,616 82,672 116,743 169,778 240,778 293,778 328,747 346,684 L 369,508 C 377,444 397,411 428,410 L 1163,1116 C 1174,1127 1196,1133 1229,1133 1271,1133 1292,1118 1292,1087 L 1292,965 C 1292,929 1282,901 1262,881 L 442,47 C 390,-6 338,-33 285,-33 Z"/>
  </g>
  <g id="bullet-char-template-9679" transform="scale(0.00048828125,-0.00048828125)">
   <path d="M 813,0 C 632,0 489,54 383,161 276,268 223,411 223,592 223,773 276,916 383,1023 489,1130 632,1184 813,1184 992,1184 1136,1130 1245,1023 1353,916 1407,772 1407,592 1407,412 1353,268 1245,161 1136,54 992,0 813,0 Z"/>
  </g>
  <g id="bullet-char-template-8226" transform="scale(0.00048828125,-0.00048828125)">
   <path d="M 346,457 C 273,457 209,483 155,535 101,586 74,649 74,723 74,796 101,859 155,911 209,963 273,989 346,989 419,989 480,963 531,910 582,859 608,796 608,723 608,648 583,586 532,535 482,483 420,457 346,457 Z"/>
  </g>
  <g id="bullet-char-template-8211" transform="scale(0.00048828125,-0.00048828125)">
   <path d="M -4,459 L 1135,459 1135,606 -4,606 -4,459 Z"/>
  </g>
  <g id="bullet-char-template-61548" transform="scale(0.00048828125,-0.00048828125)">
   <path d="M 173,740 C 173,903 231,1043 346,1159 462,1274 601,1332 765,1332 928,1332 1067,1274 1183,1159 1299,1043 1357,903 1357,740 1357,577 1299,437 1183,322 1067,206 928,148 765,148 601,148 462,206 346,322 231,437 173,577 173,740 Z"/>
  </g>
 </defs>
 <g>
  <g id="id2" class="Master_Slide">
   <g id="bg-id2" class="Background"/>
   <g id="bo-id2" class="BackgroundObjects"/>
  </g>
 </g>
 <g class="SlideGroup">
  <g>
   <g id="container-id1">
    <g id="id1" class="Slide" clip-path="url(#presentation_clip_path)">
     <g class="Page">
      <g class="Group">
       <g class="com.sun.star.drawing.ClosedBezierShape">
        <g id="id3">
         <rect class="BoundingBox" stroke="none" fill="none" x="894" y="2891" width="9681" height="9681"/>
         <path fill="rgb(117,117,117)" stroke="none" d="M 8782,6914 C 8639,6379 8357,5891 7965,5499 7573,5108 7086,4826 6550,4683 6015,4539 5452,4539 4917,4683 4382,4826 3894,5108 3502,5500 3111,5891 2829,6379 2685,6914 2542,7449 2542,8013 2685,8548 2829,9083 3111,9571 3502,9962 3894,10354 4382,10636 4917,10779 5452,10923 6015,10922 6550,10779 7086,10636 7573,10354 7965,9963 8357,9571 8639,9083 8782,8548 8925,8012 8925,7449 8782,6914 Z M 2712,5360 L 3363,4710 2947,3905 C 3217,3708 3508,3540 3813,3404 L 4302,4168 5191,3929 5233,3024 C 5566,2988 5901,2989 6233,3024 L 6275,3929 7164,4167 7653,3404 C 7959,3540 8250,3707 8520,3904 L 8104,4710 8755,5360 9560,4944 C 9757,5214 9925,5505 10060,5810 L 9296,6299 9535,7189 10441,7231 C 10476,7563 10476,7899 10441,8231 L 9535,8273 9297,9162 10060,9651 C 9925,9957 9757,10247 9560,10518 L 8755,10101 8104,10752 8520,11557 C 8250,11754 7959,11922 7654,12057 L 7165,11294 6276,11532 6234,12438 C 5901,12473 5566,12473 5233,12438 L 5192,11533 4302,11294 3813,12057 C 3508,11922 3217,11754 2947,11557 L 3363,10752 2712,10101 1907,10517 C 1710,10247 1543,9957 1407,9651 L 2170,9162 1932,8273 1026,8231 C 992,7899 992,7563 1026,7231 L 1932,7189 2170,6300 1407,5811 C 1543,5505 1710,5215 1907,4944 L 2712,5360 Z"/>
         <path fill="none" stroke="rgb(66,66,66)" stroke-width="212" stroke-linejoin="round" d="M 8782,6914 C 8639,6379 8357,5891 7965,5499 7573,5108 7086,4826 6550,4683 6015,4539 5452,4539 4917,4683 4382,4826 3894,5108 3502,5500 3111,5891 2829,6379 2685,6914 2542,7449 2542,8013 2685,8548 2829,9083 3111,9571 3502,9962 3894,10354 4382,10636 4917,10779 5452,10923 6015,10922 6550,10779 7086,10636 7573,10354 7965,9963 8357,9571 8639,9083 8782,8548 8925,8012 8925,7449 8782,6914 Z"/>
         <path fill="none" stroke="rgb(66,66,66)" stroke-width="212" stroke-linejoin="round" d="M 2712,5360 L 3363,4710 2947,3905 C 3217,3708 3508,3540 3813,3404 L 4302,4168 5191,3929 5233,3024 C 5566,2988 5901,2989 6233,3024 L 6275,3929 7164,4167 7653,3404 C 7959,3540 8250,3707 8520,3904 L 8104,4710 8755,5360 9560,4944 C 9757,5214 9925,5505 10060,5810 L 9296,6299 9535,7189 10441,7231 C 10476,7563 10476,7899 10441,8231 L 9535,8273 9297,9162 10060,9651 C 9925,9957 9757,10247 9560,10518 L 8755,10101 8104,10752 8520,11557 C 8250,11754 7959,11922 7654,12057 L 7165,11294 6276,11532 6234,12438 C 5901,12473 5566,12473 5233,12438 L 5192,11533 4302,11294 3813,12057 C 3508,11922 3217,11754 2947,11557 L 3363,10752 2712,10101 1907,10517 C 1710,10247 1543,9957 1407,9651 L 2170,9162 1932,8273 1026,8231 C 992,7899 992,7563 1026,7231 L 1932,7189 2170,6300 1407,5811 C 1543,5505 1710,5215 1907,4944 L 2712,5360 Z"/>
        </g>
       </g>
       <g class="com.sun.star.drawing.ClosedBezierShape">
        <g id="id4">
         <rect class="BoundingBox" stroke="none" fill="none" x="2577" y="4575" width="6314" height="6313"/>
         <path fill="rgb(66,66,66)" stroke="none" d="M 8274,7050 C 8155,6604 7920,6198 7593,5871 7267,5545 6860,5310 6414,5190 5968,5071 5499,5071 5053,5190 4607,5310 4200,5545 3874,5871 3548,6198 3313,6604 3193,7050 3074,7496 3074,7965 3193,8411 3313,8857 3548,9264 3874,9591 4200,9917 4607,10152 5053,10271 5499,10391 5968,10391 6414,10271 6860,10152 7267,9917 7593,9590 7920,9264 8155,8857 8274,8411 8393,7965 8393,7496 8274,7050 Z M 8782,6914 C 8925,7449 8925,8012 8782,8547 8639,9083 8357,9571 7965,9962 7573,10354 7085,10636 6550,10779 6015,10922 5452,10922 4917,10779 4382,10636 3894,10354 3502,9962 3110,9571 2829,9083 2685,8547 2542,8012 2542,7449 2685,6914 2829,6379 3110,5891 3502,5500 3894,5108 4382,4826 4917,4682 5452,4539 6015,4539 6550,4682 7085,4826 7573,5108 7965,5500 8357,5891 8639,6379 8782,6914 Z"/>
        </g>
       </g>
       <g class="com.sun.star.drawing.CustomShape">
        <g id="id5">
         <rect class="BoundingBox" stroke="none" fill="none" x="3594" y="8009" width="1862" height="1860"/>
         <path fill="rgb(66,66,66)" stroke="none" d="M 4710,9124 L 3967,9868 3594,9498 5081,8010 5454,8379 4710,9124 Z"/>
        </g>
       </g>
       <g class="com.sun.star.drawing.CustomShape">
        <g id="id6">
         <rect class="BoundingBox" stroke="none" fill="none" x="6011" y="8011" width="1862" height="1858"/>
         <path fill="rgb(66,66,66)" stroke="none" d="M 7128,8755 L 7872,9498 7499,9868 6012,8381 6385,8011 7128,8755 Z"/>
        </g>
       </g>
       <g class="com.sun.star.drawing.ClosedBezierShape">
        <g id="id7">
         <rect class="BoundingBox" stroke="none" fill="none" x="4681" y="6678" width="2106" height="2106"/>
         <path fill="rgb(66,66,66)" stroke="none" d="M 6242,7595 C 6218,7505 6171,7424 6106,7359 6040,7293 5959,7246 5870,7222 5781,7199 5687,7199 5598,7222 5508,7246 5427,7293 5362,7359 5296,7424 5249,7505 5225,7595 5202,7684 5202,7778 5225,7867 5249,7956 5296,8038 5362,8103 5427,8168 5508,8215 5598,8239 5687,8263 5781,8263 5870,8239 5959,8215 6040,8168 6106,8103 6171,8038 6218,7956 6242,7867 6266,7778 6266,7684 6242,7595 Z M 6750,7459 C 6798,7637 6798,7825 6750,8003 6702,8182 6608,8344 6477,8475 6347,8605 6184,8700 6006,8747 5827,8795 5640,8795 5461,8747 5283,8700 5120,8605 4990,8475 4859,8344 4765,8182 4717,8003 4670,7825 4670,7637 4717,7459 4765,7280 4859,7118 4990,6987 5120,6856 5283,6762 5461,6714 5640,6667 5827,6667 6006,6714 6184,6762 6347,6856 6478,6987 6608,7118 6702,7280 6750,7459 Z"/>
        </g>
       </g>
       <g class="com.sun.star.drawing.CustomShape">
        <g id="id8">
         <rect class="BoundingBox" stroke="none" fill="none" x="3502" y="5501" width="1861" height="1860"/>
         <path fill="rgb(66,66,66)" stroke="none" d="M 4618,6245 L 5361,6989 4990,7360 3503,5873 3874,5502 4618,6245 Z"/>
        </g>
       </g>
       <g class="com.sun.star.drawing.CustomShape">
        <g id="id9">
         <rect class="BoundingBox" stroke="none" fill="none" x="6104" y="5499" width="1862" height="1860"/>
         <path fill="rgb(66,66,66)" stroke="none" d="M 7220,6614 L 6477,7358 6104,6988 7591,5500 7964,5869 7220,6614 Z"/>
        </g>
       </g>
      </g>
      <g class="Group">
       <g class="com.sun.star.drawing.ClosedBezierShape">
        <g id="id10">
         <rect class="BoundingBox" stroke="none" fill="none" x="9177" y="6676" width="9681" height="9681"/>
         <path fill="rgb(117,117,117)" stroke="none" d="M 16435,9488 C 16078,9063 15617,8740 15096,8551 14576,8361 14015,8312 13469,8408 12924,8505 12413,8743 11989,9099 11564,9455 11241,9916 11052,10437 10862,10958 10813,11519 10909,12064 11005,12610 11244,13121 11600,13545 11956,13969 12417,14292 12938,14482 13459,14671 14019,14720 14565,14624 15111,14528 15621,14290 16046,13934 16470,13578 16793,13116 16983,12596 17172,12075 17221,11514 17125,10968 17029,10423 16791,9912 16435,9488 Z M 10277,10645 L 10592,9780 9874,9226 C 10036,8934 10229,8659 10448,8407 L 11214,8892 11919,8300 11574,7462 C 11861,7289 12164,7148 12481,7039 L 12901,7842 13808,7682 13928,6784 C 14263,6777 14597,6806 14926,6870 L 14888,7777 15753,8091 16307,7373 C 16600,7535 16875,7728 17126,7948 L 16641,8713 17233,9418 18072,9074 C 18244,9360 18386,9664 18494,9980 L 17692,10401 17851,11307 18750,11428 C 18756,11763 18727,12097 18663,12425 L 17757,12388 17442,13253 18159,13807 C 17998,14099 17806,14374 17586,14626 L 16820,14141 16115,14733 16460,15571 C 16173,15744 15869,15886 15553,15994 L 15133,15191 14226,15351 14105,16249 C 13771,16255 13436,16226 13108,16162 L 13145,15256 12281,14942 11727,15659 C 11434,15497 11159,15305 10908,15085 L 11393,14319 10801,13614 9962,13959 C 9790,13672 9648,13368 9540,13052 L 10342,12632 10183,11725 9285,11605 C 9278,11270 9307,10936 9372,10608 L 10277,10645 Z"/>
         <path fill="none" stroke="rgb(66,66,66)" stroke-width="212" stroke-linejoin="round" d="M 16435,9488 C 16078,9063 15617,8740 15096,8551 14576,8361 14015,8312 13469,8408 12924,8505 12413,8743 11989,9099 11564,9455 11241,9916 11052,10437 10862,10958 10813,11519 10909,12064 11005,12610 11244,13121 11600,13545 11956,13969 12417,14292 12938,14482 13459,14671 14019,14720 14565,14624 15111,14528 15621,14290 16046,13934 16470,13578 16793,13116 16983,12596 17172,12075 17221,11514 17125,10968 17029,10423 16791,9912 16435,9488 Z"/>
         <path fill="none" stroke="rgb(66,66,66)" stroke-width="212" stroke-linejoin="round" d="M 10277,10645 L 10592,9780 9874,9226 C 10036,8934 10229,8659 10448,8407 L 11214,8892 11919,8300 11574,7462 C 11861,7289 12164,7148 12481,7039 L 12901,7842 13808,7682 13928,6784 C 14263,6777 14597,6806 14926,6870 L 14888,7777 15753,8091 16307,7373 C 16600,7535 16875,7728 17126,7948 L 16641,8713 17233,9418 18072,9074 C 18244,9360 18386,9664 18494,9980 L 17692,10401 17851,11307 18750,11428 C 18756,11763 18727,12097 18663,12425 L 17757,12388 17442,13253 18159,13807 C 17998,14099 17806,14374 17586,14626 L 16820,14141 16115,14733 16460,15571 C 16173,15744 15869,15886 15553,15994 L 15133,15191 14226,15351 14105,16249 C 13771,16255 13436,16226 13108,16162 L 13145,15256 12281,14942 11727,15659 C 11434,15497 11159,15305 10908,15085 L 11393,14319 10801,13614 9962,13959 C 9790,13672 9648,13368 9540,13052 L 10342,12632 10183,11725 9285,11605 C 9278,11270 9307,10936 9372,10608 L 10277,10645 Z"/>
        </g>
       </g>
       <g class="com.sun.star.drawing.ClosedBezierShape">
        <g id="id11">
         <rect class="BoundingBox" stroke="none" fill="none" x="10861" y="8360" width="6314" height="6314"/>
         <path fill="rgb(66,66,66)" stroke="none" d="M 16032,9826 C 15735,9472 15350,9203 14917,9045 14483,8887 14015,8846 13560,8926 13106,9007 12680,9205 12327,9502 11973,9798 11704,10183 11546,10617 11388,11050 11347,11519 11427,11973 11508,12428 11706,12853 12002,13207 12299,13560 12684,13830 13118,13988 13551,14145 14019,14186 14474,14106 14929,14026 15354,13828 15708,13531 16061,13234 16331,12849 16489,12416 16646,11982 16687,11514 16607,11059 16527,10605 16329,10180 16032,9826 Z M 16435,9488 C 16791,9912 17029,10423 17125,10968 17221,11514 17172,12075 16983,12595 16793,13116 16470,13578 16046,13934 15621,14290 15111,14528 14565,14624 14020,14721 13458,14671 12938,14482 12417,14292 11956,13969 11600,13545 11244,13120 11006,12610 10909,12064 10813,11519 10862,10958 11052,10437 11241,9916 11564,9455 11989,9099 12413,8743 12924,8505 13469,8408 14015,8312 14576,8361 15097,8551 15617,8740 16079,9063 16435,9488 Z"/>
        </g>
       </g>
       <g class="com.sun.star.drawing.CustomShape">
        <g id="id12">
         <rect class="BoundingBox" stroke="none" fill="none" x="12825" y="12045" width="1214" height="2156"/>
         <path fill="rgb(66,66,66)" stroke="none" d="M 13679,13211 L 13319,14200 12825,14022 13544,12046 14038,12223 13679,13211 Z"/>
        </g>
       </g>
       <g class="com.sun.star.drawing.CustomShape">
        <g id="id13">
         <rect class="BoundingBox" stroke="none" fill="none" x="14542" y="11492" width="2163" height="1216"/>
         <path fill="rgb(66,66,66)" stroke="none" d="M 15714,11852 L 16703,12212 16521,12707 14543,11987 14725,11493 15714,11852 Z"/>
        </g>
       </g>
       <g class="com.sun.star.drawing.ClosedBezierShape">
        <g id="id14">
         <rect class="BoundingBox" stroke="none" fill="none" x="12964" y="10464" width="2107" height="2106"/>
         <path fill="rgb(66,66,66)" stroke="none" d="M 14420,11178 C 14361,11107 14284,11053 14197,11022 14110,10990 14017,10982 13926,10998 13835,11014 13750,11054 13679,11113 13608,11172 13554,11250 13523,11336 13491,11423 13483,11517 13499,11608 13515,11699 13555,11784 13614,11854 13673,11925 13750,11979 13837,12011 13924,12042 14018,12051 14109,12035 14200,12018 14285,11979 14355,11920 14426,11860 14480,11783 14512,11696 14543,11610 14552,11516 14535,11425 14519,11334 14480,11249 14420,11178 Z M 14823,10840 C 14942,10982 15021,11152 15053,11333 15086,11515 15069,11702 15006,11876 14943,12050 14835,12204 14693,12322 14552,12441 14382,12520 14200,12552 14018,12585 13831,12568 13658,12505 13484,12442 13330,12334 13211,12193 13093,12051 13013,11881 12981,11699 12949,11517 12965,11330 13028,11157 13092,10983 13199,10829 13341,10710 13483,10592 13652,10512 13834,10480 14016,10448 14203,10464 14377,10528 14551,10591 14705,10698 14823,10840 Z"/>
        </g>
       </g>
       <g class="com.sun.star.drawing.CustomShape">
        <g id="id15">
         <rect class="BoundingBox" stroke="none" fill="none" x="11209" y="10278" width="2160" height="1216"/>
         <path fill="rgb(66,66,66)" stroke="none" d="M 12379,10639 L 13368,10999 13188,11493 11210,10773 11390,10279 12379,10639 Z"/>
        </g>
       </g>
       <g class="com.sun.star.drawing.CustomShape">
        <g id="id16">
         <rect class="BoundingBox" stroke="none" fill="none" x="14040" y="8708" width="1212" height="2159"/>
         <path fill="rgb(66,66,66)" stroke="none" d="M 14892,9877 L 14533,10865 14040,10684 14758,8708 15251,8890 14892,9877 Z"/>
        </g>
       </g>
      </g>
     </g>
    </g>
   </g>
  </g>
 </g>
</svg>