<?xml version="1.0" encoding="UTF-8"?>
<!DOCTYPE svg PUBLIC "-//W3C//DTD SVG 1.1//EN" "http://www.w3.org/Graphics/SVG/1.1/DTD/svg11.dtd">
<svg version="1.2" width="200mm" height="200mm" viewBox="0 0 20000 20000" preserveAspectRatio="xMidYMid" fill-rule="evenodd" stroke-width="28.222" stroke-linejoin="round" xmlns="http://www.w3.org/2000/svg" xmlns:ooo="http://xml.openoffice.org/svg/export" xmlns:xlink="http://www.w3.org/1999/xlink" xmlns:presentation="http://sun.com/xmlns/staroffice/presentation" xmlns:smil="http://www.w3.org/2001/SMIL20/" xmlns:anim="urn:oasis:names:tc:opendocument:xmlns:animation:1.0" xml:space="preserve">
 <defs class="ClipPathGroup">
  <clipPath id="presentation_clip_path" clipPathUnits="userSpaceOnUse">
   <rect x="0" y="0" width="20000" height="20000"/>
  </clipPath>
  <clipPath id="presentation_clip_path_shrink" clipPathUnits="userSpaceOnUse">
   <rect x="20" y="20" width="19960" height="19960"/>
  </clipPath>
 </defs>
 <defs class="TextShapeIndex">
  <g ooo:slide="id1" ooo:id-list="id3 id4 id5 id6 id7 id8 id9 id10 id11 id12 id13 id14 id15 id16 id17 id18 id19 id20 id21 id22 id23 id24 id25 id26 id27 id28 id29 id30 id31 id32 id33 id34 id35 id36 id37 id38 id39 id40 id41 id42 id43 id44 id45 id46 id47 id48 id49 id50 id51 id52"/>
 </defs>
 <defs class="EmbeddedBulletChars">
  <g id="bullet-char-template-57356" transform="scale(0.00048828125,-0.00048828125)">
   <path d="M 580,1141 L 1163,571 580,0 -4,571 580,1141 Z"/>
  </g>
  <g id="bullet-char-template-57354" transform="scale(0.00048828125,-0.00048828125)">
   <path d="M 8,1128 L 1137,1128 1137,0 8,0 8,1128 Z"/>
  </g>
  <g id="bullet-char-template-10146" transform="scale(0.00048828125,-0.00048828125)">
   <path d="M 174,0 L 602,739 174,1481 1456,739 174,0 Z M 1358,739 L 309,1346 659,739 1358,739 Z"/>
  </g>
  <g id="bullet-char-template-10132" transform="scale(0.00048828125,-0.00048828125)">
   <path d="M 2015,739 L 1276,0 717,0 1260,543 174,543 174,936 1260,936 717,1481 1274,1481 2015,739 Z"/>
  </g>
  <g id="bullet-char-template-10007" transform="scale(0.00048828125,-0.00048828125)">
   <path d="M 0,-2 C -7,14 -16,27 -25,37 L 356,567 C 262,823 215,952 215,954 215,979 228,992 255,992 264,992 276,990 289,987 310,991 331,999 354,1012 L 381,999 492,748 772,1049 836,1024 860,1049 C 881,1039 901,1025 922,1006 886,937 835,863 770,784 769,783 710,716 594,584 L 774,223 C 774,196 753,168 711,139 L 727,119 C 717,90 699,76 672,76 641,76 570,178 457,381 L 164,-76 C 142,-110 111,-127 72,-127 30,-127 9,-110 8,-76 1,-67 -2,-52 -2,-32 -2,-23 -1,-13 0,-2 Z"/>
  </g>
  <g id="bullet-char-template-10004" transform="scale(0.00048828125,-0.00048828125)">
   <path d="M 285,-33 C 182,-33 111,30 74,156 52,228 41,333 41,471 41,549 55,616 82,672 116,743 169,778 240,778 293,778 328,747 346,684 L 369,508 C 377,444 397,411 428,410 L 1163,1116 C 1174,1127 1196,1133 1229,1133 1271,1133 1292,1118 1292,1087 L 1292,965 C 1292,929 1282,901 1262,881 L 442,47 C 390,-6 338,-33 285,-33 Z"/>
  </g>
  <g id="bullet-char-template-9679" transform="scale(0.00048828125,-0.00048828125)">
   <path d="M 813,0 C 632,0 489,54 383,161 276,268 223,411 223,592 223,773 276,916 383,1023 489,1130 632,1184 813,1184 992,1184 1136,1130 1245,1023 1353,916 1407,772 1407,592 1407,412 1353,268 1245,161 1136,54 992,0 813,0 Z"/>
  </g>
  <g id="bullet-char-template-8226" transform="scale(0.00048828125,-0.00048828125)">
   <path d="M 346,457 C 273,457 209,483 155,535 101,586 74,649 74,723 74,796 101,859 155,911 209,963 273,989 346,989 419,989 480,963 531,910 582,859 608,796 608,723 608,648 583,586 532,535 482,483 420,457 346,457 Z"/>
  </g>
  <g id="bullet-char-template-8211" transform="scale(0.00048828125,-0.00048828125)">
   <path d="M -4,459 L 1135,459 1135,606 -4,606 -4,459 Z"/>
  </g>
  <g id="bullet-char-template-61548" transform="scale(0.00048828125,-0.00048828125)">
   <path d="M 173,740 C 173,903 231,1043 346,1159 462,1274 601,1332 765,1332 928,1332 1067,1274 1183,1159 1299,1043 1357,903 1357,740 1357,577 1299,437 1183,322 1067,206 928,148 765,148 601,148 462,206 346,322 231,437 173,577 173,740 Z"/>
  </g>
 </defs>
 <g>
  <g id="id2" class="Master_Slide">
   <g id="bg-id2" class="Background"/>
   <g id="bo-id2" class="BackgroundObjects"/>
  </g>
 </g>
 <g class="SlideGroup">
  <g>
   <g id="container-id1">
    <g id="id1" class="Slide" clip-path="url(#presentation_clip_path)">
     <g class="Page">
      <g class="com.sun.star.drawing.PolyPolygonShape">
       <g id="id3">
        <rect class="BoundingBox" stroke="none" fill="none" x="1991" y="3990" width="16019" height="11020"/>
        <path fill="rgb(66,66,66)" stroke="none" d="M 2000,13250 L 2000,4000 18000,4000 18000,13250 10750,13250 10750,14250 12000,14250 12000,15000 8000,15000 8000,14250 9250,14250 9250,13250 2000,13250 Z"/>
        <path fill="none" stroke="rgb(33,33,33)" stroke-width="18" stroke-linejoin="round" d="M 2000,13250 L 2000,4000 18000,4000 18000,13250 10750,13250 10750,14250 12000,14250 12000,15000 8000,15000 8000,14250 9250,14250 9250,13250 2000,13250 Z"/>
       </g>
      </g>
      <g class="com.sun.star.drawing.CustomShape">
       <g id="id4">
        <rect class="BoundingBox" stroke="none" fill="none" x="2250" y="4250" width="15501" height="8501"/>
        <path fill="rgb(144,202,249)" stroke="none" d="M 10000,12750 L 2250,12750 2250,4250 17750,4250 17750,12750 10000,12750 Z"/>
       </g>
      </g>
      <g class="com.sun.star.drawing.CustomShape">
       <g id="id5">
        <rect class="BoundingBox" stroke="none" fill="none" x="2250" y="12250" width="15501" height="501"/>
        <path fill="rgb(144,164,174)" stroke="none" d="M 10000,12750 L 2250,12750 2250,12250 17750,12250 17750,12750 10000,12750 Z"/>
       </g>
      </g>
      <g class="Group">
       <g class="com.sun.star.drawing.CustomShape">
        <g id="id6">
         <rect class="BoundingBox" stroke="none" fill="none" x="2397" y="12503" width="116" height="116"/>
         <path fill="rgb(250,250,250)" stroke="none" d="M 2455,12618 L 2397,12618 2397,12503 2512,12503 2512,12618 2455,12618 Z"/>
        </g>
       </g>
       <g class="com.sun.star.drawing.CustomShape">
        <g id="id7">
         <rect class="BoundingBox" stroke="none" fill="none" x="2532" y="12503" width="116" height="116"/>
         <path fill="rgb(250,250,250)" stroke="none" d="M 2590,12618 L 2532,12618 2532,12503 2647,12503 2647,12618 2590,12618 Z"/>
        </g>
       </g>
       <g class="com.sun.star.drawing.CustomShape">
        <g id="id8">
         <rect class="BoundingBox" stroke="none" fill="none" x="2397" y="12368" width="116" height="116"/>
         <path fill="rgb(250,250,250)" stroke="none" d="M 2455,12483 L 2397,12483 2397,12368 2512,12368 2512,12483 2455,12483 Z"/>
        </g>
       </g>
       <g class="com.sun.star.drawing.CustomShape">
        <g id="id9">
         <rect class="BoundingBox" stroke="none" fill="none" x="2532" y="12368" width="116" height="116"/>
         <path fill="rgb(250,250,250)" stroke="none" d="M 2590,12483 L 2532,12483 2532,12368 2647,12368 2647,12483 2590,12483 Z"/>
        </g>
       </g>
      </g>
      <g class="com.sun.star.drawing.CustomShape">
       <g id="id10">
        <rect class="BoundingBox" stroke="none" fill="none" x="2914" y="12353" width="2298" height="266"/>
        <path fill="rgb(250,250,250)" stroke="none" d="M 4063,12609 L 2923,12609 2923,12362 5202,12362 5202,12609 4063,12609 Z"/>
        <path fill="none" stroke="rgb(117,117,117)" stroke-width="18" stroke-linejoin="round" d="M 4063,12609 L 2923,12609 2923,12362 5202,12362 5202,12609 4063,12609 Z"/>
       </g>
      </g>
      <g class="com.sun.star.drawing.ClosedBezierShape">
       <g id="id11">
        <rect class="BoundingBox" stroke="none" fill="none" x="2994" y="12420" width="132" height="134"/>
        <path fill="rgb(117,117,117)" stroke="none" d="M 3123,12479 C 3122,12483 3121,12487 3119,12490 3117,12494 3114,12497 3111,12500 3108,12503 3105,12505 3102,12507 3098,12509 3094,12511 3090,12512 3087,12513 3083,12514 3078,12514 3074,12514 3070,12513 3066,12512 3063,12511 3059,12509 3055,12507 3054,12507 3053,12506 3051,12505 L 3004,12551 C 3003,12551 3002,12552 3001,12552 3000,12552 2999,12552 2998,12552 2997,12552 2996,12551 2996,12550 2995,12550 2995,12549 2994,12548 2994,12547 2994,12546 2994,12545 2995,12544 2995,12543 2996,12542 L 3043,12497 C 3041,12495 3040,12493 3038,12490 3036,12487 3035,12483 3034,12479 3033,12475 3032,12471 3032,12467 3032,12463 3033,12459 3034,12455 3035,12451 3036,12448 3038,12444 3040,12440 3043,12437 3046,12434 3049,12432 3052,12429 3055,12427 3059,12425 3063,12423 3066,12422 3070,12421 3074,12421 3078,12421 3083,12421 3087,12421 3090,12422 3094,12423 3098,12425 3102,12427 3105,12429 3108,12432 3111,12434 3114,12437 3117,12440 3119,12444 3121,12448 3122,12451 3123,12455 3124,12459 3125,12463 3125,12467 3125,12471 3124,12475 3123,12479 Z M 3103,12442 C 3101,12440 3099,12438 3096,12437 3093,12435 3090,12434 3088,12433 3085,12433 3082,12432 3078,12432 3075,12432 3072,12433 3069,12433 3066,12434 3064,12435 3061,12437 3058,12438 3056,12440 3054,12442 3052,12445 3050,12447 3048,12450 3047,12452 3045,12455 3045,12458 3044,12461 3043,12464 3043,12467 3043,12470 3044,12473 3045,12476 3045,12479 3047,12482 3048,12485 3050,12487 3052,12490 3054,12492 3056,12494 3058,12496 3061,12498 3064,12499 3066,12500 3069,12501 3072,12502 3075,12502 3078,12502 3082,12502 3085,12502 3088,12501 3090,12500 3093,12499 3096,12498 3099,12496 3101,12494 3103,12492 3105,12490 3107,12487 3109,12485 3110,12482 3111,12479 3112,12476 3113,12473 3113,12470 3113,12467 3113,12464 3113,12461 3112,12458 3111,12455 3110,12452 3109,12450 3107,12447 3105,12445 3103,12442 Z"/>
       </g>
      </g>
      <g class="Group">
       <g class="com.sun.star.drawing.ClosedBezierShape">
        <g id="id12">
         <rect class="BoundingBox" stroke="none" fill="none" x="16523" y="12329" width="108" height="163"/>
         <path fill="rgb(250,250,250)" stroke="none" d="M 16630,12346 C 16613,12371 16602,12391 16595,12405 16588,12419 16583,12433 16580,12447 16576,12461 16574,12475 16574,12490 L 16553,12490 C 16553,12470 16557,12448 16566,12425 16575,12402 16589,12376 16610,12346 L 16523,12346 16523,12329 16630,12329 16630,12346 Z"/>
        </g>
       </g>
       <g class="com.sun.star.drawing.ClosedBezierShape">
        <g id="id13">
         <rect class="BoundingBox" stroke="none" fill="none" x="16662" y="12366" width="25" height="126"/>
         <path fill="rgb(250,250,250)" stroke="none" d="M 16663,12390 C 16663,12382 16663,12374 16663,12366 16670,12366 16678,12366 16685,12366 16685,12374 16685,12382 16685,12390 16678,12390 16670,12390 16663,12390 Z M 16663,12490 C 16663,12482 16663,12474 16663,12466 16670,12466 16678,12466 16685,12466 16685,12474 16685,12482 16685,12490 16678,12490 16670,12490 16663,12490 Z"/>
        </g>
       </g>
       <g class="com.sun.star.drawing.ClosedBezierShape">
        <g id="id14">
         <rect class="BoundingBox" stroke="none" fill="none" x="16713" y="12329" width="120" height="163"/>
         <path fill="rgb(250,250,250)" stroke="none" d="M 16809,12454 L 16809,12490 16790,12490 16790,12454 16713,12454 16713,12438 16787,12329 16809,12329 16809,12438 16832,12438 16832,12454 16809,12454 Z M 16790,12352 C 16789,12353 16788,12355 16786,12358 16784,12362 16783,12364 16782,12366 L 16741,12427 16734,12436 16732,12438 16790,12438 16790,12352 Z"/>
        </g>
       </g>
       <g class="com.sun.star.drawing.ClosedBezierShape">
        <g id="id15">
         <rect class="BoundingBox" stroke="none" fill="none" x="16847" y="12329" width="114" height="165"/>
         <path fill="rgb(250,250,250)" stroke="none" d="M 16959,12438 C 16959,12455 16954,12468 16944,12478 16934,12488 16920,12493 16902,12493 16887,12493 16875,12489 16865,12483 16856,12476 16850,12467 16848,12454 L 16869,12452 C 16873,12468 16884,12476 16902,12476 16913,12476 16922,12473 16928,12466 16935,12459 16938,12450 16938,12438 16938,12428 16935,12420 16928,12413 16922,12407 16913,12404 16903,12404 16897,12404 16892,12405 16887,12406 16882,12408 16878,12411 16873,12415 L 16853,12415 16858,12329 16950,12329 16950,12346 16877,12346 16874,12397 C 16883,12391 16894,12387 16907,12387 16923,12387 16936,12392 16945,12401 16954,12411 16959,12423 16959,12438 Z"/>
        </g>
       </g>
       <g class="com.sun.star.drawing.ClosedBezierShape">
        <g id="id16">
         <rect class="BoundingBox" stroke="none" fill="none" x="16458" y="12577" width="120" height="123"/>
         <path fill="rgb(250,250,250)" stroke="none" d="M 16562,12699 L 16562,12618 C 16562,12609 16562,12600 16562,12592 16560,12602 16557,12610 16555,12616 L 16523,12699 16512,12699 16480,12616 16475,12601 16472,12592 16473,12602 16473,12618 16473,12699 16458,12699 16458,12577 16480,12577 16512,12662 C 16513,12665 16515,12669 16516,12672 16517,12676 16517,12679 16518,12681 16518,12679 16519,12675 16521,12670 16522,12666 16523,12663 16524,12662 L 16555,12577 16576,12577 16576,12699 16562,12699 Z"/>
        </g>
       </g>
       <g class="com.sun.star.drawing.ClosedBezierShape">
        <g id="id17">
         <rect class="BoundingBox" stroke="none" fill="none" x="16599" y="12604" width="85" height="98"/>
         <path fill="rgb(250,250,250)" stroke="none" d="M 16682,12652 C 16682,12668 16679,12681 16672,12688 16664,12696 16654,12700 16640,12700 16627,12700 16617,12696 16610,12688 16603,12680 16599,12668 16599,12652 16599,12620 16613,12604 16641,12604 16655,12604 16666,12608 16672,12616 16679,12624 16682,12636 16682,12652 Z M 16666,12652 C 16666,12639 16664,12630 16660,12624 16657,12619 16650,12616 16641,12616 16632,12616 16626,12619 16622,12624 16617,12630 16615,12640 16615,12652 16615,12664 16617,12673 16621,12680 16625,12686 16632,12689 16640,12689 16650,12689 16656,12686 16660,12680 16664,12674 16666,12665 16666,12652 Z"/>
        </g>
       </g>
       <g class="com.sun.star.drawing.ClosedBezierShape">
        <g id="id18">
         <rect class="BoundingBox" stroke="none" fill="none" x="16701" y="12604" width="77" height="96"/>
         <path fill="rgb(250,250,250)" stroke="none" d="M 16761,12699 L 16761,12640 C 16761,12633 16760,12629 16759,12625 16758,12622 16756,12619 16753,12618 16751,12616 16747,12616 16742,12616 16734,12616 16728,12618 16724,12623 16720,12628 16718,12636 16718,12645 L 16718,12699 16702,12699 16702,12626 C 16702,12615 16702,12608 16702,12606 L 16716,12606 C 16716,12606 16716,12607 16716,12608 16716,12609 16716,12611 16717,12612 16717,12614 16717,12617 16717,12622 L 16717,12622 C 16721,12615 16725,12611 16729,12608 16734,12605 16740,12604 16747,12604 16757,12604 16765,12607 16769,12612 16774,12617 16776,12625 16776,12637 L 16776,12699 16761,12699 Z"/>
        </g>
       </g>
       <g class="com.sun.star.drawing.ClosedBezierShape">
        <g id="id19">
         <rect class="BoundingBox" stroke="none" fill="none" x="16791" y="12584" width="47" height="118"/>
         <path fill="rgb(250,250,250)" stroke="none" d="M 16836,12698 C 16831,12700 16826,12700 16821,12700 16808,12700 16802,12693 16802,12679 L 16802,12617 16791,12617 16791,12606 16803,12606 16807,12585 16818,12585 16818,12606 16835,12606 16835,12617 16818,12617 16818,12676 C 16818,12680 16818,12683 16820,12685 16821,12687 16824,12688 16827,12688 16830,12688 16833,12688 16836,12687 L 16836,12698 Z"/>
        </g>
       </g>
       <g class="com.sun.star.drawing.ClosedBezierShape">
        <g id="id20">
         <rect class="BoundingBox" stroke="none" fill="none" x="16845" y="12604" width="92" height="98"/>
         <path fill="rgb(250,250,250)" stroke="none" d="M 16873,12700 C 16864,12700 16857,12698 16852,12693 16848,12688 16845,12681 16845,12673 16845,12663 16848,12656 16855,12651 16861,12646 16871,12643 16885,12643 L 16906,12642 16906,12637 C 16906,12629 16905,12624 16902,12621 16898,12617 16893,12616 16886,12616 16879,12616 16874,12617 16871,12619 16868,12622 16866,12625 16866,12631 L 16849,12629 C 16852,12612 16864,12604 16887,12604 16898,12604 16907,12607 16913,12612 16919,12617 16922,12625 16922,12635 L 16922,12675 C 16922,12680 16923,12683 16924,12685 16925,12688 16927,12689 16931,12689 16932,12689 16934,12689 16936,12688 L 16936,12698 C 16932,12699 16928,12700 16924,12700 16918,12700 16914,12698 16911,12695 16909,12692 16907,12687 16907,12681 L 16906,12681 C 16902,12688 16898,12693 16893,12696 16887,12699 16881,12700 16873,12700 Z M 16877,12689 C 16883,12689 16888,12687 16892,12685 16896,12682 16900,12679 16902,12674 16905,12670 16906,12665 16906,12661 L 16906,12653 16889,12653 C 16882,12653 16877,12654 16873,12656 16869,12657 16866,12659 16864,12662 16862,12665 16861,12668 16861,12673 16861,12678 16862,12682 16865,12685 16868,12687 16872,12689 16877,12689 Z"/>
        </g>
       </g>
       <g class="com.sun.star.drawing.ClosedBezierShape">
        <g id="id21">
         <rect class="BoundingBox" stroke="none" fill="none" x="16943" y="12604" width="82" height="133"/>
         <path fill="rgb(250,250,250)" stroke="none" d="M 16984,12735 C 16974,12735 16966,12733 16959,12729 16953,12725 16950,12720 16948,12712 L 16963,12710 C 16964,12714 16967,12718 16970,12720 16974,12722 16978,12724 16984,12724 17000,12724 17007,12715 17007,12697 L 17007,12682 17007,12682 C 17004,12688 17000,12692 16995,12695 16990,12698 16984,12700 16977,12700 16966,12700 16957,12696 16952,12688 16947,12681 16944,12669 16944,12652 16944,12636 16947,12624 16953,12616 16958,12608 16967,12604 16979,12604 16986,12604 16991,12606 16996,12609 17001,12612 17005,12616 17007,12621 L 17008,12621 C 17008,12620 17008,12617 17008,12613 17008,12608 17008,12606 17009,12606 L 17023,12606 C 17023,12609 17023,12615 17023,12625 L 17023,12696 C 17023,12722 17010,12735 16984,12735 Z M 17007,12652 C 17007,12645 17006,12638 17004,12633 17002,12627 16999,12623 16996,12620 16992,12617 16987,12616 16983,12616 16975,12616 16969,12619 16965,12624 16962,12630 16960,12639 16960,12652 16960,12665 16962,12674 16965,12680 16968,12685 16974,12688 16982,12688 16987,12688 16992,12687 16995,12684 16999,12681 17002,12677 17004,12671 17006,12666 17007,12660 17007,12652 Z"/>
        </g>
       </g>
      </g>
      <g class="com.sun.star.drawing.ClosedBezierShape">
       <g id="id22">
        <rect class="BoundingBox" stroke="none" fill="none" x="17253" y="12365" width="292" height="252"/>
        <path fill="rgb(250,250,250)" stroke="none" d="M 17253,12365 C 17253,12376 17253,12386 17253,12397 17253,12405 17253,12413 17253,12421 17253,12429 17253,12437 17253,12445 17253,12456 17253,12467 17253,12478 17253,12486 17253,12494 17253,12502 17253,12510 17253,12518 17253,12526 17253,12537 17253,12548 17253,12559 17269,12559 17285,12559 17301,12559 17312,12578 17323,12597 17334,12616 17347,12597 17360,12578 17374,12559 17390,12559 17406,12559 17422,12559 17434,12559 17447,12559 17459,12559 17471,12559 17483,12559 17495,12559 17511,12559 17527,12559 17543,12559 17543,12548 17543,12537 17543,12526 17543,12518 17543,12510 17543,12502 17543,12494 17543,12486 17543,12478 17543,12467 17543,12456 17543,12445 17543,12437 17543,12429 17543,12421 17543,12413 17543,12405 17543,12397 17543,12386 17543,12376 17543,12365 17527,12365 17511,12365 17495,12365 17483,12365 17471,12365 17459,12365 17447,12365 17434,12365 17422,12365 17406,12365 17390,12365 17374,12365 17361,12365 17349,12365 17337,12365 17325,12365 17313,12365 17301,12365 17285,12365 17269,12365 17253,12365 L 17253,12365 Z"/>
       </g>
      </g>
      <g class="com.sun.star.drawing.CustomShape">
       <g id="id23">
        <rect class="BoundingBox" stroke="none" fill="none" x="3982" y="14982" width="12037" height="2037"/>
        <path fill="rgb(66,66,66)" stroke="none" d="M 10000,17000 L 4000,17000 4000,15000 16000,15000 16000,17000 10000,17000 Z"/>
        <path fill="none" stroke="rgb(33,33,33)" stroke-width="35" stroke-linejoin="round" d="M 10000,17000 L 4000,17000 4000,15000 16000,15000 16000,17000 10000,17000 Z"/>
       </g>
      </g>
      <g class="Group">
       <g class="Group">
        <g class="com.sun.star.drawing.CustomShape">
         <g id="id24">
          <rect class="BoundingBox" stroke="none" fill="none" x="4500" y="16250" width="501" height="251"/>
          <path fill="rgb(117,117,117)" stroke="none" d="M 4750,16500 L 4500,16500 4500,16250 5000,16250 5000,16500 4750,16500 Z"/>
         </g>
        </g>
        <g class="com.sun.star.drawing.CustomShape">
         <g id="id25">
          <rect class="BoundingBox" stroke="none" fill="none" x="4500" y="16249" width="501" height="112"/>
          <path fill="rgb(189,189,189)" stroke="none" d="M 4750,16360 L 4500,16360 4500,16249 5000,16249 5000,16360 4750,16360 Z"/>
         </g>
        </g>
       </g>
       <g class="com.sun.star.drawing.CustomShape">
        <g id="id26">
         <rect class="BoundingBox" stroke="none" fill="none" x="4491" y="16241" width="519" height="269"/>
         <path fill="none" stroke="rgb(33,33,33)" stroke-width="18" stroke-linejoin="round" d="M 4750,16500 L 4500,16500 4500,16250 5000,16250 5000,16500 4750,16500 Z"/>
        </g>
       </g>
      </g>
      <g class="Group">
       <g class="Group">
        <g class="com.sun.star.drawing.CustomShape">
         <g id="id27">
          <rect class="BoundingBox" stroke="none" fill="none" x="5250" y="16250" width="501" height="251"/>
          <path fill="rgb(117,117,117)" stroke="none" d="M 5500,16500 L 5250,16500 5250,16250 5750,16250 5750,16500 5500,16500 Z"/>
         </g>
        </g>
        <g class="com.sun.star.drawing.CustomShape">
         <g id="id28">
          <rect class="BoundingBox" stroke="none" fill="none" x="5250" y="16249" width="501" height="112"/>
          <path fill="rgb(189,189,189)" stroke="none" d="M 5500,16360 L 5250,16360 5250,16249 5750,16249 5750,16360 5500,16360 Z"/>
         </g>
        </g>
       </g>
       <g class="com.sun.star.drawing.CustomShape">
        <g id="id29">
         <rect class="BoundingBox" stroke="none" fill="none" x="5241" y="16241" width="519" height="269"/>
         <path fill="none" stroke="rgb(33,33,33)" stroke-width="18" stroke-linejoin="round" d="M 5500,16500 L 5250,16500 5250,16250 5750,16250 5750,16500 5500,16500 Z"/>
        </g>
       </g>
      </g>
      <g class="Group">
       <g class="com.sun.star.drawing.CustomShape">
        <g id="id30">
         <rect class="BoundingBox" stroke="none" fill="none" x="6500" y="16250" width="501" height="251"/>
         <path fill="rgb(117,117,117)" stroke="none" d="M 6750,16500 L 6500,16500 6500,16250 7000,16250 7000,16500 6750,16500 Z"/>
        </g>
       </g>
       <g class="com.sun.star.drawing.CustomShape">
        <g id="id31">
         <rect class="BoundingBox" stroke="none" fill="none" x="6500" y="16249" width="501" height="112"/>
         <path fill="rgb(30,136,229)" stroke="none" d="M 6750,16360 L 6500,16360 6500,16249 7000,16249 7000,16360 6750,16360 Z"/>
        </g>
       </g>
       <g class="com.sun.star.drawing.CustomShape">
        <g id="id32">
         <rect class="BoundingBox" stroke="none" fill="none" x="6491" y="16241" width="519" height="269"/>
         <path fill="none" stroke="rgb(33,33,33)" stroke-width="18" stroke-linejoin="round" d="M 6750,16500 L 6500,16500 6500,16250 7000,16250 7000,16500 6750,16500 Z"/>
        </g>
       </g>
      </g>
      <g class="Group">
       <g class="com.sun.star.drawing.CustomShape">
        <g id="id33">
         <rect class="BoundingBox" stroke="none" fill="none" x="7250" y="16250" width="501" height="251"/>
         <path fill="rgb(117,117,117)" stroke="none" d="M 7500,16500 L 7250,16500 7250,16250 7750,16250 7750,16500 7500,16500 Z"/>
        </g>
       </g>
       <g class="com.sun.star.drawing.CustomShape">
        <g id="id34">
         <rect class="BoundingBox" stroke="none" fill="none" x="7250" y="16249" width="501" height="112"/>
         <path fill="rgb(30,136,229)" stroke="none" d="M 7500,16360 L 7250,16360 7250,16249 7750,16249 7750,16360 7500,16360 Z"/>
        </g>
       </g>
       <g class="com.sun.star.drawing.CustomShape">
        <g id="id35">
         <rect class="BoundingBox" stroke="none" fill="none" x="7241" y="16241" width="519" height="269"/>
         <path fill="none" stroke="rgb(33,33,33)" stroke-width="18" stroke-linejoin="round" d="M 7500,16500 L 7250,16500 7250,16250 7750,16250 7750,16500 7500,16500 Z"/>
        </g>
       </g>
      </g>
      <g class="Group">
       <g class="com.sun.star.drawing.CustomShape">
        <g id="id36">
         <rect class="BoundingBox" stroke="none" fill="none" x="15241" y="15241" width="519" height="519"/>
         <path fill="rgb(97,97,97)" stroke="none" d="M 15500,15750 L 15250,15750 15250,15250 15750,15250 15750,15750 15500,15750 Z"/>
         <path fill="none" stroke="rgb(33,33,33)" stroke-width="18" stroke-linejoin="round" d="M 15500,15750 L 15250,15750 15250,15250 15750,15250 15750,15750 15500,15750 Z"/>
        </g>
       </g>
       <g class="com.sun.star.drawing.CustomShape">
        <g id="id37">
         <rect class="BoundingBox" stroke="none" fill="none" x="15337" y="15353" width="336" height="317"/>
         <path fill="rgb(33,33,33)" stroke="none" d="M 15428,15353 L 15421,15357 15414,15362 15407,15366 15400,15371 15394,15377 15388,15382 15382,15388 15376,15394 15371,15401 15366,15408 15362,15415 15357,15422 15354,15429 15350,15437 15347,15445 15344,15453 15342,15461 15340,15469 15339,15477 15338,15485 15337,15493 15337,15502 15337,15510 15338,15518 15339,15527 15340,15535 15342,15543 15344,15551 15347,15559 15350,15567 15353,15574 15357,15582 15361,15589 15366,15596 15371,15603 15376,15609 15382,15616 15387,15621 15393,15627 15400,15633 15406,15638 15413,15642 15420,15647 15428,15651 15435,15654 15443,15657 15451,15660 15459,15663 15467,15665 15475,15666 15483,15668 15492,15669 15500,15669 15508,15669 15516,15669 15525,15668 15533,15666 15541,15665 15549,15663 15557,15660 15565,15657 15573,15654 15580,15651 15588,15647 15595,15642 15602,15638 15608,15633 15615,15627 15621,15621 15626,15616 15632,15609 15637,15603 15642,15596 15647,15589 15651,15582 15655,15574 15658,15567 15661,15559 15664,15551 15666,15543 15668,15535 15669,15527 15670,15518 15671,15510 15671,15502 15671,15493 15670,15485 15669,15477 15668,15469 15666,15461 15664,15453 15661,15445 15658,15437 15654,15429 15651,15422 15646,15415 15642,15408 15637,15401 15632,15394 15626,15388 15620,15382 15614,15377 15608,15371 15601,15366 15594,15362 15587,15357 15580,15353 15564,15385 15569,15388 15575,15392 15580,15395 15585,15399 15590,15404 15595,15408 15600,15413 15604,15418 15608,15423 15612,15428 15616,15434 15619,15439 15622,15445 15625,15451 15627,15457 15629,15463 15631,15469 15632,15476 15634,15482 15634,15489 15635,15495 15635,15502 15635,15508 15634,15515 15634,15521 15632,15528 15631,15534 15629,15540 15627,15547 15625,15553 15622,15559 15619,15565 15616,15570 15612,15576 15608,15581 15604,15586 15600,15591 15596,15596 15591,15600 15586,15604 15581,15608 15575,15612 15570,15615 15564,15619 15558,15621 15552,15624 15546,15626 15540,15628 15533,15630 15527,15631 15520,15632 15514,15633 15507,15633 15501,15633 15494,15633 15488,15632 15481,15631 15475,15630 15468,15628 15462,15626 15456,15624 15450,15621 15444,15619 15438,15615 15433,15612 15427,15608 15422,15604 15417,15600 15412,15596 15408,15591 15404,15586 15400,15581 15396,15576 15392,15570 15389,15565 15386,15559 15383,15553 15381,15547 15379,15540 15377,15534 15376,15528 15374,15521 15374,15515 15373,15508 15373,15502 15373,15495 15374,15489 15374,15482 15376,15476 15377,15469 15379,15463 15381,15457 15383,15451 15386,15445 15389,15439 15392,15434 15396,15428 15400,15423 15404,15418 15408,15413 15413,15408 15418,15404 15423,15399 15428,15395 15433,15392 15439,15388 15444,15385 15428,15353 Z"/>
        </g>
       </g>
       <g class="com.sun.star.drawing.LineShape">
        <g id="id38">
         <rect class="BoundingBox" stroke="none" fill="none" x="15484" y="15301" width="55" height="188"/>
         <path fill="none" stroke="rgb(33,33,33)" stroke-width="53" stroke-linejoin="round" stroke-linecap="round" d="M 15511,15461 L 15511,15328"/>
        </g>
       </g>
      </g>
      <g class="com.sun.star.drawing.CustomShape">
       <g id="id39">
        <rect class="BoundingBox" stroke="none" fill="none" x="3741" y="5991" width="6519" height="4019"/>
        <path fill="rgb(250,250,250)" stroke="none" d="M 7000,10000 L 3750,10000 3750,6000 10250,6000 10250,10000 7000,10000 Z"/>
        <path fill="none" stroke="rgb(33,33,33)" stroke-width="18" stroke-linejoin="round" d="M 7000,10000 L 3750,10000 3750,6000 10250,6000 10250,10000 7000,10000 Z"/>
       </g>
      </g>
      <g class="Graphic">
       <g id="id40">
        <rect class="BoundingBox" stroke="none" fill="none" x="4750" y="5750" width="4634" height="4634"/>
        <path fill="rgb(211,47,47)" stroke="none" d="M 5745,8420 C 5716,8313 5700,8203 5698,8091 L 6345,8091 C 6347,8303 6373,8511 6421,8700 6402,8705 6382,8711 6364,8716 6256,8747 6158,8785 6071,8828 6035,8846 6001,8865 5970,8885 5938,8842 5908,8797 5881,8750 5821,8646 5775,8536 5745,8420 L 5745,8420 5745,8420 Z"/>
        <path fill="rgb(183,28,28)" stroke="none" d="M 6099,9034 C 6064,8999 6031,8962 6000,8924 6029,8906 6060,8889 6093,8873 6177,8830 6273,8794 6377,8764 6396,8758 6414,8753 6433,8748 6435,8755 6437,8763 6439,8770 6470,8877 6508,8976 6552,9063 6596,9150 6645,9226 6700,9289 6746,9343 6795,9385 6845,9417 6800,9409 6756,9400 6712,9388 6597,9357 6486,9311 6382,9252 6278,9191 6183,9118 6099,9034 L 6099,9034 6099,9034 Z"/>
        <path fill="rgb(1,87,155)" stroke="none" d="M 7420,9388 C 7377,9400 7332,9409 7288,9417 7338,9385 7387,9343 7433,9289 7487,9226 7537,9150 7581,9063 7624,8976 7662,8877 7693,8770 7695,8763 7697,8755 7700,8748 7719,8753 7738,8758 7757,8764 7861,8794 7956,8830 8041,8873 8073,8889 8104,8906 8133,8923 8102,8962 8069,8999 8034,9034 7950,9118 7855,9191 7751,9252 7647,9311 7536,9357 7420,9388 L 7420,9388 7420,9388 Z"/>
        <path fill="rgb(2,136,209)" stroke="none" d="M 8252,8750 C 8225,8797 8195,8841 8163,8884 8132,8865 8098,8846 8063,8828 7976,8785 7878,8747 7770,8716 7751,8711 7732,8705 7712,8700 7760,8511 7786,8303 7788,8091 L 8435,8091 C 8433,8203 8417,8313 8388,8420 8358,8536 8312,8646 8252,8750 L 8252,8750 8252,8750 Z"/>
        <path fill="rgb(41,182,246)" stroke="none" d="M 8388,7712 C 8417,7819 8433,7930 8435,8042 L 7787,8042 C 7786,7829 7760,7621 7712,7432 7731,7427 7751,7422 7770,7416 7877,7385 7976,7347 8063,7304 8098,7286 8132,7268 8163,7248 8195,7291 8224,7336 8252,7382 8312,7486 8357,7597 8388,7712 L 8388,7712 8388,7712 Z"/>
        <path fill="rgb(129,212,250)" stroke="none" d="M 8034,7099 C 8069,7134 8102,7171 8133,7209 8104,7227 8073,7244 8041,7260 7956,7302 7860,7339 7756,7369 7737,7375 7718,7380 7699,7385 7697,7377 7695,7370 7693,7363 7662,7256 7624,7158 7581,7070 7537,6983 7487,6906 7433,6844 7386,6790 7337,6747 7286,6716 7332,6723 7376,6733 7420,6744 7536,6775 7646,6821 7750,6881 7854,6941 7950,7015 8034,7099 L 8034,7099 8034,7099 Z"/>
        <path fill="rgb(239,154,154)" stroke="none" d="M 6712,6744 C 6756,6733 6801,6723 6846,6716 6795,6747 6746,6790 6700,6844 6646,6906 6596,6983 6552,7070 6509,7158 6471,7256 6439,7363 6437,7370 6436,7377 6433,7385 6414,7380 6396,7374 6377,7369 6273,7339 6177,7302 6093,7260 6060,7244 6029,7227 6000,7209 6031,7170 6064,7134 6099,7099 6183,7015 6278,6941 6382,6881 6486,6821 6597,6775 6712,6744 L 6712,6744 6712,6744 Z"/>
        <path fill="rgb(239,83,80)" stroke="none" d="M 5881,7382 C 5908,7336 5938,7291 5970,7248 6001,7267 6035,7286 6071,7304 6158,7347 6256,7385 6363,7416 6382,7422 6402,7427 6421,7432 6373,7621 6347,7829 6345,8042 L 5698,8042 C 5700,7930 5716,7819 5745,7712 5775,7597 5821,7486 5881,7382 L 5881,7382 5881,7382 Z"/>
        <path fill="rgb(245,127,23)" stroke="none" d="M 6487,8756 C 6485,8749 6483,8743 6481,8736 6657,8695 6848,8673 7042,8671 L 7042,9434 C 7022,9433 7002,9429 6982,9424 6953,9416 6926,9405 6898,9391 6842,9360 6788,9316 6737,9257 6685,9197 6638,9124 6596,9041 6554,8956 6517,8861 6487,8756 L 6487,8756 6487,8756 Z"/>
        <path fill="rgb(255,238,88)" stroke="none" d="M 7042,7510 L 7042,8042 6395,8042 C 6396,7833 6422,7629 6469,7444 6648,7486 6843,7509 7042,7510 L 7042,7510 7042,7510 Z"/>
        <path fill="rgb(251,192,45)" stroke="none" d="M 6469,8689 C 6422,8503 6396,8299 6395,8091 L 7042,8091 7042,8622 C 6843,8624 6648,8646 6469,8689 L 6469,8689 6469,8689 Z"/>
        <path fill="rgb(255,245,157)" stroke="none" d="M 7042,6699 L 7042,7461 C 6847,7460 6657,7437 6481,7396 6483,7390 6485,7383 6487,7377 6517,7272 6554,7177 6596,7092 6638,7009 6685,6936 6737,6876 6788,6818 6842,6773 6898,6743 6925,6728 6953,6717 6982,6709 7002,6704 7022,6701 7042,6699 L 7042,6699 7042,6699 Z"/>
        <path fill="rgb(51,105,30)" stroke="none" d="M 7151,9424 C 7131,9429 7111,9432 7091,9434 L 7091,8671 C 7285,8673 7476,8695 7652,8736 7650,8743 7648,8749 7646,8756 7616,8860 7579,8956 7537,9040 7495,9124 7448,9197 7396,9257 7345,9315 7291,9360 7235,9390 7207,9405 7179,9416 7151,9424 L 7151,9424 7151,9424 Z"/>
        <path fill="rgb(156,204,101)" stroke="none" d="M 7664,7444 C 7711,7629 7736,7834 7738,8042 L 7091,8042 7091,7511 C 7289,7509 7485,7486 7664,7444 L 7664,7444 7664,7444 Z"/>
        <path fill="rgb(104,159,56)" stroke="none" d="M 7091,8622 L 7091,8091 7738,8091 C 7737,8299 7711,8503 7664,8688 7485,8646 7289,8624 7091,8622 L 7091,8622 7091,8622 Z"/>
        <path fill="rgb(197,225,165)" stroke="none" d="M 7646,7377 C 7648,7384 7650,7390 7652,7396 7476,7438 7285,7460 7091,7461 L 7091,6699 C 7111,6701 7131,6704 7151,6709 7179,6717 7207,6728 7235,6743 7291,6773 7345,6818 7396,6876 7448,6936 7495,7009 7537,7092 7579,7177 7616,7272 7646,7377 L 7646,7377 7646,7377 Z"/>
       </g>
      </g>
      <g class="com.sun.star.drawing.LineShape">
       <g id="id41">
        <rect class="BoundingBox" stroke="none" fill="none" x="3741" y="6241" width="6519" height="19"/>
        <path fill="none" stroke="rgb(33,33,33)" stroke-width="18" stroke-linejoin="round" d="M 3750,6250 L 10250,6250"/>
       </g>
      </g>
      <g class="Group">
       <g class="com.sun.star.drawing.LineShape">
        <g id="id42">
         <rect class="BoundingBox" stroke="none" fill="none" x="10021" y="6044" width="168" height="168"/>
         <path fill="none" stroke="rgb(117,117,117)" stroke-width="18" stroke-linejoin="round" d="M 10030,6053 L 10179,6202"/>
        </g>
       </g>
       <g class="com.sun.star.drawing.LineShape">
        <g id="id43">
         <rect class="BoundingBox" stroke="none" fill="none" x="10020" y="6044" width="169" height="168"/>
         <path fill="none" stroke="rgb(117,117,117)" stroke-width="18" stroke-linejoin="round" d="M 10179,6053 L 10030,6202"/>
        </g>
       </g>
      </g>
      <g class="com.sun.star.drawing.CustomShape">
       <g id="id44">
        <rect class="BoundingBox" stroke="none" fill="none" x="9742" y="6059" width="176" height="140"/>
        <path fill="none" stroke="rgb(117,117,117)" stroke-width="18" stroke-linejoin="round" d="M 9830,6189 L 9751,6189 9751,6068 9908,6068 9908,6189 9830,6189 Z"/>
       </g>
      </g>
      <g class="com.sun.star.drawing.LineShape">
       <g id="id45">
        <rect class="BoundingBox" stroke="none" fill="none" x="9421" y="6118" width="193" height="19"/>
        <path fill="none" stroke="rgb(117,117,117)" stroke-width="18" stroke-linejoin="round" stroke-linecap="round" d="M 9430,6127 L 9604,6127"/>
       </g>
      </g>
      <g class="Graphic">
       <g id="id46">
        <rect class="BoundingBox" stroke="none" fill="none" x="3751" y="6000" width="250" height="250"/>
        <path fill="rgb(211,47,47)" stroke="none" d="M 3804,6144 C 3803,6138 3802,6132 3802,6126 L 3837,6126 C 3837,6137 3838,6148 3841,6159 3840,6159 3839,6159 3838,6159 3832,6161 3827,6163 3822,6165 3820,6166 3818,6167 3817,6168 3815,6166 3813,6164 3812,6161 3809,6156 3806,6150 3804,6144 L 3804,6144 3804,6144 Z"/>
        <path fill="rgb(183,28,28)" stroke="none" d="M 3823,6176 C 3822,6175 3820,6173 3818,6171 3820,6170 3821,6169 3823,6168 3828,6166 3833,6164 3838,6162 3839,6162 3840,6161 3841,6161 3842,6162 3842,6162 3842,6162 3843,6168 3845,6173 3848,6178 3850,6183 3853,6187 3856,6190 3858,6193 3861,6195 3864,6197 3861,6197 3859,6196 3856,6196 3850,6194 3844,6191 3839,6188 3833,6185 3828,6181 3823,6176 L 3823,6176 3823,6176 Z"/>
        <path fill="rgb(1,87,155)" stroke="none" d="M 3895,6196 C 3892,6196 3890,6197 3887,6197 3890,6195 3893,6193 3895,6190 3898,6187 3901,6183 3903,6178 3905,6173 3908,6168 3909,6162 3909,6162 3909,6162 3910,6161 3911,6161 3912,6162 3913,6162 3918,6164 3923,6166 3928,6168 3930,6169 3931,6170 3933,6171 3931,6173 3929,6175 3928,6176 3923,6181 3918,6185 3912,6188 3907,6191 3901,6194 3895,6196 L 3895,6196 3895,6196 Z"/>
        <path fill="rgb(2,136,209)" stroke="none" d="M 3939,6161 C 3938,6164 3936,6166 3934,6168 3933,6167 3931,6166 3929,6165 3924,6163 3919,6161 3913,6159 3912,6159 3911,6159 3910,6159 3913,6148 3914,6137 3914,6126 L 3949,6126 C 3949,6132 3948,6138 3947,6144 3945,6150 3942,6156 3939,6161 L 3939,6161 3939,6161 Z"/>
        <path fill="rgb(41,182,246)" stroke="none" d="M 3947,6105 C 3948,6111 3949,6117 3949,6123 L 3914,6123 C 3914,6112 3913,6101 3910,6090 3911,6090 3912,6090 3913,6090 3919,6088 3924,6086 3929,6084 3931,6083 3933,6082 3934,6081 3936,6083 3938,6085 3939,6088 3942,6093 3945,6099 3947,6105 L 3947,6105 3947,6105 Z"/>
        <path fill="rgb(129,212,250)" stroke="none" d="M 3927,6072 C 3929,6074 3931,6076 3933,6078 3931,6079 3930,6080 3928,6081 3923,6083 3918,6085 3913,6087 3912,6087 3911,6088 3909,6088 3909,6087 3909,6087 3909,6087 3908,6081 3905,6076 3903,6071 3901,6066 3898,6062 3895,6059 3893,6056 3890,6054 3887,6052 3890,6052 3892,6053 3895,6053 3901,6055 3907,6058 3912,6061 3918,6064 3923,6068 3927,6072 L 3927,6072 3927,6072 Z"/>
        <path fill="rgb(239,154,154)" stroke="none" d="M 3856,6053 C 3859,6053 3861,6052 3864,6052 3861,6054 3858,6056 3856,6059 3853,6062 3850,6066 3848,6071 3846,6076 3843,6081 3842,6087 3842,6087 3842,6087 3841,6088 3840,6088 3839,6087 3838,6087 3833,6085 3828,6083 3823,6081 3821,6080 3820,6079 3818,6078 3820,6076 3822,6074 3823,6072 3828,6068 3833,6064 3839,6061 3844,6058 3850,6055 3856,6053 L 3856,6053 3856,6053 Z"/>
        <path fill="rgb(239,83,80)" stroke="none" d="M 3812,6088 C 3813,6085 3815,6083 3817,6081 3818,6082 3820,6083 3822,6084 3827,6086 3832,6088 3838,6090 3839,6090 3840,6090 3841,6090 3838,6101 3837,6112 3837,6123 L 3802,6123 C 3802,6117 3803,6111 3804,6105 3806,6099 3809,6093 3812,6088 L 3812,6088 3812,6088 Z"/>
        <path fill="rgb(245,127,23)" stroke="none" d="M 3844,6162 C 3844,6161 3844,6161 3844,6160 3853,6158 3864,6157 3874,6157 L 3874,6198 C 3873,6198 3872,6198 3871,6197 3869,6197 3868,6196 3866,6196 3863,6194 3861,6192 3858,6188 3855,6185 3852,6181 3850,6177 3848,6172 3846,6167 3844,6162 L 3844,6162 3844,6162 Z"/>
        <path fill="rgb(255,238,88)" stroke="none" d="M 3874,6095 L 3874,6123 3839,6123 C 3839,6112 3841,6101 3843,6091 3853,6093 3863,6095 3874,6095 L 3874,6095 3874,6095 Z"/>
        <path fill="rgb(251,192,45)" stroke="none" d="M 3843,6158 C 3841,6148 3839,6137 3839,6126 L 3874,6126 3874,6154 C 3863,6154 3853,6156 3843,6158 L 3843,6158 3843,6158 Z"/>
        <path fill="rgb(255,245,157)" stroke="none" d="M 3874,6051 L 3874,6092 C 3864,6092 3853,6091 3844,6088 3844,6088 3844,6088 3844,6087 3846,6082 3848,6077 3850,6072 3852,6068 3855,6064 3858,6061 3861,6057 3863,6055 3866,6053 3868,6053 3869,6052 3871,6052 3872,6051 3873,6051 3874,6051 L 3874,6051 3874,6051 Z"/>
        <path fill="rgb(51,105,30)" stroke="none" d="M 3880,6197 C 3879,6198 3878,6198 3877,6198 L 3877,6157 C 3887,6157 3898,6158 3907,6160 3907,6161 3907,6161 3907,6162 3905,6167 3903,6172 3901,6177 3899,6181 3896,6185 3893,6188 3890,6192 3888,6194 3885,6196 3883,6196 3882,6197 3880,6197 L 3880,6197 3880,6197 Z"/>
        <path fill="rgb(156,204,101)" stroke="none" d="M 3908,6091 C 3910,6101 3911,6112 3912,6123 L 3877,6123 3877,6095 C 3887,6095 3898,6093 3908,6091 L 3908,6091 3908,6091 Z"/>
        <path fill="rgb(104,159,56)" stroke="none" d="M 3877,6154 L 3877,6126 3912,6126 C 3912,6137 3910,6148 3908,6158 3898,6156 3887,6154 3877,6154 L 3877,6154 3877,6154 Z"/>
        <path fill="rgb(197,225,165)" stroke="none" d="M 3907,6087 C 3907,6088 3907,6088 3907,6088 3898,6091 3887,6092 3877,6092 L 3877,6051 C 3878,6051 3879,6051 3880,6052 3882,6052 3883,6053 3885,6053 3888,6055 3890,6057 3893,6061 3896,6064 3899,6068 3901,6072 3903,6077 3905,6082 3907,6087 L 3907,6087 3907,6087 Z"/>
       </g>
      </g>
      <g class="com.sun.star.drawing.CustomShape">
       <g id="id47">
        <rect class="BoundingBox" stroke="none" fill="none" x="5500" y="12250" width="501" height="501"/>
        <path fill="rgb(176,190,197)" stroke="none" d="M 5750,12750 L 5500,12750 5500,12250 6000,12250 6000,12750 5750,12750 Z"/>
       </g>
      </g>
      <g class="Graphic">
       <g id="id48">
        <rect class="BoundingBox" stroke="none" fill="none" x="5500" y="12250" width="501" height="501"/>
        <path fill="rgb(211,47,47)" stroke="none" d="M 5607,12538 C 5604,12527 5603,12515 5602,12503 L 5672,12503 C 5672,12526 5675,12548 5680,12568 5678,12569 5676,12570 5674,12570 5663,12573 5652,12578 5643,12582 5639,12584 5635,12586 5632,12588 5628,12584 5625,12579 5622,12574 5616,12563 5611,12551 5607,12538 L 5607,12538 5607,12538 Z"/>
        <path fill="rgb(183,28,28)" stroke="none" d="M 5646,12604 C 5642,12601 5638,12597 5635,12593 5638,12591 5641,12589 5645,12587 5654,12582 5664,12578 5676,12575 5678,12575 5680,12574 5682,12574 5682,12574 5682,12575 5682,12576 5686,12587 5690,12598 5694,12607 5699,12617 5705,12625 5710,12632 5715,12638 5721,12642 5726,12646 5721,12645 5716,12644 5712,12643 5699,12639 5687,12634 5676,12628 5665,12621 5655,12614 5646,12604 L 5646,12604 5646,12604 Z"/>
        <path fill="rgb(1,87,155)" stroke="none" d="M 5788,12643 C 5783,12644 5779,12645 5774,12646 5779,12642 5785,12638 5790,12632 5795,12625 5801,12617 5806,12607 5810,12598 5814,12587 5818,12576 5818,12575 5818,12574 5818,12574 5820,12574 5822,12575 5824,12575 5836,12578 5846,12582 5855,12587 5859,12589 5862,12591 5865,12592 5862,12597 5858,12601 5854,12604 5845,12614 5835,12621 5824,12628 5813,12634 5801,12639 5788,12643 L 5788,12643 5788,12643 Z"/>
        <path fill="rgb(2,136,209)" stroke="none" d="M 5878,12574 C 5875,12579 5872,12584 5868,12588 5865,12586 5861,12584 5858,12582 5848,12578 5838,12573 5826,12570 5824,12570 5822,12569 5820,12568 5825,12548 5828,12526 5828,12503 L 5898,12503 C 5897,12515 5896,12527 5893,12538 5889,12551 5884,12563 5878,12574 L 5878,12574 5878,12574 Z"/>
        <path fill="rgb(41,182,246)" stroke="none" d="M 5893,12462 C 5896,12473 5897,12485 5898,12497 L 5828,12497 C 5828,12474 5825,12452 5820,12432 5822,12431 5824,12430 5826,12430 5838,12426 5848,12422 5858,12418 5861,12416 5865,12414 5868,12412 5872,12416 5875,12421 5878,12426 5884,12437 5889,12449 5893,12462 L 5893,12462 5893,12462 Z"/>
        <path fill="rgb(129,212,250)" stroke="none" d="M 5854,12396 C 5858,12399 5862,12403 5865,12407 5862,12409 5859,12411 5855,12413 5846,12418 5836,12421 5824,12425 5822,12425 5820,12426 5818,12426 5818,12426 5818,12425 5818,12424 5814,12413 5810,12402 5806,12393 5801,12383 5795,12375 5790,12368 5785,12362 5779,12358 5774,12354 5779,12355 5783,12356 5788,12357 5801,12361 5813,12366 5824,12372 5835,12379 5845,12386 5854,12396 L 5854,12396 5854,12396 Z"/>
        <path fill="rgb(239,154,154)" stroke="none" d="M 5712,12357 C 5717,12356 5721,12355 5726,12354 5721,12358 5715,12362 5710,12368 5705,12375 5699,12383 5694,12393 5690,12402 5686,12413 5682,12424 5682,12425 5682,12426 5682,12426 5680,12426 5678,12425 5676,12425 5664,12421 5654,12418 5645,12413 5641,12411 5638,12409 5635,12407 5638,12403 5642,12399 5646,12396 5655,12386 5665,12379 5676,12372 5687,12366 5699,12361 5712,12357 L 5712,12357 5712,12357 Z"/>
        <path fill="rgb(239,83,80)" stroke="none" d="M 5622,12426 C 5625,12421 5628,12416 5632,12412 5635,12414 5639,12416 5643,12418 5652,12422 5663,12426 5674,12430 5676,12430 5678,12431 5680,12432 5675,12452 5672,12474 5672,12497 L 5602,12497 C 5603,12485 5604,12473 5607,12462 5611,12449 5616,12437 5622,12426 L 5622,12426 5622,12426 Z"/>
        <path fill="rgb(245,127,23)" stroke="none" d="M 5687,12574 C 5687,12574 5687,12573 5687,12572 5706,12568 5726,12565 5747,12565 L 5747,12648 C 5745,12647 5743,12647 5741,12646 5738,12646 5735,12644 5732,12643 5726,12640 5720,12635 5714,12628 5709,12622 5704,12614 5699,12605 5695,12596 5691,12586 5687,12574 L 5687,12574 5687,12574 Z"/>
        <path fill="rgb(255,238,88)" stroke="none" d="M 5747,12440 L 5747,12497 5677,12497 C 5678,12475 5680,12453 5685,12433 5705,12437 5726,12440 5747,12440 L 5747,12440 5747,12440 Z"/>
        <path fill="rgb(251,192,45)" stroke="none" d="M 5685,12567 C 5680,12547 5678,12525 5677,12503 L 5747,12503 5747,12560 C 5726,12560 5705,12563 5685,12567 L 5685,12567 5685,12567 Z"/>
        <path fill="rgb(255,245,157)" stroke="none" d="M 5747,12352 L 5747,12435 C 5726,12434 5706,12432 5687,12428 5687,12427 5687,12426 5687,12426 5691,12414 5695,12404 5699,12395 5704,12386 5709,12378 5714,12372 5720,12365 5726,12360 5732,12357 5735,12356 5738,12354 5741,12354 5743,12353 5745,12353 5747,12352 L 5747,12352 5747,12352 Z"/>
        <path fill="rgb(51,105,30)" stroke="none" d="M 5759,12646 C 5757,12647 5755,12647 5753,12648 L 5753,12565 C 5774,12565 5794,12568 5813,12572 5813,12573 5813,12574 5813,12574 5809,12586 5805,12596 5801,12605 5796,12614 5791,12622 5786,12628 5780,12635 5774,12640 5768,12643 5765,12644 5762,12646 5759,12646 L 5759,12646 5759,12646 Z"/>
        <path fill="rgb(156,204,101)" stroke="none" d="M 5814,12433 C 5820,12453 5822,12475 5823,12497 L 5753,12497 5753,12440 C 5774,12440 5795,12437 5814,12433 L 5814,12433 5814,12433 Z"/>
        <path fill="rgb(104,159,56)" stroke="none" d="M 5753,12560 L 5753,12503 5823,12503 C 5822,12525 5820,12547 5815,12567 5795,12563 5774,12560 5753,12560 L 5753,12560 5753,12560 Z"/>
        <path fill="rgb(197,225,165)" stroke="none" d="M 5813,12426 C 5813,12426 5813,12427 5813,12428 5794,12432 5774,12434 5753,12435 L 5753,12352 C 5755,12353 5757,12353 5759,12354 5762,12354 5765,12356 5768,12357 5774,12360 5780,12365 5786,12372 5791,12378 5796,12386 5801,12395 5805,12404 5809,12414 5813,12426 L 5813,12426 5813,12426 Z"/>
       </g>
      </g>
      <g class="com.sun.star.drawing.CustomShape">
       <g id="id49">
        <rect class="BoundingBox" stroke="none" fill="none" x="5500" y="12724" width="501" height="26"/>
        <path fill="rgb(207,216,220)" stroke="none" d="M 5750,12749 L 5500,12749 5500,12724 6000,12724 6000,12749 5750,12749 Z"/>
       </g>
      </g>
      <g class="com.sun.star.drawing.CustomShape">
       <g id="id50">
        <rect class="BoundingBox" stroke="none" fill="none" x="4491" y="15491" width="4769" height="269"/>
        <path fill="rgb(97,97,97)" stroke="none" d="M 6875,15750 L 4500,15750 4500,15500 9250,15500 9250,15750 6875,15750 Z"/>
        <path fill="none" stroke="rgb(33,33,33)" stroke-width="18" stroke-linejoin="round" d="M 6875,15750 L 4500,15750 4500,15500 9250,15500 9250,15750 6875,15750 Z"/>
       </g>
      </g>
      <g class="com.sun.star.drawing.CustomShape">
       <g id="id51">
        <rect class="BoundingBox" stroke="none" fill="none" x="8223" y="16223" width="306" height="306"/>
        <path fill="rgb(33,33,33)" stroke="none" d="M 8501,16376 C 8501,16398 8495,16419 8484,16438 8473,16457 8457,16473 8438,16484 8419,16495 8398,16501 8376,16501 8353,16501 8332,16495 8313,16484 8294,16473 8278,16457 8267,16438 8256,16419 8250,16398 8250,16376 8250,16353 8256,16332 8267,16313 8278,16294 8294,16278 8313,16267 8332,16256 8353,16250 8376,16250 8398,16250 8419,16256 8438,16267 8457,16278 8473,16294 8484,16313 8495,16332 8501,16353 8501,16376 L 8501,16376 Z"/>
        <path fill="none" stroke="rgb(102,187,106)" stroke-width="53" stroke-linejoin="round" d="M 8501,16376 C 8501,16398 8495,16419 8484,16438 8473,16457 8457,16473 8438,16484 8419,16495 8398,16501 8376,16501 8353,16501 8332,16495 8313,16484 8294,16473 8278,16457 8267,16438 8256,16419 8250,16398 8250,16376 8250,16353 8256,16332 8267,16313 8278,16294 8294,16278 8313,16267 8332,16256 8353,16250 8376,16250 8398,16250 8419,16256 8438,16267 8457,16278 8473,16294 8484,16313 8495,16332 8501,16353 8501,16376 Z"/>
       </g>
      </g>
      <g class="com.sun.star.drawing.CustomShape">
       <g id="id52">
        <rect class="BoundingBox" stroke="none" fill="none" x="8723" y="16223" width="306" height="306"/>
        <path fill="rgb(33,33,33)" stroke="none" d="M 9001,16376 C 9001,16398 8995,16419 8984,16438 8973,16457 8957,16473 8938,16484 8919,16495 8898,16501 8876,16501 8853,16501 8832,16495 8813,16484 8794,16473 8778,16457 8767,16438 8756,16419 8750,16398 8750,16376 8750,16353 8756,16332 8767,16313 8778,16294 8794,16278 8813,16267 8832,16256 8853,16250 8876,16250 8898,16250 8919,16256 8938,16267 8957,16278 8973,16294 8984,16313 8995,16332 9001,16353 9001,16376 L 9001,16376 Z"/>
        <path fill="none" stroke="rgb(236,64,122)" stroke-width="53" stroke-linejoin="round" d="M 9001,16376 C 9001,16398 8995,16419 8984,16438 8973,16457 8957,16473 8938,16484 8919,16495 8898,16501 8876,16501 8853,16501 8832,16495 8813,16484 8794,16473 8778,16457 8767,16438 8756,16419 8750,16398 8750,16376 8750,16353 8756,16332 8767,16313 8778,16294 8794,16278 8813,16267 8832,16256 8853,16250 8876,16250 8898,16250 8919,16256 8938,16267 8957,16278 8973,16294 8984,16313 8995,16332 9001,16353 9001,16376 Z"/>
       </g>
      </g>
     </g>
    </g>
   </g>
  </g>
 </g>
</svg>