<?xml version="1.0" encoding="UTF-8"?>
<!DOCTYPE svg PUBLIC "-//W3C//DTD SVG 1.1//EN" "http://www.w3.org/Graphics/SVG/1.1/DTD/svg11.dtd">
<svg version="1.2" width="200mm" height="200mm" viewBox="0 0 20000 20000" preserveAspectRatio="xMidYMid" fill-rule="evenodd" stroke-width="28.222" stroke-linejoin="round" xmlns="http://www.w3.org/2000/svg" xmlns:ooo="http://xml.openoffice.org/svg/export" xmlns:xlink="http://www.w3.org/1999/xlink" xmlns:presentation="http://sun.com/xmlns/staroffice/presentation" xmlns:smil="http://www.w3.org/2001/SMIL20/" xmlns:anim="urn:oasis:names:tc:opendocument:xmlns:animation:1.0" xml:space="preserve">
 <defs class="ClipPathGroup">
  <clipPath id="presentation_clip_path" clipPathUnits="userSpaceOnUse">
   <rect x="0" y="0" width="20000" height="20000"/>
  </clipPath>
  <clipPath id="presentation_clip_path_shrink" clipPathUnits="userSpaceOnUse">
   <rect x="20" y="20" width="19960" height="19960"/>
  </clipPath>
 </defs>
 <defs class="TextShapeIndex">
  <g ooo:slide="id1" ooo:id-list="id3"/>
 </defs>
 <defs class="EmbeddedBulletChars">
  <g id="bullet-char-template-57356" transform="scale(0.00048828125,-0.00048828125)">
   <path d="M 580,1141 L 1163,571 580,0 -4,571 580,1141 Z"/>
  </g>
  <g id="bullet-char-template-57354" transform="scale(0.00048828125,-0.00048828125)">
   <path d="M 8,1128 L 1137,1128 1137,0 8,0 8,1128 Z"/>
  </g>
  <g id="bullet-char-template-10146" transform="scale(0.00048828125,-0.00048828125)">
   <path d="M 174,0 L 602,739 174,1481 1456,739 174,0 Z M 1358,739 L 309,1346 659,739 1358,739 Z"/>
  </g>
  <g id="bullet-char-template-10132" transform="scale(0.00048828125,-0.00048828125)">
   <path d="M 2015,739 L 1276,0 717,0 1260,543 174,543 174,936 1260,936 717,1481 1274,1481 2015,739 Z"/>
  </g>
  <g id="bullet-char-template-10007" transform="scale(0.00048828125,-0.00048828125)">
   <path d="M 0,-2 C -7,14 -16,27 -25,37 L 356,567 C 262,823 215,952 215,954 215,979 228,992 255,992 264,992 276,990 289,987 310,991 331,999 354,1012 L 381,999 492,748 772,1049 836,1024 860,1049 C 881,1039 901,1025 922,1006 886,937 835,863 770,784 769,783 710,716 594,584 L 774,223 C 774,196 753,168 711,139 L 727,119 C 717,90 699,76 672,76 641,76 570,178 457,381 L 164,-76 C 142,-110 111,-127 72,-127 30,-127 9,-110 8,-76 1,-67 -2,-52 -2,-32 -2,-23 -1,-13 0,-2 Z"/>
  </g>
  <g id="bullet-char-template-10004" transform="scale(0.00048828125,-0.00048828125)">
   <path d="M 285,-33 C 182,-33 111,30 74,156 52,228 41,333 41,471 41,549 55,616 82,672 116,743 169,778 240,778 293,778 328,747 346,684 L 369,508 C 377,444 397,411 428,410 L 1163,1116 C 1174,1127 1196,1133 1229,1133 1271,1133 1292,1118 1292,1087 L 1292,965 C 1292,929 1282,901 1262,881 L 442,47 C 390,-6 338,-33 285,-33 Z"/>
  </g>
  <g id="bullet-char-template-9679" transform="scale(0.00048828125,-0.00048828125)">
   <path d="M 813,0 C 632,0 489,54 383,161 276,268 223,411 223,592 223,773 276,916 383,1023 489,1130 632,1184 813,1184 992,1184 1136,1130 1245,1023 1353,916 1407,772 1407,592 1407,412 1353,268 1245,161 1136,54 992,0 813,0 Z"/>
  </g>
  <g id="bullet-char-template-8226" transform="scale(0.00048828125,-0.00048828125)">
   <path d="M 346,457 C 273,457 209,483 155,535 101,586 74,649 74,723 74,796 101,859 155,911 209,963 273,989 346,989 419,989 480,963 531,910 582,859 608,796 608,723 608,648 583,586 532,535 482,483 420,457 346,457 Z"/>
  </g>
  <g id="bullet-char-template-8211" transform="scale(0.00048828125,-0.00048828125)">
   <path d="M -4,459 L 1135,459 1135,606 -4,606 -4,459 Z"/>
  </g>
  <g id="bullet-char-template-61548" transform="scale(0.00048828125,-0.00048828125)">
   <path d="M 173,740 C 173,903 231,1043 346,1159 462,1274 601,1332 765,1332 928,1332 1067,1274 1183,1159 1299,1043 1357,903 1357,740 1357,577 1299,437 1183,322 1067,206 928,148 765,148 601,148 462,206 346,322 231,437 173,577 173,740 Z"/>
  </g>
 </defs>
 <g>
  <g id="id2" class="Master_Slide">
   <g id="bg-id2" class="Background"/>
   <g id="bo-id2" class="BackgroundObjects"/>
  </g>
 </g>
 <g class="SlideGroup">
  <g>
   <g id="container-id1">
    <g id="id1" class="Slide" clip-path="url(#presentation_clip_path)">
     <g class="Page">
      <g class="com.sun.star.drawing.ClosedBezierShape">
       <g id="id3">
        <rect class="BoundingBox" stroke="none" fill="none" x="4250" y="3120" width="12251" height="13631"/>
        <g>
         <defs>
          <linearGradient id="gradient1" x1="5893" y1="2171" x2="14857" y2="17699" gradientUnits="userSpaceOnUse">
           <stop offset="0" style="stop-color:rgb(221,232,203)"/>
           <stop offset="1" style="stop-color:rgb(102,187,106)"/>
          </linearGradient>
         </defs>
         <path style="fill:url(#gradient1)" d="M 12438,15716 L 12122,15557 11796,15419 11462,15301 11121,15204 10774,15128 10423,15073 10067,15040 9709,15029 9375,15039 9044,15067 8716,15114 8392,15180 8072,15265 7759,15367 7453,15487 7154,15625 6789,15518 6700,15526 6611,15532 6566,15533 6522,15533 6478,15530 6434,15525 6293,15507 6223,15495 6189,15488 6155,15479 6122,15468 6090,15454 6059,15438 6029,15419 6001,15396 5974,15369 5948,15338 5925,15303 5859,15190 5798,15073 5770,15014 5745,14952 5722,14890 5703,14825 5682,14762 5657,14701 5602,14580 5575,14520 5553,14458 5544,14427 5536,14396 5530,14364 5527,14331 5523,14293 5515,14256 5505,14221 5493,14186 5478,14153 5462,14122 5443,14091 5423,14061 5378,14004 5329,13951 5277,13901 5225,13854 5195,13824 5171,13795 5154,13765 5148,13750 5143,13735 5139,13721 5137,13706 5136,13691 5136,13677 5140,13648 5148,13620 5160,13592 5175,13565 5194,13539 5215,13514 5239,13490 5264,13467 5292,13445 5320,13425 5370,13388 5404,13355 5416,13340 5425,13326 5430,13313 5432,13301 5432,13289 5429,13278 5423,13268 5416,13259 5406,13250 5394,13242 5366,13226 5332,13212 5294,13200 5213,13176 5133,13151 5097,13137 5066,13122 5022,13094 4988,13067 4961,13039 4951,13025 4942,13011 4935,12997 4929,12983 4925,12969 4923,12955 4921,12941 4921,12927 4924,12899 4931,12872 4940,12845 4952,12818 4965,12792 5017,12693 5143,12461 5156,12430 5167,12400 5176,12370 5181,12339 5182,12309 5180,12278 5173,12247 5161,12216 5152,12199 5142,12183 5132,12169 5120,12157 5108,12146 5095,12135 5067,12119 5037,12106 5005,12096 4971,12088 4936,12082 4794,12061 4760,12052 4728,12041 4697,12027 4668,12008 4639,11988 4607,11970 4537,11937 4463,11905 4391,11871 4359,11852 4329,11832 4302,11811 4291,11799 4281,11786 4272,11773 4264,11759 4258,11745 4254,11729 4251,11713 4250,11695 4251,11677 4254,11658 4262,11622 4274,11587 4287,11553 4303,11521 4322,11488 4341,11457 4386,11396 4434,11337 4485,11279 4588,11165 4684,11052 4776,10936 4820,10876 4862,10815 4901,10752 4938,10687 5177,10210 5192,10182 5210,10155 5250,10102 5337,9995 5376,9939 5393,9911 5407,9882 5419,9851 5428,9820 5434,9788 5435,9754 5392,9590 5355,9425 5323,9258 5297,9091 5277,8922 5263,8753 5254,8583 5251,8413 5263,8066 5299,7721 5359,7380 5443,7043 5549,6713 5679,6389 5831,6073 6005,5767 6200,5472 6415,5190 6648,4923 6899,4671 7167,4434 7450,4215 7749,4013 8063,3829 8389,3665 8724,3522 9068,3401 9419,3301 9777,3222 10140,3166 10506,3131 10876,3120 11245,3131 11611,3166 11974,3222 12331,3301 12683,3401 13027,3522 13362,3665 13688,3829 14002,4013 14301,4215 14585,4434 14853,4671 15103,4923 15337,5190 15551,5472 15746,5767 15920,6073 16072,6389 16202,6713 16308,7043 16392,7380 16451,7721 16488,8066 16500,8413 16488,8761 16451,9106 16392,9447 16308,9783 16202,10114 16072,10438 15920,10753 15746,11060 15668,11182 15588,11303 15504,11420 15417,11536 15221,11681 15034,11836 14855,12002 14686,12176 14527,12360 14377,12552 14238,12753 14110,12961 13972,13220 13851,13486 13748,13760 13664,14039 13598,14323 13550,14611 13521,14902 13512,15195 13516,15379 13527,15563 13546,15745 13572,15926 13606,16106 13647,16285 13695,16461 13751,16636 13789,16750 13641,16599 13486,16455 13325,16316 13159,16183 12987,16056 12809,15936 12626,15823 12438,15716 Z"/>
        </g>
       </g>
      </g>
     </g>
    </g>
   </g>
  </g>
 </g>
</svg>