<?xml version="1.0" encoding="UTF-8"?>
<!DOCTYPE svg PUBLIC "-//W3C//DTD SVG 1.1//EN" "http://www.w3.org/Graphics/SVG/1.1/DTD/svg11.dtd">
<svg version="1.2" width="200mm" height="200mm" viewBox="0 0 20000 20000" preserveAspectRatio="xMidYMid" fill-rule="evenodd" stroke-width="28.222" stroke-linejoin="round" xmlns="http://www.w3.org/2000/svg" xmlns:ooo="http://xml.openoffice.org/svg/export" xmlns:xlink="http://www.w3.org/1999/xlink" xmlns:presentation="http://sun.com/xmlns/staroffice/presentation" xmlns:smil="http://www.w3.org/2001/SMIL20/" xmlns:anim="urn:oasis:names:tc:opendocument:xmlns:animation:1.0" xml:space="preserve">
 <defs class="ClipPathGroup">
  <clipPath id="presentation_clip_path" clipPathUnits="userSpaceOnUse">
   <rect x="0" y="0" width="20000" height="20000"/>
  </clipPath>
  <clipPath id="presentation_clip_path_shrink" clipPathUnits="userSpaceOnUse">
   <rect x="20" y="20" width="19960" height="19960"/>
  </clipPath>
 </defs>
 <defs class="TextShapeIndex">
  <g ooo:slide="id1" ooo:id-list="id3 id4 id5 id6 id7 id8 id9 id10 id11"/>
 </defs>
 <defs class="EmbeddedBulletChars">
  <g id="bullet-char-template-57356" transform="scale(0.00048828125,-0.00048828125)">
   <path d="M 580,1141 L 1163,571 580,0 -4,571 580,1141 Z"/>
  </g>
  <g id="bullet-char-template-57354" transform="scale(0.00048828125,-0.00048828125)">
   <path d="M 8,1128 L 1137,1128 1137,0 8,0 8,1128 Z"/>
  </g>
  <g id="bullet-char-template-10146" transform="scale(0.00048828125,-0.00048828125)">
   <path d="M 174,0 L 602,739 174,1481 1456,739 174,0 Z M 1358,739 L 309,1346 659,739 1358,739 Z"/>
  </g>
  <g id="bullet-char-template-10132" transform="scale(0.00048828125,-0.00048828125)">
   <path d="M 2015,739 L 1276,0 717,0 1260,543 174,543 174,936 1260,936 717,1481 1274,1481 2015,739 Z"/>
  </g>
  <g id="bullet-char-template-10007" transform="scale(0.00048828125,-0.00048828125)">
   <path d="M 0,-2 C -7,14 -16,27 -25,37 L 356,567 C 262,823 215,952 215,954 215,979 228,992 255,992 264,992 276,990 289,987 310,991 331,999 354,1012 L 381,999 492,748 772,1049 836,1024 860,1049 C 881,1039 901,1025 922,1006 886,937 835,863 770,784 769,783 710,716 594,584 L 774,223 C 774,196 753,168 711,139 L 727,119 C 717,90 699,76 672,76 641,76 570,178 457,381 L 164,-76 C 142,-110 111,-127 72,-127 30,-127 9,-110 8,-76 1,-67 -2,-52 -2,-32 -2,-23 -1,-13 0,-2 Z"/>
  </g>
  <g id="bullet-char-template-10004" transform="scale(0.00048828125,-0.00048828125)">
   <path d="M 285,-33 C 182,-33 111,30 74,156 52,228 41,333 41,471 41,549 55,616 82,672 116,743 169,778 240,778 293,778 328,747 346,684 L 369,508 C 377,444 397,411 428,410 L 1163,1116 C 1174,1127 1196,1133 1229,1133 1271,1133 1292,1118 1292,1087 L 1292,965 C 1292,929 1282,901 1262,881 L 442,47 C 390,-6 338,-33 285,-33 Z"/>
  </g>
  <g id="bullet-char-template-9679" transform="scale(0.00048828125,-0.00048828125)">
   <path d="M 813,0 C 632,0 489,54 383,161 276,268 223,411 223,592 223,773 276,916 383,1023 489,1130 632,1184 813,1184 992,1184 1136,1130 1245,1023 1353,916 1407,772 1407,592 1407,412 1353,268 1245,161 1136,54 992,0 813,0 Z"/>
  </g>
  <g id="bullet-char-template-8226" transform="scale(0.00048828125,-0.00048828125)">
   <path d="M 346,457 C 273,457 209,483 155,535 101,586 74,649 74,723 74,796 101,859 155,911 209,963 273,989 346,989 419,989 480,963 531,910 582,859 608,796 608,723 608,648 583,586 532,535 482,483 420,457 346,457 Z"/>
  </g>
  <g id="bullet-char-template-8211" transform="scale(0.00048828125,-0.00048828125)">
   <path d="M -4,459 L 1135,459 1135,606 -4,606 -4,459 Z"/>
  </g>
  <g id="bullet-char-template-61548" transform="scale(0.00048828125,-0.00048828125)">
   <path d="M 173,740 C 173,903 231,1043 346,1159 462,1274 601,1332 765,1332 928,1332 1067,1274 1183,1159 1299,1043 1357,903 1357,740 1357,577 1299,437 1183,322 1067,206 928,148 765,148 601,148 462,206 346,322 231,437 173,577 173,740 Z"/>
  </g>
 </defs>
 <g>
  <g id="id2" class="Master_Slide">
   <g id="bg-id2" class="Background"/>
   <g id="bo-id2" class="BackgroundObjects"/>
  </g>
 </g>
 <g class="SlideGroup">
  <g>
   <g id="container-id1">
    <g id="id1" class="Slide" clip-path="url(#presentation_clip_path)">
     <g class="Page">
      <g class="Group">
       <g class="com.sun.star.drawing.PolyPolygonShape">
        <g id="id3">
         <rect class="BoundingBox" stroke="none" fill="none" x="3991" y="4991" width="12019" height="7371"/>
         <path fill="rgb(66,66,66)" stroke="none" d="M 4000,12352 L 4000,5102 9000,5102 9131,5000 10870,5000 11001,5102 16000,5102 16000,12352 4000,12352 Z"/>
         <path fill="none" stroke="rgb(33,33,33)" stroke-width="18" stroke-linejoin="round" d="M 4000,12352 L 4000,5102 9000,5102 9131,5000 10870,5000 11001,5102 16000,5102 16000,12352 4000,12352 Z"/>
        </g>
       </g>
       <g class="com.sun.star.drawing.CustomShape">
        <g id="id4">
         <rect class="BoundingBox" stroke="none" fill="none" x="4214" y="5328" width="11573" height="6524"/>
         <path fill="rgb(187,222,251)" stroke="none" d="M 10000,11851 L 4214,11851 4214,5328 15786,5328 15786,11851 10000,11851 Z"/>
        </g>
       </g>
       <g class="com.sun.star.drawing.CustomShape">
        <g id="id5">
         <rect class="BoundingBox" stroke="none" fill="none" x="2991" y="12592" width="14020" height="2270"/>
         <path fill="rgb(66,66,66)" stroke="none" d="M 3000,14852 L 17001,14852 15978,12601 4022,12601 3000,14852 Z"/>
         <path fill="none" stroke="rgb(33,33,33)" stroke-width="18" stroke-linejoin="round" d="M 3000,14852 L 17001,14852 15978,12601 4022,12601 3000,14852 Z"/>
        </g>
       </g>
       <g class="com.sun.star.drawing.PolyPolygonShape">
        <g id="id6">
         <rect class="BoundingBox" stroke="none" fill="none" x="8741" y="14132" width="2621" height="612"/>
         <path fill="rgb(117,117,117)" stroke="none" d="M 8750,14733 L 8831,14141 11270,14141 11351,14733 8750,14733 Z"/>
         <path fill="none" stroke="rgb(33,33,33)" stroke-width="18" stroke-linejoin="round" d="M 8750,14733 L 8831,14141 11270,14141 11351,14733 8750,14733 Z"/>
        </g>
       </g>
       <g class="com.sun.star.drawing.PolyPolygonShape">
        <g id="id7">
         <rect class="BoundingBox" stroke="none" fill="none" x="4490" y="12775" width="11020" height="1258"/>
         <path fill="rgb(97,97,97)" stroke="none" d="M 4500,14023 L 5020,12784 14980,12784 15500,14023 4500,14023 Z"/>
         <path fill="none" stroke="rgb(33,33,33)" stroke-width="18" stroke-linejoin="round" d="M 4500,14023 L 5020,12784 14980,12784 15500,14023 4500,14023 Z"/>
        </g>
       </g>
       <g class="com.sun.star.drawing.CustomShape">
        <g id="id8">
         <rect class="BoundingBox" stroke="none" fill="none" x="4241" y="12343" width="1769" height="269"/>
         <path fill="rgb(66,66,66)" stroke="none" d="M 5125,12602 L 4250,12602 4250,12352 6000,12352 6000,12602 5125,12602 Z"/>
         <path fill="none" stroke="rgb(33,33,33)" stroke-width="18" stroke-linejoin="round" d="M 5125,12602 L 4250,12602 4250,12352 6000,12352 6000,12602 5125,12602 Z"/>
        </g>
       </g>
       <g class="com.sun.star.drawing.CustomShape">
        <g id="id9">
         <rect class="BoundingBox" stroke="none" fill="none" x="13991" y="12343" width="1769" height="269"/>
         <path fill="rgb(66,66,66)" stroke="none" d="M 14875,12602 L 14000,12602 14000,12352 15750,12352 15750,12602 14875,12602 Z"/>
         <path fill="none" stroke="rgb(33,33,33)" stroke-width="18" stroke-linejoin="round" d="M 14875,12602 L 14000,12602 14000,12352 15750,12352 15750,12602 14875,12602 Z"/>
        </g>
       </g>
       <g class="com.sun.star.drawing.CustomShape">
        <g id="id10">
         <rect class="BoundingBox" stroke="none" fill="none" x="2991" y="14843" width="14020" height="270"/>
         <path fill="rgb(97,97,97)" stroke="none" d="M 3000,14852 L 17001,14852 16674,15103 3326,15103 3000,14852 Z"/>
         <path fill="none" stroke="rgb(33,33,33)" stroke-width="18" stroke-linejoin="round" d="M 3000,14852 L 17001,14852 16674,15103 3326,15103 3000,14852 Z"/>
        </g>
       </g>
       <g class="com.sun.star.drawing.CustomShape">
        <g id="id11">
         <rect class="BoundingBox" stroke="none" fill="none" x="9909" y="5064" width="184" height="184"/>
         <path fill="rgb(117,117,117)" stroke="none" d="M 10074,5156 C 10074,5168 10071,5181 10064,5192 10058,5203 10048,5213 10037,5219 10026,5226 10013,5229 10001,5229 9988,5229 9975,5226 9964,5219 9953,5213 9943,5203 9937,5192 9930,5181 9927,5168 9927,5156 9927,5143 9930,5130 9937,5119 9943,5108 9953,5098 9964,5092 9975,5085 9988,5082 10001,5082 10013,5082 10026,5085 10037,5092 10048,5098 10058,5108 10064,5119 10071,5130 10074,5143 10074,5156 L 10074,5156 Z"/>
         <path fill="none" stroke="rgb(33,33,33)" stroke-width="35" stroke-linejoin="round" d="M 10074,5156 C 10074,5168 10071,5181 10064,5192 10058,5203 10048,5213 10037,5219 10026,5226 10013,5229 10001,5229 9988,5229 9975,5226 9964,5219 9953,5213 9943,5203 9937,5192 9930,5181 9927,5168 9927,5156 9927,5143 9930,5130 9937,5119 9943,5108 9953,5098 9964,5092 9975,5085 9988,5082 10001,5082 10013,5082 10026,5085 10037,5092 10048,5098 10058,5108 10064,5119 10071,5130 10074,5143 10074,5156 Z"/>
        </g>
       </g>
      </g>
     </g>
    </g>
   </g>
  </g>
 </g>
</svg>