<?xml version="1.0" encoding="UTF-8"?>
<!DOCTYPE svg PUBLIC "-//W3C//DTD SVG 1.1//EN" "http://www.w3.org/Graphics/SVG/1.1/DTD/svg11.dtd">
<svg version="1.2" width="200mm" height="200mm" viewBox="0 0 20000 20000" preserveAspectRatio="xMidYMid" fill-rule="evenodd" stroke-width="28.222" stroke-linejoin="round" xmlns="http://www.w3.org/2000/svg" xmlns:ooo="http://xml.openoffice.org/svg/export" xmlns:xlink="http://www.w3.org/1999/xlink" xmlns:presentation="http://sun.com/xmlns/staroffice/presentation" xmlns:smil="http://www.w3.org/2001/SMIL20/" xmlns:anim="urn:oasis:names:tc:opendocument:xmlns:animation:1.0" xml:space="preserve">
 <defs class="ClipPathGroup">
  <clipPath id="presentation_clip_path" clipPathUnits="userSpaceOnUse">
   <rect x="0" y="0" width="20000" height="20000"/>
  </clipPath>
  <clipPath id="presentation_clip_path_shrink" clipPathUnits="userSpaceOnUse">
   <rect x="20" y="20" width="19960" height="19960"/>
  </clipPath>
 </defs>
 <defs class="TextShapeIndex">
  <g ooo:slide="id1" ooo:id-list="id3 id4 id5 id6 id7 id8 id9 id10 id11 id12"/>
 </defs>
 <defs class="EmbeddedBulletChars">
  <g id="bullet-char-template-57356" transform="scale(0.00048828125,-0.00048828125)">
   <path d="M 580,1141 L 1163,571 580,0 -4,571 580,1141 Z"/>
  </g>
  <g id="bullet-char-template-57354" transform="scale(0.00048828125,-0.00048828125)">
   <path d="M 8,1128 L 1137,1128 1137,0 8,0 8,1128 Z"/>
  </g>
  <g id="bullet-char-template-10146" transform="scale(0.00048828125,-0.00048828125)">
   <path d="M 174,0 L 602,739 174,1481 1456,739 174,0 Z M 1358,739 L 309,1346 659,739 1358,739 Z"/>
  </g>
  <g id="bullet-char-template-10132" transform="scale(0.00048828125,-0.00048828125)">
   <path d="M 2015,739 L 1276,0 717,0 1260,543 174,543 174,936 1260,936 717,1481 1274,1481 2015,739 Z"/>
  </g>
  <g id="bullet-char-template-10007" transform="scale(0.00048828125,-0.00048828125)">
   <path d="M 0,-2 C -7,14 -16,27 -25,37 L 356,567 C 262,823 215,952 215,954 215,979 228,992 255,992 264,992 276,990 289,987 310,991 331,999 354,1012 L 381,999 492,748 772,1049 836,1024 860,1049 C 881,1039 901,1025 922,1006 886,937 835,863 770,784 769,783 710,716 594,584 L 774,223 C 774,196 753,168 711,139 L 727,119 C 717,90 699,76 672,76 641,76 570,178 457,381 L 164,-76 C 142,-110 111,-127 72,-127 30,-127 9,-110 8,-76 1,-67 -2,-52 -2,-32 -2,-23 -1,-13 0,-2 Z"/>
  </g>
  <g id="bullet-char-template-10004" transform="scale(0.00048828125,-0.00048828125)">
   <path d="M 285,-33 C 182,-33 111,30 74,156 52,228 41,333 41,471 41,549 55,616 82,672 116,743 169,778 240,778 293,778 328,747 346,684 L 369,508 C 377,444 397,411 428,410 L 1163,1116 C 1174,1127 1196,1133 1229,1133 1271,1133 1292,1118 1292,1087 L 1292,965 C 1292,929 1282,901 1262,881 L 442,47 C 390,-6 338,-33 285,-33 Z"/>
  </g>
  <g id="bullet-char-template-9679" transform="scale(0.00048828125,-0.00048828125)">
   <path d="M 813,0 C 632,0 489,54 383,161 276,268 223,411 223,592 223,773 276,916 383,1023 489,1130 632,1184 813,1184 992,1184 1136,1130 1245,1023 1353,916 1407,772 1407,592 1407,412 1353,268 1245,161 1136,54 992,0 813,0 Z"/>
  </g>
  <g id="bullet-char-template-8226" transform="scale(0.00048828125,-0.00048828125)">
   <path d="M 346,457 C 273,457 209,483 155,535 101,586 74,649 74,723 74,796 101,859 155,911 209,963 273,989 346,989 419,989 480,963 531,910 582,859 608,796 608,723 608,648 583,586 532,535 482,483 420,457 346,457 Z"/>
  </g>
  <g id="bullet-char-template-8211" transform="scale(0.00048828125,-0.00048828125)">
   <path d="M -4,459 L 1135,459 1135,606 -4,606 -4,459 Z"/>
  </g>
  <g id="bullet-char-template-61548" transform="scale(0.00048828125,-0.00048828125)">
   <path d="M 173,740 C 173,903 231,1043 346,1159 462,1274 601,1332 765,1332 928,1332 1067,1274 1183,1159 1299,1043 1357,903 1357,740 1357,577 1299,437 1183,322 1067,206 928,148 765,148 601,148 462,206 346,322 231,437 173,577 173,740 Z"/>
  </g>
 </defs>
 <g>
  <g id="id2" class="Master_Slide">
   <g id="bg-id2" class="Background"/>
   <g id="bo-id2" class="BackgroundObjects"/>
  </g>
 </g>
 <g class="SlideGroup">
  <g>
   <g id="container-id1">
    <g id="id1" class="Slide" clip-path="url(#presentation_clip_path)">
     <g class="Page">
      <g class="Group">
       <g class="Group">
        <g class="com.sun.star.drawing.PolyPolygonShape">
         <g id="id3">
          <rect class="BoundingBox" stroke="none" fill="none" x="2306" y="4152" width="15389" height="10000"/>
          <path fill="rgb(66,66,66)" stroke="none" d="M 2316,14142 L 2316,4300 8720,4300 8887,4161 11115,4161 11282,4300 17685,4300 17685,14142 2316,14142 Z"/>
          <path fill="none" stroke="rgb(33,33,33)" stroke-width="18" stroke-linejoin="round" d="M 2316,14142 L 2316,4300 8720,4300 8887,4161 11115,4161 11282,4300 17685,4300 17685,14142 2316,14142 Z"/>
         </g>
        </g>
        <g class="com.sun.star.drawing.CustomShape">
         <g id="id4">
          <rect class="BoundingBox" stroke="none" fill="none" x="2589" y="4607" width="14822" height="8857"/>
          <path fill="rgb(250,250,250)" stroke="none" d="M 10000,13463 L 2589,13463 2589,4607 17410,4607 17410,13463 10000,13463 Z"/>
         </g>
        </g>
        <g class="com.sun.star.drawing.CustomShape">
         <g id="id5">
          <rect class="BoundingBox" stroke="none" fill="none" x="1025" y="14471" width="17951" height="3075"/>
          <path fill="rgb(66,66,66)" stroke="none" d="M 1034,17536 L 18966,17536 17657,14480 2342,14480 1034,17536 Z"/>
          <path fill="none" stroke="rgb(33,33,33)" stroke-width="18" stroke-linejoin="round" d="M 1034,17536 L 18966,17536 17657,14480 2342,14480 1034,17536 Z"/>
         </g>
        </g>
        <g class="com.sun.star.drawing.PolyPolygonShape">
         <g id="id6">
          <rect class="BoundingBox" stroke="none" fill="none" x="8390" y="16561" width="3351" height="824"/>
          <path fill="rgb(117,117,117)" stroke="none" d="M 8399,17374 L 8503,16570 11627,16570 11731,17374 8399,17374 Z"/>
          <path fill="none" stroke="rgb(33,33,33)" stroke-width="18" stroke-linejoin="round" d="M 8399,17374 L 8503,16570 11627,16570 11731,17374 8399,17374 Z"/>
         </g>
        </g>
        <g class="com.sun.star.drawing.PolyPolygonShape">
         <g id="id7">
          <rect class="BoundingBox" stroke="none" fill="none" x="2947" y="14719" width="14108" height="1702"/>
          <path fill="rgb(97,97,97)" stroke="none" d="M 2956,16410 L 3622,14728 16379,14728 17045,16410 2956,16410 Z"/>
          <path fill="none" stroke="rgb(33,33,33)" stroke-width="18" stroke-linejoin="round" d="M 2956,16410 L 3622,14728 16379,14728 17045,16410 2956,16410 Z"/>
         </g>
        </g>
        <g class="com.sun.star.drawing.CustomShape">
         <g id="id8">
          <rect class="BoundingBox" stroke="none" fill="none" x="2626" y="14132" width="2260" height="358"/>
          <path fill="rgb(66,66,66)" stroke="none" d="M 3756,14480 L 2635,14480 2635,14141 4876,14141 4876,14480 3756,14480 Z"/>
          <path fill="none" stroke="rgb(33,33,33)" stroke-width="18" stroke-linejoin="round" d="M 3756,14480 L 2635,14480 2635,14141 4876,14141 4876,14480 3756,14480 Z"/>
         </g>
        </g>
        <g class="com.sun.star.drawing.CustomShape">
         <g id="id9">
          <rect class="BoundingBox" stroke="none" fill="none" x="15114" y="14132" width="2260" height="358"/>
          <path fill="rgb(66,66,66)" stroke="none" d="M 16244,14480 L 15123,14480 15123,14141 17364,14141 17364,14480 16244,14480 Z"/>
          <path fill="none" stroke="rgb(33,33,33)" stroke-width="18" stroke-linejoin="round" d="M 16244,14480 L 15123,14480 15123,14141 17364,14141 17364,14480 16244,14480 Z"/>
         </g>
        </g>
        <g class="com.sun.star.drawing.CustomShape">
         <g id="id10">
          <rect class="BoundingBox" stroke="none" fill="none" x="1025" y="17526" width="17951" height="358"/>
          <path fill="rgb(97,97,97)" stroke="none" d="M 1034,17535 L 18966,17535 18548,17874 1451,17874 1034,17535 Z"/>
          <path fill="none" stroke="rgb(33,33,33)" stroke-width="18" stroke-linejoin="round" d="M 1034,17535 L 18966,17535 18548,17874 1451,17874 1034,17535 Z"/>
         </g>
        </g>
        <g class="com.sun.star.drawing.CustomShape">
         <g id="id11">
          <rect class="BoundingBox" stroke="none" fill="none" x="9888" y="4255" width="226" height="236"/>
          <path fill="rgb(117,117,117)" stroke="none" d="M 10095,4373 C 10095,4390 10091,4407 10082,4422 10074,4437 10062,4450 10048,4459 10033,4467 10017,4472 10001,4472 9984,4472 9968,4467 9953,4459 9939,4450 9927,4437 9919,4422 9910,4407 9906,4390 9906,4373 9906,4355 9910,4338 9919,4323 9927,4308 9939,4295 9953,4286 9968,4278 9984,4273 10001,4273 10017,4273 10033,4278 10048,4286 10062,4295 10074,4308 10082,4323 10091,4338 10095,4355 10095,4373 L 10095,4373 Z"/>
          <path fill="none" stroke="rgb(33,33,33)" stroke-width="35" stroke-linejoin="round" d="M 10095,4373 C 10095,4390 10091,4407 10082,4422 10074,4437 10062,4450 10048,4459 10033,4467 10017,4472 10001,4472 9984,4472 9968,4467 9953,4459 9939,4450 9927,4437 9919,4422 9910,4407 9906,4390 9906,4373 9906,4355 9910,4338 9919,4323 9927,4308 9939,4295 9953,4286 9968,4278 9984,4273 10001,4273 10017,4273 10033,4278 10048,4286 10062,4295 10074,4308 10082,4323 10091,4338 10095,4355 10095,4373 Z"/>
         </g>
        </g>
       </g>
       <g class="Graphic">
        <g id="id12">
         <rect class="BoundingBox" stroke="none" fill="none" x="3596" y="2125" width="12810" height="13576"/>
         <path fill="rgb(211,47,47)" stroke="none" d="M 6346,9949 C 6266,9635 6223,9311 6218,8983 L 8007,8983 C 8012,9605 8084,10216 8216,10770 8162,10784 8109,10801 8057,10816 7760,10907 7489,11018 7248,11145 7150,11197 7056,11253 6969,11310 6880,11184 6798,11053 6724,10916 6558,10612 6431,10287 6346,9949 L 6346,9949 6346,9949 Z"/>
         <path fill="rgb(183,28,28)" stroke="none" d="M 7325,11747 C 7229,11645 7138,11538 7052,11425 7133,11373 7218,11322 7309,11274 7542,11151 7806,11043 8094,10955 8146,10939 8198,10924 8250,10910 8255,10931 8261,10952 8267,10973 8352,11288 8457,11576 8578,11831 8699,12088 8836,12311 8986,12495 9114,12651 9249,12776 9389,12869 9265,12847 9142,12819 9021,12785 8703,12695 8396,12560 8108,12385 7821,12209 7558,11994 7325,11747 L 7325,11747 7325,11747 Z"/>
         <path fill="rgb(1,87,155)" stroke="none" d="M 10979,12785 C 10858,12819 10736,12847 10612,12869 10752,12776 10886,12651 11014,12495 11164,12311 11302,12088 11423,11831 11543,11576 11647,11288 11733,10973 11739,10952 11745,10931 11751,10909 11804,10923 11857,10939 11909,10955 12197,11043 12460,11151 12694,11274 12784,11322 12869,11372 12949,11423 12864,11537 12772,11645 12676,11747 12443,11994 12179,12209 11892,12385 11604,12560 11298,12695 10979,12785 L 10979,12785 10979,12785 Z"/>
         <path fill="rgb(2,136,209)" stroke="none" d="M 13277,10916 C 13203,11052 13122,11183 13033,11309 12946,11252 12853,11197 12756,11145 12515,11018 12243,10907 11946,10816 11893,10800 11840,10784 11785,10769 11917,10216 11989,9605 11994,8983 L 13783,8983 C 13778,9311 13734,9635 13655,9949 13570,10287 13443,10612 13277,10916 L 13277,10916 13277,10916 Z"/>
         <path fill="rgb(41,182,246)" stroke="none" d="M 13655,7874 C 13734,8188 13778,8512 13783,8839 L 11993,8839 C 11988,8218 11917,7608 11785,7054 11839,7039 11893,7024 11946,7007 12243,6917 12514,6806 12755,6678 12852,6626 12945,6572 13033,6515 13121,6640 13202,6771 13277,6907 13443,7212 13569,7537 13655,7874 L 13655,7874 13655,7874 Z"/>
         <path fill="rgb(129,212,250)" stroke="none" d="M 12675,6077 C 12772,6179 12863,6287 12948,6400 12869,6452 12783,6502 12694,6549 12460,6673 12195,6781 11907,6869 11856,6885 11802,6900 11749,6915 11744,6893 11739,6873 11733,6852 11647,6537 11543,6249 11422,5994 11302,5737 11164,5513 11014,5331 10885,5173 10749,5048 10609,4954 10733,4977 10857,5004 10979,5039 11297,5130 11604,5264 11891,5440 12179,5615 12442,5830 12675,6077 L 12675,6077 12675,6077 Z"/>
         <path fill="rgb(239,154,154)" stroke="none" d="M 9021,5039 C 9143,5004 9267,4977 9392,4954 9251,5048 9115,5173 8986,5331 8837,5513 8699,5737 8578,5994 8458,6249 8353,6537 8267,6852 8261,6872 8256,6893 8250,6915 8198,6900 8146,6884 8094,6869 7806,6781 7542,6673 7308,6549 7218,6502 7132,6452 7052,6400 7138,6287 7229,6179 7325,6077 7558,5830 7821,5615 8108,5440 8396,5264 8703,5130 9021,5039 L 9021,5039 9021,5039 Z"/>
         <path fill="rgb(239,83,80)" stroke="none" d="M 6724,6907 C 6798,6771 6880,6640 6968,6514 7056,6571 7149,6626 7247,6678 7488,6806 7760,6917 8057,7007 8109,7023 8162,7039 8216,7054 8084,7607 8013,8218 8007,8839 L 6218,8839 C 6223,8512 6266,8188 6346,7874 6431,7537 6558,7212 6724,6907 L 6724,6907 6724,6907 Z"/>
         <path fill="rgb(245,127,23)" stroke="none" d="M 8398,10933 C 8393,10914 8388,10895 8382,10875 8867,10755 9396,10690 9932,10685 L 9932,12920 C 9877,12915 9821,12905 9766,12890 9688,12867 9611,12835 9534,12792 9379,12704 9229,12572 9090,12400 8947,12226 8816,12012 8700,11767 8583,11520 8481,11239 8398,10933 L 8398,10933 8398,10933 Z"/>
         <path fill="rgb(255,238,88)" stroke="none" d="M 9932,7283 L 9932,8839 8143,8839 C 8148,8229 8218,7631 8347,7088 8843,7211 9383,7278 9932,7283 L 9932,7283 9932,7283 Z"/>
         <path fill="rgb(251,192,45)" stroke="none" d="M 8347,10736 C 8218,10192 8148,9594 8143,8983 L 9932,8983 9932,10541 C 9383,10545 8843,10612 8347,10736 L 8347,10736 8347,10736 Z"/>
         <path fill="rgb(255,245,157)" stroke="none" d="M 9932,4905 L 9932,7139 C 9395,7134 8867,7069 8382,6949 8388,6930 8393,6911 8398,6892 8481,6586 8583,6306 8699,6058 8816,5813 8946,5599 9089,5425 9229,5253 9379,5121 9534,5033 9610,4990 9688,4957 9766,4935 9821,4920 9877,4910 9932,4905 L 9932,4905 9932,4905 Z"/>
         <path fill="rgb(51,105,30)" stroke="none" d="M 10234,12889 C 10179,12905 10124,12915 10068,12920 L 10068,10684 C 10605,10689 11133,10754 11619,10874 11613,10893 11608,10913 11603,10933 11519,11239 11418,11519 11301,11766 11185,12011 11054,12225 10912,12400 10772,12572 10621,12703 10466,12792 10390,12834 10313,12867 10234,12889 L 10234,12889 10234,12889 Z"/>
         <path fill="rgb(156,204,101)" stroke="none" d="M 11652,7089 C 11782,7632 11852,8230 11858,8839 L 10068,8839 10068,7284 C 10617,7278 11157,7212 11652,7089 L 11652,7089 11652,7089 Z"/>
         <path fill="rgb(104,159,56)" stroke="none" d="M 10068,10540 L 10068,8983 11858,8983 C 11853,9593 11783,10192 11653,10735 11158,10612 10617,10545 10068,10540 L 10068,10540 10068,10540 Z"/>
         <path fill="rgb(197,225,165)" stroke="none" d="M 11603,6892 C 11608,6911 11613,6930 11618,6949 11133,7070 10605,7134 10068,7140 L 10068,4905 C 10124,4910 10179,4920 10234,4935 10313,4957 10390,4990 10466,5033 10621,5122 10772,5253 10912,5425 11054,5600 11185,5813 11301,6058 11418,6306 11519,6586 11603,6892 L 11603,6892 11603,6892 Z"/>
        </g>
       </g>
      </g>
     </g>
    </g>
   </g>
  </g>
 </g>
</svg>