<?xml version="1.0" encoding="UTF-8"?>
<!DOCTYPE svg PUBLIC "-//W3C//DTD SVG 1.1//EN" "http://www.w3.org/Graphics/SVG/1.1/DTD/svg11.dtd">
<svg version="1.2" width="200mm" height="200mm" viewBox="0 0 20000 20000" preserveAspectRatio="xMidYMid" fill-rule="evenodd" stroke-width="28.222" stroke-linejoin="round" xmlns="http://www.w3.org/2000/svg" xmlns:ooo="http://xml.openoffice.org/svg/export" xmlns:xlink="http://www.w3.org/1999/xlink" xmlns:presentation="http://sun.com/xmlns/staroffice/presentation" xmlns:smil="http://www.w3.org/2001/SMIL20/" xmlns:anim="urn:oasis:names:tc:opendocument:xmlns:animation:1.0" xml:space="preserve">
 <defs class="ClipPathGroup">
  <clipPath id="presentation_clip_path" clipPathUnits="userSpaceOnUse">
   <rect x="0" y="0" width="20000" height="20000"/>
  </clipPath>
  <clipPath id="presentation_clip_path_shrink" clipPathUnits="userSpaceOnUse">
   <rect x="20" y="20" width="19960" height="19960"/>
  </clipPath>
 </defs>
 <defs class="TextShapeIndex">
  <g ooo:slide="id1" ooo:id-list="id3 id4 id5 id6 id7 id8 id9 id10 id11 id12 id13 id14 id15 id16 id17 id18 id19 id20 id21 id22"/>
 </defs>
 <defs class="EmbeddedBulletChars">
  <g id="bullet-char-template-57356" transform="scale(0.00048828125,-0.00048828125)">
   <path d="M 580,1141 L 1163,571 580,0 -4,571 580,1141 Z"/>
  </g>
  <g id="bullet-char-template-57354" transform="scale(0.00048828125,-0.00048828125)">
   <path d="M 8,1128 L 1137,1128 1137,0 8,0 8,1128 Z"/>
  </g>
  <g id="bullet-char-template-10146" transform="scale(0.00048828125,-0.00048828125)">
   <path d="M 174,0 L 602,739 174,1481 1456,739 174,0 Z M 1358,739 L 309,1346 659,739 1358,739 Z"/>
  </g>
  <g id="bullet-char-template-10132" transform="scale(0.00048828125,-0.00048828125)">
   <path d="M 2015,739 L 1276,0 717,0 1260,543 174,543 174,936 1260,936 717,1481 1274,1481 2015,739 Z"/>
  </g>
  <g id="bullet-char-template-10007" transform="scale(0.00048828125,-0.00048828125)">
   <path d="M 0,-2 C -7,14 -16,27 -25,37 L 356,567 C 262,823 215,952 215,954 215,979 228,992 255,992 264,992 276,990 289,987 310,991 331,999 354,1012 L 381,999 492,748 772,1049 836,1024 860,1049 C 881,1039 901,1025 922,1006 886,937 835,863 770,784 769,783 710,716 594,584 L 774,223 C 774,196 753,168 711,139 L 727,119 C 717,90 699,76 672,76 641,76 570,178 457,381 L 164,-76 C 142,-110 111,-127 72,-127 30,-127 9,-110 8,-76 1,-67 -2,-52 -2,-32 -2,-23 -1,-13 0,-2 Z"/>
  </g>
  <g id="bullet-char-template-10004" transform="scale(0.00048828125,-0.00048828125)">
   <path d="M 285,-33 C 182,-33 111,30 74,156 52,228 41,333 41,471 41,549 55,616 82,672 116,743 169,778 240,778 293,778 328,747 346,684 L 369,508 C 377,444 397,411 428,410 L 1163,1116 C 1174,1127 1196,1133 1229,1133 1271,1133 1292,1118 1292,1087 L 1292,965 C 1292,929 1282,901 1262,881 L 442,47 C 390,-6 338,-33 285,-33 Z"/>
  </g>
  <g id="bullet-char-template-9679" transform="scale(0.00048828125,-0.00048828125)">
   <path d="M 813,0 C 632,0 489,54 383,161 276,268 223,411 223,592 223,773 276,916 383,1023 489,1130 632,1184 813,1184 992,1184 1136,1130 1245,1023 1353,916 1407,772 1407,592 1407,412 1353,268 1245,161 1136,54 992,0 813,0 Z"/>
  </g>
  <g id="bullet-char-template-8226" transform="scale(0.00048828125,-0.00048828125)">
   <path d="M 346,457 C 273,457 209,483 155,535 101,586 74,649 74,723 74,796 101,859 155,911 209,963 273,989 346,989 419,989 480,963 531,910 582,859 608,796 608,723 608,648 583,586 532,535 482,483 420,457 346,457 Z"/>
  </g>
  <g id="bullet-char-template-8211" transform="scale(0.00048828125,-0.00048828125)">
   <path d="M -4,459 L 1135,459 1135,606 -4,606 -4,459 Z"/>
  </g>
  <g id="bullet-char-template-61548" transform="scale(0.00048828125,-0.00048828125)">
   <path d="M 173,740 C 173,903 231,1043 346,1159 462,1274 601,1332 765,1332 928,1332 1067,1274 1183,1159 1299,1043 1357,903 1357,740 1357,577 1299,437 1183,322 1067,206 928,148 765,148 601,148 462,206 346,322 231,437 173,577 173,740 Z"/>
  </g>
 </defs>
 <g>
  <g id="id2" class="Master_Slide">
   <g id="bg-id2" class="Background"/>
   <g id="bo-id2" class="BackgroundObjects"/>
  </g>
 </g>
 <g class="SlideGroup">
  <g>
   <g id="container-id1">
    <g id="id1" class="Slide" clip-path="url(#presentation_clip_path)">
     <g class="Page">
      <g class="Group">
       <g class="com.sun.star.drawing.PolyPolygonShape">
        <g id="id3">
         <rect class="BoundingBox" stroke="none" fill="none" x="3991" y="4991" width="12019" height="7371"/>
         <path fill="rgb(66,66,66)" stroke="none" d="M 4000,12352 L 4000,5102 9000,5102 9131,5000 10870,5000 11001,5102 16000,5102 16000,12352 4000,12352 Z"/>
         <path fill="none" stroke="rgb(33,33,33)" stroke-width="18" stroke-linejoin="round" d="M 4000,12352 L 4000,5102 9000,5102 9131,5000 10870,5000 11001,5102 16000,5102 16000,12352 4000,12352 Z"/>
        </g>
       </g>
       <g class="com.sun.star.drawing.CustomShape">
        <g id="id4">
         <rect class="BoundingBox" stroke="none" fill="none" x="4214" y="5328" width="11573" height="6524"/>
         <path fill="rgb(250,250,250)" stroke="none" d="M 10000,11851 L 4214,11851 4214,5328 15786,5328 15786,11851 10000,11851 Z"/>
        </g>
       </g>
       <g class="com.sun.star.drawing.CustomShape">
        <g id="id5">
         <rect class="BoundingBox" stroke="none" fill="none" x="2991" y="12592" width="14020" height="2270"/>
         <path fill="rgb(66,66,66)" stroke="none" d="M 3000,14852 L 17001,14852 15978,12601 4022,12601 3000,14852 Z"/>
         <path fill="none" stroke="rgb(33,33,33)" stroke-width="18" stroke-linejoin="round" d="M 3000,14852 L 17001,14852 15978,12601 4022,12601 3000,14852 Z"/>
        </g>
       </g>
       <g class="com.sun.star.drawing.PolyPolygonShape">
        <g id="id6">
         <rect class="BoundingBox" stroke="none" fill="none" x="8741" y="14132" width="2621" height="612"/>
         <path fill="rgb(117,117,117)" stroke="none" d="M 8750,14733 L 8831,14141 11270,14141 11351,14733 8750,14733 Z"/>
         <path fill="none" stroke="rgb(33,33,33)" stroke-width="18" stroke-linejoin="round" d="M 8750,14733 L 8831,14141 11270,14141 11351,14733 8750,14733 Z"/>
        </g>
       </g>
       <g class="com.sun.star.drawing.PolyPolygonShape">
        <g id="id7">
         <rect class="BoundingBox" stroke="none" fill="none" x="4490" y="12775" width="11020" height="1258"/>
         <path fill="rgb(97,97,97)" stroke="none" d="M 4500,14023 L 5020,12784 14980,12784 15500,14023 4500,14023 Z"/>
         <path fill="none" stroke="rgb(33,33,33)" stroke-width="18" stroke-linejoin="round" d="M 4500,14023 L 5020,12784 14980,12784 15500,14023 4500,14023 Z"/>
        </g>
       </g>
       <g class="com.sun.star.drawing.CustomShape">
        <g id="id8">
         <rect class="BoundingBox" stroke="none" fill="none" x="4241" y="12343" width="1769" height="269"/>
         <path fill="rgb(66,66,66)" stroke="none" d="M 5125,12602 L 4250,12602 4250,12352 6000,12352 6000,12602 5125,12602 Z"/>
         <path fill="none" stroke="rgb(33,33,33)" stroke-width="18" stroke-linejoin="round" d="M 5125,12602 L 4250,12602 4250,12352 6000,12352 6000,12602 5125,12602 Z"/>
        </g>
       </g>
       <g class="com.sun.star.drawing.CustomShape">
        <g id="id9">
         <rect class="BoundingBox" stroke="none" fill="none" x="13991" y="12343" width="1769" height="269"/>
         <path fill="rgb(66,66,66)" stroke="none" d="M 14875,12602 L 14000,12602 14000,12352 15750,12352 15750,12602 14875,12602 Z"/>
         <path fill="none" stroke="rgb(33,33,33)" stroke-width="18" stroke-linejoin="round" d="M 14875,12602 L 14000,12602 14000,12352 15750,12352 15750,12602 14875,12602 Z"/>
        </g>
       </g>
       <g class="com.sun.star.drawing.CustomShape">
        <g id="id10">
         <rect class="BoundingBox" stroke="none" fill="none" x="2991" y="14843" width="14020" height="270"/>
         <path fill="rgb(97,97,97)" stroke="none" d="M 3000,14852 L 17001,14852 16674,15103 3326,15103 3000,14852 Z"/>
         <path fill="none" stroke="rgb(33,33,33)" stroke-width="18" stroke-linejoin="round" d="M 3000,14852 L 17001,14852 16674,15103 3326,15103 3000,14852 Z"/>
        </g>
       </g>
       <g class="com.sun.star.drawing.CustomShape">
        <g id="id11">
         <rect class="BoundingBox" stroke="none" fill="none" x="9909" y="5064" width="184" height="184"/>
         <path fill="rgb(117,117,117)" stroke="none" d="M 10074,5156 C 10074,5168 10071,5181 10064,5192 10058,5203 10048,5213 10037,5219 10026,5226 10013,5229 10001,5229 9988,5229 9975,5226 9964,5219 9953,5213 9943,5203 9937,5192 9930,5181 9927,5168 9927,5156 9927,5143 9930,5130 9937,5119 9943,5108 9953,5098 9964,5092 9975,5085 9988,5082 10001,5082 10013,5082 10026,5085 10037,5092 10048,5098 10058,5108 10064,5119 10071,5130 10074,5143 10074,5156 L 10074,5156 Z"/>
         <path fill="none" stroke="rgb(33,33,33)" stroke-width="35" stroke-linejoin="round" d="M 10074,5156 C 10074,5168 10071,5181 10064,5192 10058,5203 10048,5213 10037,5219 10026,5226 10013,5229 10001,5229 9988,5229 9975,5226 9964,5219 9953,5213 9943,5203 9937,5192 9930,5181 9927,5168 9927,5156 9927,5143 9930,5130 9937,5119 9943,5108 9953,5098 9964,5092 9975,5085 9988,5082 10001,5082 10013,5082 10026,5085 10037,5092 10048,5098 10058,5108 10064,5119 10071,5130 10074,5143 10074,5156 Z"/>
        </g>
       </g>
      </g>
      <g class="Graphic">
       <g id="id12">
        <rect class="BoundingBox" stroke="none" fill="none" x="5000" y="3500" width="10001" height="10001"/>
        <path fill="rgb(211,47,47)" stroke="none" d="M 7147,9263 C 7085,9032 7051,8794 7047,8552 L 8444,8552 C 8448,9010 8503,9460 8607,9868 8565,9879 8523,9891 8483,9902 8251,9969 8039,10051 7851,10145 7774,10183 7701,10224 7633,10266 7564,10174 7500,10077 7442,9976 7312,9752 7213,9512 7147,9263 L 7147,9263 7147,9263 Z"/>
        <path fill="rgb(183,28,28)" stroke="none" d="M 7911,10588 C 7836,10513 7765,10434 7698,10351 7761,10312 7828,10275 7899,10240 8081,10149 8287,10069 8512,10005 8552,9993 8593,9982 8633,9971 8638,9987 8642,10003 8647,10018 8713,10250 8795,10462 8889,10650 8984,10839 9091,11003 9208,11139 9308,11254 9413,11346 9522,11414 9426,11398 9330,11378 9236,11353 8987,11286 8747,11187 8523,11058 8298,10928 8093,10770 7911,10588 L 7911,10588 7911,10588 Z"/>
        <path fill="rgb(1,87,155)" stroke="none" d="M 10764,11353 C 10670,11378 10574,11398 10477,11414 10586,11346 10692,11254 10791,11139 10909,11003 11016,10839 11111,10650 11204,10462 11286,10250 11353,10018 11357,10003 11362,9987 11366,9971 11408,9981 11449,9993 11490,10005 11715,10069 11920,10149 12103,10240 12173,10275 12240,10312 12302,10350 12236,10433 12164,10513 12089,10588 11906,10770 11701,10928 11477,11058 11252,11187 11013,11286 10764,11353 L 10764,11353 10764,11353 Z"/>
        <path fill="rgb(2,136,209)" stroke="none" d="M 12558,9976 C 12500,10076 12437,10173 12368,10265 12299,10223 12227,10183 12151,10145 11963,10051 11751,9969 11519,9902 11478,9890 11436,9879 11393,9868 11497,9460 11552,9010 11556,8552 L 12953,8552 C 12949,8794 12915,9032 12853,9263 12787,9512 12687,9752 12558,9976 L 12558,9976 12558,9976 Z"/>
        <path fill="rgb(41,182,246)" stroke="none" d="M 12853,7735 C 12915,7966 12949,8205 12953,8446 L 11556,8446 C 11552,7988 11496,7539 11393,7131 11435,7120 11477,7109 11519,7097 11750,7030 11962,6948 12150,6854 12226,6816 12299,6776 12367,6734 12436,6826 12499,6923 12558,7022 12687,7247 12786,7487 12853,7735 L 12853,7735 12853,7735 Z"/>
        <path fill="rgb(129,212,250)" stroke="none" d="M 12088,6411 C 12163,6486 12235,6566 12301,6649 12239,6687 12172,6725 12102,6759 11920,6850 11714,6930 11489,6994 11448,7006 11407,7017 11365,7028 11361,7012 11357,6997 11352,6982 11286,6750 11204,6538 11110,6350 11016,6161 10909,5996 10791,5861 10691,5745 10584,5653 10475,5584 10572,5601 10669,5621 10764,5646 11012,5713 11252,5812 11476,5942 11701,6071 11906,6229 12088,6411 L 12088,6411 12088,6411 Z"/>
        <path fill="rgb(239,154,154)" stroke="none" d="M 9236,5646 C 9331,5621 9427,5601 9525,5584 9415,5653 9308,5745 9208,5861 9091,5996 8984,6161 8889,6350 8796,6538 8714,6750 8647,6982 8642,6997 8638,7012 8634,7028 8593,7017 8552,7006 8512,6994 8286,6930 8081,6850 7898,6759 7828,6724 7761,6687 7698,6649 7765,6566 7836,6486 7911,6411 8093,6229 8298,6071 8523,5942 8747,5812 8987,5713 9236,5646 L 9236,5646 9236,5646 Z"/>
        <path fill="rgb(239,83,80)" stroke="none" d="M 7442,7022 C 7500,6923 7564,6826 7633,6733 7701,6775 7774,6815 7851,6854 8039,6948 8251,7030 8482,7097 8523,7108 8565,7120 8607,7131 8503,7539 8448,7988 8444,8446 L 7047,8446 C 7051,8205 7085,7966 7147,7735 7213,7487 7312,7247 7442,7022 L 7442,7022 7442,7022 Z"/>
        <path fill="rgb(245,127,23)" stroke="none" d="M 8749,9989 C 8745,9974 8741,9960 8737,9946 9115,9857 9528,9810 9947,9806 L 9947,11452 C 9904,11449 9860,11441 9817,11430 9756,11413 9696,11389 9636,11358 9515,11293 9398,11196 9289,11069 9177,10941 9075,10783 8985,10602 8893,10420 8814,10214 8749,9989 L 8749,9989 8749,9989 Z"/>
        <path fill="rgb(255,238,88)" stroke="none" d="M 9947,7300 L 9947,8446 8550,8446 C 8554,7997 8608,7556 8709,7156 9096,7247 9518,7296 9947,7300 L 9947,7300 9947,7300 Z"/>
        <path fill="rgb(251,192,45)" stroke="none" d="M 8709,9843 C 8608,9443 8554,9002 8550,8552 L 9947,8552 9947,9699 C 9518,9703 9096,9752 8709,9843 L 8709,9843 8709,9843 Z"/>
        <path fill="rgb(255,245,157)" stroke="none" d="M 9947,5548 L 9947,7193 C 9527,7190 9115,7142 8737,7053 8741,7039 8745,7025 8749,7011 8814,6786 8893,6580 8984,6398 9075,6217 9177,6059 9288,5931 9398,5805 9515,5707 9636,5642 9695,5611 9756,5586 9817,5570 9860,5559 9903,5552 9947,5548 L 9947,5548 9947,5548 Z"/>
        <path fill="rgb(51,105,30)" stroke="none" d="M 10183,11429 C 10140,11441 10096,11448 10052,11452 L 10052,9805 C 10472,9809 10884,9856 11263,9945 11259,9959 11255,9974 11251,9988 11185,10214 11107,10420 11015,10602 10925,10783 10823,10940 10712,11069 10602,11195 10485,11292 10364,11358 10304,11389 10244,11413 10183,11429 L 10183,11429 10183,11429 Z"/>
        <path fill="rgb(156,204,101)" stroke="none" d="M 11290,7157 C 11391,7556 11446,7997 11450,8446 L 10052,8446 10052,7300 C 10481,7296 10903,7247 11290,7157 L 11290,7157 11290,7157 Z"/>
        <path fill="rgb(104,159,56)" stroke="none" d="M 10052,9699 L 10052,8552 11450,8552 C 11446,9001 11391,9443 11290,9842 10904,9752 10481,9703 10052,9699 L 10052,9699 10052,9699 Z"/>
        <path fill="rgb(197,225,165)" stroke="none" d="M 11251,7011 C 11255,7026 11259,7040 11263,7054 10884,7143 10472,7190 10052,7194 L 10052,5548 C 10096,5552 10140,5559 10183,5570 10244,5586 10304,5611 10364,5642 10485,5708 10602,5805 10712,5931 10823,6060 10925,6217 11015,6398 11107,6580 11185,6786 11251,7011 L 11251,7011 11251,7011 Z"/>
       </g>
      </g>
      <g class="Group">
       <g class="com.sun.star.drawing.ClosedBezierShape">
        <g id="id13">
         <rect class="BoundingBox" stroke="none" fill="none" x="2614" y="15837" width="1481" height="1457"/>
         <path fill="rgb(97,97,97)" stroke="none" d="M 3823,17293 L 3823,16411 C 3823,16391 3824,16371 3824,16351 3824,16331 3828,16245 3834,16093 3785,16279 3749,16408 3725,16481 L 3463,17293 3246,17293 2983,16481 2872,16093 C 2881,16253 2885,16359 2885,16411 L 2885,17293 2614,17293 2614,15837 3022,15837 3283,16652 3306,16730 3355,16925 3420,16692 3688,15837 4094,15837 4094,17293 3823,17293 Z"/>
        </g>
       </g>
       <g class="com.sun.star.drawing.ClosedBezierShape">
        <g id="id14">
         <rect class="BoundingBox" stroke="none" fill="none" x="4298" y="15814" width="1269" height="1501"/>
         <path fill="rgb(97,97,97)" stroke="none" d="M 5566,16874 C 5566,17016 5513,17125 5408,17201 5302,17276 5147,17314 4942,17314 4755,17314 4609,17281 4503,17215 4397,17148 4328,17048 4298,16914 L 4593,16865 C 4613,16942 4652,16998 4709,17033 4767,17068 4848,17085 4950,17085 5163,17085 5270,17021 5270,16891 5270,16850 5257,16816 5233,16789 5209,16762 5174,16739 5130,16722 5085,16704 5000,16682 4874,16656 4765,16631 4689,16610 4646,16595 4604,16579 4565,16561 4531,16540 4496,16519 4467,16494 4443,16464 4419,16435 4400,16400 4386,16360 4373,16320 4366,16274 4366,16222 4366,16091 4416,15990 4515,15920 4613,15850 4757,15815 4946,15815 5127,15815 5262,15843 5353,15900 5444,15956 5502,16050 5528,16180 L 5232,16220 C 5217,16157 5186,16110 5140,16079 5093,16047 5027,16031 4940,16031 4755,16031 4663,16089 4663,16205 4663,16243 4673,16274 4692,16298 4712,16322 4741,16342 4780,16359 4818,16376 4897,16397 5014,16423 5154,16452 5254,16480 5315,16505 5375,16530 5423,16559 5458,16593 5493,16626 5520,16666 5538,16713 5557,16759 5566,16813 5566,16874 Z"/>
        </g>
       </g>
       <g class="com.sun.star.drawing.ClosedBezierShape">
        <g id="id15">
         <rect class="BoundingBox" stroke="none" fill="none" x="6296" y="15814" width="1269" height="1501"/>
         <path fill="rgb(97,97,97)" stroke="none" d="M 7564,16874 C 7564,17016 7511,17125 7406,17201 7300,17276 7145,17314 6940,17314 6753,17314 6607,17281 6501,17215 6395,17148 6326,17048 6296,16914 L 6591,16865 C 6611,16942 6650,16998 6707,17033 6765,17068 6846,17085 6948,17085 7161,17085 7268,17021 7268,16891 7268,16850 7255,16816 7231,16789 7207,16762 7172,16739 7128,16722 7083,16704 6998,16682 6872,16656 6763,16631 6687,16610 6644,16595 6602,16579 6563,16561 6529,16540 6494,16519 6465,16494 6441,16464 6417,16435 6398,16400 6384,16360 6371,16320 6364,16274 6364,16222 6364,16091 6414,15990 6513,15920 6611,15850 6755,15815 6944,15815 7125,15815 7260,15843 7351,15900 7442,15956 7500,16050 7526,16180 L 7230,16220 C 7215,16157 7184,16110 7138,16079 7091,16047 7025,16031 6938,16031 6753,16031 6661,16089 6661,16205 6661,16243 6671,16274 6690,16298 6710,16322 6739,16342 6778,16359 6816,16376 6895,16397 7012,16423 7152,16452 7252,16480 7313,16505 7373,16530 7421,16559 7456,16593 7491,16626 7518,16666 7536,16713 7555,16759 7564,16813 7564,16874 Z"/>
        </g>
       </g>
       <g class="com.sun.star.drawing.ClosedBezierShape">
        <g id="id16">
         <rect class="BoundingBox" stroke="none" fill="none" x="7669" y="15837" width="1248" height="1457"/>
         <path fill="rgb(97,97,97)" stroke="none" d="M 8444,16073 C 8444,16480 8444,16887 8444,17293 8343,17293 8241,17293 8139,17293 8139,16887 8139,16480 8139,16073 7983,16073 7826,16073 7669,16073 7669,15994 7669,15916 7669,15837 8085,15837 8500,15837 8916,15837 8916,15916 8916,15994 8916,16073 8759,16073 8601,16073 8444,16073 Z"/>
        </g>
       </g>
       <g class="com.sun.star.drawing.ClosedBezierShape">
        <g id="id17">
         <rect class="BoundingBox" stroke="none" fill="none" x="8847" y="16978" width="300" height="316"/>
         <path fill="rgb(97,97,97)" stroke="none" d="M 8847,17293 C 8847,17188 8847,17083 8847,16978 8947,16978 9046,16978 9146,16978 9146,17083 9146,17188 9146,17293 9046,17293 8947,17293 8847,17293 Z"/>
        </g>
       </g>
       <g class="com.sun.star.drawing.ClosedBezierShape">
        <g id="id18">
         <rect class="BoundingBox" stroke="none" fill="none" x="9853" y="15837" width="1422" height="1457"/>
         <path fill="rgb(97,97,97)" stroke="none" d="M 10971,17293 L 10842,16921 10287,16921 10158,17293 9853,17293 10384,15837 10744,15837 11273,17293 10971,17293 Z M 10564,16061 L 10558,16084 C 10551,16109 10543,16137 10533,16169 10524,16201 10464,16375 10355,16692 L 10774,16692 10630,16273 10586,16133 10564,16061 Z"/>
        </g>
       </g>
       <g class="com.sun.star.drawing.ClosedBezierShape">
        <g id="id19">
         <rect class="BoundingBox" stroke="none" fill="none" x="11470" y="15837" width="1246" height="1457"/>
         <path fill="rgb(97,97,97)" stroke="none" d="M 12357,17293 L 11722,16172 C 11735,16281 11741,16368 11741,16434 L 11741,17293 11470,17293 11470,15837 11818,15837 12462,16968 C 12450,16864 12444,16769 12444,16684 L 12444,15837 12715,15837 12715,17293 12357,17293 Z"/>
        </g>
       </g>
       <g class="com.sun.star.drawing.ClosedBezierShape">
        <g id="id20">
         <rect class="BoundingBox" stroke="none" fill="none" x="12998" y="15837" width="1299" height="1457"/>
         <path fill="rgb(97,97,97)" stroke="none" d="M 14296,16554 C 14296,16705 14267,16836 14208,16948 14149,17060 14066,17145 13958,17205 13850,17264 13726,17293 13587,17293 L 12998,17293 12998,15837 13525,15837 C 13771,15837 13960,15899 14095,16023 14229,16146 14296,16324 14296,16554 Z M 13989,16554 C 13989,16398 13949,16279 13867,16196 13786,16114 13670,16073 13519,16073 L 13303,16073 13303,17058 13561,17058 C 13692,17058 13796,17013 13874,16922 13951,16832 13989,16709 13989,16554 Z"/>
        </g>
       </g>
       <g class="com.sun.star.drawing.ClosedBezierShape">
        <g id="id21">
         <rect class="BoundingBox" stroke="none" fill="none" x="14527" y="15837" width="1345" height="1457"/>
         <path fill="rgb(97,97,97)" stroke="none" d="M 15528,17293 L 15190,16740 14832,16740 14832,17293 14527,17293 14527,15837 15255,15837 C 15428,15837 15562,15874 15657,15949 15751,16024 15798,16131 15798,16271 15798,16373 15770,16461 15712,16535 15654,16609 15576,16658 15477,16682 L 15871,17293 15528,17293 Z M 15491,16284 C 15491,16144 15402,16074 15223,16074 L 14832,16074 14832,16504 15231,16504 C 15316,16504 15381,16484 15425,16446 15469,16407 15491,16353 15491,16284 Z"/>
        </g>
       </g>
       <g class="com.sun.star.drawing.ClosedBezierShape">
        <g id="id22">
         <rect class="BoundingBox" stroke="none" fill="none" x="15966" y="15486" width="1421" height="1809"/>
         <path fill="rgb(97,97,97)" stroke="none" d="M 17084,17294 L 16955,16922 16400,16922 16271,17294 15966,17294 16497,15837 16857,15837 17386,17294 17084,17294 Z M 16677,16062 L 16671,16085 C 16664,16109 16656,16138 16646,16169 16637,16201 16577,16375 16468,16692 L 16887,16692 16743,16274 16699,16133 16677,16062 Z M 16810,15712 L 16810,15486 17014,15486 17014,15712 16810,15712 Z M 16341,15712 L 16341,15486 16541,15486 16541,15712 16341,15712 Z"/>
        </g>
       </g>
      </g>
     </g>
    </g>
   </g>
  </g>
 </g>
</svg>