<?xml version="1.0" encoding="UTF-8"?>
<!DOCTYPE svg PUBLIC "-//W3C//DTD SVG 1.1//EN" "http://www.w3.org/Graphics/SVG/1.1/DTD/svg11.dtd">
<svg version="1.2" width="200mm" height="200mm" viewBox="0 0 20000 20000" preserveAspectRatio="xMidYMid" fill-rule="evenodd" stroke-width="28.222" stroke-linejoin="round" xmlns="http://www.w3.org/2000/svg" xmlns:ooo="http://xml.openoffice.org/svg/export" xmlns:xlink="http://www.w3.org/1999/xlink" xmlns:presentation="http://sun.com/xmlns/staroffice/presentation" xmlns:smil="http://www.w3.org/2001/SMIL20/" xmlns:anim="urn:oasis:names:tc:opendocument:xmlns:animation:1.0" xml:space="preserve">
 <defs class="ClipPathGroup">
  <clipPath id="presentation_clip_path" clipPathUnits="userSpaceOnUse">
   <rect x="0" y="0" width="20000" height="20000"/>
  </clipPath>
  <clipPath id="presentation_clip_path_shrink" clipPathUnits="userSpaceOnUse">
   <rect x="20" y="20" width="19960" height="19960"/>
  </clipPath>
 </defs>
 <defs class="TextShapeIndex">
  <g ooo:slide="id1" ooo:id-list="id3 id4"/>
 </defs>
 <defs class="EmbeddedBulletChars">
  <g id="bullet-char-template-57356" transform="scale(0.00048828125,-0.00048828125)">
   <path d="M 580,1141 L 1163,571 580,0 -4,571 580,1141 Z"/>
  </g>
  <g id="bullet-char-template-57354" transform="scale(0.00048828125,-0.00048828125)">
   <path d="M 8,1128 L 1137,1128 1137,0 8,0 8,1128 Z"/>
  </g>
  <g id="bullet-char-template-10146" transform="scale(0.00048828125,-0.00048828125)">
   <path d="M 174,0 L 602,739 174,1481 1456,739 174,0 Z M 1358,739 L 309,1346 659,739 1358,739 Z"/>
  </g>
  <g id="bullet-char-template-10132" transform="scale(0.00048828125,-0.00048828125)">
   <path d="M 2015,739 L 1276,0 717,0 1260,543 174,543 174,936 1260,936 717,1481 1274,1481 2015,739 Z"/>
  </g>
  <g id="bullet-char-template-10007" transform="scale(0.00048828125,-0.00048828125)">
   <path d="M 0,-2 C -7,14 -16,27 -25,37 L 356,567 C 262,823 215,952 215,954 215,979 228,992 255,992 264,992 276,990 289,987 310,991 331,999 354,1012 L 381,999 492,748 772,1049 836,1024 860,1049 C 881,1039 901,1025 922,1006 886,937 835,863 770,784 769,783 710,716 594,584 L 774,223 C 774,196 753,168 711,139 L 727,119 C 717,90 699,76 672,76 641,76 570,178 457,381 L 164,-76 C 142,-110 111,-127 72,-127 30,-127 9,-110 8,-76 1,-67 -2,-52 -2,-32 -2,-23 -1,-13 0,-2 Z"/>
  </g>
  <g id="bullet-char-template-10004" transform="scale(0.00048828125,-0.00048828125)">
   <path d="M 285,-33 C 182,-33 111,30 74,156 52,228 41,333 41,471 41,549 55,616 82,672 116,743 169,778 240,778 293,778 328,747 346,684 L 369,508 C 377,444 397,411 428,410 L 1163,1116 C 1174,1127 1196,1133 1229,1133 1271,1133 1292,1118 1292,1087 L 1292,965 C 1292,929 1282,901 1262,881 L 442,47 C 390,-6 338,-33 285,-33 Z"/>
  </g>
  <g id="bullet-char-template-9679" transform="scale(0.00048828125,-0.00048828125)">
   <path d="M 813,0 C 632,0 489,54 383,161 276,268 223,411 223,592 223,773 276,916 383,1023 489,1130 632,1184 813,1184 992,1184 1136,1130 1245,1023 1353,916 1407,772 1407,592 1407,412 1353,268 1245,161 1136,54 992,0 813,0 Z"/>
  </g>
  <g id="bullet-char-template-8226" transform="scale(0.00048828125,-0.00048828125)">
   <path d="M 346,457 C 273,457 209,483 155,535 101,586 74,649 74,723 74,796 101,859 155,911 209,963 273,989 346,989 419,989 480,963 531,910 582,859 608,796 608,723 608,648 583,586 532,535 482,483 420,457 346,457 Z"/>
  </g>
  <g id="bullet-char-template-8211" transform="scale(0.00048828125,-0.00048828125)">
   <path d="M -4,459 L 1135,459 1135,606 -4,606 -4,459 Z"/>
  </g>
  <g id="bullet-char-template-61548" transform="scale(0.00048828125,-0.00048828125)">
   <path d="M 173,740 C 173,903 231,1043 346,1159 462,1274 601,1332 765,1332 928,1332 1067,1274 1183,1159 1299,1043 1357,903 1357,740 1357,577 1299,437 1183,322 1067,206 928,148 765,148 601,148 462,206 346,322 231,437 173,577 173,740 Z"/>
  </g>
 </defs>
 <g>
  <g id="id2" class="Master_Slide">
   <g id="bg-id2" class="Background"/>
   <g id="bo-id2" class="BackgroundObjects"/>
  </g>
 </g>
 <g class="SlideGroup">
  <g>
   <g id="container-id1">
    <g id="id1" class="Slide" clip-path="url(#presentation_clip_path)">
     <g class="Page">
      <g class="com.sun.star.drawing.ClosedBezierShape">
       <g id="id3">
        <rect class="BoundingBox" stroke="none" fill="none" x="3464" y="6999" width="9436" height="9539"/>
        <path fill="rgb(97,97,97)" stroke="none" d="M 9721,13727 C 9920,13770 10132,13759 10336,13695 10540,13630 10729,13515 10885,13359 L 10885,13359 8587,15657 C 8214,16030 7751,16297 7242,16434 6733,16570 6197,16570 5689,16434 5180,16297 4716,16030 4343,15657 3971,15285 3703,14821 3567,14312 3431,13803 3431,13268 3567,12759 3703,12250 3971,11786 4343,11414 L 7879,7878 C 8251,7506 8715,7238 9224,7102 9733,6965 10269,6965 10777,7102 11286,7238 11750,7506 12122,7878 12495,8251 12762,8714 12899,9223 L 11997,10124 C 12011,9909 11989,9692 11933,9482 11842,9143 11664,8834 11415,8585 11167,8337 10858,8159 10518,8068 10179,7977 9822,7977 9483,8068 9144,8159 8834,8337 8586,8585 L 5051,12121 C 4802,12369 4624,12679 4533,13018 4442,13357 4442,13714 4533,14053 4624,14392 4802,14702 5051,14950 5299,15198 5608,15377 5947,15468 6287,15559 6644,15559 6983,15468 7322,15377 7631,15198 7880,14950 L 9299,13530 C 9421,13626 9565,13693 9721,13727 Z"/>
       </g>
      </g>
      <g class="com.sun.star.drawing.ClosedBezierShape">
       <g id="id4">
        <rect class="BoundingBox" stroke="none" fill="none" x="7102" y="3463" width="9436" height="9539"/>
        <path fill="rgb(117,117,117)" stroke="none" d="M 10280,6273 C 10082,6230 9869,6241 9665,6305 9461,6370 9272,6485 9117,6641 L 9117,6641 11415,4343 C 11787,3970 12251,3703 12760,3566 13268,3430 13804,3430 14313,3566 14822,3703 15285,3970 15658,4343 16030,4715 16298,5179 16435,5688 16571,6197 16571,6732 16435,7241 16298,7750 16030,8214 15658,8586 L 12122,12122 C 11750,12494 11286,12762 10777,12898 10269,13035 9733,13035 9224,12898 8715,12762 8251,12494 7879,12122 7507,11749 7239,11286 7103,10777 L 8004,9876 C 7991,10091 8012,10308 8068,10518 8159,10857 8338,11166 8586,11415 8834,11663 9144,11841 9483,11932 9822,12023 10179,12023 10518,11932 10858,11841 11167,11663 11415,11415 L 14951,7879 C 15199,7631 15378,7321 15469,6982 15559,6643 15559,6286 15469,5947 15378,5608 15199,5298 14951,5050 14702,4802 14393,4623 14054,4532 13715,4441 13358,4441 13018,4532 12679,4623 12370,4802 12122,5050 L 10703,6470 C 10580,6374 10437,6307 10280,6273 Z"/>
       </g>
      </g>
     </g>
    </g>
   </g>
  </g>
 </g>
</svg>