<?xml version="1.0" encoding="UTF-8"?>
<!DOCTYPE svg PUBLIC "-//W3C//DTD SVG 1.1//EN" "http://www.w3.org/Graphics/SVG/1.1/DTD/svg11.dtd">
<svg version="1.2" width="200mm" height="200mm" viewBox="0 0 20000 20000" preserveAspectRatio="xMidYMid" fill-rule="evenodd" stroke-width="28.222" stroke-linejoin="round" xmlns="http://www.w3.org/2000/svg" xmlns:ooo="http://xml.openoffice.org/svg/export" xmlns:xlink="http://www.w3.org/1999/xlink" xmlns:presentation="http://sun.com/xmlns/staroffice/presentation" xmlns:smil="http://www.w3.org/2001/SMIL20/" xmlns:anim="urn:oasis:names:tc:opendocument:xmlns:animation:1.0" xml:space="preserve">
 <defs class="ClipPathGroup">
  <clipPath id="presentation_clip_path" clipPathUnits="userSpaceOnUse">
   <rect x="0" y="0" width="20000" height="20000"/>
  </clipPath>
  <clipPath id="presentation_clip_path_shrink" clipPathUnits="userSpaceOnUse">
   <rect x="20" y="20" width="19960" height="19960"/>
  </clipPath>
 </defs>
 <defs class="TextShapeIndex">
  <g ooo:slide="id1" ooo:id-list="id3 id4"/>
 </defs>
 <defs class="EmbeddedBulletChars">
  <g id="bullet-char-template-57356" transform="scale(0.00048828125,-0.00048828125)">
   <path d="M 580,1141 L 1163,571 580,0 -4,571 580,1141 Z"/>
  </g>
  <g id="bullet-char-template-57354" transform="scale(0.00048828125,-0.00048828125)">
   <path d="M 8,1128 L 1137,1128 1137,0 8,0 8,1128 Z"/>
  </g>
  <g id="bullet-char-template-10146" transform="scale(0.00048828125,-0.00048828125)">
   <path d="M 174,0 L 602,739 174,1481 1456,739 174,0 Z M 1358,739 L 309,1346 659,739 1358,739 Z"/>
  </g>
  <g id="bullet-char-template-10132" transform="scale(0.00048828125,-0.00048828125)">
   <path d="M 2015,739 L 1276,0 717,0 1260,543 174,543 174,936 1260,936 717,1481 1274,1481 2015,739 Z"/>
  </g>
  <g id="bullet-char-template-10007" transform="scale(0.00048828125,-0.00048828125)">
   <path d="M 0,-2 C -7,14 -16,27 -25,37 L 356,567 C 262,823 215,952 215,954 215,979 228,992 255,992 264,992 276,990 289,987 310,991 331,999 354,1012 L 381,999 492,748 772,1049 836,1024 860,1049 C 881,1039 901,1025 922,1006 886,937 835,863 770,784 769,783 710,716 594,584 L 774,223 C 774,196 753,168 711,139 L 727,119 C 717,90 699,76 672,76 641,76 570,178 457,381 L 164,-76 C 142,-110 111,-127 72,-127 30,-127 9,-110 8,-76 1,-67 -2,-52 -2,-32 -2,-23 -1,-13 0,-2 Z"/>
  </g>
  <g id="bullet-char-template-10004" transform="scale(0.00048828125,-0.00048828125)">
   <path d="M 285,-33 C 182,-33 111,30 74,156 52,228 41,333 41,471 41,549 55,616 82,672 116,743 169,778 240,778 293,778 328,747 346,684 L 369,508 C 377,444 397,411 428,410 L 1163,1116 C 1174,1127 1196,1133 1229,1133 1271,1133 1292,1118 1292,1087 L 1292,965 C 1292,929 1282,901 1262,881 L 442,47 C 390,-6 338,-33 285,-33 Z"/>
  </g>
  <g id="bullet-char-template-9679" transform="scale(0.00048828125,-0.00048828125)">
   <path d="M 813,0 C 632,0 489,54 383,161 276,268 223,411 223,592 223,773 276,916 383,1023 489,1130 632,1184 813,1184 992,1184 1136,1130 1245,1023 1353,916 1407,772 1407,592 1407,412 1353,268 1245,161 1136,54 992,0 813,0 Z"/>
  </g>
  <g id="bullet-char-template-8226" transform="scale(0.00048828125,-0.00048828125)">
   <path d="M 346,457 C 273,457 209,483 155,535 101,586 74,649 74,723 74,796 101,859 155,911 209,963 273,989 346,989 419,989 480,963 531,910 582,859 608,796 608,723 608,648 583,586 532,535 482,483 420,457 346,457 Z"/>
  </g>
  <g id="bullet-char-template-8211" transform="scale(0.00048828125,-0.00048828125)">
   <path d="M -4,459 L 1135,459 1135,606 -4,606 -4,459 Z"/>
  </g>
  <g id="bullet-char-template-61548" transform="scale(0.00048828125,-0.00048828125)">
   <path d="M 173,740 C 173,903 231,1043 346,1159 462,1274 601,1332 765,1332 928,1332 1067,1274 1183,1159 1299,1043 1357,903 1357,740 1357,577 1299,437 1183,322 1067,206 928,148 765,148 601,148 462,206 346,322 231,437 173,577 173,740 Z"/>
  </g>
 </defs>
 <g>
  <g id="id2" class="Master_Slide">
   <g id="bg-id2" class="Background"/>
   <g id="bo-id2" class="BackgroundObjects"/>
  </g>
 </g>
 <g class="SlideGroup">
  <g>
   <g id="container-id1">
    <g id="id1" class="Slide" clip-path="url(#presentation_clip_path)">
     <g class="Page">
      <g class="Graphic">
       <g id="id3">
        <rect class="BoundingBox" stroke="none" fill="none" x="-2125" y="-2125" width="24251" height="24251"/>
        <path fill="rgb(211,47,47)" stroke="none" d="M 3081,11851 C 2930,11290 2849,10712 2838,10126 L 6226,10126 C 6235,11237 6371,12328 6621,13318 6520,13344 6419,13373 6321,13401 5759,13563 5245,13761 4789,13988 4603,14081 4425,14181 4261,14282 4092,14059 3938,13824 3797,13580 3482,13035 3242,12455 3081,11851 L 3081,11851 3081,11851 Z"/>
        <path fill="rgb(183,28,28)" stroke="none" d="M 4934,15063 C 4753,14882 4580,14690 4418,14488 4571,14395 4732,14304 4904,14219 5345,13998 5846,13806 6391,13649 6489,13621 6587,13593 6685,13568 6696,13605 6707,13644 6718,13681 6880,14244 7078,14759 7307,15213 7537,15673 7795,16071 8080,16400 8321,16679 8577,16902 8841,17067 8607,17029 8375,16979 8146,16917 7544,16757 6962,16516 6418,16203 5874,15888 5376,15505 4934,15063 L 4934,15063 4934,15063 Z"/>
        <path fill="rgb(1,87,155)" stroke="none" d="M 11853,16917 C 11624,16979 11392,17029 11157,17067 11422,16902 11677,16679 11919,16400 12203,16071 12463,15673 12693,15213 12921,14759 13118,14244 13281,13681 13292,13644 13303,13605 13314,13566 13414,13592 13514,13621 13612,13649 14158,13806 14657,13998 15100,14219 15270,14304 15431,14393 15582,14485 15421,14689 15247,14881 15065,15063 14623,15505 14125,15888 13581,16203 13037,16516 12456,16757 11853,16917 L 11853,16917 11853,16917 Z"/>
        <path fill="rgb(2,136,209)" stroke="none" d="M 16204,13580 C 16062,13823 15909,14056 15742,14281 15576,14179 15401,14080 15216,13988 14761,13761 14246,13563 13684,13401 13583,13372 13482,13344 13379,13317 13629,12328 13765,11237 13774,10126 L 17162,10126 C 17152,10712 17069,11290 16919,11851 16758,12455 16517,13035 16204,13580 L 16204,13580 16204,13580 Z"/>
        <path fill="rgb(41,182,246)" stroke="none" d="M 16919,8145 C 17069,8706 17151,9285 17162,9869 L 13773,9869 C 13763,8759 13628,7670 13378,6680 13480,6653 13582,6626 13682,6597 14245,6435 14759,6237 15215,6009 15398,5916 15575,5818 15741,5717 15908,5940 16061,6175 16203,6417 16517,6962 16757,7543 16919,8145 L 16919,8145 16919,8145 Z"/>
        <path fill="rgb(129,212,250)" stroke="none" d="M 15063,4935 C 15246,5117 15420,5310 15581,5512 15430,5604 15268,5695 15099,5778 14656,6000 14155,6192 13610,6349 13512,6378 13412,6405 13311,6431 13301,6393 13291,6356 13280,6319 13118,5756 12919,5243 12692,4787 12463,4327 12203,3928 11918,3601 11675,3320 11417,3096 11151,2929 11387,2969 11622,3019 11853,3080 12455,3242 13035,3482 13580,3796 14124,4109 14622,4494 15063,4935 L 15063,4935 15063,4935 Z"/>
        <path fill="rgb(239,154,154)" stroke="none" d="M 8146,3080 C 8377,3019 8610,2969 8848,2929 8580,3096 8323,3320 8080,3601 7797,3928 7537,4327 7307,4787 7079,5243 6881,5756 6718,6319 6707,6355 6697,6393 6686,6431 6587,6405 6489,6377 6391,6349 5845,6192 5345,6000 4903,5778 4732,5694 4570,5604 4418,5511 4580,5309 4753,5117 4934,4935 5376,4494 5874,4109 6418,3796 6962,3482 7544,3242 8146,3080 L 8146,3080 8146,3080 Z"/>
        <path fill="rgb(239,83,80)" stroke="none" d="M 3797,6417 C 3938,6175 4092,5940 4259,5715 4425,5817 4602,5915 4788,6009 5244,6237 5758,6435 6320,6597 6419,6625 6520,6653 6621,6679 6371,7668 6237,8759 6226,9869 L 2838,9869 C 2849,9285 2930,8706 3081,8145 3242,7543 3482,6962 3797,6417 L 3797,6417 3797,6417 Z"/>
        <path fill="rgb(245,127,23)" stroke="none" d="M 6966,13610 C 6956,13575 6946,13541 6937,13506 7855,13291 8855,13176 9871,13166 L 9871,17158 C 9767,17151 9660,17133 9556,17105 9407,17065 9262,17007 9117,16931 8823,16772 8540,16538 8275,16230 8005,15918 7757,15536 7538,15099 7317,14657 7124,14156 6966,13610 L 6966,13610 6966,13610 Z"/>
        <path fill="rgb(255,238,88)" stroke="none" d="M 9871,7089 L 9871,9869 6483,9869 C 6493,8780 6625,7711 6870,6741 7809,6961 8831,7081 9871,7089 L 9871,7089 9871,7089 Z"/>
        <path fill="rgb(251,192,45)" stroke="none" d="M 6870,13257 C 6625,12286 6493,11217 6483,10126 L 9871,10126 9871,12908 C 8831,12917 7809,13035 6870,13257 L 6870,13257 6870,13257 Z"/>
        <path fill="rgb(255,245,157)" stroke="none" d="M 9871,2842 L 9871,6832 C 8854,6823 7855,6707 6937,6492 6946,6458 6956,6424 6966,6390 7123,5844 7317,5344 7537,4901 7757,4464 8003,4082 8274,3770 8540,3464 8823,3228 9117,3071 9261,2993 9407,2934 9556,2895 9660,2867 9765,2850 9871,2842 L 9871,2842 9871,2842 Z"/>
        <path fill="rgb(51,105,30)" stroke="none" d="M 10443,17104 C 10339,17131 10233,17150 10127,17158 L 10127,13165 C 11144,13173 12144,13289 13063,13505 13054,13538 13043,13574 13033,13609 12875,14155 12683,14656 12462,15097 12243,15535 11995,15917 11726,16229 11460,16536 11175,16771 10882,16929 10738,17006 10591,17064 10443,17104 L 10443,17104 10443,17104 Z"/>
        <path fill="rgb(156,204,101)" stroke="none" d="M 13127,6742 C 13373,7712 13506,8781 13517,9869 L 10127,9869 10127,7090 C 11167,7081 12190,6962 13127,6742 L 13127,6742 13127,6742 Z"/>
        <path fill="rgb(104,159,56)" stroke="none" d="M 10127,12907 L 10127,10126 13517,10126 C 13507,11215 13374,12286 13129,13256 12191,13035 11167,12917 10127,12907 L 10127,12907 10127,12907 Z"/>
        <path fill="rgb(197,225,165)" stroke="none" d="M 13033,6390 C 13043,6425 13052,6459 13062,6493 12144,6708 11144,6823 10127,6833 L 10127,2842 C 10233,2850 10339,2867 10443,2895 10591,2934 10738,2993 10882,3071 11175,3229 11460,3464 11726,3770 11995,4083 12243,4464 12462,4901 12683,5344 12875,5844 13033,6390 L 13033,6390 13033,6390 Z"/>
       </g>
      </g>
      <g class="com.sun.star.drawing.CustomShape">
       <g id="id4">
        <rect class="BoundingBox" stroke="none" fill="none" x="7696" y="6727" width="5599" height="6547"/>
        <path fill="rgb(250,250,250)" stroke="none" d="M 13188,10000 L 7749,13180 7749,6820 13188,10000 Z"/>
        <path fill="none" stroke="rgb(97,97,97)" stroke-width="106" stroke-linejoin="miter" d="M 13188,10000 L 7749,13180 7749,6820 13188,10000 Z"/>
       </g>
      </g>
     </g>
    </g>
   </g>
  </g>
 </g>
</svg>