<?xml version="1.0" encoding="UTF-8"?>
<!DOCTYPE svg PUBLIC "-//W3C//DTD SVG 1.1//EN" "http://www.w3.org/Graphics/SVG/1.1/DTD/svg11.dtd">
<svg version="1.2" width="200mm" height="200mm" viewBox="0 0 20000 20000" preserveAspectRatio="xMidYMid" fill-rule="evenodd" stroke-width="28.222" stroke-linejoin="round" xmlns="http://www.w3.org/2000/svg" xmlns:ooo="http://xml.openoffice.org/svg/export" xmlns:xlink="http://www.w3.org/1999/xlink" xmlns:presentation="http://sun.com/xmlns/staroffice/presentation" xmlns:smil="http://www.w3.org/2001/SMIL20/" xmlns:anim="urn:oasis:names:tc:opendocument:xmlns:animation:1.0" xml:space="preserve">
 <defs class="ClipPathGroup">
  <clipPath id="presentation_clip_path" clipPathUnits="userSpaceOnUse">
   <rect x="0" y="0" width="20000" height="20000"/>
  </clipPath>
  <clipPath id="presentation_clip_path_shrink" clipPathUnits="userSpaceOnUse">
   <rect x="20" y="20" width="19960" height="19960"/>
  </clipPath>
 </defs>
 <defs class="TextShapeIndex">
  <g ooo:slide="id1" ooo:id-list="id3 id4 id5 id6 id7 id8 id9 id10 id11 id12 id13 id14 id15 id16 id17 id18 id19 id20 id21 id22 id23 id24 id25 id26 id27 id28 id29"/>
 </defs>
 <defs class="EmbeddedBulletChars">
  <g id="bullet-char-template-57356" transform="scale(0.00048828125,-0.00048828125)">
   <path d="M 580,1141 L 1163,571 580,0 -4,571 580,1141 Z"/>
  </g>
  <g id="bullet-char-template-57354" transform="scale(0.00048828125,-0.00048828125)">
   <path d="M 8,1128 L 1137,1128 1137,0 8,0 8,1128 Z"/>
  </g>
  <g id="bullet-char-template-10146" transform="scale(0.00048828125,-0.00048828125)">
   <path d="M 174,0 L 602,739 174,1481 1456,739 174,0 Z M 1358,739 L 309,1346 659,739 1358,739 Z"/>
  </g>
  <g id="bullet-char-template-10132" transform="scale(0.00048828125,-0.00048828125)">
   <path d="M 2015,739 L 1276,0 717,0 1260,543 174,543 174,936 1260,936 717,1481 1274,1481 2015,739 Z"/>
  </g>
  <g id="bullet-char-template-10007" transform="scale(0.00048828125,-0.00048828125)">
   <path d="M 0,-2 C -7,14 -16,27 -25,37 L 356,567 C 262,823 215,952 215,954 215,979 228,992 255,992 264,992 276,990 289,987 310,991 331,999 354,1012 L 381,999 492,748 772,1049 836,1024 860,1049 C 881,1039 901,1025 922,1006 886,937 835,863 770,784 769,783 710,716 594,584 L 774,223 C 774,196 753,168 711,139 L 727,119 C 717,90 699,76 672,76 641,76 570,178 457,381 L 164,-76 C 142,-110 111,-127 72,-127 30,-127 9,-110 8,-76 1,-67 -2,-52 -2,-32 -2,-23 -1,-13 0,-2 Z"/>
  </g>
  <g id="bullet-char-template-10004" transform="scale(0.00048828125,-0.00048828125)">
   <path d="M 285,-33 C 182,-33 111,30 74,156 52,228 41,333 41,471 41,549 55,616 82,672 116,743 169,778 240,778 293,778 328,747 346,684 L 369,508 C 377,444 397,411 428,410 L 1163,1116 C 1174,1127 1196,1133 1229,1133 1271,1133 1292,1118 1292,1087 L 1292,965 C 1292,929 1282,901 1262,881 L 442,47 C 390,-6 338,-33 285,-33 Z"/>
  </g>
  <g id="bullet-char-template-9679" transform="scale(0.00048828125,-0.00048828125)">
   <path d="M 813,0 C 632,0 489,54 383,161 276,268 223,411 223,592 223,773 276,916 383,1023 489,1130 632,1184 813,1184 992,1184 1136,1130 1245,1023 1353,916 1407,772 1407,592 1407,412 1353,268 1245,161 1136,54 992,0 813,0 Z"/>
  </g>
  <g id="bullet-char-template-8226" transform="scale(0.00048828125,-0.00048828125)">
   <path d="M 346,457 C 273,457 209,483 155,535 101,586 74,649 74,723 74,796 101,859 155,911 209,963 273,989 346,989 419,989 480,963 531,910 582,859 608,796 608,723 608,648 583,586 532,535 482,483 420,457 346,457 Z"/>
  </g>
  <g id="bullet-char-template-8211" transform="scale(0.00048828125,-0.00048828125)">
   <path d="M -4,459 L 1135,459 1135,606 -4,606 -4,459 Z"/>
  </g>
  <g id="bullet-char-template-61548" transform="scale(0.00048828125,-0.00048828125)">
   <path d="M 173,740 C 173,903 231,1043 346,1159 462,1274 601,1332 765,1332 928,1332 1067,1274 1183,1159 1299,1043 1357,903 1357,740 1357,577 1299,437 1183,322 1067,206 928,148 765,148 601,148 462,206 346,322 231,437 173,577 173,740 Z"/>
  </g>
 </defs>
 <g>
  <g id="id2" class="Master_Slide">
   <g id="bg-id2" class="Background"/>
   <g id="bo-id2" class="BackgroundObjects"/>
  </g>
 </g>
 <g class="SlideGroup">
  <g>
   <g id="container-id1">
    <g id="id1" class="Slide" clip-path="url(#presentation_clip_path)">
     <g class="Page">
      <g class="Group">
       <g class="com.sun.star.drawing.PolyPolygonShape">
        <g id="id3">
         <rect class="BoundingBox" stroke="none" fill="none" x="2597" y="2750" width="14574" height="14472"/>
        </g>
       </g>
       <g class="Group">
        <g class="com.sun.star.drawing.PolyPolygonShape">
         <g id="id4">
          <rect class="BoundingBox" stroke="none" fill="none" x="2000" y="12194" width="2435" height="2410"/>
          <path fill="rgb(97,97,97)" stroke="none" d="M 2000,13034 L 3622,12194 3876,12684 2922,13552 4180,13269 4434,13761 2812,14602 2654,14297 3931,13636 2487,13975 2324,13660 3435,12677 2158,13339 2000,13034 Z"/>
         </g>
        </g>
        <g class="com.sun.star.drawing.PolyPolygonShape">
         <g id="id5">
          <rect class="BoundingBox" stroke="none" fill="none" x="3381" y="14095" width="1861" height="1866"/>
          <path fill="rgb(97,97,97)" stroke="none" d="M 3575,14681 L 3843,14922 3817,14958 3795,14993 3776,15030 3761,15064 3750,15098 3742,15132 3739,15149 3738,15165 3737,15181 3737,15198 3738,15214 3740,15231 3743,15247 3746,15263 3756,15295 3769,15327 3785,15358 3805,15390 3828,15421 3855,15453 3885,15484 3916,15511 3945,15535 3975,15555 4004,15571 4019,15578 4034,15584 4048,15589 4063,15593 4077,15596 4092,15599 4121,15601 4148,15601 4161,15600 4174,15599 4186,15596 4198,15593 4210,15590 4222,15586 4233,15581 4243,15575 4254,15569 4264,15562 4274,15555 4283,15546 4294,15535 4305,15524 4314,15512 4322,15499 4328,15486 4333,15473 4337,15459 4339,15444 4340,15437 4340,15429 4340,15412 4338,15395 4335,15376 4331,15357 4325,15337 4317,15315 4308,15293 4288,15252 4258,15193 4167,15022 4132,14955 4103,14894 4076,14835 4056,14779 4040,14728 4028,14679 4021,14634 4019,14613 4018,14592 4020,14537 4022,14510 4027,14484 4032,14459 4039,14434 4046,14410 4056,14386 4066,14363 4078,14341 4091,14319 4106,14298 4121,14277 4138,14258 4175,14220 4201,14197 4229,14176 4257,14158 4287,14143 4320,14129 4352,14118 4386,14108 4421,14101 4456,14097 4492,14095 4529,14096 4565,14100 4601,14107 4638,14116 4674,14129 4711,14144 4749,14162 4785,14183 4821,14207 4857,14233 4893,14262 4930,14294 4966,14328 5001,14366 5056,14429 5103,14491 5144,14552 5178,14614 5204,14674 5214,14703 5223,14733 5230,14762 5235,14791 5239,14821 5240,14850 5241,14878 5239,14906 5236,14934 5232,14961 5226,14988 5219,15014 5211,15041 5201,15066 5189,15091 5176,15116 5162,15140 5146,15164 5109,15211 5067,15256 4806,14995 4826,14967 4844,14940 4858,14913 4870,14886 4878,14860 4881,14847 4884,14834 4886,14822 4887,14808 4887,14796 4886,14783 4885,14771 4883,14758 4880,14746 4877,14733 4867,14707 4855,14681 4839,14654 4820,14627 4799,14598 4774,14569 4747,14541 4720,14516 4692,14494 4665,14475 4637,14459 4610,14446 4583,14436 4569,14432 4555,14429 4547,14428 4538,14427 4529,14426 4521,14426 4513,14426 4504,14427 4496,14429 4488,14430 4481,14433 4473,14436 4466,14439 4459,14443 4452,14447 4445,14452 4438,14457 4432,14463 4426,14468 4421,14474 4416,14480 4411,14486 4407,14493 4403,14499 4400,14506 4397,14513 4394,14521 4392,14528 4390,14536 4389,14544 4387,14560 4387,14578 4388,14589 4390,14603 4398,14633 4409,14668 4424,14707 4443,14750 4467,14799 4527,14910 4588,15025 4637,15126 4657,15172 4674,15215 4688,15256 4699,15293 4707,15328 4712,15362 4717,15397 4718,15432 4717,15466 4712,15500 4707,15533 4698,15567 4688,15600 4674,15632 4658,15665 4639,15696 4617,15727 4592,15758 4565,15788 4534,15817 4504,15843 4473,15866 4441,15886 4407,15904 4372,15920 4336,15933 4297,15944 4258,15952 4218,15957 4178,15960 4139,15959 4098,15955 4059,15948 4020,15938 3981,15925 3941,15908 3902,15889 3862,15866 3823,15840 3783,15810 3744,15777 3704,15742 3663,15703 3623,15661 3568,15596 3520,15533 3479,15471 3445,15407 3419,15345 3408,15314 3399,15283 3392,15253 3387,15221 3383,15190 3381,15160 3381,15129 3382,15099 3386,15069 3390,15039 3397,15007 3405,14977 3426,14918 3453,14858 3488,14798 3528,14739 3575,14681 Z"/>
         </g>
        </g>
        <g class="com.sun.star.drawing.PolyPolygonShape">
         <g id="id6">
          <rect class="BoundingBox" stroke="none" fill="none" x="5396" y="15588" width="1729" height="1925"/>
          <path fill="rgb(97,97,97)" stroke="none" d="M 5460,16467 L 5793,16608 5780,16651 5770,16692 5764,16732 5761,16769 5761,16805 5765,16840 5768,16856 5772,16873 5776,16888 5782,16904 5788,16919 5795,16934 5803,16949 5811,16963 5831,16990 5853,17015 5879,17040 5908,17063 5941,17085 5976,17106 6015,17125 6052,17142 6088,17155 6123,17164 6156,17170 6172,17172 6188,17173 6204,17173 6219,17172 6234,17171 6248,17168 6276,17161 6301,17152 6313,17147 6326,17142 6337,17135 6347,17129 6357,17120 6366,17113 6375,17104 6384,17096 6391,17086 6399,17077 6406,17066 6412,17056 6419,17041 6424,17027 6429,17013 6432,16999 6434,16984 6434,16970 6433,16956 6431,16941 6429,16934 6427,16926 6422,16910 6414,16894 6405,16878 6395,16861 6382,16844 6368,16826 6352,16808 6321,16776 6273,16730 6131,16597 6076,16547 6028,16497 5985,16450 5948,16405 5916,16361 5888,16319 5866,16278 5858,16259 5850,16240 5834,16187 5828,16161 5824,16135 5820,16109 5819,16083 5818,16057 5819,16032 5822,16007 5825,15982 5831,15958 5837,15933 5845,15909 5854,15884 5877,15836 5895,15806 5915,15778 5937,15752 5960,15727 5985,15704 6012,15682 6041,15662 6071,15644 6104,15628 6138,15615 6172,15604 6208,15596 6244,15591 6282,15588 6321,15588 6361,15590 6401,15596 6442,15603 6484,15614 6528,15627 6572,15642 6616,15661 6661,15682 6706,15706 6779,15748 6844,15791 6902,15836 6954,15882 6999,15931 7018,15956 7036,15981 7052,16006 7066,16032 7079,16058 7090,16085 7099,16113 7107,16140 7113,16167 7118,16194 7122,16221 7123,16248 7124,16275 7122,16303 7120,16331 7116,16359 7110,16386 7103,16414 7084,16470 7059,16527 6726,16365 6738,16332 6745,16299 6750,16269 6752,16240 6752,16213 6751,16200 6749,16187 6746,16174 6743,16162 6739,16150 6735,16139 6728,16127 6722,16116 6716,16105 6708,16093 6691,16072 6670,16051 6647,16031 6620,16011 6591,15991 6558,15973 6523,15955 6489,15940 6456,15928 6424,15919 6393,15913 6363,15909 6334,15909 6320,15910 6305,15911 6296,15912 6288,15914 6279,15916 6271,15919 6264,15922 6257,15926 6250,15929 6243,15934 6236,15938 6230,15943 6225,15949 6219,15955 6214,15961 6209,15968 6204,15975 6200,15983 6196,15990 6193,15997 6190,16004 6188,16012 6186,16019 6185,16026 6184,16034 6183,16042 6183,16049 6184,16057 6184,16065 6186,16073 6190,16089 6195,16107 6200,16118 6206,16129 6223,16155 6244,16184 6271,16216 6304,16251 6343,16289 6435,16375 6531,16463 6610,16544 6644,16581 6674,16616 6700,16649 6722,16680 6742,16711 6759,16742 6773,16774 6785,16806 6795,16839 6803,16872 6808,16905 6811,16940 6812,16975 6810,17010 6805,17046 6797,17081 6786,17118 6773,17156 6756,17193 6737,17230 6716,17264 6695,17296 6671,17325 6645,17354 6617,17380 6587,17404 6555,17427 6519,17447 6483,17466 6447,17481 6409,17493 6370,17502 6331,17508 6289,17511 6248,17511 6206,17509 6162,17503 6118,17494 6071,17482 6024,17467 5976,17450 5927,17429 5876,17405 5824,17378 5752,17336 5685,17291 5626,17245 5574,17197 5529,17147 5509,17120 5489,17094 5473,17067 5458,17040 5444,17012 5433,16984 5423,16955 5414,16926 5407,16895 5402,16865 5398,16835 5396,16804 5396,16740 5403,16674 5416,16607 5435,16539 5460,16467 Z"/>
         </g>
        </g>
        <g class="com.sun.star.drawing.PolyPolygonShape">
         <g id="id7">
          <rect class="BoundingBox" stroke="none" fill="none" x="7301" y="16113" width="1482" height="2007"/>
          <path fill="rgb(97,97,97)" stroke="none" d="M 7413,18018 L 7823,16557 7301,16410 7384,16113 8782,16506 8699,16803 8178,16657 7767,18119 7413,18018 Z"/>
         </g>
        </g>
        <g class="com.sun.star.drawing.PolyPolygonShape">
         <g id="id8">
          <rect class="BoundingBox" stroke="none" fill="none" x="8701" y="17989" width="390" height="390"/>
          <path fill="rgb(97,97,97)" stroke="none" d="M 8701,18337 L 8742,17989 9090,18030 9049,18378 8701,18337 Z"/>
         </g>
        </g>
        <g class="com.sun.star.drawing.PolyPolygonShape">
         <g id="id9">
          <rect class="BoundingBox" stroke="none" fill="none" x="10257" y="16436" width="1813" height="1974"/>
          <path fill="rgb(97,97,97)" stroke="none" d="M 12069,18131 L 11673,18193 11452,17806 10730,17916 10644,18349 10257,18409 10684,16495 11070,16436 12069,18131 Z M 11289,17519 L 10937,16887 10796,17595 11289,17519 Z"/>
         </g>
        </g>
        <g class="com.sun.star.drawing.PolyPolygonShape">
         <g id="id10">
          <rect class="BoundingBox" stroke="none" fill="none" x="11823" y="15725" width="2051" height="2250"/>
          <path fill="rgb(97,97,97)" stroke="none" d="M 12540,17974 L 11823,16294 12154,16153 13320,16982 12841,15860 13157,15725 13873,17405 13533,17551 12388,16744 12855,17840 12540,17974 Z"/>
         </g>
        </g>
        <g class="com.sun.star.drawing.PolyPolygonShape">
         <g id="id11">
          <rect class="BoundingBox" stroke="none" fill="none" x="13349" y="14975" width="2025" height="2087"/>
          <path fill="rgb(97,97,97)" stroke="none" d="M 13350,15613 L 13885,15201 13971,15138 14049,15086 14086,15064 14119,15045 14151,15030 14181,15017 14220,15003 14259,14992 14300,14984 14340,14978 14380,14975 14420,14975 14461,14977 14503,14983 14543,14990 14584,15000 14624,15013 14664,15027 14704,15044 14743,15064 14782,15087 14821,15111 14859,15138 14899,15168 14937,15202 14976,15238 15014,15278 15053,15321 15092,15367 15132,15416 15165,15461 15195,15505 15223,15549 15248,15592 15271,15634 15291,15676 15310,15718 15325,15759 15340,15808 15352,15857 15362,15906 15369,15953 15372,15999 15373,16045 15371,16089 15366,16134 15360,16168 15352,16201 15341,16235 15328,16268 15312,16303 15293,16338 15272,16373 15249,16408 15230,16434 15207,16461 15182,16489 15154,16518 15124,16547 15089,16577 15014,16637 14464,17061 13350,15613 Z M 13831,15632 L 14569,16592 14787,16424 14843,16379 14890,16340 14910,16322 14927,16304 14941,16288 14953,16274 14967,16256 14979,16237 14990,16219 15000,16200 15008,16181 15015,16162 15021,16143 15025,16123 15027,16102 15028,16081 15027,16058 15024,16034 15019,16008 15013,15982 15004,15954 14994,15925 14981,15893 14966,15861 14948,15827 14928,15792 14878,15718 14819,15636 14757,15559 14727,15525 14698,15494 14669,15465 14643,15441 14617,15419 14592,15401 14567,15385 14543,15371 14519,15359 14495,15349 14470,15340 14447,15333 14424,15328 14401,15325 14378,15324 14354,15324 14331,15326 14308,15329 14285,15335 14260,15342 14236,15350 14213,15361 14193,15371 14170,15384 14115,15420 14045,15469 13962,15532 13831,15632 Z"/>
         </g>
        </g>
        <g class="com.sun.star.drawing.PolyPolygonShape">
         <g id="id12">
          <rect class="BoundingBox" stroke="none" fill="none" x="14665" y="13588" width="2452" height="2105"/>
          <path fill="rgb(97,97,97)" stroke="none" d="M 16107,15691 L 14665,14569 15142,13956 15228,13850 15268,13805 15307,13764 15343,13729 15378,13698 15411,13671 15442,13650 15473,13633 15504,13619 15536,13607 15569,13598 15604,13592 15639,13589 15674,13588 15711,13590 15747,13595 15783,13603 15819,13613 15854,13626 15888,13641 15922,13659 15954,13680 15986,13704 16026,13737 16060,13771 16090,13806 16116,13843 16139,13882 16157,13923 16170,13965 16180,14008 16184,14030 16186,14053 16187,14075 16187,14098 16183,14146 16174,14194 16161,14243 16142,14293 16120,14345 16092,14397 16155,14374 16186,14364 16217,14356 16247,14349 16277,14343 16306,14339 16334,14336 16365,14334 16399,14333 16482,14335 16581,14341 16698,14352 17116,14395 16845,14743 16367,14709 16156,14696 16085,14695 16058,14696 16036,14697 16018,14699 16000,14702 15982,14706 15966,14711 15950,14717 15935,14724 15921,14731 15908,14739 15894,14748 15880,14760 15865,14773 15849,14789 15833,14806 15815,14826 15777,14872 15731,14932 16333,15400 16107,15691 Z M 15501,14753 L 15669,14537 15742,14441 15797,14363 15818,14331 15835,14303 15847,14280 15852,14270 15855,14261 15860,14245 15864,14228 15866,14212 15867,14196 15867,14180 15865,14164 15862,14148 15858,14133 15852,14117 15845,14102 15836,14086 15826,14072 15815,14058 15802,14044 15787,14031 15772,14018 15754,14005 15735,13994 15717,13985 15699,13977 15680,13972 15662,13968 15653,13967 15643,13966 15634,13966 15625,13966 15606,13968 15587,13972 15569,13977 15551,13984 15534,13994 15516,14004 15499,14017 15483,14031 15473,14042 15460,14056 15424,14099 15312,14240 15135,14467 15501,14753 Z"/>
         </g>
        </g>
        <g class="com.sun.star.drawing.PolyPolygonShape">
         <g id="id13">
          <rect class="BoundingBox" stroke="none" fill="none" x="15414" y="12033" width="2587" height="2090"/>
          <path fill="rgb(97,97,97)" stroke="none" d="M 18000,12438 L 17842,12807 17398,12790 17109,13460 17431,13762 17276,14122 15878,12747 16032,12389 18000,12438 Z M 17068,12777 L 16346,12740 16871,13235 17068,12777 Z M 15690,12921 L 15414,12803 15533,12526 15809,12645 15690,12921 Z M 15901,12429 L 15626,12310 15745,12033 16021,12152 15901,12429 Z"/>
         </g>
        </g>
       </g>
      </g>
      <g class="Group">
       <g class="com.sun.star.drawing.ClosedBezierShape">
        <g id="id14">
         <rect class="BoundingBox" stroke="none" fill="none" x="4078" y="10105" width="3130" height="3438"/>
         <path fill="rgb(211,47,47)" stroke="none" d="M 4279,11532 C 4154,11068 4087,10589 4078,10105 L 6880,10105 C 6887,11023 6999,11926 7206,12745 7122,12766 7039,12789 6958,12812 6493,12947 6068,13111 5691,13299 5537,13376 5390,13457 5254,13542 5115,13357 4987,13163 4871,12961 4611,12511 4413,12030 4279,11532 Z"/>
        </g>
       </g>
       <g class="com.sun.star.drawing.ClosedBezierShape">
        <g id="id15">
         <rect class="BoundingBox" stroke="none" fill="none" x="5383" y="12951" width="3660" height="2895"/>
         <path fill="rgb(183,28,28)" stroke="none" d="M 5811,14188 C 5660,14037 5518,13879 5384,13712 5511,13634 5644,13560 5786,13490 6151,13307 6565,13148 7016,13017 7096,12994 7178,12972 7259,12951 7268,12982 7277,13013 7286,13044 7420,13510 7584,13936 7773,14312 7963,14691 8177,15021 8412,15292 8612,15524 8823,15707 9042,15845 8848,15813 8656,15772 8467,15721 7969,15588 7488,15389 7038,15130 6588,14869 6176,14553 5811,14188 Z"/>
        </g>
       </g>
       <g class="com.sun.star.drawing.ClosedBezierShape">
        <g id="id16">
         <rect class="BoundingBox" stroke="none" fill="none" x="10957" y="12950" width="3661" height="2896"/>
         <path fill="rgb(1,87,155)" stroke="none" d="M 11533,15721 C 11344,15772 11152,15813 10958,15845 11177,15707 11388,15524 11588,15292 11822,15021 12037,14691 12227,14312 12416,13936 12579,13510 12714,13044 12723,13013 12732,12982 12741,12950 12824,12971 12906,12994 12988,13017 13439,13148 13852,13307 14218,13490 14359,13560 14491,13633 14617,13710 14483,13878 14339,14036 14189,14188 13824,14553 13412,14869 12962,15130 12512,15389 12031,15588 11533,15721 Z"/>
        </g>
       </g>
       <g class="com.sun.star.drawing.ClosedBezierShape">
        <g id="id17">
         <rect class="BoundingBox" stroke="none" fill="none" x="12795" y="10104" width="3128" height="3438"/>
         <path fill="rgb(2,136,209)" stroke="none" d="M 15130,12961 C 15014,13162 14886,13355 14749,13541 14612,13456 14467,13375 14313,13299 13938,13111 13511,12947 13046,12812 12964,12788 12879,12766 12795,12744 13002,11926 13114,11023 13122,10105 L 15922,10105 C 15914,10589 15846,11068 15721,11532 15589,12030 15390,12511 15130,12961 Z"/>
        </g>
       </g>
       <g class="com.sun.star.drawing.ClosedBezierShape">
        <g id="id18">
         <rect class="BoundingBox" stroke="none" fill="none" x="12794" y="6458" width="3129" height="3436"/>
         <path fill="rgb(41,182,246)" stroke="none" d="M 15721,8467 C 15846,8930 15913,9409 15922,9893 L 13121,9893 C 13113,8974 13001,8073 12794,7255 12878,7233 12963,7211 13045,7187 13510,7052 13936,6888 14312,6700 14465,6624 14611,6542 14748,6458 14885,6643 15013,6837 15129,7038 15390,7488 15588,7968 15721,8467 Z"/>
        </g>
       </g>
       <g class="com.sun.star.drawing.ClosedBezierShape">
        <g id="id19">
         <rect class="BoundingBox" stroke="none" fill="none" x="10953" y="4153" width="3664" height="2896"/>
         <path fill="rgb(129,212,250)" stroke="none" d="M 14188,5811 C 14339,5962 14482,6122 14616,6288 14490,6365 14357,6439 14217,6508 13851,6691 13437,6850 12986,6981 12905,7005 12822,7027 12739,7048 12731,7017 12722,6987 12713,6956 12579,6490 12415,6065 12226,5688 12037,5309 11822,4979 11587,4709 11386,4476 11173,4291 10953,4153 11148,4185 11342,4226 11533,4278 12030,4411 12511,4609 12961,4869 13411,5129 13823,5446 14188,5811 Z"/>
        </g>
       </g>
       <g class="com.sun.star.drawing.ClosedBezierShape">
        <g id="id20">
         <rect class="BoundingBox" stroke="none" fill="none" x="5384" y="4153" width="3664" height="2896"/>
         <path fill="rgb(239,154,154)" stroke="none" d="M 8467,4278 C 8658,4226 8851,4185 9047,4153 8826,4291 8613,4476 8412,4709 8178,4979 7963,5309 7773,5688 7585,6065 7421,6490 7286,6956 7277,6986 7269,7017 7260,7048 7178,7027 7096,7004 7016,6981 6564,6850 6151,6691 5785,6508 5644,6438 5510,6365 5384,6287 5518,6121 5660,5962 5811,5811 6176,5446 6588,5129 7038,4869 7488,4609 7969,4411 8467,4278 Z"/>
        </g>
       </g>
       <g class="com.sun.star.drawing.ClosedBezierShape">
        <g id="id21">
         <rect class="BoundingBox" stroke="none" fill="none" x="4078" y="6457" width="3130" height="3437"/>
         <path fill="rgb(239,83,80)" stroke="none" d="M 4871,7038 C 4987,6837 5115,6643 5253,6457 5390,6541 5536,6623 5690,6700 6067,6888 6492,7052 6957,7187 7039,7210 7122,7233 7206,7254 6999,8072 6888,8974 6880,9893 L 4078,9893 C 4087,9409 4154,8930 4279,8467 4413,7968 4611,7488 4871,7038 Z"/>
        </g>
       </g>
       <g class="com.sun.star.drawing.ClosedBezierShape">
        <g id="id22">
         <rect class="BoundingBox" stroke="none" fill="none" x="7467" y="12619" width="2427" height="3302"/>
         <path fill="rgb(245,127,23)" stroke="none" d="M 7491,12987 C 7483,12958 7475,12930 7467,12900 8226,12723 9053,12627 9893,12619 L 9893,15920 C 9806,15914 9719,15899 9633,15876 9510,15844 9389,15795 9270,15732 9027,15602 8792,15408 8573,15153 8349,14895 8144,14580 7963,14218 7781,13852 7622,13438 7491,12987 Z"/>
        </g>
       </g>
       <g class="com.sun.star.drawing.ClosedBezierShape">
        <g id="id23">
         <rect class="BoundingBox" stroke="none" fill="none" x="7092" y="7305" width="2803" height="2589"/>
         <path fill="rgb(255,238,88)" stroke="none" d="M 9894,7593 L 9894,9893 7092,9893 C 7100,8991 7210,8107 7413,7305 8188,7487 9033,7586 9894,7593 Z"/>
        </g>
       </g>
       <g class="com.sun.star.drawing.ClosedBezierShape">
        <g id="id24">
         <rect class="BoundingBox" stroke="none" fill="none" x="7092" y="10105" width="2803" height="2590"/>
         <path fill="rgb(251,192,45)" stroke="none" d="M 7413,12694 C 7210,11891 7100,11006 7092,10105 L 9894,10105 9894,12405 C 9033,12412 8188,12511 7413,12694 Z"/>
        </g>
       </g>
       <g class="com.sun.star.drawing.ClosedBezierShape">
        <g id="id25">
         <rect class="BoundingBox" stroke="none" fill="none" x="7467" y="4081" width="2427" height="3300"/>
         <path fill="rgb(255,245,157)" stroke="none" d="M 9893,4081 L 9893,7380 C 9052,7373 8226,7277 7467,7099 7475,7071 7483,7042 7491,7015 7621,6563 7781,6150 7962,5784 8144,5422 8348,5106 8572,4848 8792,4595 9027,4400 9270,4270 9388,4206 9510,4157 9633,4125 9719,4102 9805,4088 9893,4081 Z"/>
        </g>
       </g>
       <g class="com.sun.star.drawing.ClosedBezierShape">
        <g id="id26">
         <rect class="BoundingBox" stroke="none" fill="none" x="10106" y="12618" width="2429" height="3303"/>
         <path fill="rgb(51,105,30)" stroke="none" d="M 10367,15875 C 10281,15898 10193,15913 10106,15920 L 10106,12618 C 10947,12625 11774,12722 12534,12899 12526,12928 12517,12957 12509,12986 12378,13437 12219,13851 12036,14217 11856,14579 11651,14894 11427,15152 11207,15407 10973,15601 10730,15731 10610,15794 10490,15843 10367,15875 Z"/>
        </g>
       </g>
       <g class="com.sun.star.drawing.ClosedBezierShape">
        <g id="id27">
         <rect class="BoundingBox" stroke="none" fill="none" x="10105" y="7306" width="2805" height="2588"/>
         <path fill="rgb(156,204,101)" stroke="none" d="M 12587,7306 C 12790,8108 12900,8992 12909,9893 L 10106,9893 10106,7594 C 10966,7586 11811,7488 12587,7306 Z"/>
        </g>
       </g>
       <g class="com.sun.star.drawing.ClosedBezierShape">
        <g id="id28">
         <rect class="BoundingBox" stroke="none" fill="none" x="10105" y="10105" width="2805" height="2589"/>
         <path fill="rgb(104,159,56)" stroke="none" d="M 10106,12404 L 10106,10105 12909,10105 C 12901,11005 12791,11891 12588,12693 11812,12511 10966,12412 10106,12404 Z"/>
        </g>
       </g>
       <g class="com.sun.star.drawing.ClosedBezierShape">
        <g id="id29">
         <rect class="BoundingBox" stroke="none" fill="none" x="10106" y="4081" width="2428" height="3302"/>
         <path fill="rgb(197,225,165)" stroke="none" d="M 12509,7015 C 12517,7043 12525,7072 12533,7100 11774,7278 10947,7373 10106,7381 L 10106,4081 C 10193,4088 10281,4102 10367,4125 10490,4157 10610,4206 10730,4270 10973,4401 11207,4595 11427,4848 11651,5107 11856,5422 12036,5784 12219,6150 12378,6563 12509,7015 Z"/>
        </g>
       </g>
      </g>
     </g>
    </g>
   </g>
  </g>
 </g>
</svg>