<?xml version="1.0" encoding="UTF-8"?>
<!DOCTYPE svg PUBLIC "-//W3C//DTD SVG 1.1//EN" "http://www.w3.org/Graphics/SVG/1.1/DTD/svg11.dtd">
<svg version="1.2" width="210mm" height="210mm" viewBox="0 0 21000 21000" preserveAspectRatio="xMidYMid" fill-rule="evenodd" stroke-width="28.222" stroke-linejoin="round" xmlns="http://www.w3.org/2000/svg" xmlns:ooo="http://xml.openoffice.org/svg/export" xmlns:xlink="http://www.w3.org/1999/xlink" xmlns:presentation="http://sun.com/xmlns/staroffice/presentation" xmlns:smil="http://www.w3.org/2001/SMIL20/" xmlns:anim="urn:oasis:names:tc:opendocument:xmlns:animation:1.0" xml:space="preserve">
 <defs class="ClipPathGroup">
  <clipPath id="presentation_clip_path" clipPathUnits="userSpaceOnUse">
   <rect x="0" y="0" width="21000" height="21000"/>
  </clipPath>
  <clipPath id="presentation_clip_path_shrink" clipPathUnits="userSpaceOnUse">
   <rect x="21" y="21" width="20958" height="20958"/>
  </clipPath>
 </defs>
 <defs class="TextShapeIndex">
  <g ooo:slide="id1" ooo:id-list="id3 id4 id5 id6 id7 id8 id9 id10 id11 id12 id13 id14 id15 id16 id17 id18"/>
 </defs>
 <defs class="EmbeddedBulletChars">
  <g id="bullet-char-template-57356" transform="scale(0.00048828125,-0.00048828125)">
   <path d="M 580,1141 L 1163,571 580,0 -4,571 580,1141 Z"/>
  </g>
  <g id="bullet-char-template-57354" transform="scale(0.00048828125,-0.00048828125)">
   <path d="M 8,1128 L 1137,1128 1137,0 8,0 8,1128 Z"/>
  </g>
  <g id="bullet-char-template-10146" transform="scale(0.00048828125,-0.00048828125)">
   <path d="M 174,0 L 602,739 174,1481 1456,739 174,0 Z M 1358,739 L 309,1346 659,739 1358,739 Z"/>
  </g>
  <g id="bullet-char-template-10132" transform="scale(0.00048828125,-0.00048828125)">
   <path d="M 2015,739 L 1276,0 717,0 1260,543 174,543 174,936 1260,936 717,1481 1274,1481 2015,739 Z"/>
  </g>
  <g id="bullet-char-template-10007" transform="scale(0.00048828125,-0.00048828125)">
   <path d="M 0,-2 C -7,14 -16,27 -25,37 L 356,567 C 262,823 215,952 215,954 215,979 228,992 255,992 264,992 276,990 289,987 310,991 331,999 354,1012 L 381,999 492,748 772,1049 836,1024 860,1049 C 881,1039 901,1025 922,1006 886,937 835,863 770,784 769,783 710,716 594,584 L 774,223 C 774,196 753,168 711,139 L 727,119 C 717,90 699,76 672,76 641,76 570,178 457,381 L 164,-76 C 142,-110 111,-127 72,-127 30,-127 9,-110 8,-76 1,-67 -2,-52 -2,-32 -2,-23 -1,-13 0,-2 Z"/>
  </g>
  <g id="bullet-char-template-10004" transform="scale(0.00048828125,-0.00048828125)">
   <path d="M 285,-33 C 182,-33 111,30 74,156 52,228 41,333 41,471 41,549 55,616 82,672 116,743 169,778 240,778 293,778 328,747 346,684 L 369,508 C 377,444 397,411 428,410 L 1163,1116 C 1174,1127 1196,1133 1229,1133 1271,1133 1292,1118 1292,1087 L 1292,965 C 1292,929 1282,901 1262,881 L 442,47 C 390,-6 338,-33 285,-33 Z"/>
  </g>
  <g id="bullet-char-template-9679" transform="scale(0.00048828125,-0.00048828125)">
   <path d="M 813,0 C 632,0 489,54 383,161 276,268 223,411 223,592 223,773 276,916 383,1023 489,1130 632,1184 813,1184 992,1184 1136,1130 1245,1023 1353,916 1407,772 1407,592 1407,412 1353,268 1245,161 1136,54 992,0 813,0 Z"/>
  </g>
  <g id="bullet-char-template-8226" transform="scale(0.00048828125,-0.00048828125)">
   <path d="M 346,457 C 273,457 209,483 155,535 101,586 74,649 74,723 74,796 101,859 155,911 209,963 273,989 346,989 419,989 480,963 531,910 582,859 608,796 608,723 608,648 583,586 532,535 482,483 420,457 346,457 Z"/>
  </g>
  <g id="bullet-char-template-8211" transform="scale(0.00048828125,-0.00048828125)">
   <path d="M -4,459 L 1135,459 1135,606 -4,606 -4,459 Z"/>
  </g>
  <g id="bullet-char-template-61548" transform="scale(0.00048828125,-0.00048828125)">
   <path d="M 173,740 C 173,903 231,1043 346,1159 462,1274 601,1332 765,1332 928,1332 1067,1274 1183,1159 1299,1043 1357,903 1357,740 1357,577 1299,437 1183,322 1067,206 928,148 765,148 601,148 462,206 346,322 231,437 173,577 173,740 Z"/>
  </g>
 </defs>
 <g>
  <g id="id2" class="Master_Slide">
   <g id="bg-id2" class="Background"/>
   <g id="bo-id2" class="BackgroundObjects"/>
  </g>
 </g>
 <g class="SlideGroup">
  <g>
   <g id="container-id1">
    <g id="id1" class="Slide" clip-path="url(#presentation_clip_path)">
     <g class="Page">
      <g class="com.sun.star.drawing.ClosedBezierShape">
       <g id="id3">
        <rect class="BoundingBox" stroke="none" fill="none" x="4357" y="9106" width="3114" height="3421"/>
        <path fill="rgb(211,47,47)" stroke="none" d="M 4557,10526 C 4433,10064 4366,9588 4357,9106 L 7145,9106 C 7152,10020 7264,10918 7470,11733 7386,11754 7304,11777 7223,11800 6760,11934 6337,12097 5962,12284 5809,12361 5663,12442 5527,12526 5389,12342 5262,12149 5146,11948 4887,11500 4690,11022 4557,10526 Z"/>
       </g>
      </g>
      <g class="com.sun.star.drawing.ClosedBezierShape">
       <g id="id4">
        <rect class="BoundingBox" stroke="none" fill="none" x="5657" y="11938" width="3641" height="2881"/>
        <path fill="rgb(183,28,28)" stroke="none" d="M 6082,13169 C 5932,13019 5790,12861 5657,12695 5783,12618 5916,12544 6057,12474 6420,12292 6832,12134 7281,12004 7361,11981 7442,11959 7523,11938 7532,11969 7541,12000 7550,12031 7683,12494 7846,12918 8034,13292 8223,13670 8436,13998 8670,14268 8869,14498 9079,14681 9297,14818 9104,14786 8913,14745 8725,14694 8229,14562 7751,14364 7303,14106 6855,13847 6445,13532 6082,13169 Z"/>
       </g>
      </g>
      <g class="com.sun.star.drawing.ClosedBezierShape">
       <g id="id5">
        <rect class="BoundingBox" stroke="none" fill="none" x="11204" y="11937" width="3643" height="2882"/>
        <path fill="rgb(1,87,155)" stroke="none" d="M 11776,14694 C 11588,14745 11397,14786 11204,14818 11422,14681 11632,14498 11831,14268 12064,13998 12278,13670 12467,13292 12655,12918 12817,12494 12951,12031 12960,12000 12969,11969 12978,11937 13061,11958 13143,11981 13224,12004 13673,12134 14084,12292 14448,12474 14588,12544 14720,12617 14845,12693 14712,12860 14569,13018 14419,13169 14056,13532 13646,13847 13198,14106 12750,14364 12272,14562 11776,14694 Z"/>
       </g>
      </g>
      <g class="com.sun.star.drawing.ClosedBezierShape">
       <g id="id6">
        <rect class="BoundingBox" stroke="none" fill="none" x="13031" y="9106" width="3114" height="3420"/>
        <path fill="rgb(2,136,209)" stroke="none" d="M 15356,11948 C 15240,12148 15113,12340 14976,12525 14840,12441 14696,12360 14543,12284 14169,12097 13745,11934 13282,11800 13200,11776 13116,11754 13032,11732 13238,10918 13349,10020 13357,9106 L 16144,9106 C 16136,9588 16068,10064 15944,10526 15812,11022 15614,11500 15356,11948 Z"/>
       </g>
      </g>
      <g class="com.sun.star.drawing.ClosedBezierShape">
       <g id="id7">
        <rect class="BoundingBox" stroke="none" fill="none" x="13031" y="5476" width="3114" height="3419"/>
        <path fill="rgb(41,182,246)" stroke="none" d="M 15944,7475 C 16068,7936 16135,8413 16144,8894 L 13356,8894 C 13348,7980 13237,7083 13031,6269 13115,6247 13199,6225 13281,6201 13744,6067 14167,5904 14542,5717 14694,5641 14839,5560 14975,5476 15112,5660 15239,5853 15355,6053 15614,6501 15811,6979 15944,7475 Z"/>
       </g>
      </g>
      <g class="com.sun.star.drawing.ClosedBezierShape">
       <g id="id8">
        <rect class="BoundingBox" stroke="none" fill="none" x="11199" y="3183" width="3646" height="2882"/>
        <path fill="rgb(129,212,250)" stroke="none" d="M 14418,4833 C 14568,4983 14711,5142 14844,5308 14719,5384 14586,5458 14447,5527 14083,5709 13671,5867 13222,5997 13141,6021 13059,6043 12976,6064 12968,6033 12959,6003 12950,5972 12817,5509 12654,5086 12466,4711 12278,4333 12064,4005 11830,3736 11630,3504 11418,3320 11199,3183 11393,3215 11586,3256 11776,3307 12271,3440 12749,3637 13197,3896 13645,4154 14055,4470 14418,4833 Z"/>
       </g>
      </g>
      <g class="com.sun.star.drawing.ClosedBezierShape">
       <g id="id9">
        <rect class="BoundingBox" stroke="none" fill="none" x="5657" y="3183" width="3646" height="2882"/>
        <path fill="rgb(239,154,154)" stroke="none" d="M 8725,3307 C 8915,3256 9107,3215 9302,3183 9082,3320 8870,3504 8670,3736 8437,4005 8223,4333 8034,4711 7847,5086 7684,5509 7550,5972 7541,6002 7533,6033 7524,6064 7442,6043 7361,6020 7281,5997 6831,5867 6420,5709 6056,5527 5916,5457 5782,5384 5657,5307 5790,5141 5932,4983 6082,4833 6445,4470 6855,4154 7303,3896 7751,3637 8229,3440 8725,3307 Z"/>
       </g>
      </g>
      <g class="com.sun.star.drawing.ClosedBezierShape">
       <g id="id10">
        <rect class="BoundingBox" stroke="none" fill="none" x="4357" y="5475" width="3114" height="3420"/>
        <path fill="rgb(239,83,80)" stroke="none" d="M 5146,6053 C 5262,5853 5389,5660 5526,5475 5663,5559 5808,5640 5961,5717 6336,5904 6759,6067 7222,6201 7304,6224 7386,6247 7470,6268 7264,7082 7153,7980 7145,8894 L 4357,8894 C 4366,8413 4433,7936 4557,7475 4690,6979 4887,6501 5146,6053 Z"/>
       </g>
      </g>
      <g class="com.sun.star.drawing.ClosedBezierShape">
       <g id="id11">
        <rect class="BoundingBox" stroke="none" fill="none" x="7730" y="11607" width="2415" height="3287"/>
        <path fill="rgb(245,127,23)" stroke="none" d="M 7754,11973 C 7746,11944 7738,11916 7730,11887 8485,11710 9308,11615 10144,11607 L 10144,14892 C 10058,14886 9971,14871 9885,14848 9763,14816 9643,14768 9524,14705 9282,14575 9049,14382 8831,14129 8608,13872 8404,13558 8224,13198 8042,12834 7884,12422 7754,11973 Z"/>
       </g>
      </g>
      <g class="com.sun.star.drawing.ClosedBezierShape">
       <g id="id12">
        <rect class="BoundingBox" stroke="none" fill="none" x="7356" y="6319" width="2789" height="2576"/>
        <path fill="rgb(255,238,88)" stroke="none" d="M 10144,6606 L 10144,8894 7356,8894 C 7364,7997 7473,7117 7675,6319 8447,6500 9288,6599 10144,6606 Z"/>
       </g>
      </g>
      <g class="com.sun.star.drawing.ClosedBezierShape">
       <g id="id13">
        <rect class="BoundingBox" stroke="none" fill="none" x="7356" y="9105" width="2789" height="2578"/>
        <path fill="rgb(251,192,45)" stroke="none" d="M 7675,11682 C 7473,10883 7364,10003 7356,9106 L 10144,9106 10144,11395 C 9288,11402 8447,11500 7675,11682 Z"/>
       </g>
      </g>
      <g class="com.sun.star.drawing.ClosedBezierShape">
       <g id="id14">
        <rect class="BoundingBox" stroke="none" fill="none" x="7730" y="3111" width="2415" height="3285"/>
        <path fill="rgb(255,245,157)" stroke="none" d="M 10144,3111 L 10144,6394 C 9307,6387 8485,6291 7730,6114 7738,6086 7746,6058 7754,6031 7883,5581 8042,5170 8223,4806 8404,4445 8607,4131 8830,3874 9049,3622 9282,3428 9524,3299 9642,3235 9763,3187 9885,3155 9971,3132 10057,3118 10144,3111 Z"/>
       </g>
      </g>
      <g class="com.sun.star.drawing.ClosedBezierShape">
       <g id="id15">
        <rect class="BoundingBox" stroke="none" fill="none" x="10356" y="11606" width="2417" height="3287"/>
        <path fill="rgb(51,105,30)" stroke="none" d="M 10616,14847 C 10530,14870 10443,14885 10356,14892 L 10356,11606 C 11193,11613 12016,11709 12772,11886 12764,11914 12755,11943 12747,11972 12617,12421 12459,12833 12277,13197 12097,13557 11893,13871 11671,14128 11452,14381 11219,14574 10977,14704 10858,14767 10738,14815 10616,14847 Z"/>
       </g>
      </g>
      <g class="com.sun.star.drawing.ClosedBezierShape">
       <g id="id16">
        <rect class="BoundingBox" stroke="none" fill="none" x="10356" y="6320" width="2790" height="2575"/>
        <path fill="rgb(156,204,101)" stroke="none" d="M 12825,6320 C 13027,7118 13136,7998 13145,8894 L 10356,8894 10356,6607 C 11212,6599 12053,6501 12825,6320 Z"/>
       </g>
      </g>
      <g class="com.sun.star.drawing.ClosedBezierShape">
       <g id="id17">
        <rect class="BoundingBox" stroke="none" fill="none" x="10356" y="9106" width="2790" height="2577"/>
        <path fill="rgb(104,159,56)" stroke="none" d="M 10356,11394 L 10356,9106 13145,9106 C 13137,10002 13028,10883 12826,11681 12054,11500 11212,11402 10356,11394 Z"/>
       </g>
      </g>
      <g class="com.sun.star.drawing.ClosedBezierShape">
       <g id="id18">
        <rect class="BoundingBox" stroke="none" fill="none" x="10356" y="3110" width="2416" height="3286"/>
        <path fill="rgb(197,225,165)" stroke="none" d="M 12747,6031 C 12755,6059 12763,6087 12771,6115 12016,6292 11193,6387 10356,6395 L 10356,3111 C 10443,3118 10530,3132 10616,3155 10738,3187 10858,3235 10977,3299 11219,3429 11452,3622 11671,3874 11893,4132 12097,4445 12277,4806 12459,5170 12617,5581 12747,6031 Z"/>
       </g>
      </g>
     </g>
    </g>
   </g>
  </g>
 </g>
</svg>