<?xml version="1.0" encoding="UTF-8"?>
<!DOCTYPE svg PUBLIC "-//W3C//DTD SVG 1.1//EN" "http://www.w3.org/Graphics/SVG/1.1/DTD/svg11.dtd">
<svg version="1.2" width="210.26mm" height="210.26mm" viewBox="0 0 21026 21026" preserveAspectRatio="xMidYMid" fill-rule="evenodd" stroke-width="28.222" stroke-linejoin="round" xmlns="http://www.w3.org/2000/svg" xmlns:ooo="http://xml.openoffice.org/svg/export" xmlns:xlink="http://www.w3.org/1999/xlink" xmlns:presentation="http://sun.com/xmlns/staroffice/presentation" xmlns:smil="http://www.w3.org/2001/SMIL20/" xmlns:anim="urn:oasis:names:tc:opendocument:xmlns:animation:1.0" xml:space="preserve">
 <defs class="ClipPathGroup">
  <clipPath id="presentation_clip_path" clipPathUnits="userSpaceOnUse">
   <rect x="0" y="0" width="21026" height="21026"/>
  </clipPath>
  <clipPath id="presentation_clip_path_shrink" clipPathUnits="userSpaceOnUse">
   <rect x="21" y="21" width="20984" height="20984"/>
  </clipPath>
 </defs>
 <defs class="TextShapeIndex">
  <g ooo:slide="id1" ooo:id-list="id3 id4"/>
 </defs>
 <defs class="EmbeddedBulletChars">
  <g id="bullet-char-template-57356" transform="scale(0.00048828125,-0.00048828125)">
   <path d="M 580,1141 L 1163,571 580,0 -4,571 580,1141 Z"/>
  </g>
  <g id="bullet-char-template-57354" transform="scale(0.00048828125,-0.00048828125)">
   <path d="M 8,1128 L 1137,1128 1137,0 8,0 8,1128 Z"/>
  </g>
  <g id="bullet-char-template-10146" transform="scale(0.00048828125,-0.00048828125)">
   <path d="M 174,0 L 602,739 174,1481 1456,739 174,0 Z M 1358,739 L 309,1346 659,739 1358,739 Z"/>
  </g>
  <g id="bullet-char-template-10132" transform="scale(0.00048828125,-0.00048828125)">
   <path d="M 2015,739 L 1276,0 717,0 1260,543 174,543 174,936 1260,936 717,1481 1274,1481 2015,739 Z"/>
  </g>
  <g id="bullet-char-template-10007" transform="scale(0.00048828125,-0.00048828125)">
   <path d="M 0,-2 C -7,14 -16,27 -25,37 L 356,567 C 262,823 215,952 215,954 215,979 228,992 255,992 264,992 276,990 289,987 310,991 331,999 354,1012 L 381,999 492,748 772,1049 836,1024 860,1049 C 881,1039 901,1025 922,1006 886,937 835,863 770,784 769,783 710,716 594,584 L 774,223 C 774,196 753,168 711,139 L 727,119 C 717,90 699,76 672,76 641,76 570,178 457,381 L 164,-76 C 142,-110 111,-127 72,-127 30,-127 9,-110 8,-76 1,-67 -2,-52 -2,-32 -2,-23 -1,-13 0,-2 Z"/>
  </g>
  <g id="bullet-char-template-10004" transform="scale(0.00048828125,-0.00048828125)">
   <path d="M 285,-33 C 182,-33 111,30 74,156 52,228 41,333 41,471 41,549 55,616 82,672 116,743 169,778 240,778 293,778 328,747 346,684 L 369,508 C 377,444 397,411 428,410 L 1163,1116 C 1174,1127 1196,1133 1229,1133 1271,1133 1292,1118 1292,1087 L 1292,965 C 1292,929 1282,901 1262,881 L 442,47 C 390,-6 338,-33 285,-33 Z"/>
  </g>
  <g id="bullet-char-template-9679" transform="scale(0.00048828125,-0.00048828125)">
   <path d="M 813,0 C 632,0 489,54 383,161 276,268 223,411 223,592 223,773 276,916 383,1023 489,1130 632,1184 813,1184 992,1184 1136,1130 1245,1023 1353,916 1407,772 1407,592 1407,412 1353,268 1245,161 1136,54 992,0 813,0 Z"/>
  </g>
  <g id="bullet-char-template-8226" transform="scale(0.00048828125,-0.00048828125)">
   <path d="M 346,457 C 273,457 209,483 155,535 101,586 74,649 74,723 74,796 101,859 155,911 209,963 273,989 346,989 419,989 480,963 531,910 582,859 608,796 608,723 608,648 583,586 532,535 482,483 420,457 346,457 Z"/>
  </g>
  <g id="bullet-char-template-8211" transform="scale(0.00048828125,-0.00048828125)">
   <path d="M -4,459 L 1135,459 1135,606 -4,606 -4,459 Z"/>
  </g>
  <g id="bullet-char-template-61548" transform="scale(0.00048828125,-0.00048828125)">
   <path d="M 173,740 C 173,903 231,1043 346,1159 462,1274 601,1332 765,1332 928,1332 1067,1274 1183,1159 1299,1043 1357,903 1357,740 1357,577 1299,437 1183,322 1067,206 928,148 765,148 601,148 462,206 346,322 231,437 173,577 173,740 Z"/>
  </g>
 </defs>
 <g>
  <g id="id2" class="Master_Slide">
   <g id="bg-id2" class="Background"/>
   <g id="bo-id2" class="BackgroundObjects"/>
  </g>
 </g>
 <g class="SlideGroup">
  <g>
   <g id="container-id1">
    <g id="id1" class="Slide" clip-path="url(#presentation_clip_path)">
     <g class="Page">
      <g class="Graphic">
       <g id="id3">
        <rect class="BoundingBox" stroke="none" fill="none" x="0" y="0" width="21026" height="21026"/>
        <path fill="rgb(211,47,47)" stroke="none" d="M 4570,10538 C 4446,10077 4379,9601 4370,9119 L 7158,9119 C 7165,10033 7277,10930 7483,11745 7399,11766 7317,11789 7236,11812 6773,11946 6350,12109 5975,12296 5822,12373 5676,12454 5540,12538 5402,12354 5275,12161 5159,11960 4900,11512 4703,11034 4570,10538 L 4570,10538 Z"/>
        <path fill="rgb(183,28,28)" stroke="none" d="M 6095,13181 C 5945,13031 5803,12873 5670,12707 5796,12630 5929,12556 6070,12486 6433,12304 6845,12146 7294,12016 7374,11993 7455,11971 7536,11950 7545,11981 7554,12012 7563,12043 7696,12506 7859,12930 8047,13304 8236,13682 8449,14010 8683,14280 8882,14510 9092,14693 9310,14830 9117,14798 8926,14757 8738,14706 8242,14574 7764,14376 7316,14118 6868,13859 6458,13544 6095,13181 L 6095,13181 Z"/>
        <path fill="rgb(1,87,155)" stroke="none" d="M 11788,14706 C 11600,14757 11409,14798 11216,14830 11434,14693 11644,14510 11843,14280 12076,14010 12290,13682 12479,13304 12667,12930 12829,12506 12963,12043 12972,12012 12981,11981 12990,11949 13073,11970 13155,11993 13236,12016 13685,12146 14096,12304 14460,12486 14600,12556 14732,12629 14857,12705 14724,12872 14581,13030 14431,13181 14068,13544 13658,13859 13210,14118 12762,14376 12284,14574 11788,14706 L 11788,14706 Z"/>
        <path fill="rgb(2,136,209)" stroke="none" d="M 15368,11960 C 15252,12160 15125,12352 14988,12537 14852,12453 14708,12372 14555,12296 14181,12109 13757,11946 13294,11812 13212,11788 13128,11766 13044,11744 13250,10930 13361,10033 13369,9119 L 16156,9119 C 16148,9601 16080,10077 15956,10538 15824,11034 15626,11512 15368,11960 L 15368,11960 Z"/>
        <path fill="rgb(41,182,246)" stroke="none" d="M 15956,7488 C 16080,7949 16147,8426 16156,8907 L 13368,8907 C 13360,7993 13249,7096 13043,6282 13127,6260 13211,6238 13293,6214 13756,6080 14179,5917 14554,5730 14706,5654 14851,5573 14987,5489 15124,5673 15251,5866 15367,6066 15626,6514 15823,6992 15956,7488 L 15956,7488 Z"/>
        <path fill="rgb(129,212,250)" stroke="none" d="M 14430,4846 C 14580,4996 14723,5155 14856,5321 14731,5397 14598,5471 14459,5540 14095,5722 13683,5880 13234,6010 13153,6034 13071,6056 12988,6077 12980,6046 12971,6016 12962,5985 12829,5522 12666,5099 12478,4724 12290,4346 12076,4018 11842,3749 11642,3517 11430,3333 11211,3196 11405,3228 11598,3269 11788,3320 12283,3453 12761,3650 13209,3909 13657,4167 14067,4483 14430,4846 L 14430,4846 Z"/>
        <path fill="rgb(239,154,154)" stroke="none" d="M 8738,3320 C 8928,3269 9120,3228 9315,3196 9095,3333 8883,3517 8683,3749 8450,4018 8236,4346 8047,4724 7860,5099 7697,5522 7563,5985 7554,6015 7546,6046 7537,6077 7455,6056 7374,6033 7294,6010 6844,5880 6433,5722 6069,5540 5929,5470 5795,5397 5670,5320 5803,5154 5945,4996 6095,4846 6458,4483 6868,4167 7316,3909 7764,3650 8242,3453 8738,3320 L 8738,3320 Z"/>
        <path fill="rgb(239,83,80)" stroke="none" d="M 5159,6066 C 5275,5866 5402,5673 5539,5488 5676,5572 5821,5653 5974,5730 6349,5917 6772,6080 7235,6214 7317,6237 7399,6260 7483,6281 7277,7095 7166,7993 7158,8907 L 4370,8907 C 4379,8426 4446,7949 4570,7488 4703,6992 4900,6514 5159,6066 L 5159,6066 Z"/>
        <path fill="rgb(245,127,23)" stroke="none" d="M 7767,11985 C 7759,11956 7751,11928 7743,11899 8498,11722 9321,11627 10157,11619 L 10157,14904 C 10071,14898 9984,14883 9898,14860 9776,14828 9656,14780 9537,14717 9295,14587 9062,14394 8844,14141 8621,13884 8417,13570 8237,13210 8055,12846 7897,12434 7767,11985 L 7767,11985 Z"/>
        <path fill="rgb(255,238,88)" stroke="none" d="M 10157,6619 L 10157,8907 7369,8907 C 7377,8010 7486,7130 7688,6332 8460,6513 9301,6612 10157,6619 L 10157,6619 Z"/>
        <path fill="rgb(251,192,45)" stroke="none" d="M 7688,11694 C 7486,10895 7377,10016 7369,9119 L 10157,9119 10157,11407 C 9301,11414 8460,11512 7688,11694 L 7688,11694 Z"/>
        <path fill="rgb(255,245,157)" stroke="none" d="M 10157,3124 L 10157,6407 C 9320,6400 8498,6304 7743,6127 7751,6099 7759,6071 7767,6044 7896,5594 8055,5183 8236,4819 8417,4458 8620,4144 8843,3887 9062,3635 9295,3441 9537,3312 9655,3248 9776,3200 9898,3168 9984,3145 10070,3131 10157,3124 L 10157,3124 Z"/>
        <path fill="rgb(51,105,30)" stroke="none" d="M 10628,14859 C 10542,14882 10456,14897 10369,14904 L 10369,11618 C 11205,11625 12028,11721 12784,11898 12776,11926 12767,11955 12759,11984 12629,12433 12471,12845 12289,13209 12109,13569 11905,13883 11683,14140 11464,14393 11231,14586 10989,14716 10870,14779 10750,14827 10628,14859 L 10628,14859 Z"/>
        <path fill="rgb(156,204,101)" stroke="none" d="M 12837,6333 C 13039,7131 13148,8011 13157,8907 L 10369,8907 10369,6620 C 11224,6612 12065,6514 12837,6333 L 12837,6333 Z"/>
        <path fill="rgb(104,159,56)" stroke="none" d="M 10369,11406 L 10369,9119 13157,9119 C 13149,10015 13040,10895 12838,11693 12066,11512 11224,11414 10369,11406 L 10369,11406 Z"/>
        <path fill="rgb(197,225,165)" stroke="none" d="M 12759,6044 C 12767,6072 12775,6100 12783,6128 12028,6305 11205,6400 10369,6408 L 10369,3124 C 10456,3131 10542,3145 10628,3168 10750,3200 10870,3248 10989,3312 11231,3442 11464,3635 11683,3887 11905,4145 12109,4458 12289,4819 12471,5183 12629,5594 12759,6044 L 12759,6044 Z"/>
       </g>
      </g>
      <g class="com.sun.star.drawing.CustomShape">
       <g id="id4">
        <rect class="BoundingBox" stroke="none" fill="none" x="8313" y="6064" width="4584" height="6084"/>
        <path fill="rgb(250,250,250)" stroke="none" d="M 12855,9105 L 8354,12106 8354,6105 12855,9105 Z"/>
        <path fill="none" stroke="rgb(117,117,117)" stroke-width="81" stroke-linejoin="round" d="M 12855,9105 L 8354,12106 8354,6105 12855,9105 Z"/>
       </g>
      </g>
     </g>
    </g>
   </g>
  </g>
 </g>
</svg>