<?xml version="1.0" encoding="UTF-8"?>
<!DOCTYPE svg PUBLIC "-//W3C//DTD SVG 1.1//EN" "http://www.w3.org/Graphics/SVG/1.1/DTD/svg11.dtd">
<svg version="1.2" width="200.26mm" height="200.26mm" viewBox="0 0 20026 20026" preserveAspectRatio="xMidYMid" fill-rule="evenodd" stroke-width="28.222" stroke-linejoin="round" xmlns="http://www.w3.org/2000/svg" xmlns:ooo="http://xml.openoffice.org/svg/export" xmlns:xlink="http://www.w3.org/1999/xlink" xmlns:presentation="http://sun.com/xmlns/staroffice/presentation" xmlns:smil="http://www.w3.org/2001/SMIL20/" xmlns:anim="urn:oasis:names:tc:opendocument:xmlns:animation:1.0" xml:space="preserve">
 <defs class="ClipPathGroup">
  <clipPath id="presentation_clip_path" clipPathUnits="userSpaceOnUse">
   <rect x="0" y="0" width="20026" height="20026"/>
  </clipPath>
  <clipPath id="presentation_clip_path_shrink" clipPathUnits="userSpaceOnUse">
   <rect x="20" y="20" width="19986" height="19986"/>
  </clipPath>
 </defs>
 <defs class="TextShapeIndex">
  <g ooo:slide="id1" ooo:id-list="id3"/>
 </defs>
 <defs class="EmbeddedBulletChars">
  <g id="bullet-char-template-57356" transform="scale(0.00048828125,-0.00048828125)">
   <path d="M 580,1141 L 1163,571 580,0 -4,571 580,1141 Z"/>
  </g>
  <g id="bullet-char-template-57354" transform="scale(0.00048828125,-0.00048828125)">
   <path d="M 8,1128 L 1137,1128 1137,0 8,0 8,1128 Z"/>
  </g>
  <g id="bullet-char-template-10146" transform="scale(0.00048828125,-0.00048828125)">
   <path d="M 174,0 L 602,739 174,1481 1456,739 174,0 Z M 1358,739 L 309,1346 659,739 1358,739 Z"/>
  </g>
  <g id="bullet-char-template-10132" transform="scale(0.00048828125,-0.00048828125)">
   <path d="M 2015,739 L 1276,0 717,0 1260,543 174,543 174,936 1260,936 717,1481 1274,1481 2015,739 Z"/>
  </g>
  <g id="bullet-char-template-10007" transform="scale(0.00048828125,-0.00048828125)">
   <path d="M 0,-2 C -7,14 -16,27 -25,37 L 356,567 C 262,823 215,952 215,954 215,979 228,992 255,992 264,992 276,990 289,987 310,991 331,999 354,1012 L 381,999 492,748 772,1049 836,1024 860,1049 C 881,1039 901,1025 922,1006 886,937 835,863 770,784 769,783 710,716 594,584 L 774,223 C 774,196 753,168 711,139 L 727,119 C 717,90 699,76 672,76 641,76 570,178 457,381 L 164,-76 C 142,-110 111,-127 72,-127 30,-127 9,-110 8,-76 1,-67 -2,-52 -2,-32 -2,-23 -1,-13 0,-2 Z"/>
  </g>
  <g id="bullet-char-template-10004" transform="scale(0.00048828125,-0.00048828125)">
   <path d="M 285,-33 C 182,-33 111,30 74,156 52,228 41,333 41,471 41,549 55,616 82,672 116,743 169,778 240,778 293,778 328,747 346,684 L 369,508 C 377,444 397,411 428,410 L 1163,1116 C 1174,1127 1196,1133 1229,1133 1271,1133 1292,1118 1292,1087 L 1292,965 C 1292,929 1282,901 1262,881 L 442,47 C 390,-6 338,-33 285,-33 Z"/>
  </g>
  <g id="bullet-char-template-9679" transform="scale(0.00048828125,-0.00048828125)">
   <path d="M 813,0 C 632,0 489,54 383,161 276,268 223,411 223,592 223,773 276,916 383,1023 489,1130 632,1184 813,1184 992,1184 1136,1130 1245,1023 1353,916 1407,772 1407,592 1407,412 1353,268 1245,161 1136,54 992,0 813,0 Z"/>
  </g>
  <g id="bullet-char-template-8226" transform="scale(0.00048828125,-0.00048828125)">
   <path d="M 346,457 C 273,457 209,483 155,535 101,586 74,649 74,723 74,796 101,859 155,911 209,963 273,989 346,989 419,989 480,963 531,910 582,859 608,796 608,723 608,648 583,586 532,535 482,483 420,457 346,457 Z"/>
  </g>
  <g id="bullet-char-template-8211" transform="scale(0.00048828125,-0.00048828125)">
   <path d="M -4,459 L 1135,459 1135,606 -4,606 -4,459 Z"/>
  </g>
  <g id="bullet-char-template-61548" transform="scale(0.00048828125,-0.00048828125)">
   <path d="M 173,740 C 173,903 231,1043 346,1159 462,1274 601,1332 765,1332 928,1332 1067,1274 1183,1159 1299,1043 1357,903 1357,740 1357,577 1299,437 1183,322 1067,206 928,148 765,148 601,148 462,206 346,322 231,437 173,577 173,740 Z"/>
  </g>
 </defs>
 <g>
  <g id="id2" class="Master_Slide">
   <g id="bg-id2" class="Background"/>
   <g id="bo-id2" class="BackgroundObjects"/>
  </g>
 </g>
 <g class="SlideGroup">
  <g>
   <g id="container-id1">
    <g id="id1" class="Slide" clip-path="url(#presentation_clip_path)">
     <g class="Page">
      <g class="Graphic">
       <g id="id3">
        <rect class="BoundingBox" stroke="none" fill="none" x="0" y="0" width="20026" height="20026"/>
        <path fill="rgb(211,47,47)" stroke="none" d="M 4292,11544 C 4167,11080 4100,10602 4091,10117 L 6892,10117 C 6900,11036 7012,11938 7219,12757 7135,12778 7052,12802 6971,12825 6506,12959 6081,13123 5704,13311 5550,13388 5403,13470 5267,13554 5128,13369 5000,13175 4884,12973 4623,12523 4425,12043 4292,11544 L 4292,11544 Z"/>
        <path fill="rgb(183,28,28)" stroke="none" d="M 5824,14200 C 5674,14050 5531,13891 5397,13724 5524,13647 5657,13572 5799,13502 6164,13319 6578,13160 7029,13030 7110,13007 7191,12984 7272,12963 7281,12994 7290,13026 7299,13057 7433,13522 7597,13948 7786,14324 7976,14704 8190,15033 8425,15305 8625,15536 8836,15720 9055,15857 8861,15825 8669,15784 8480,15733 7982,15600 7501,15401 7051,15142 6601,14882 6189,14565 5824,14200 L 5824,14200 Z"/>
        <path fill="rgb(1,87,155)" stroke="none" d="M 11545,15733 C 11356,15784 11164,15825 10970,15857 11189,15720 11400,15536 11600,15305 11835,15033 12050,14704 12240,14324 12428,13948 12591,13522 12726,13057 12735,13026 12744,12994 12753,12962 12836,12983 12919,13007 13000,13030 13451,13160 13864,13319 14230,13502 14371,13572 14504,13646 14629,13722 14496,13890 14352,14049 14201,14200 13836,14565 13424,14882 12974,15142 12524,15401 12044,15600 11545,15733 L 11545,15733 Z"/>
        <path fill="rgb(2,136,209)" stroke="none" d="M 15143,12973 C 15026,13174 14899,13367 14761,13553 14624,13469 14479,13387 14326,13311 13950,13123 13524,12959 13059,12825 12976,12801 12892,12778 12807,12756 13014,11938 13126,11036 13134,10117 L 15935,10117 C 15927,10602 15858,11080 15734,11544 15601,12043 15402,12523 15143,12973 L 15143,12973 Z"/>
        <path fill="rgb(41,182,246)" stroke="none" d="M 15734,8479 C 15858,8943 15926,9422 15935,9905 L 13133,9905 C 13125,8987 13013,8086 12806,7268 12891,7245 12975,7223 13058,7199 13523,7065 13948,6901 14325,6713 14477,6636 14623,6555 14760,6471 14898,6656 15025,6850 15142,7050 15402,7501 15600,7981 15734,8479 L 15734,8479 Z"/>
        <path fill="rgb(129,212,250)" stroke="none" d="M 14200,5825 C 14351,5975 14495,6135 14628,6302 14503,6378 14369,6453 14229,6522 13863,6705 13449,6864 12998,6994 12917,7018 12834,7040 12751,7062 12743,7030 12734,7000 12725,6969 12591,6504 12427,6079 12239,5702 12050,5322 11835,4992 11599,4722 11398,4489 11185,4304 10965,4166 11160,4199 11354,4240 11545,4291 12043,4425 12523,4623 12973,4883 13423,5142 13835,5460 14200,5825 L 14200,5825 Z"/>
        <path fill="rgb(239,154,154)" stroke="none" d="M 8480,4291 C 8671,4240 8864,4199 9060,4166 8839,4304 8626,4489 8425,4722 8191,4992 7976,5322 7786,5702 7598,6079 7434,6504 7299,6969 7290,6999 7282,7030 7273,7062 7191,7040 7110,7017 7029,6994 6577,6864 6164,6705 5798,6522 5657,6452 5523,6378 5397,6301 5531,6134 5674,5975 5824,5825 6189,5460 6601,5142 7051,4883 7501,4623 7982,4425 8480,4291 L 8480,4291 Z"/>
        <path fill="rgb(239,83,80)" stroke="none" d="M 4884,7050 C 5000,6850 5128,6656 5266,6470 5403,6554 5549,6635 5703,6713 6080,6901 6505,7065 6970,7199 7052,7222 7135,7245 7219,7267 7012,8085 6901,8987 6892,9905 L 4091,9905 C 4100,9422 4167,8943 4292,8479 4425,7981 4623,7501 4884,7050 L 4884,7050 Z"/>
        <path fill="rgb(245,127,23)" stroke="none" d="M 7504,12998 C 7496,12969 7488,12941 7480,12912 8239,12734 9066,12639 9906,12631 L 9906,15932 C 9820,15926 9732,15911 9646,15888 9523,15855 9403,15807 9283,15744 9040,15613 8806,15419 8587,15165 8363,14907 8158,14591 7977,14229 7794,13864 7635,13450 7504,12998 L 7504,12998 Z"/>
        <path fill="rgb(255,238,88)" stroke="none" d="M 9906,7606 L 9906,9905 7105,9905 C 7113,9004 7222,8120 7425,7318 8201,7500 9046,7599 9906,7606 L 9906,7606 Z"/>
        <path fill="rgb(251,192,45)" stroke="none" d="M 7425,12706 C 7222,11903 7113,11019 7105,10117 L 9906,10117 9906,12418 C 9046,12425 8201,12523 7425,12706 L 7425,12706 Z"/>
        <path fill="rgb(255,245,157)" stroke="none" d="M 9906,4094 L 9906,7393 C 9065,7386 8239,7290 7480,7112 7488,7084 7496,7056 7504,7028 7634,6576 7794,6163 7976,5797 8158,5435 8362,5119 8586,4861 8806,4608 9040,4413 9283,4283 9402,4219 9523,4170 9646,4138 9732,4115 9819,4101 9906,4094 L 9906,4094 Z"/>
        <path fill="rgb(51,105,30)" stroke="none" d="M 10379,15887 C 10293,15910 10206,15925 10118,15932 L 10118,12630 C 10959,12637 11786,12733 12546,12911 12538,12939 12529,12968 12521,12997 12390,13449 12232,13863 12049,14228 11868,14590 11663,14906 11440,15164 11220,15418 10985,15612 10742,15743 10623,15806 10502,15854 10379,15887 L 10379,15887 Z"/>
        <path fill="rgb(156,204,101)" stroke="none" d="M 12599,7319 C 12802,8121 12912,9005 12921,9905 L 10118,9905 10118,7607 C 10978,7599 11824,7501 12599,7319 L 12599,7319 Z"/>
        <path fill="rgb(104,159,56)" stroke="none" d="M 10118,12417 L 10118,10117 12921,10117 C 12913,11018 12803,11903 12600,12705 11825,12523 10978,12425 10118,12417 L 10118,12417 Z"/>
        <path fill="rgb(197,225,165)" stroke="none" d="M 12521,7028 C 12529,7057 12537,7085 12545,7113 11786,7291 10959,7386 10118,7394 L 10118,4094 C 10206,4101 10293,4115 10379,4138 10502,4170 10623,4219 10742,4283 10985,4414 11220,4608 11440,4861 11663,5120 11868,5435 12049,5797 12232,6163 12390,6576 12521,7028 L 12521,7028 Z"/>
       </g>
      </g>
     </g>
    </g>
   </g>
  </g>
 </g>
</svg>