<?xml version="1.0" encoding="UTF-8"?>
<!DOCTYPE svg PUBLIC "-//W3C//DTD SVG 1.1//EN" "http://www.w3.org/Graphics/SVG/1.1/DTD/svg11.dtd">
<svg version="1.2" width="210mm" height="210mm" viewBox="0 0 21000 21000" preserveAspectRatio="xMidYMid" fill-rule="evenodd" stroke-width="28.222" stroke-linejoin="round" xmlns="http://www.w3.org/2000/svg" xmlns:ooo="http://xml.openoffice.org/svg/export" xmlns:xlink="http://www.w3.org/1999/xlink" xmlns:presentation="http://sun.com/xmlns/staroffice/presentation" xmlns:smil="http://www.w3.org/2001/SMIL20/" xmlns:anim="urn:oasis:names:tc:opendocument:xmlns:animation:1.0" xml:space="preserve">
 <defs class="ClipPathGroup">
  <clipPath id="presentation_clip_path" clipPathUnits="userSpaceOnUse">
   <rect x="0" y="0" width="21000" height="21000"/>
  </clipPath>
  <clipPath id="presentation_clip_path_shrink" clipPathUnits="userSpaceOnUse">
   <rect x="21" y="21" width="20958" height="20958"/>
  </clipPath>
 </defs>
 <defs class="TextShapeIndex">
  <g ooo:slide="id1" ooo:id-list="id3 id4 id5 id6 id7 id8 id9 id10 id11 id12 id13 id14 id15 id16 id17 id18 id19 id20 id21 id22 id23 id24 id25 id26 id27 id28 id29"/>
 </defs>
 <defs class="EmbeddedBulletChars">
  <g id="bullet-char-template-57356" transform="scale(0.00048828125,-0.00048828125)">
   <path d="M 580,1141 L 1163,571 580,0 -4,571 580,1141 Z"/>
  </g>
  <g id="bullet-char-template-57354" transform="scale(0.00048828125,-0.00048828125)">
   <path d="M 8,1128 L 1137,1128 1137,0 8,0 8,1128 Z"/>
  </g>
  <g id="bullet-char-template-10146" transform="scale(0.00048828125,-0.00048828125)">
   <path d="M 174,0 L 602,739 174,1481 1456,739 174,0 Z M 1358,739 L 309,1346 659,739 1358,739 Z"/>
  </g>
  <g id="bullet-char-template-10132" transform="scale(0.00048828125,-0.00048828125)">
   <path d="M 2015,739 L 1276,0 717,0 1260,543 174,543 174,936 1260,936 717,1481 1274,1481 2015,739 Z"/>
  </g>
  <g id="bullet-char-template-10007" transform="scale(0.00048828125,-0.00048828125)">
   <path d="M 0,-2 C -7,14 -16,27 -25,37 L 356,567 C 262,823 215,952 215,954 215,979 228,992 255,992 264,992 276,990 289,987 310,991 331,999 354,1012 L 381,999 492,748 772,1049 836,1024 860,1049 C 881,1039 901,1025 922,1006 886,937 835,863 770,784 769,783 710,716 594,584 L 774,223 C 774,196 753,168 711,139 L 727,119 C 717,90 699,76 672,76 641,76 570,178 457,381 L 164,-76 C 142,-110 111,-127 72,-127 30,-127 9,-110 8,-76 1,-67 -2,-52 -2,-32 -2,-23 -1,-13 0,-2 Z"/>
  </g>
  <g id="bullet-char-template-10004" transform="scale(0.00048828125,-0.00048828125)">
   <path d="M 285,-33 C 182,-33 111,30 74,156 52,228 41,333 41,471 41,549 55,616 82,672 116,743 169,778 240,778 293,778 328,747 346,684 L 369,508 C 377,444 397,411 428,410 L 1163,1116 C 1174,1127 1196,1133 1229,1133 1271,1133 1292,1118 1292,1087 L 1292,965 C 1292,929 1282,901 1262,881 L 442,47 C 390,-6 338,-33 285,-33 Z"/>
  </g>
  <g id="bullet-char-template-9679" transform="scale(0.00048828125,-0.00048828125)">
   <path d="M 813,0 C 632,0 489,54 383,161 276,268 223,411 223,592 223,773 276,916 383,1023 489,1130 632,1184 813,1184 992,1184 1136,1130 1245,1023 1353,916 1407,772 1407,592 1407,412 1353,268 1245,161 1136,54 992,0 813,0 Z"/>
  </g>
  <g id="bullet-char-template-8226" transform="scale(0.00048828125,-0.00048828125)">
   <path d="M 346,457 C 273,457 209,483 155,535 101,586 74,649 74,723 74,796 101,859 155,911 209,963 273,989 346,989 419,989 480,963 531,910 582,859 608,796 608,723 608,648 583,586 532,535 482,483 420,457 346,457 Z"/>
  </g>
  <g id="bullet-char-template-8211" transform="scale(0.00048828125,-0.00048828125)">
   <path d="M -4,459 L 1135,459 1135,606 -4,606 -4,459 Z"/>
  </g>
  <g id="bullet-char-template-61548" transform="scale(0.00048828125,-0.00048828125)">
   <path d="M 173,740 C 173,903 231,1043 346,1159 462,1274 601,1332 765,1332 928,1332 1067,1274 1183,1159 1299,1043 1357,903 1357,740 1357,577 1299,437 1183,322 1067,206 928,148 765,148 601,148 462,206 346,322 231,437 173,577 173,740 Z"/>
  </g>
 </defs>
 <g>
  <g id="id2" class="Master_Slide">
   <g id="bg-id2" class="Background"/>
   <g id="bo-id2" class="BackgroundObjects"/>
  </g>
 </g>
 <g class="SlideGroup">
  <g>
   <g id="container-id1">
    <g id="id1" class="Slide" clip-path="url(#presentation_clip_path)">
     <g class="Page">
      <g class="Group">
       <g class="com.sun.star.drawing.PolyPolygonShape">
        <g id="id3">
         <rect class="BoundingBox" stroke="none" fill="none" x="2947" y="1801" width="14503" height="14401"/>
        </g>
       </g>
       <g class="com.sun.star.drawing.PolyPolygonShape">
        <g id="id4">
         <rect class="BoundingBox" stroke="none" fill="none" x="2352" y="11199" width="2424" height="2397"/>
         <path fill="rgb(97,97,97)" stroke="none" d="M 2353,12035 L 3967,11199 4220,11687 3271,12550 4522,12269 4775,12758 3161,13595 3004,13292 4275,12634 2838,12971 2675,12658 3781,11680 2510,12338 2353,12035 Z"/>
        </g>
       </g>
       <g class="com.sun.star.drawing.PolyPolygonShape">
        <g id="id5">
         <rect class="BoundingBox" stroke="none" fill="none" x="3727" y="13091" width="1853" height="1857"/>
         <path fill="rgb(97,97,97)" stroke="none" d="M 3920,13674 L 4187,13914 4161,13950 4139,13985 4120,14021 4105,14055 4094,14089 4086,14123 4083,14140 4082,14156 4081,14172 4081,14189 4082,14205 4084,14221 4087,14237 4090,14253 4100,14285 4113,14317 4129,14348 4149,14380 4172,14411 4199,14442 4229,14473 4259,14500 4288,14524 4318,14544 4347,14560 4362,14567 4377,14573 4391,14578 4406,14582 4420,14585 4435,14588 4463,14590 4490,14590 4503,14589 4516,14588 4528,14585 4540,14582 4552,14579 4564,14575 4575,14570 4585,14564 4596,14558 4606,14551 4616,14544 4625,14535 4636,14524 4646,14513 4655,14501 4663,14488 4669,14475 4674,14462 4678,14448 4680,14433 4681,14426 4681,14418 4681,14402 4679,14385 4676,14366 4672,14347 4666,14327 4658,14305 4649,14283 4630,14242 4600,14184 4509,14013 4474,13947 4445,13886 4419,13827 4399,13772 4383,13721 4371,13672 4364,13627 4362,13606 4361,13586 4363,13531 4365,13504 4370,13478 4375,13453 4382,13428 4389,13404 4399,13381 4409,13358 4421,13336 4434,13314 4448,13293 4463,13272 4480,13253 4517,13215 4543,13193 4571,13172 4599,13154 4629,13139 4661,13125 4693,13114 4727,13104 4762,13097 4797,13093 4833,13091 4869,13092 4905,13096 4941,13103 4978,13112 5014,13125 5051,13140 5088,13158 5124,13179 5160,13202 5196,13228 5232,13257 5268,13289 5304,13323 5339,13361 5394,13423 5441,13485 5481,13546 5515,13607 5541,13667 5551,13696 5560,13726 5567,13755 5572,13784 5576,13813 5577,13842 5578,13870 5576,13898 5573,13926 5569,13953 5563,13980 5556,14006 5548,14032 5538,14057 5526,14082 5513,14107 5499,14131 5483,14155 5447,14202 5405,14246 5145,13987 5165,13959 5183,13932 5197,13905 5209,13878 5217,13852 5220,13839 5223,13826 5225,13814 5226,13801 5226,13789 5225,13776 5224,13764 5222,13751 5219,13739 5216,13726 5206,13700 5194,13674 5178,13647 5159,13620 5138,13592 5113,13563 5086,13535 5059,13510 5032,13488 5005,13469 4977,13453 4950,13440 4923,13430 4909,13426 4895,13423 4887,13422 4878,13421 4869,13420 4861,13420 4853,13420 4845,13421 4837,13423 4829,13424 4822,13427 4814,13430 4807,13433 4800,13437 4793,13441 4786,13446 4779,13451 4773,13457 4767,13462 4762,13468 4757,13474 4752,13480 4748,13487 4744,13493 4741,13500 4738,13507 4735,13515 4733,13522 4731,13530 4730,13538 4728,13554 4728,13572 4729,13583 4731,13597 4739,13626 4750,13661 4765,13700 4784,13743 4808,13792 4867,13902 4928,14016 4977,14117 4997,14163 5014,14206 5028,14246 5039,14283 5047,14318 5052,14352 5056,14387 5057,14421 5056,14455 5052,14489 5047,14522 5038,14556 5028,14589 5014,14621 4998,14653 4979,14684 4957,14715 4932,14746 4905,14776 4874,14805 4845,14830 4814,14853 4782,14873 4748,14891 4713,14907 4677,14920 4639,14931 4600,14939 4560,14944 4520,14947 4481,14946 4441,14942 4402,14935 4363,14925 4324,14912 4284,14895 4245,14876 4206,14853 4167,14827 4127,14798 4088,14765 4048,14730 4008,14691 3968,14649 3913,14585 3865,14522 3825,14460 3791,14397 3765,14335 3754,14304 3745,14273 3738,14243 3733,14212 3729,14181 3727,14151 3727,14120 3728,14090 3732,14060 3736,14030 3743,13999 3751,13969 3772,13910 3799,13850 3833,13791 3873,13732 3920,13674 Z"/>
        </g>
       </g>
       <g class="com.sun.star.drawing.PolyPolygonShape">
        <g id="id6">
         <rect class="BoundingBox" stroke="none" fill="none" x="5732" y="14577" width="1721" height="1915"/>
         <path fill="rgb(97,97,97)" stroke="none" d="M 5796,15452 L 6127,15592 6114,15635 6104,15676 6098,15715 6095,15752 6095,15788 6099,15823 6102,15839 6106,15856 6110,15871 6116,15887 6122,15902 6129,15916 6137,15931 6145,15945 6165,15972 6187,15997 6213,16022 6242,16045 6274,16067 6309,16088 6348,16107 6385,16123 6421,16136 6455,16145 6488,16151 6504,16153 6520,16154 6536,16154 6551,16153 6566,16152 6580,16149 6608,16142 6633,16133 6645,16128 6657,16123 6668,16116 6678,16110 6688,16102 6697,16095 6706,16086 6715,16078 6722,16068 6730,16059 6737,16048 6743,16038 6750,16023 6755,16009 6760,15995 6763,15981 6765,15966 6765,15952 6764,15938 6762,15923 6760,15916 6758,15908 6753,15893 6745,15877 6736,15861 6726,15844 6713,15827 6699,15809 6683,15791 6652,15759 6605,15713 6463,15581 6409,15531 6361,15482 6318,15435 6281,15390 6249,15346 6222,15304 6200,15264 6192,15245 6184,15226 6168,15173 6162,15147 6158,15121 6154,15095 6153,15070 6152,15044 6153,15019 6156,14994 6159,14969 6165,14945 6171,14920 6179,14896 6188,14872 6211,14824 6229,14794 6248,14766 6270,14740 6293,14715 6318,14692 6345,14671 6374,14651 6404,14633 6437,14617 6470,14604 6504,14593 6540,14585 6576,14580 6614,14577 6652,14577 6692,14579 6732,14585 6773,14592 6815,14603 6858,14616 6902,14631 6946,14650 6991,14671 7036,14694 7108,14736 7173,14779 7231,14824 7282,14870 7327,14918 7346,14943 7364,14968 7380,14993 7394,15019 7407,15045 7418,15072 7427,15099 7435,15126 7441,15153 7446,15180 7450,15207 7451,15234 7452,15261 7450,15289 7448,15316 7444,15344 7438,15371 7431,15399 7412,15455 7387,15511 7056,15350 7067,15317 7074,15285 7079,15255 7081,15226 7081,15199 7080,15186 7078,15173 7075,15160 7072,15148 7068,15136 7064,15125 7058,15113 7052,15102 7046,15091 7038,15080 7021,15059 7000,15038 6977,15018 6950,14998 6921,14978 6888,14960 6854,14942 6820,14927 6787,14915 6755,14906 6724,14900 6694,14896 6665,14896 6651,14897 6637,14898 6628,14899 6620,14901 6611,14903 6603,14906 6596,14909 6589,14913 6582,14916 6575,14921 6568,14925 6562,14930 6557,14936 6551,14942 6546,14948 6541,14955 6536,14962 6532,14970 6528,14977 6525,14984 6522,14991 6520,14999 6518,15006 6517,15013 6516,15021 6515,15029 6515,15036 6516,15044 6516,15052 6518,15060 6522,15076 6527,15093 6532,15104 6538,15115 6555,15141 6576,15170 6603,15202 6636,15237 6674,15275 6766,15360 6861,15448 6940,15528 6974,15565 7004,15600 7030,15633 7052,15664 7071,15695 7088,15725 7102,15757 7114,15789 7124,15822 7132,15855 7137,15888 7140,15922 7141,15957 7139,15992 7134,16028 7126,16063 7115,16100 7102,16137 7085,16174 7066,16211 7046,16245 7025,16277 7001,16306 6975,16334 6947,16360 6917,16384 6885,16407 6850,16427 6814,16446 6778,16461 6740,16473 6701,16482 6662,16488 6621,16491 6580,16491 6538,16489 6494,16483 6450,16474 6404,16462 6357,16447 6309,16430 6260,16409 6210,16385 6158,16358 6086,16316 6020,16272 5961,16226 5909,16178 5864,16128 5844,16102 5825,16076 5809,16049 5794,16022 5780,15994 5769,15966 5759,15937 5750,15908 5743,15878 5738,15848 5734,15818 5732,15787 5732,15723 5739,15658 5752,15591 5771,15523 5796,15452 Z"/>
        </g>
       </g>
       <g class="com.sun.star.drawing.PolyPolygonShape">
        <g id="id7">
         <rect class="BoundingBox" stroke="none" fill="none" x="7627" y="15098" width="1476" height="1998"/>
         <path fill="rgb(97,97,97)" stroke="none" d="M 7739,16995 L 8147,15541 7628,15395 7711,15099 9102,15490 9019,15786 8501,15640 8092,17095 7739,16995 Z"/>
        </g>
       </g>
       <g class="com.sun.star.drawing.PolyPolygonShape">
        <g id="id8">
         <rect class="BoundingBox" stroke="none" fill="none" x="9021" y="16966" width="388" height="388"/>
         <path fill="rgb(97,97,97)" stroke="none" d="M 9021,17312 L 9062,16966 9408,17007 9367,17353 9021,17312 Z"/>
        </g>
       </g>
       <g class="com.sun.star.drawing.PolyPolygonShape">
        <g id="id9">
         <rect class="BoundingBox" stroke="none" fill="none" x="10570" y="15421" width="1805" height="1964"/>
         <path fill="rgb(97,97,97)" stroke="none" d="M 12373,17108 L 11979,17169 11759,16784 11041,16894 10955,17325 10570,17384 10995,15480 11379,15421 12373,17108 Z M 11597,16499 L 11247,15870 11106,16574 11597,16499 Z"/>
        </g>
       </g>
       <g class="com.sun.star.drawing.PolyPolygonShape">
        <g id="id10">
         <rect class="BoundingBox" stroke="none" fill="none" x="12128" y="14713" width="2041" height="2239"/>
         <path fill="rgb(97,97,97)" stroke="none" d="M 12842,16951 L 12128,15279 12457,15139 13618,15964 13141,14847 13455,14713 14168,16385 13830,16530 12690,15727 13155,16818 12842,16951 Z"/>
        </g>
       </g>
       <g class="com.sun.star.drawing.PolyPolygonShape">
        <g id="id11">
         <rect class="BoundingBox" stroke="none" fill="none" x="13648" y="13967" width="2014" height="2077"/>
         <path fill="rgb(97,97,97)" stroke="none" d="M 13648,14602 L 14180,14192 14266,14129 14344,14077 14380,14056 14413,14037 14445,14022 14475,14009 14514,13995 14553,13984 14593,13976 14633,13970 14673,13967 14713,13967 14754,13969 14795,13975 14835,13982 14876,13992 14916,14005 14956,14019 14995,14036 15034,14056 15073,14078 15112,14102 15150,14129 15189,14159 15227,14193 15266,14229 15304,14269 15343,14311 15382,14357 15421,14406 15454,14451 15484,14494 15512,14538 15537,14581 15560,14623 15580,14665 15598,14706 15613,14747 15628,14796 15640,14845 15650,14893 15657,14940 15660,14986 15661,15032 15659,15076 15654,15120 15648,15154 15640,15187 15629,15221 15616,15254 15600,15289 15582,15323 15561,15358 15538,15393 15519,15419 15496,15446 15471,15474 15443,15502 15413,15531 15379,15561 15304,15621 14757,16043 13648,14602 Z M 14127,14621 L 14861,15576 15078,15409 15134,15364 15180,15325 15200,15307 15217,15290 15231,15274 15243,15260 15257,15242 15269,15223 15280,15205 15290,15186 15298,15167 15305,15148 15311,15129 15315,15109 15317,15089 15318,15068 15317,15045 15314,15021 15309,14995 15303,14969 15294,14941 15284,14912 15271,14881 15256,14849 15238,14815 15218,14780 15169,14706 15110,14625 15048,14548 15018,14514 14989,14483 14961,14455 14935,14431 14909,14409 14884,14391 14859,14375 14835,14361 14811,14349 14787,14339 14763,14330 14740,14323 14717,14318 14694,14315 14671,14314 14647,14314 14624,14316 14601,14319 14578,14325 14554,14332 14530,14340 14507,14351 14487,14361 14464,14374 14409,14410 14340,14459 14257,14521 14127,14621 Z"/>
        </g>
       </g>
       <g class="com.sun.star.drawing.PolyPolygonShape">
        <g id="id12">
         <rect class="BoundingBox" stroke="none" fill="none" x="14955" y="12586" width="2441" height="2094"/>
         <path fill="rgb(97,97,97)" stroke="none" d="M 16391,14679 L 14956,13562 15431,12952 15516,12847 15556,12802 15595,12761 15631,12726 15666,12695 15698,12669 15729,12648 15760,12631 15791,12617 15823,12605 15856,12596 15890,12590 15925,12587 15960,12586 15997,12588 16033,12593 16069,12601 16104,12611 16139,12624 16173,12639 16207,12657 16239,12678 16271,12701 16310,12734 16344,12768 16374,12803 16400,12840 16423,12879 16441,12919 16454,12961 16464,13004 16468,13026 16470,13049 16471,13071 16471,13094 16467,13141 16458,13189 16445,13238 16426,13288 16404,13339 16376,13391 16439,13368 16470,13358 16500,13350 16530,13343 16560,13337 16589,13333 16617,13330 16648,13328 16682,13327 16764,13329 16863,13335 16979,13346 17395,13389 17125,13735 16650,13702 16440,13689 16369,13688 16342,13689 16320,13690 16302,13692 16284,13695 16267,13699 16251,13704 16235,13709 16220,13716 16206,13723 16193,13731 16179,13740 16165,13752 16150,13765 16134,13781 16118,13798 16100,13818 16063,13864 16017,13923 16616,14389 16391,14679 Z M 15788,13745 L 15955,13530 16028,13435 16082,13357 16103,13325 16120,13298 16132,13275 16137,13265 16140,13256 16145,13240 16149,13223 16151,13207 16152,13191 16152,13175 16150,13159 16147,13143 16143,13128 16137,13112 16130,13097 16121,13082 16111,13068 16100,13054 16087,13040 16073,13027 16058,13014 16040,13001 16021,12990 16003,12981 15985,12973 15966,12968 15948,12964 15939,12963 15929,12962 15920,12962 15911,12962 15892,12964 15874,12968 15856,12973 15838,12980 15821,12990 15803,13000 15786,13013 15770,13027 15760,13038 15747,13052 15711,13095 15600,13235 15424,13461 15788,13745 Z"/>
        </g>
       </g>
       <g class="com.sun.star.drawing.PolyPolygonShape">
        <g id="id13">
         <rect class="BoundingBox" stroke="none" fill="none" x="15702" y="11039" width="2574" height="2080"/>
         <path fill="rgb(97,97,97)" stroke="none" d="M 18275,11442 L 18118,11809 17676,11792 17389,12459 17709,12760 17555,13118 16164,11750 16317,11393 18275,11442 Z M 17348,11779 L 16629,11743 17152,12235 17348,11779 Z M 15977,11923 L 15702,11805 15820,11530 16095,11648 15977,11923 Z M 16187,11433 L 15913,11315 16031,11039 16306,11157 16187,11433 Z"/>
        </g>
       </g>
      </g>
      <g class="com.sun.star.drawing.ClosedBezierShape">
       <g id="id14">
        <rect class="BoundingBox" stroke="none" fill="none" x="4357" y="9106" width="3114" height="3421"/>
        <path fill="rgb(211,47,47)" stroke="none" d="M 4557,10526 C 4433,10064 4366,9588 4357,9106 L 7145,9106 C 7152,10020 7264,10918 7470,11733 7386,11754 7304,11777 7223,11800 6760,11934 6337,12097 5962,12284 5809,12361 5663,12442 5527,12526 5389,12342 5262,12149 5146,11948 4887,11500 4690,11022 4557,10526 Z"/>
       </g>
      </g>
      <g class="com.sun.star.drawing.ClosedBezierShape">
       <g id="id15">
        <rect class="BoundingBox" stroke="none" fill="none" x="5657" y="11938" width="3641" height="2881"/>
        <path fill="rgb(183,28,28)" stroke="none" d="M 6082,13169 C 5932,13019 5790,12861 5657,12695 5783,12618 5916,12544 6057,12474 6420,12292 6832,12134 7281,12004 7361,11981 7442,11959 7523,11938 7532,11969 7541,12000 7550,12031 7683,12494 7846,12918 8034,13292 8223,13670 8436,13998 8670,14268 8869,14498 9079,14681 9297,14818 9104,14786 8913,14745 8725,14694 8229,14562 7751,14364 7303,14106 6855,13847 6445,13532 6082,13169 Z"/>
       </g>
      </g>
      <g class="com.sun.star.drawing.ClosedBezierShape">
       <g id="id16">
        <rect class="BoundingBox" stroke="none" fill="none" x="11204" y="11937" width="3643" height="2882"/>
        <path fill="rgb(1,87,155)" stroke="none" d="M 11776,14694 C 11588,14745 11397,14786 11204,14818 11422,14681 11632,14498 11831,14268 12064,13998 12278,13670 12467,13292 12655,12918 12817,12494 12951,12031 12960,12000 12969,11969 12978,11937 13061,11958 13143,11981 13224,12004 13673,12134 14084,12292 14448,12474 14588,12544 14720,12617 14845,12693 14712,12860 14569,13018 14419,13169 14056,13532 13646,13847 13198,14106 12750,14364 12272,14562 11776,14694 Z"/>
       </g>
      </g>
      <g class="com.sun.star.drawing.ClosedBezierShape">
       <g id="id17">
        <rect class="BoundingBox" stroke="none" fill="none" x="13031" y="9106" width="3114" height="3420"/>
        <path fill="rgb(2,136,209)" stroke="none" d="M 15356,11948 C 15240,12148 15113,12340 14976,12525 14840,12441 14696,12360 14543,12284 14169,12097 13745,11934 13282,11800 13200,11776 13116,11754 13032,11732 13238,10918 13349,10020 13357,9106 L 16144,9106 C 16136,9588 16068,10064 15944,10526 15812,11022 15614,11500 15356,11948 Z"/>
       </g>
      </g>
      <g class="com.sun.star.drawing.ClosedBezierShape">
       <g id="id18">
        <rect class="BoundingBox" stroke="none" fill="none" x="13031" y="5476" width="3114" height="3419"/>
        <path fill="rgb(41,182,246)" stroke="none" d="M 15944,7475 C 16068,7936 16135,8413 16144,8894 L 13356,8894 C 13348,7980 13237,7083 13031,6269 13115,6247 13199,6225 13281,6201 13744,6067 14167,5904 14542,5717 14694,5641 14839,5560 14975,5476 15112,5660 15239,5853 15355,6053 15614,6501 15811,6979 15944,7475 Z"/>
       </g>
      </g>
      <g class="com.sun.star.drawing.ClosedBezierShape">
       <g id="id19">
        <rect class="BoundingBox" stroke="none" fill="none" x="11199" y="3183" width="3646" height="2882"/>
        <path fill="rgb(129,212,250)" stroke="none" d="M 14418,4833 C 14568,4983 14711,5142 14844,5308 14719,5384 14586,5458 14447,5527 14083,5709 13671,5867 13222,5997 13141,6021 13059,6043 12976,6064 12968,6033 12959,6003 12950,5972 12817,5509 12654,5086 12466,4711 12278,4333 12064,4005 11830,3736 11630,3504 11418,3320 11199,3183 11393,3215 11586,3256 11776,3307 12271,3440 12749,3637 13197,3896 13645,4154 14055,4470 14418,4833 Z"/>
       </g>
      </g>
      <g class="com.sun.star.drawing.ClosedBezierShape">
       <g id="id20">
        <rect class="BoundingBox" stroke="none" fill="none" x="5657" y="3183" width="3646" height="2882"/>
        <path fill="rgb(239,154,154)" stroke="none" d="M 8725,3307 C 8915,3256 9107,3215 9302,3183 9082,3320 8870,3504 8670,3736 8437,4005 8223,4333 8034,4711 7847,5086 7684,5509 7550,5972 7541,6002 7533,6033 7524,6064 7442,6043 7361,6020 7281,5997 6831,5867 6420,5709 6056,5527 5916,5457 5782,5384 5657,5307 5790,5141 5932,4983 6082,4833 6445,4470 6855,4154 7303,3896 7751,3637 8229,3440 8725,3307 Z"/>
       </g>
      </g>
      <g class="com.sun.star.drawing.ClosedBezierShape">
       <g id="id21">
        <rect class="BoundingBox" stroke="none" fill="none" x="4357" y="5475" width="3114" height="3420"/>
        <path fill="rgb(239,83,80)" stroke="none" d="M 5146,6053 C 5262,5853 5389,5660 5526,5475 5663,5559 5808,5640 5961,5717 6336,5904 6759,6067 7222,6201 7304,6224 7386,6247 7470,6268 7264,7082 7153,7980 7145,8894 L 4357,8894 C 4366,8413 4433,7936 4557,7475 4690,6979 4887,6501 5146,6053 Z"/>
       </g>
      </g>
      <g class="com.sun.star.drawing.ClosedBezierShape">
       <g id="id22">
        <rect class="BoundingBox" stroke="none" fill="none" x="7730" y="11607" width="2415" height="3287"/>
        <path fill="rgb(245,127,23)" stroke="none" d="M 7754,11973 C 7746,11944 7738,11916 7730,11887 8485,11710 9308,11615 10144,11607 L 10144,14892 C 10058,14886 9971,14871 9885,14848 9763,14816 9643,14768 9524,14705 9282,14575 9049,14382 8831,14129 8608,13872 8404,13558 8224,13198 8042,12834 7884,12422 7754,11973 Z"/>
       </g>
      </g>
      <g class="com.sun.star.drawing.ClosedBezierShape">
       <g id="id23">
        <rect class="BoundingBox" stroke="none" fill="none" x="7356" y="6319" width="2789" height="2576"/>
        <path fill="rgb(255,238,88)" stroke="none" d="M 10144,6606 L 10144,8894 7356,8894 C 7364,7997 7473,7117 7675,6319 8447,6500 9288,6599 10144,6606 Z"/>
       </g>
      </g>
      <g class="com.sun.star.drawing.ClosedBezierShape">
       <g id="id24">
        <rect class="BoundingBox" stroke="none" fill="none" x="7356" y="9105" width="2789" height="2578"/>
        <path fill="rgb(251,192,45)" stroke="none" d="M 7675,11682 C 7473,10883 7364,10003 7356,9106 L 10144,9106 10144,11395 C 9288,11402 8447,11500 7675,11682 Z"/>
       </g>
      </g>
      <g class="com.sun.star.drawing.ClosedBezierShape">
       <g id="id25">
        <rect class="BoundingBox" stroke="none" fill="none" x="7730" y="3111" width="2415" height="3285"/>
        <path fill="rgb(255,245,157)" stroke="none" d="M 10144,3111 L 10144,6394 C 9307,6387 8485,6291 7730,6114 7738,6086 7746,6058 7754,6031 7883,5581 8042,5170 8223,4806 8404,4445 8607,4131 8830,3874 9049,3622 9282,3428 9524,3299 9642,3235 9763,3187 9885,3155 9971,3132 10057,3118 10144,3111 Z"/>
       </g>
      </g>
      <g class="com.sun.star.drawing.ClosedBezierShape">
       <g id="id26">
        <rect class="BoundingBox" stroke="none" fill="none" x="10356" y="11606" width="2417" height="3287"/>
        <path fill="rgb(51,105,30)" stroke="none" d="M 10616,14847 C 10530,14870 10443,14885 10356,14892 L 10356,11606 C 11193,11613 12016,11709 12772,11886 12764,11914 12755,11943 12747,11972 12617,12421 12459,12833 12277,13197 12097,13557 11893,13871 11671,14128 11452,14381 11219,14574 10977,14704 10858,14767 10738,14815 10616,14847 Z"/>
       </g>
      </g>
      <g class="com.sun.star.drawing.ClosedBezierShape">
       <g id="id27">
        <rect class="BoundingBox" stroke="none" fill="none" x="10356" y="6320" width="2790" height="2575"/>
        <path fill="rgb(156,204,101)" stroke="none" d="M 12825,6320 C 13027,7118 13136,7998 13145,8894 L 10356,8894 10356,6607 C 11212,6599 12053,6501 12825,6320 Z"/>
       </g>
      </g>
      <g class="com.sun.star.drawing.ClosedBezierShape">
       <g id="id28">
        <rect class="BoundingBox" stroke="none" fill="none" x="10356" y="9106" width="2790" height="2577"/>
        <path fill="rgb(104,159,56)" stroke="none" d="M 10356,11394 L 10356,9106 13145,9106 C 13137,10002 13028,10883 12826,11681 12054,11500 11212,11402 10356,11394 Z"/>
       </g>
      </g>
      <g class="com.sun.star.drawing.ClosedBezierShape">
       <g id="id29">
        <rect class="BoundingBox" stroke="none" fill="none" x="10356" y="3110" width="2416" height="3286"/>
        <path fill="rgb(197,225,165)" stroke="none" d="M 12747,6031 C 12755,6059 12763,6087 12771,6115 12016,6292 11193,6387 10356,6395 L 10356,3111 C 10443,3118 10530,3132 10616,3155 10738,3187 10858,3235 10977,3299 11219,3429 11452,3622 11671,3874 11893,4132 12097,4445 12277,4806 12459,5170 12617,5581 12747,6031 Z"/>
       </g>
      </g>
     </g>
    </g>
   </g>
  </g>
 </g>
</svg>