<?xml version="1.0" encoding="UTF-8"?>
<!DOCTYPE svg PUBLIC "-//W3C//DTD SVG 1.1//EN" "http://www.w3.org/Graphics/SVG/1.1/DTD/svg11.dtd">
<svg version="1.2" width="200mm" height="200mm" viewBox="0 0 20000 20000" preserveAspectRatio="xMidYMid" fill-rule="evenodd" stroke-width="28.222" stroke-linejoin="round" xmlns="http://www.w3.org/2000/svg" xmlns:ooo="http://xml.openoffice.org/svg/export" xmlns:xlink="http://www.w3.org/1999/xlink" xmlns:presentation="http://sun.com/xmlns/staroffice/presentation" xmlns:smil="http://www.w3.org/2001/SMIL20/" xmlns:anim="urn:oasis:names:tc:opendocument:xmlns:animation:1.0" xml:space="preserve">
 <defs class="ClipPathGroup">
  <clipPath id="presentation_clip_path" clipPathUnits="userSpaceOnUse">
   <rect x="0" y="0" width="20000" height="20000"/>
  </clipPath>
  <clipPath id="presentation_clip_path_shrink" clipPathUnits="userSpaceOnUse">
   <rect x="20" y="20" width="19960" height="19960"/>
  </clipPath>
 </defs>
 <defs class="TextShapeIndex">
  <g ooo:slide="id1" ooo:id-list="id3 id4 id5 id6 id7 id8 id9 id10 id11 id12 id13 id14 id15 id16"/>
 </defs>
 <defs class="EmbeddedBulletChars">
  <g id="bullet-char-template-57356" transform="scale(0.00048828125,-0.00048828125)">
   <path d="M 580,1141 L 1163,571 580,0 -4,571 580,1141 Z"/>
  </g>
  <g id="bullet-char-template-57354" transform="scale(0.00048828125,-0.00048828125)">
   <path d="M 8,1128 L 1137,1128 1137,0 8,0 8,1128 Z"/>
  </g>
  <g id="bullet-char-template-10146" transform="scale(0.00048828125,-0.00048828125)">
   <path d="M 174,0 L 602,739 174,1481 1456,739 174,0 Z M 1358,739 L 309,1346 659,739 1358,739 Z"/>
  </g>
  <g id="bullet-char-template-10132" transform="scale(0.00048828125,-0.00048828125)">
   <path d="M 2015,739 L 1276,0 717,0 1260,543 174,543 174,936 1260,936 717,1481 1274,1481 2015,739 Z"/>
  </g>
  <g id="bullet-char-template-10007" transform="scale(0.00048828125,-0.00048828125)">
   <path d="M 0,-2 C -7,14 -16,27 -25,37 L 356,567 C 262,823 215,952 215,954 215,979 228,992 255,992 264,992 276,990 289,987 310,991 331,999 354,1012 L 381,999 492,748 772,1049 836,1024 860,1049 C 881,1039 901,1025 922,1006 886,937 835,863 770,784 769,783 710,716 594,584 L 774,223 C 774,196 753,168 711,139 L 727,119 C 717,90 699,76 672,76 641,76 570,178 457,381 L 164,-76 C 142,-110 111,-127 72,-127 30,-127 9,-110 8,-76 1,-67 -2,-52 -2,-32 -2,-23 -1,-13 0,-2 Z"/>
  </g>
  <g id="bullet-char-template-10004" transform="scale(0.00048828125,-0.00048828125)">
   <path d="M 285,-33 C 182,-33 111,30 74,156 52,228 41,333 41,471 41,549 55,616 82,672 116,743 169,778 240,778 293,778 328,747 346,684 L 369,508 C 377,444 397,411 428,410 L 1163,1116 C 1174,1127 1196,1133 1229,1133 1271,1133 1292,1118 1292,1087 L 1292,965 C 1292,929 1282,901 1262,881 L 442,47 C 390,-6 338,-33 285,-33 Z"/>
  </g>
  <g id="bullet-char-template-9679" transform="scale(0.00048828125,-0.00048828125)">
   <path d="M 813,0 C 632,0 489,54 383,161 276,268 223,411 223,592 223,773 276,916 383,1023 489,1130 632,1184 813,1184 992,1184 1136,1130 1245,1023 1353,916 1407,772 1407,592 1407,412 1353,268 1245,161 1136,54 992,0 813,0 Z"/>
  </g>
  <g id="bullet-char-template-8226" transform="scale(0.00048828125,-0.00048828125)">
   <path d="M 346,457 C 273,457 209,483 155,535 101,586 74,649 74,723 74,796 101,859 155,911 209,963 273,989 346,989 419,989 480,963 531,910 582,859 608,796 608,723 608,648 583,586 532,535 482,483 420,457 346,457 Z"/>
  </g>
  <g id="bullet-char-template-8211" transform="scale(0.00048828125,-0.00048828125)">
   <path d="M -4,459 L 1135,459 1135,606 -4,606 -4,459 Z"/>
  </g>
  <g id="bullet-char-template-61548" transform="scale(0.00048828125,-0.00048828125)">
   <path d="M 173,740 C 173,903 231,1043 346,1159 462,1274 601,1332 765,1332 928,1332 1067,1274 1183,1159 1299,1043 1357,903 1357,740 1357,577 1299,437 1183,322 1067,206 928,148 765,148 601,148 462,206 346,322 231,437 173,577 173,740 Z"/>
  </g>
 </defs>
 <g>
  <g id="id2" class="Master_Slide">
   <g id="bg-id2" class="Background"/>
   <g id="bo-id2" class="BackgroundObjects"/>
  </g>
 </g>
 <g class="SlideGroup">
  <g>
   <g id="container-id1">
    <g id="id1" class="Slide" clip-path="url(#presentation_clip_path)">
     <g class="Page">
      <g class="com.sun.star.drawing.CustomShape">
       <g id="id3">
        <rect class="BoundingBox" stroke="none" fill="none" x="9500" y="1250" width="1001" height="1251"/>
        <path fill="rgb(97,97,97)" stroke="none" d="M 10000,2500 L 9500,2500 9500,1250 10500,1250 10500,2500 10000,2500 Z"/>
       </g>
      </g>
      <g class="com.sun.star.drawing.CustomShape">
       <g id="id4">
        <rect class="BoundingBox" stroke="none" fill="none" x="9927" y="18668" width="148" height="148"/>
        <path fill="rgb(30,136,229)" stroke="none" d="M 10074,18742 C 10074,18754 10071,18767 10064,18778 10058,18789 10048,18799 10037,18805 10026,18812 10013,18815 10001,18815 9988,18815 9975,18812 9964,18805 9953,18799 9943,18789 9937,18778 9930,18767 9927,18754 9927,18742 9927,18729 9930,18716 9937,18705 9943,18694 9953,18684 9964,18678 9975,18671 9988,18668 10001,18668 10013,18668 10026,18671 10037,18678 10048,18684 10058,18694 10064,18705 10071,18716 10074,18729 10074,18742 L 10074,18742 Z"/>
       </g>
      </g>
      <g class="com.sun.star.drawing.CustomShape">
       <g id="id5">
        <rect class="BoundingBox" stroke="none" fill="none" x="9250" y="2000" width="1501" height="15001"/>
        <path fill="rgb(66,66,66)" stroke="none" d="M 10000,17000 L 9250,17000 9250,2000 10750,2000 10750,17000 10000,17000 Z"/>
       </g>
      </g>
      <g class="com.sun.star.drawing.CustomShape">
       <g id="id6">
        <rect class="BoundingBox" stroke="none" fill="none" x="10250" y="2000" width="1001" height="1751"/>
        <path fill="rgb(66,66,66)" stroke="none" d="M 10750,3750 L 10250,3750 10250,2000 11250,2000 11250,3750 10750,3750 Z"/>
       </g>
      </g>
      <g class="com.sun.star.drawing.CustomShape">
       <g id="id7">
        <rect class="BoundingBox" stroke="none" fill="none" x="11000" y="3500" width="251" height="4501"/>
        <path fill="rgb(66,66,66)" stroke="none" d="M 11125,8000 L 11000,8000 11000,3500 11250,3500 11250,8000 11125,8000 Z"/>
       </g>
      </g>
      <g class="com.sun.star.drawing.PolyPolygonShape">
       <g id="id8">
        <rect class="BoundingBox" stroke="none" fill="none" x="9250" y="16999" width="1503" height="1503"/>
        <path fill="rgb(66,66,66)" stroke="none" d="M 9813,18500 L 9250,16999 10751,16999 10188,18500 9813,18500 Z"/>
       </g>
      </g>
      <g class="com.sun.star.drawing.PolyPolygonShape">
       <g id="id9">
        <rect class="BoundingBox" stroke="none" fill="none" x="9835" y="18499" width="331" height="252"/>
        <path fill="rgb(189,189,189)" stroke="none" d="M 9924,18750 L 9835,18499 10165,18499 10076,18750 9924,18750 Z"/>
       </g>
      </g>
      <g class="com.sun.star.drawing.CustomShape">
       <g id="id10">
        <rect class="BoundingBox" stroke="none" fill="none" x="10749" y="7250" width="503" height="753"/>
        <path fill="rgb(66,66,66)" stroke="none" d="M 10940,7250 L 10940,7250 C 10907,7250 10874,7259 10845,7275 10816,7292 10792,7316 10775,7345 10759,7374 10750,7407 10750,7440 L 10750,7810 10750,7811 C 10750,7844 10759,7877 10775,7906 10792,7935 10816,7959 10845,7976 10874,7992 10907,8001 10940,8001 L 11060,8000 11061,8001 C 11094,8001 11127,7992 11156,7976 11185,7959 11209,7935 11226,7906 11242,7877 11251,7844 11251,7811 L 11251,7440 11251,7440 11251,7440 C 11251,7407 11242,7374 11226,7345 11209,7316 11185,7292 11156,7275 11127,7259 11094,7250 11061,7250 L 10940,7250 Z"/>
       </g>
      </g>
      <g class="com.sun.star.drawing.LineShape">
       <g id="id11">
        <rect class="BoundingBox" stroke="none" fill="none" x="9196" y="16947" width="1608" height="107"/>
        <path fill="none" stroke="rgb(117,117,117)" stroke-width="106" stroke-linejoin="round" stroke-linecap="round" d="M 9250,17000 L 10750,17000"/>
       </g>
      </g>
      <g class="com.sun.star.drawing.LineShape">
       <g id="id12">
        <rect class="BoundingBox" stroke="none" fill="none" x="9196" y="16697" width="1608" height="107"/>
        <path fill="none" stroke="rgb(117,117,117)" stroke-width="106" stroke-linejoin="round" stroke-linecap="round" d="M 9250,16750 L 10750,16750"/>
       </g>
      </g>
      <g class="com.sun.star.drawing.LineShape">
       <g id="id13">
        <rect class="BoundingBox" stroke="none" fill="none" x="9196" y="16447" width="1608" height="107"/>
        <path fill="none" stroke="rgb(117,117,117)" stroke-width="106" stroke-linejoin="round" stroke-linecap="round" d="M 9250,16500 L 10750,16500"/>
       </g>
      </g>
      <g class="com.sun.star.drawing.LineShape">
       <g id="id14">
        <rect class="BoundingBox" stroke="none" fill="none" x="9196" y="16197" width="1608" height="107"/>
        <path fill="none" stroke="rgb(117,117,117)" stroke-width="106" stroke-linejoin="round" stroke-linecap="round" d="M 9250,16250 L 10750,16250"/>
       </g>
      </g>
      <g class="com.sun.star.drawing.LineShape">
       <g id="id15">
        <rect class="BoundingBox" stroke="none" fill="none" x="9232" y="1982" width="1537" height="37"/>
        <path fill="none" stroke="rgb(117,117,117)" stroke-width="35" stroke-linejoin="round" stroke-linecap="round" d="M 9250,2000 L 10750,2000"/>
       </g>
      </g>
      <g class="com.sun.star.drawing.LineShape">
       <g id="id16">
        <rect class="BoundingBox" stroke="none" fill="none" x="9232" y="3732" width="1537" height="37"/>
        <path fill="none" stroke="rgb(117,117,117)" stroke-width="35" stroke-linejoin="round" stroke-linecap="round" d="M 9250,3750 L 10750,3750"/>
       </g>
      </g>
     </g>
    </g>
   </g>
  </g>
 </g>
</svg>