<?xml version="1.0" encoding="UTF-8"?>
<!DOCTYPE svg PUBLIC "-//W3C//DTD SVG 1.1//EN" "http://www.w3.org/Graphics/SVG/1.1/DTD/svg11.dtd">
<svg version="1.2" width="200mm" height="200mm" viewBox="0 0 20000 20000" preserveAspectRatio="xMidYMid" fill-rule="evenodd" stroke-width="28.222" stroke-linejoin="round" xmlns="http://www.w3.org/2000/svg" xmlns:ooo="http://xml.openoffice.org/svg/export" xmlns:xlink="http://www.w3.org/1999/xlink" xmlns:presentation="http://sun.com/xmlns/staroffice/presentation" xmlns:smil="http://www.w3.org/2001/SMIL20/" xmlns:anim="urn:oasis:names:tc:opendocument:xmlns:animation:1.0" xml:space="preserve">
 <defs class="ClipPathGroup">
  <clipPath id="presentation_clip_path" clipPathUnits="userSpaceOnUse">
   <rect x="0" y="0" width="20000" height="20000"/>
  </clipPath>
  <clipPath id="presentation_clip_path_shrink" clipPathUnits="userSpaceOnUse">
   <rect x="20" y="20" width="19960" height="19960"/>
  </clipPath>
 </defs>
 <defs class="TextShapeIndex">
  <g ooo:slide="id1" ooo:id-list="id3 id4 id5 id6 id7 id8 id9 id10 id11 id12 id13 id14 id15 id16 id17 id18 id19 id20 id21 id22 id23 id24 id25 id26 id27 id28 id29 id30 id31 id32 id33"/>
 </defs>
 <defs class="EmbeddedBulletChars">
  <g id="bullet-char-template-57356" transform="scale(0.00048828125,-0.00048828125)">
   <path d="M 580,1141 L 1163,571 580,0 -4,571 580,1141 Z"/>
  </g>
  <g id="bullet-char-template-57354" transform="scale(0.00048828125,-0.00048828125)">
   <path d="M 8,1128 L 1137,1128 1137,0 8,0 8,1128 Z"/>
  </g>
  <g id="bullet-char-template-10146" transform="scale(0.00048828125,-0.00048828125)">
   <path d="M 174,0 L 602,739 174,1481 1456,739 174,0 Z M 1358,739 L 309,1346 659,739 1358,739 Z"/>
  </g>
  <g id="bullet-char-template-10132" transform="scale(0.00048828125,-0.00048828125)">
   <path d="M 2015,739 L 1276,0 717,0 1260,543 174,543 174,936 1260,936 717,1481 1274,1481 2015,739 Z"/>
  </g>
  <g id="bullet-char-template-10007" transform="scale(0.00048828125,-0.00048828125)">
   <path d="M 0,-2 C -7,14 -16,27 -25,37 L 356,567 C 262,823 215,952 215,954 215,979 228,992 255,992 264,992 276,990 289,987 310,991 331,999 354,1012 L 381,999 492,748 772,1049 836,1024 860,1049 C 881,1039 901,1025 922,1006 886,937 835,863 770,784 769,783 710,716 594,584 L 774,223 C 774,196 753,168 711,139 L 727,119 C 717,90 699,76 672,76 641,76 570,178 457,381 L 164,-76 C 142,-110 111,-127 72,-127 30,-127 9,-110 8,-76 1,-67 -2,-52 -2,-32 -2,-23 -1,-13 0,-2 Z"/>
  </g>
  <g id="bullet-char-template-10004" transform="scale(0.00048828125,-0.00048828125)">
   <path d="M 285,-33 C 182,-33 111,30 74,156 52,228 41,333 41,471 41,549 55,616 82,672 116,743 169,778 240,778 293,778 328,747 346,684 L 369,508 C 377,444 397,411 428,410 L 1163,1116 C 1174,1127 1196,1133 1229,1133 1271,1133 1292,1118 1292,1087 L 1292,965 C 1292,929 1282,901 1262,881 L 442,47 C 390,-6 338,-33 285,-33 Z"/>
  </g>
  <g id="bullet-char-template-9679" transform="scale(0.00048828125,-0.00048828125)">
   <path d="M 813,0 C 632,0 489,54 383,161 276,268 223,411 223,592 223,773 276,916 383,1023 489,1130 632,1184 813,1184 992,1184 1136,1130 1245,1023 1353,916 1407,772 1407,592 1407,412 1353,268 1245,161 1136,54 992,0 813,0 Z"/>
  </g>
  <g id="bullet-char-template-8226" transform="scale(0.00048828125,-0.00048828125)">
   <path d="M 346,457 C 273,457 209,483 155,535 101,586 74,649 74,723 74,796 101,859 155,911 209,963 273,989 346,989 419,989 480,963 531,910 582,859 608,796 608,723 608,648 583,586 532,535 482,483 420,457 346,457 Z"/>
  </g>
  <g id="bullet-char-template-8211" transform="scale(0.00048828125,-0.00048828125)">
   <path d="M -4,459 L 1135,459 1135,606 -4,606 -4,459 Z"/>
  </g>
  <g id="bullet-char-template-61548" transform="scale(0.00048828125,-0.00048828125)">
   <path d="M 173,740 C 173,903 231,1043 346,1159 462,1274 601,1332 765,1332 928,1332 1067,1274 1183,1159 1299,1043 1357,903 1357,740 1357,577 1299,437 1183,322 1067,206 928,148 765,148 601,148 462,206 346,322 231,437 173,577 173,740 Z"/>
  </g>
 </defs>
 <g>
  <g id="id2" class="Master_Slide">
   <g id="bg-id2" class="Background"/>
   <g id="bo-id2" class="BackgroundObjects"/>
  </g>
 </g>
 <g class="SlideGroup">
  <g>
   <g id="container-id1">
    <g id="id1" class="Slide" clip-path="url(#presentation_clip_path)">
     <g class="Page">
      <g class="com.sun.star.drawing.CustomShape">
       <g id="id3">
        <rect class="BoundingBox" stroke="none" fill="none" x="4999" y="999" width="10004" height="18004"/>
        <path fill="rgb(0,0,0)" stroke="none" d="M 6080,1000 L 6080,1000 C 5890,1000 5704,1050 5540,1145 5376,1239 5239,1376 5145,1540 5050,1704 5000,1890 5000,2080 L 5000,17921 5000,17921 C 5000,18111 5050,18297 5145,18461 5239,18625 5376,18762 5540,18856 5704,18951 5890,19001 6080,19001 L 13921,19001 13921,19001 C 14111,19001 14297,18951 14461,18856 14625,18762 14762,18625 14856,18461 14951,18297 15001,18111 15001,17921 L 15001,2080 15001,2080 15001,2080 C 15001,1890 14951,1704 14856,1540 14762,1376 14625,1239 14461,1145 14297,1050 14111,1000 13921,1000 L 6080,1000 Z"/>
        <path fill="none" stroke="rgb(52,101,164)" d="M 6080,1000 L 6080,1000 C 5890,1000 5704,1050 5540,1145 5376,1239 5239,1376 5145,1540 5050,1704 5000,1890 5000,2080 L 5000,17921 5000,17921 C 5000,18111 5050,18297 5145,18461 5239,18625 5376,18762 5540,18856 5704,18951 5890,19001 6080,19001 L 13921,19001 13921,19001 C 14111,19001 14297,18951 14461,18856 14625,18762 14762,18625 14856,18461 14951,18297 15001,18111 15001,17921 L 15001,2080 15001,2080 15001,2080 C 15001,1890 14951,1704 14856,1540 14762,1376 14625,1239 14461,1145 14297,1050 14111,1000 13921,1000 L 6080,1000 Z"/>
       </g>
      </g>
      <g class="com.sun.star.drawing.CustomShape">
       <g id="id4">
        <rect class="BoundingBox" stroke="none" fill="none" x="5250" y="1500" width="9502" height="16752"/>
        <g>
         <defs>
          <linearGradient id="gradient1" x1="5186" y1="1537" x2="14815" y2="18214" gradientUnits="userSpaceOnUse">
           <stop offset="0" style="stop-color:rgb(156,204,101)"/>
           <stop offset="1" style="stop-color:rgb(220,237,200)"/>
          </linearGradient>
         </defs>
         <path style="fill:url(#gradient1)" d="M 6107,1500 L 6107,1500 6051,1502 5995,1507 5940,1516 5885,1529 5832,1545 5779,1565 5728,1588 5679,1615 5631,1645 5585,1677 5542,1713 5501,1751 5463,1792 5427,1835 5395,1881 5365,1929 5338,1978 5315,2029 5295,2082 5279,2135 5266,2190 5257,2245 5252,2301 5250,2357 5250,17393 5250,17394 5252,17450 5257,17506 5266,17561 5279,17616 5295,17669 5315,17722 5338,17773 5365,17822 5395,17870 5427,17916 5463,17959 5501,18000 5542,18038 5585,18074 5631,18106 5679,18136 5728,18163 5779,18186 5832,18206 5885,18222 5940,18235 5995,18244 6051,18249 6107,18251 13894,18250 13894,18251 13950,18249 14006,18244 14061,18235 14116,18222 14169,18206 14222,18186 14273,18163 14323,18136 14370,18106 14416,18074 14459,18038 14500,18000 14538,17959 14574,17916 14606,17870 14636,17822 14663,17773 14686,17722 14706,17669 14722,17616 14735,17561 14744,17506 14749,17450 14751,17394 14751,2357 14751,2357 14751,2357 14749,2301 14744,2245 14735,2190 14722,2135 14706,2082 14686,2029 14663,1978 14636,1928 14606,1881 14574,1835 14538,1792 14500,1751 14459,1713 14416,1677 14370,1645 14323,1615 14273,1588 14222,1565 14169,1545 14116,1529 14061,1516 14006,1507 13950,1502 13894,1500 6107,1500 Z"/>
        </g>
       </g>
      </g>
      <g class="com.sun.star.drawing.CustomShape">
       <g id="id5">
        <rect class="BoundingBox" stroke="none" fill="none" x="9644" y="1644" width="714" height="714"/>
        <path fill="rgb(51,51,51)" stroke="none" d="M 10251,2000 C 10251,2044 10239,2088 10217,2126 10195,2164 10164,2195 10126,2217 10088,2239 10044,2251 10001,2251 9957,2251 9913,2239 9875,2217 9837,2195 9806,2164 9784,2126 9762,2088 9750,2044 9750,2001 9750,1957 9762,1913 9784,1875 9806,1837 9837,1806 9875,1784 9913,1762 9957,1750 10001,1750 10044,1750 10088,1762 10126,1784 10164,1806 10195,1837 10217,1875 10239,1913 10251,1957 10251,2000 L 10251,2000 Z"/>
        <path fill="none" stroke="rgb(0,0,0)" stroke-width="212" stroke-linejoin="round" d="M 10251,2000 C 10251,2044 10239,2088 10217,2126 10195,2164 10164,2195 10126,2217 10088,2239 10044,2251 10001,2251 9957,2251 9913,2239 9875,2217 9837,2195 9806,2164 9784,2126 9762,2088 9750,2044 9750,2001 9750,1957 9762,1913 9784,1875 9806,1837 9837,1806 9875,1784 9913,1762 9957,1750 10001,1750 10044,1750 10088,1762 10126,1784 10164,1806 10195,1837 10217,1875 10239,1913 10251,1957 10251,2000 L 10251,2000 Z"/>
       </g>
      </g>
      <g class="com.sun.star.drawing.CustomShape">
       <g id="id6">
        <rect class="BoundingBox" stroke="none" fill="none" x="8500" y="1250" width="3002" height="252"/>
        <path fill="rgb(28,28,28)" stroke="none" d="M 8541,1250 L 8542,1250 C 8534,1250 8527,1252 8521,1256 8515,1259 8509,1265 8506,1271 8502,1277 8500,1284 8500,1292 L 8500,1459 8500,1459 C 8500,1467 8502,1474 8506,1480 8509,1486 8515,1492 8521,1495 8527,1499 8534,1501 8542,1501 L 11459,1501 11459,1501 C 11467,1501 11474,1499 11480,1495 11486,1492 11492,1486 11495,1480 11499,1474 11501,1467 11501,1459 L 11501,1291 11501,1292 11501,1292 C 11501,1284 11499,1277 11495,1271 11492,1265 11486,1259 11480,1256 11474,1252 11467,1250 11459,1250 L 8541,1250 Z"/>
       </g>
      </g>
      <g class="com.sun.star.drawing.CustomShape">
       <g id="id7">
        <rect class="BoundingBox" stroke="none" fill="none" x="9697" y="17196" width="608" height="609"/>
        <path fill="rgb(189,189,189)" stroke="none" d="M 10251,17500 C 10251,17544 10239,17588 10217,17626 10195,17664 10164,17695 10126,17717 10088,17739 10044,17751 10001,17751 9957,17751 9913,17739 9875,17717 9837,17695 9806,17664 9784,17626 9762,17588 9750,17544 9750,17500 9750,17457 9762,17413 9784,17375 9806,17337 9837,17306 9875,17284 9913,17262 9957,17250 10001,17250 10044,17250 10088,17262 10126,17284 10164,17306 10195,17337 10217,17375 10239,17413 10251,17457 10251,17500 L 10251,17500 Z"/>
        <path fill="none" stroke="rgb(238,238,238)" stroke-width="106" stroke-linejoin="round" d="M 10251,17500 C 10251,17544 10239,17588 10217,17626 10195,17664 10164,17695 10126,17717 10088,17739 10044,17751 10001,17751 9957,17751 9913,17739 9875,17717 9837,17695 9806,17664 9784,17626 9762,17588 9750,17544 9750,17500 9750,17457 9762,17413 9784,17375 9806,17337 9837,17306 9875,17284 9913,17262 9957,17250 10001,17250 10044,17250 10088,17262 10126,17284 10164,17306 10195,17337 10217,17375 10239,17413 10251,17457 10251,17500 Z"/>
       </g>
      </g>
      <g class="com.sun.star.drawing.CustomShape">
       <g id="id8">
        <rect class="BoundingBox" stroke="none" fill="none" x="5999" y="11000" width="1253" height="1252"/>
        <path fill="rgb(124,179,66)" stroke="none" d="M 6208,11000 L 6208,11000 C 6172,11000 6136,11010 6104,11028 6073,11046 6046,11073 6028,11104 6010,11136 6000,11172 6000,11209 L 6000,12042 6000,12043 C 6000,12079 6010,12115 6028,12147 6046,12178 6073,12205 6104,12223 6136,12241 6172,12251 6208,12251 L 7042,12251 7043,12251 C 7079,12251 7115,12241 7147,12223 7178,12205 7205,12178 7223,12147 7241,12115 7251,12079 7251,12043 L 7251,11208 7251,11209 7251,11209 C 7251,11172 7241,11136 7223,11104 7205,11073 7178,11046 7147,11028 7115,11010 7079,11000 7043,11000 L 6208,11000 Z"/>
       </g>
      </g>
      <g class="com.sun.star.drawing.CustomShape">
       <g id="id9">
        <rect class="BoundingBox" stroke="none" fill="none" x="8250" y="11000" width="1252" height="1252"/>
        <path fill="rgb(126,87,194)" stroke="none" d="M 8458,11000 L 8459,11000 C 8422,11000 8386,11010 8354,11028 8323,11046 8296,11073 8278,11104 8260,11136 8250,11172 8250,11209 L 8250,12042 8250,12043 C 8250,12079 8260,12115 8278,12147 8296,12178 8323,12205 8354,12223 8386,12241 8422,12251 8459,12251 L 9292,12251 9293,12251 C 9329,12251 9365,12241 9397,12223 9428,12205 9455,12178 9473,12147 9491,12115 9501,12079 9501,12043 L 9501,11208 9501,11209 9501,11209 C 9501,11172 9491,11136 9473,11104 9455,11073 9428,11046 9397,11028 9365,11010 9329,11000 9293,11000 L 8458,11000 Z"/>
       </g>
      </g>
      <g class="com.sun.star.drawing.CustomShape">
       <g id="id10">
        <rect class="BoundingBox" stroke="none" fill="none" x="10500" y="11000" width="1252" height="1252"/>
        <path fill="rgb(255,160,0)" stroke="none" d="M 10708,11000 L 10709,11000 C 10672,11000 10636,11010 10604,11028 10573,11046 10546,11073 10528,11104 10510,11136 10500,11172 10500,11209 L 10500,12042 10500,12043 C 10500,12079 10510,12115 10528,12147 10546,12178 10573,12205 10604,12223 10636,12241 10672,12251 10709,12251 L 11542,12251 11543,12251 C 11579,12251 11615,12241 11647,12223 11678,12205 11705,12178 11723,12147 11741,12115 11751,12079 11751,12043 L 11751,11208 11751,11209 11751,11209 C 11751,11172 11741,11136 11723,11104 11705,11073 11678,11046 11647,11028 11615,11010 11579,11000 11543,11000 L 10708,11000 Z"/>
       </g>
      </g>
      <g class="com.sun.star.drawing.CustomShape">
       <g id="id11">
        <rect class="BoundingBox" stroke="none" fill="none" x="12749" y="11000" width="1253" height="1252"/>
        <path fill="rgb(239,83,80)" stroke="none" d="M 12958,11000 L 12959,11000 C 12922,11000 12886,11010 12854,11028 12823,11046 12796,11073 12778,11104 12760,11136 12750,11172 12750,11209 L 12750,12042 12750,12043 C 12750,12079 12760,12115 12778,12147 12796,12178 12823,12205 12854,12223 12886,12241 12922,12251 12959,12251 L 13792,12251 13792,12251 C 13829,12251 13865,12241 13897,12223 13928,12205 13955,12178 13973,12147 13991,12115 14001,12079 14001,12043 L 14001,11208 14001,11209 14001,11209 C 14001,11172 13991,11136 13973,11104 13955,11073 13928,11046 13897,11028 13865,11010 13829,11000 13792,11000 L 12958,11000 Z"/>
       </g>
      </g>
      <g class="com.sun.star.drawing.CustomShape">
       <g id="id12">
        <rect class="BoundingBox" stroke="none" fill="none" x="5999" y="13749" width="1253" height="1253"/>
        <path fill="rgb(56,142,60)" stroke="none" d="M 6208,13750 L 6208,13750 C 6172,13750 6136,13760 6104,13778 6073,13796 6046,13823 6028,13854 6010,13886 6000,13922 6000,13959 L 6000,14792 6000,14792 C 6000,14829 6010,14865 6028,14897 6046,14928 6073,14955 6104,14973 6136,14991 6172,15001 6208,15001 L 7042,15001 7043,15001 C 7079,15001 7115,14991 7147,14973 7178,14955 7205,14928 7223,14897 7241,14865 7251,14829 7251,14792 L 7251,13958 7251,13959 7251,13959 C 7251,13922 7241,13886 7223,13854 7205,13823 7178,13796 7147,13778 7115,13760 7079,13750 7043,13750 L 6208,13750 Z"/>
       </g>
      </g>
      <g class="com.sun.star.drawing.CustomShape">
       <g id="id13">
        <rect class="BoundingBox" stroke="none" fill="none" x="8250" y="13749" width="1252" height="1253"/>
        <path fill="rgb(117,117,117)" stroke="none" d="M 8458,13750 L 8459,13750 C 8422,13750 8386,13760 8354,13778 8323,13796 8296,13823 8278,13854 8260,13886 8250,13922 8250,13959 L 8250,14792 8250,14792 C 8250,14829 8260,14865 8278,14897 8296,14928 8323,14955 8354,14973 8386,14991 8422,15001 8459,15001 L 9292,15001 9293,15001 C 9329,15001 9365,14991 9397,14973 9428,14955 9455,14928 9473,14897 9491,14865 9501,14829 9501,14792 L 9501,13958 9501,13959 9501,13959 C 9501,13922 9491,13886 9473,13854 9455,13823 9428,13796 9397,13778 9365,13760 9329,13750 9293,13750 L 8458,13750 Z"/>
       </g>
      </g>
      <g class="com.sun.star.drawing.CustomShape">
       <g id="id14">
        <rect class="BoundingBox" stroke="none" fill="none" x="10500" y="13749" width="1252" height="1253"/>
        <path fill="rgb(121,134,203)" stroke="none" d="M 10708,13750 L 10709,13750 C 10672,13750 10636,13760 10604,13778 10573,13796 10546,13823 10528,13854 10510,13886 10500,13922 10500,13959 L 10500,14792 10500,14792 C 10500,14829 10510,14865 10528,14897 10546,14928 10573,14955 10604,14973 10636,14991 10672,15001 10709,15001 L 11542,15001 11543,15001 C 11579,15001 11615,14991 11647,14973 11678,14955 11705,14928 11723,14897 11741,14865 11751,14829 11751,14792 L 11751,13958 11751,13959 11751,13959 C 11751,13922 11741,13886 11723,13854 11705,13823 11678,13796 11647,13778 11615,13760 11579,13750 11543,13750 L 10708,13750 Z"/>
       </g>
      </g>
      <g class="com.sun.star.drawing.CustomShape">
       <g id="id15">
        <rect class="BoundingBox" stroke="none" fill="none" x="12750" y="13749" width="1252" height="1253"/>
        <path fill="rgb(0,137,123)" stroke="none" d="M 12958,13750 L 12959,13750 C 12922,13750 12886,13760 12854,13778 12823,13796 12796,13823 12778,13854 12760,13886 12750,13922 12750,13959 L 12750,14792 12750,14792 C 12750,14829 12760,14865 12778,14897 12796,14928 12823,14955 12854,14973 12886,14991 12922,15001 12959,15001 L 13792,15001 13792,15001 C 13829,15001 13865,14991 13897,14973 13928,14955 13955,14928 13973,14897 13991,14865 14001,14829 14001,14792 L 14001,13958 14001,13959 14001,13959 C 14001,13922 13991,13886 13973,13854 13955,13823 13928,13796 13897,13778 13865,13760 13829,13750 13792,13750 L 12958,13750 Z"/>
       </g>
      </g>
      <g class="com.sun.star.drawing.ClosedBezierShape">
       <g id="id16">
        <rect class="BoundingBox" stroke="none" fill="none" x="12245" y="1794" width="756" height="457"/>
        <path fill="rgb(250,250,250)" stroke="none" d="M 13000,1951 L 12983,1933 12964,1917 12945,1901 12925,1886 12904,1872 12882,1860 12859,1848 12836,1837 12813,1828 12788,1820 12764,1812 12739,1806 12713,1801 12688,1798 12662,1795 12636,1794 12610,1794 12584,1795 12558,1798 12533,1801 12507,1806 12482,1812 12458,1820 12433,1828 12410,1837 12387,1848 12364,1860 12342,1872 12321,1886 12301,1901 12282,1917 12263,1933 12246,1951 12340,2025 12354,2012 12367,2000 12382,1988 12397,1977 12413,1967 12429,1957 12446,1949 12463,1941 12481,1933 12499,1927 12518,1922 12536,1917 12555,1914 12575,1911 12594,1909 12613,1908 12633,1908 12652,1909 12671,1911 12691,1914 12710,1917 12728,1922 12747,1927 12765,1933 12783,1941 12800,1949 12817,1957 12833,1967 12849,1977 12864,1988 12879,2000 12892,2012 12906,2025 13000,1951 Z M 12863,2070 L 12852,2060 12841,2050 12828,2040 12815,2032 12802,2023 12788,2016 12774,2009 12759,2002 12744,1996 12728,1991 12713,1987 12697,1983 12681,1981 12664,1978 12648,1977 12631,1976 12615,1976 12598,1977 12582,1978 12565,1981 12549,1983 12533,1987 12518,1991 12502,1996 12487,2002 12472,2009 12458,2016 12444,2023 12431,2032 12418,2040 12405,2050 12394,2060 12383,2070 12443,2115 12451,2107 12459,2100 12468,2093 12478,2087 12487,2080 12497,2075 12508,2070 12518,2065 12529,2060 12541,2057 12552,2053 12563,2050 12575,2048 12587,2046 12599,2045 12611,2044 12623,2044 12635,2044 12647,2045 12659,2046 12671,2048 12683,2050 12694,2053 12705,2057 12717,2060 12728,2065 12738,2070 12749,2075 12759,2080 12768,2087 12778,2093 12787,2100 12795,2107 12803,2115 12863,2070 Z M 12669,2204 C 12669,2212 12667,2220 12663,2227 12659,2234 12653,2240 12646,2244 12639,2248 12631,2250 12623,2250 12616,2250 12608,2248 12601,2244 12594,2240 12588,2234 12584,2227 12580,2220 12578,2212 12578,2204 12578,2196 12580,2188 12584,2181 12588,2174 12594,2168 12601,2164 12608,2160 12616,2158 12623,2158 12631,2158 12639,2160 12646,2164 12653,2168 12659,2174 12663,2181 12667,2188 12669,2196 12669,2204 Z"/>
       </g>
      </g>
      <g class="Group">
       <g class="com.sun.star.drawing.ClosedBezierShape">
        <g id="id17">
         <rect class="BoundingBox" stroke="none" fill="none" x="6022" y="1925" width="271" height="402"/>
         <path fill="rgb(250,250,250)" stroke="none" d="M 6292,2126 C 6292,2190 6281,2240 6258,2274 6235,2308 6201,2325 6156,2326 6112,2325 6078,2308 6056,2274 6033,2240 6022,2191 6022,2126 6022,2059 6033,2009 6055,1975 6077,1942 6111,1926 6158,1926 6204,1926 6238,1942 6259,1976 6281,2010 6292,2059 6292,2126 Z M 6242,2126 C 6242,2069 6235,2029 6222,2003 6209,1978 6188,1966 6158,1966 6127,1966 6106,1978 6092,2003 6079,2028 6072,2069 6072,2126 6072,2181 6079,2221 6092,2247 6106,2273 6127,2286 6157,2286 6186,2286 6208,2272 6221,2246 6235,2220 6242,2180 6242,2126 Z"/>
        </g>
       </g>
       <g class="com.sun.star.drawing.ClosedBezierShape">
        <g id="id18">
         <rect class="BoundingBox" stroke="none" fill="none" x="6341" y="1931" width="259" height="390"/>
         <path fill="rgb(250,250,250)" stroke="none" d="M 6599,1972 C 6559,2032 6531,2080 6515,2114 6498,2148 6486,2182 6478,2216 6469,2249 6465,2284 6465,2320 L 6414,2320 C 6414,2270 6424,2218 6445,2163 6466,2108 6501,2045 6551,1974 L 6342,1974 6342,1932 6599,1932 6599,1972 Z"/>
        </g>
       </g>
       <g class="com.sun.star.drawing.ClosedBezierShape">
        <g id="id19">
         <rect class="BoundingBox" stroke="none" fill="none" x="6678" y="2021" width="56" height="300"/>
         <path fill="rgb(250,250,250)" stroke="none" d="M 6679,2079 C 6679,2060 6679,2041 6679,2022 6696,2022 6714,2022 6732,2022 6732,2041 6732,2060 6732,2079 6714,2079 6696,2079 6679,2079 Z M 6679,2320 C 6679,2301 6679,2282 6679,2263 6696,2263 6714,2263 6732,2263 6732,2282 6732,2301 6732,2320 6714,2320 6696,2320 6679,2320 Z"/>
        </g>
       </g>
       <g class="com.sun.star.drawing.ClosedBezierShape">
        <g id="id20">
         <rect class="BoundingBox" stroke="none" fill="none" x="6795" y="1931" width="287" height="390"/>
         <path fill="rgb(250,250,250)" stroke="none" d="M 7026,2232 L 7026,2320 6979,2320 6979,2232 6796,2232 6796,2193 6974,1932 7026,1932 7026,2193 7080,2193 7080,2232 7026,2232 Z M 6979,1987 C 6979,1989 6976,1993 6971,2002 6967,2011 6963,2017 6961,2020 L 6861,2167 6846,2187 6842,2193 6979,2193 6979,1987 Z"/>
        </g>
       </g>
       <g class="com.sun.star.drawing.ClosedBezierShape">
        <g id="id21">
         <rect class="BoundingBox" stroke="none" fill="none" x="7118" y="1931" width="270" height="396"/>
         <path fill="rgb(250,250,250)" stroke="none" d="M 7386,2194 C 7386,2235 7374,2267 7350,2290 7325,2314 7292,2325 7248,2325 7212,2325 7183,2318 7161,2302 7139,2286 7124,2263 7119,2233 L 7169,2227 C 7179,2266 7206,2285 7250,2285 7276,2285 7297,2277 7312,2261 7327,2245 7335,2223 7335,2195 7335,2170 7327,2150 7312,2135 7297,2120 7276,2112 7251,2112 7237,2112 7225,2115 7213,2119 7202,2123 7190,2130 7178,2140 L 7130,2140 7143,1931 7364,1931 7364,1973 7188,1973 7181,2097 C 7202,2081 7229,2072 7261,2072 7299,2072 7330,2084 7352,2106 7375,2128 7386,2158 7386,2194 Z"/>
        </g>
       </g>
      </g>
      <g class="com.sun.star.drawing.PolyPolygonShape">
       <g id="id22">
        <rect class="BoundingBox" stroke="none" fill="none" x="11250" y="1750" width="501" height="501"/>
        <path fill="rgb(250,250,250)" stroke="none" d="M 11250,2250 L 11250,2036 11350,2036 11350,2250 11250,2250 Z M 11450,2250 L 11450,1893 11550,1893 11550,2250 11450,2250 Z M 11650,2250 L 11650,1750 11750,1750 11750,2250 11650,2250 Z"/>
       </g>
      </g>
      <g class="com.sun.star.drawing.PolyPolygonShape">
       <g id="id23">
        <rect class="BoundingBox" stroke="none" fill="none" x="13482" y="1945" width="751" height="271"/>
        <path fill="rgb(250,250,250)" stroke="none" d="M 13482,2215 L 13482,1945 14172,1945 14172,2035 14232,2035 14232,2125 14172,2125 14172,2215 13482,2215 Z"/>
       </g>
      </g>
      <g class="Group">
       <g class="com.sun.star.drawing.ClosedBezierShape">
        <g id="id24">
         <rect class="BoundingBox" stroke="none" fill="none" x="6074" y="5330" width="912" height="1351"/>
         <path fill="rgb(250,250,250)" stroke="none" d="M 6985,6005 C 6985,6224 6946,6391 6869,6506 6792,6622 6678,6679 6527,6680 6377,6679 6263,6622 6188,6507 6112,6393 6074,6225 6074,6005 6074,5780 6111,5611 6185,5499 6258,5387 6374,5331 6533,5331 6687,5331 6801,5387 6874,5501 6948,5614 6985,5782 6985,6005 Z M 6814,6005 C 6814,5816 6793,5679 6749,5594 6705,5509 6633,5467 6533,5467 6430,5467 6356,5508 6311,5592 6266,5676 6244,5813 6244,6005 6244,6191 6266,6327 6312,6413 6358,6499 6430,6543 6529,6543 6628,6543 6700,6498 6746,6410 6791,6322 6814,6187 6814,6005 Z"/>
        </g>
       </g>
       <g class="com.sun.star.drawing.ClosedBezierShape">
        <g id="id25">
         <rect class="BoundingBox" stroke="none" fill="none" x="7155" y="5349" width="868" height="1313"/>
         <path fill="rgb(250,250,250)" stroke="none" d="M 8021,5485 C 7887,5690 7793,5850 7738,5966 7683,6082 7641,6197 7614,6310 7586,6423 7572,6540 7572,6661 L 7397,6661 C 7397,6493 7433,6317 7504,6131 7575,5946 7693,5733 7859,5492 L 7156,5492 7156,5350 8021,5350 8021,5485 Z"/>
        </g>
       </g>
       <g class="com.sun.star.drawing.ClosedBezierShape">
        <g id="id26">
         <rect class="BoundingBox" stroke="none" fill="none" x="8290" y="5654" width="184" height="1008"/>
         <path fill="rgb(250,250,250)" stroke="none" d="M 8291,5847 C 8291,5783 8291,5719 8291,5655 8351,5655 8412,5655 8472,5655 8472,5719 8472,5783 8472,5847 8412,5847 8351,5847 8291,5847 Z M 8291,6660 C 8291,6596 8291,6532 8291,6468 8351,6468 8412,6468 8472,6468 8472,6532 8472,6596 8472,6660 8412,6660 8351,6660 8291,6660 Z"/>
        </g>
       </g>
       <g class="com.sun.star.drawing.ClosedBezierShape">
        <g id="id27">
         <rect class="BoundingBox" stroke="none" fill="none" x="8689" y="5349" width="962" height="1313"/>
         <path fill="rgb(250,250,250)" stroke="none" d="M 9465,6364 L 9465,6661 9307,6661 9307,6364 8690,6364 8690,6233 9289,5350 9465,5350 9465,6232 9649,6232 9649,6364 9465,6364 Z M 9307,5538 C 9306,5542 9297,5558 9281,5588 9265,5617 9253,5637 9245,5649 L 8909,6144 8859,6213 8844,6232 9307,6232 9307,5538 Z"/>
        </g>
       </g>
       <g class="com.sun.star.drawing.ClosedBezierShape">
        <g id="id28">
         <rect class="BoundingBox" stroke="none" fill="none" x="9780" y="5349" width="905" height="1332"/>
         <path fill="rgb(250,250,250)" stroke="none" d="M 10683,6234 C 10683,6372 10642,6481 10560,6560 10478,6640 10364,6679 10218,6680 10096,6679 9997,6653 9922,6600 9847,6546 9800,6469 9780,6368 L 9950,6348 C 9985,6478 10076,6543 10222,6543 10312,6543 10382,6515 10433,6461 10484,6407 10509,6332 10509,6238 10509,6155 10484,6089 10432,6038 10381,5987 10312,5962 10226,5962 10180,5962 10138,5969 10099,5983 10060,5997 10021,6021 9982,6055 L 9818,6055 9862,5350 10607,5350 10607,5492 10015,5492 9990,5908 C 10062,5852 10152,5825 10260,5825 10389,5825 10492,5862 10568,5938 10645,6014 10683,6112 10683,6234 Z"/>
        </g>
       </g>
      </g>
      <g class="com.sun.star.drawing.ClosedBezierShape">
       <g id="id29">
        <rect class="BoundingBox" stroke="none" fill="none" x="11999" y="4500" width="1502" height="1502"/>
        <path fill="rgb(250,250,250)" stroke="none" d="M 13091,5250 C 13091,5310 13076,5369 13046,5421 13016,5473 12973,5516 12921,5546 12869,5576 12810,5591 12750,5591 12690,5591 12632,5576 12580,5546 12528,5516 12485,5473 12455,5421 12425,5369 12409,5310 12409,5250 12409,5190 12425,5132 12455,5080 12485,5028 12528,4985 12580,4955 12632,4925 12690,4909 12750,4909 12810,4909 12869,4925 12921,4955 12973,4985 13016,5028 13046,5080 13076,5132 13091,5190 13091,5250 L 13091,5250 Z M 12682,6000 L 12682,5727 12818,5727 12818,6000 12682,6000 Z M 12682,4773 L 12682,4500 12818,4500 12818,4773 12682,4773 Z M 13268,5881 L 13075,5687 13171,5591 13364,5784 13268,5881 Z M 13381,4732 L 13187,4925 13091,4829 13284,4636 13381,4732 Z M 13227,5318 L 13227,5182 13500,5182 13500,5318 13227,5318 Z M 12135,5785 L 12328,5591 12425,5688 12232,5881 12135,5785 Z M 12216,4636 L 12409,4829 12313,4925 12120,4732 12216,4636 Z M 12000,5319 L 12000,5182 12273,5182 12273,5319 12000,5319 Z"/>
       </g>
      </g>
      <g class="Group">
       <g class="com.sun.star.drawing.ClosedBezierShape">
        <g id="id30">
         <rect class="BoundingBox" stroke="none" fill="none" x="12115" y="6507" width="292" height="445"/>
         <path fill="rgb(250,250,250)" stroke="none" d="M 12116,6951 L 12116,6912 C 12126,6888 12139,6866 12154,6848 12170,6829 12186,6813 12202,6798 12219,6783 12236,6769 12252,6756 12269,6743 12283,6730 12297,6718 12310,6705 12320,6691 12329,6677 12337,6663 12341,6647 12341,6630 12341,6606 12334,6587 12320,6574 12306,6561 12286,6554 12261,6554 12238,6554 12218,6560 12203,6573 12187,6586 12178,6604 12175,6628 L 12118,6622 C 12123,6587 12137,6560 12163,6539 12188,6518 12221,6508 12261,6508 12305,6508 12339,6518 12363,6539 12386,6560 12398,6589 12398,6628 12398,6645 12394,6661 12387,6678 12379,6695 12367,6712 12352,6728 12337,6745 12308,6771 12264,6806 12241,6826 12222,6843 12208,6859 12194,6874 12184,6890 12177,6904 L 12405,6904 12405,6951 12116,6951 Z"/>
        </g>
       </g>
       <g class="com.sun.star.drawing.ClosedBezierShape">
        <g id="id31">
         <rect class="BoundingBox" stroke="none" fill="none" x="12459" y="6508" width="306" height="450"/>
         <path fill="rgb(250,250,250)" stroke="none" d="M 12763,6733 C 12763,6805 12750,6861 12725,6899 12699,6938 12661,6957 12611,6957 12561,6957 12523,6938 12498,6900 12472,6862 12460,6806 12460,6733 12460,6658 12472,6601 12497,6564 12521,6527 12560,6508 12613,6508 12664,6508 12702,6527 12726,6565 12751,6602 12763,6658 12763,6733 Z M 12706,6732 C 12706,6669 12699,6624 12685,6595 12670,6567 12646,6553 12613,6553 12578,6553 12554,6567 12539,6595 12524,6623 12516,6668 12516,6732 12516,6794 12524,6839 12539,6868 12554,6897 12578,6911 12611,6911 12644,6911 12668,6896 12684,6867 12699,6838 12706,6793 12706,6732 Z"/>
        </g>
       </g>
       <g class="com.sun.star.drawing.ClosedBezierShape">
        <g id="id32">
         <rect class="BoundingBox" stroke="none" fill="none" x="12824" y="6508" width="180" height="178"/>
         <path fill="rgb(250,250,250)" stroke="none" d="M 13003,6597 C 13003,6621 12994,6642 12977,6659 12959,6676 12938,6685 12914,6685 12889,6685 12869,6676 12851,6659 12834,6642 12825,6621 12825,6597 12825,6572 12833,6551 12851,6534 12868,6517 12889,6508 12914,6508 12939,6508 12960,6517 12977,6534 12994,6551 13003,6572 13003,6597 Z M 12969,6597 C 12969,6581 12964,6568 12953,6557 12942,6546 12929,6541 12914,6541 12898,6541 12885,6546 12875,6557 12864,6568 12859,6581 12859,6597 12859,6612 12864,6625 12875,6636 12886,6647 12899,6652 12914,6652 12929,6652 12942,6647 12953,6636 12964,6625 12969,6612 12969,6597 Z"/>
        </g>
       </g>
       <g class="com.sun.star.drawing.ClosedBezierShape">
        <g id="id33">
         <rect class="BoundingBox" stroke="none" fill="none" x="13073" y="6508" width="404" height="450"/>
         <path fill="rgb(250,250,250)" stroke="none" d="M 13287,6556 C 13238,6556 13201,6572 13174,6603 13147,6634 13133,6676 13133,6730 13133,6784 13147,6827 13175,6859 13204,6892 13241,6908 13289,6908 13351,6908 13397,6878 13427,6817 L 13476,6841 C 13458,6879 13433,6908 13400,6927 13367,6947 13330,6957 13286,6957 13242,6957 13204,6948 13172,6930 13140,6911 13115,6885 13099,6851 13082,6817 13073,6777 13073,6731 13073,6661 13092,6607 13130,6567 13167,6528 13220,6508 13286,6508 13333,6508 13372,6517 13403,6535 13434,6554 13457,6581 13472,6616 L 13416,6635 C 13405,6609 13389,6590 13367,6576 13344,6563 13318,6556 13287,6556 Z"/>
        </g>
       </g>
      </g>
     </g>
    </g>
   </g>
  </g>
 </g>
</svg>