<?xml version="1.0" encoding="UTF-8"?>
<!DOCTYPE svg PUBLIC "-//W3C//DTD SVG 1.1//EN" "http://www.w3.org/Graphics/SVG/1.1/DTD/svg11.dtd">
<svg version="1.2" width="200mm" height="200mm" viewBox="0 0 20000 20000" preserveAspectRatio="xMidYMid" fill-rule="evenodd" stroke-width="28.222" stroke-linejoin="round" xmlns="http://www.w3.org/2000/svg" xmlns:ooo="http://xml.openoffice.org/svg/export" xmlns:xlink="http://www.w3.org/1999/xlink" xmlns:presentation="http://sun.com/xmlns/staroffice/presentation" xmlns:smil="http://www.w3.org/2001/SMIL20/" xmlns:anim="urn:oasis:names:tc:opendocument:xmlns:animation:1.0" xml:space="preserve">
 <defs class="ClipPathGroup">
  <clipPath id="presentation_clip_path" clipPathUnits="userSpaceOnUse">
   <rect x="0" y="0" width="20000" height="20000"/>
  </clipPath>
  <clipPath id="presentation_clip_path_shrink" clipPathUnits="userSpaceOnUse">
   <rect x="20" y="20" width="19960" height="19960"/>
  </clipPath>
 </defs>
 <defs class="TextShapeIndex">
  <g ooo:slide="id1" ooo:id-list="id3 id4 id5 id6"/>
 </defs>
 <defs class="EmbeddedBulletChars">
  <g id="bullet-char-template-57356" transform="scale(0.00048828125,-0.00048828125)">
   <path d="M 580,1141 L 1163,571 580,0 -4,571 580,1141 Z"/>
  </g>
  <g id="bullet-char-template-57354" transform="scale(0.00048828125,-0.00048828125)">
   <path d="M 8,1128 L 1137,1128 1137,0 8,0 8,1128 Z"/>
  </g>
  <g id="bullet-char-template-10146" transform="scale(0.00048828125,-0.00048828125)">
   <path d="M 174,0 L 602,739 174,1481 1456,739 174,0 Z M 1358,739 L 309,1346 659,739 1358,739 Z"/>
  </g>
  <g id="bullet-char-template-10132" transform="scale(0.00048828125,-0.00048828125)">
   <path d="M 2015,739 L 1276,0 717,0 1260,543 174,543 174,936 1260,936 717,1481 1274,1481 2015,739 Z"/>
  </g>
  <g id="bullet-char-template-10007" transform="scale(0.00048828125,-0.00048828125)">
   <path d="M 0,-2 C -7,14 -16,27 -25,37 L 356,567 C 262,823 215,952 215,954 215,979 228,992 255,992 264,992 276,990 289,987 310,991 331,999 354,1012 L 381,999 492,748 772,1049 836,1024 860,1049 C 881,1039 901,1025 922,1006 886,937 835,863 770,784 769,783 710,716 594,584 L 774,223 C 774,196 753,168 711,139 L 727,119 C 717,90 699,76 672,76 641,76 570,178 457,381 L 164,-76 C 142,-110 111,-127 72,-127 30,-127 9,-110 8,-76 1,-67 -2,-52 -2,-32 -2,-23 -1,-13 0,-2 Z"/>
  </g>
  <g id="bullet-char-template-10004" transform="scale(0.00048828125,-0.00048828125)">
   <path d="M 285,-33 C 182,-33 111,30 74,156 52,228 41,333 41,471 41,549 55,616 82,672 116,743 169,778 240,778 293,778 328,747 346,684 L 369,508 C 377,444 397,411 428,410 L 1163,1116 C 1174,1127 1196,1133 1229,1133 1271,1133 1292,1118 1292,1087 L 1292,965 C 1292,929 1282,901 1262,881 L 442,47 C 390,-6 338,-33 285,-33 Z"/>
  </g>
  <g id="bullet-char-template-9679" transform="scale(0.00048828125,-0.00048828125)">
   <path d="M 813,0 C 632,0 489,54 383,161 276,268 223,411 223,592 223,773 276,916 383,1023 489,1130 632,1184 813,1184 992,1184 1136,1130 1245,1023 1353,916 1407,772 1407,592 1407,412 1353,268 1245,161 1136,54 992,0 813,0 Z"/>
  </g>
  <g id="bullet-char-template-8226" transform="scale(0.00048828125,-0.00048828125)">
   <path d="M 346,457 C 273,457 209,483 155,535 101,586 74,649 74,723 74,796 101,859 155,911 209,963 273,989 346,989 419,989 480,963 531,910 582,859 608,796 608,723 608,648 583,586 532,535 482,483 420,457 346,457 Z"/>
  </g>
  <g id="bullet-char-template-8211" transform="scale(0.00048828125,-0.00048828125)">
   <path d="M -4,459 L 1135,459 1135,606 -4,606 -4,459 Z"/>
  </g>
  <g id="bullet-char-template-61548" transform="scale(0.00048828125,-0.00048828125)">
   <path d="M 173,740 C 173,903 231,1043 346,1159 462,1274 601,1332 765,1332 928,1332 1067,1274 1183,1159 1299,1043 1357,903 1357,740 1357,577 1299,437 1183,322 1067,206 928,148 765,148 601,148 462,206 346,322 231,437 173,577 173,740 Z"/>
  </g>
 </defs>
 <g>
  <g id="id2" class="Master_Slide">
   <g id="bg-id2" class="Background"/>
   <g id="bo-id2" class="BackgroundObjects"/>
  </g>
 </g>
 <g class="SlideGroup">
  <g>
   <g id="container-id1">
    <g id="id1" class="Slide" clip-path="url(#presentation_clip_path)">
     <g class="Page">
      <g class="Group">
       <g class="com.sun.star.drawing.ClosedBezierShape">
        <g id="id3">
         <rect class="BoundingBox" stroke="none" fill="none" x="1973" y="5973" width="8055" height="8055"/>
         <path fill="rgb(102,187,106)" stroke="none" d="M 2000,10000 L 6000,6000 7286,7286 C 7411,7160 7567,7070 7738,7024 7910,6978 8090,6978 8261,7024 8433,7070 8589,7160 8715,7286 8840,7411 8930,7568 8976,7739 9022,7910 9022,8091 8976,8262 8930,8433 8840,8589 8715,8715 L 10000,10000 6000,14000 2000,10000 Z"/>
         <path fill="none" stroke="rgb(66,66,66)" stroke-width="53" stroke-linejoin="round" d="M 2000,10000 L 6000,6000 7286,7286 C 7411,7160 7567,7070 7738,7024 7910,6978 8090,6978 8261,7024 8433,7070 8589,7160 8715,7286 8840,7411 8930,7568 8976,7739 9022,7910 9022,8091 8976,8262 8930,8433 8840,8589 8715,8715 L 10000,10000 6000,14000 2000,10000 Z"/>
        </g>
       </g>
       <g class="com.sun.star.drawing.ClosedBezierShape">
        <g id="id4">
         <rect class="BoundingBox" stroke="none" fill="none" x="5973" y="9973" width="8055" height="8055"/>
         <path fill="rgb(41,182,246)" stroke="none" d="M 12262,12978 C 12433,12932 12589,12842 12715,12716 12715,12716 12715,12716 12716,12716 L 14000,14000 10000,18000 6000,14000 7285,12715 C 7160,12590 7070,12433 7024,12262 6978,12091 6978,11910 7024,11739 7070,11568 7160,11412 7285,11286 7411,11161 7567,11070 7738,11024 7910,10979 8090,10979 8261,11024 8433,11070 8589,11160 8714,11286 L 10000,10000 11286,11286 C 11286,11287 11286,11287 11285,11287 11160,11413 11070,11569 11024,11740 10978,11912 10978,12092 11024,12263 11070,12435 11160,12591 11285,12716 11411,12842 11567,12932 11739,12978 11910,13024 12090,13024 12262,12978 Z"/>
         <path fill="none" stroke="rgb(66,66,66)" stroke-width="53" stroke-linejoin="round" d="M 12262,12978 C 12433,12932 12589,12842 12715,12716 12715,12716 12715,12716 12716,12716 L 14000,14000 10000,18000 6000,14000 7285,12715 C 7160,12590 7070,12433 7024,12262 6978,12091 6978,11910 7024,11739 7070,11568 7160,11412 7285,11286 7411,11161 7567,11070 7738,11024 7910,10979 8090,10979 8261,11024 8433,11070 8589,11160 8714,11286 L 10000,10000 11286,11286 C 11286,11287 11286,11287 11285,11287 11160,11413 11070,11569 11024,11740 10978,11912 10978,12092 11024,12263 11070,12435 11160,12591 11285,12716 11411,12842 11567,12932 11739,12978 11910,13024 12090,13024 12262,12978 Z"/>
        </g>
       </g>
       <g class="com.sun.star.drawing.ClosedBezierShape">
        <g id="id5">
         <rect class="BoundingBox" stroke="none" fill="none" x="5973" y="1973" width="8055" height="8055"/>
         <path fill="rgb(239,83,80)" stroke="none" d="M 8976,8262 C 9022,8091 9022,7910 8976,7739 8930,7568 8840,7411 8715,7286 8589,7160 8433,7070 8261,7024 8090,6978 7910,6978 7738,7024 7567,7070 7411,7160 7286,7286 L 6000,6000 10000,2000 14000,6000 12714,7286 C 12715,7286 12715,7286 12715,7286 12840,7411 12930,7568 12976,7739 13022,7910 13022,8091 12976,8262 12930,8433 12840,8590 12715,8715 12589,8841 12433,8931 12262,8977 12090,9023 11910,9023 11739,8977 11567,8931 11411,8841 11285,8715 11285,8715 11285,8715 11285,8715 L 10000,10000 8715,8715 C 8840,8589 8930,8433 8976,8262 Z"/>
         <path fill="none" stroke="rgb(66,66,66)" stroke-width="53" stroke-linejoin="round" d="M 8976,8262 C 9022,8091 9022,7910 8976,7739 8930,7568 8840,7411 8715,7286 8589,7160 8433,7070 8261,7024 8090,6978 7910,6978 7738,7024 7567,7070 7411,7160 7286,7286 L 6000,6000 10000,2000 14000,6000 12714,7286 C 12715,7286 12715,7286 12715,7286 12840,7411 12930,7568 12976,7739 13022,7910 13022,8091 12976,8262 12930,8433 12840,8590 12715,8715 12589,8841 12433,8931 12262,8977 12090,9023 11910,9023 11739,8977 11567,8931 11411,8841 11285,8715 11285,8715 11285,8715 11285,8715 L 10000,10000 8715,8715 C 8840,8589 8930,8433 8976,8262 Z"/>
        </g>
       </g>
       <g class="com.sun.star.drawing.ClosedBezierShape">
        <g id="id6">
         <rect class="BoundingBox" stroke="none" fill="none" x="9973" y="5973" width="8055" height="8055"/>
         <path fill="rgb(255,238,88)" stroke="none" d="M 12262,8977 C 12433,8931 12589,8841 12715,8715 12840,8590 12930,8433 12976,8262 13022,8091 13022,7910 12976,7739 12930,7568 12840,7411 12715,7286 12715,7286 12715,7286 12714,7286 L 14000,6000 18000,10000 14000,14000 12715,12715 C 12715,12715 12715,12715 12715,12715 12589,12841 12433,12931 12262,12977 12090,13023 11910,13023 11739,12977 11567,12931 11411,12841 11285,12715 11160,12590 11070,12434 11024,12262 10978,12091 10978,11910 11024,11739 11070,11568 11160,11412 11285,11286 11286,11286 11286,11286 11286,11286 L 10000,10000 11285,8715 C 11285,8715 11285,8715 11285,8715 11411,8841 11567,8931 11739,8977 11910,9023 12090,9023 12262,8977 Z"/>
         <path fill="none" stroke="rgb(66,66,66)" stroke-width="53" stroke-linejoin="round" d="M 12262,8977 C 12433,8931 12589,8841 12715,8715 12840,8590 12930,8433 12976,8262 13022,8091 13022,7910 12976,7739 12930,7568 12840,7411 12715,7286 12715,7286 12715,7286 12714,7286 L 14000,6000 18000,10000 14000,14000 12715,12715 C 12715,12715 12715,12715 12715,12715 12589,12841 12433,12931 12262,12977 12090,13023 11910,13023 11739,12977 11567,12931 11411,12841 11285,12715 11160,12590 11070,12434 11024,12262 10978,12091 10978,11910 11024,11739 11070,11568 11160,11412 11285,11286 11286,11286 11286,11286 11286,11286 L 10000,10000 11285,8715 C 11285,8715 11285,8715 11285,8715 11411,8841 11567,8931 11739,8977 11910,9023 12090,9023 12262,8977 Z"/>
        </g>
       </g>
      </g>
     </g>
    </g>
   </g>
  </g>
 </g>
</svg>