<?xml version="1.0" encoding="UTF-8"?>
<!DOCTYPE svg PUBLIC "-//W3C//DTD SVG 1.1//EN" "http://www.w3.org/Graphics/SVG/1.1/DTD/svg11.dtd">
<svg version="1.2" width="200mm" height="200mm" viewBox="0 0 20000 20000" preserveAspectRatio="xMidYMid" fill-rule="evenodd" stroke-width="28.222" stroke-linejoin="round" xmlns="http://www.w3.org/2000/svg" xmlns:ooo="http://xml.openoffice.org/svg/export" xmlns:xlink="http://www.w3.org/1999/xlink" xmlns:presentation="http://sun.com/xmlns/staroffice/presentation" xmlns:smil="http://www.w3.org/2001/SMIL20/" xmlns:anim="urn:oasis:names:tc:opendocument:xmlns:animation:1.0" xml:space="preserve">
 <defs class="ClipPathGroup">
  <clipPath id="presentation_clip_path" clipPathUnits="userSpaceOnUse">
   <rect x="0" y="0" width="20000" height="20000"/>
  </clipPath>
  <clipPath id="presentation_clip_path_shrink" clipPathUnits="userSpaceOnUse">
   <rect x="20" y="20" width="19960" height="19960"/>
  </clipPath>
 </defs>
 <defs class="TextShapeIndex">
  <g ooo:slide="id1" ooo:id-list="id3 id4 id5 id6 id7 id8 id9 id10 id11 id12 id13 id14 id15 id16 id17 id18 id19 id20 id21 id22 id23 id24 id25 id26 id27 id28 id29 id30 id31 id32 id33 id34 id35 id36"/>
 </defs>
 <defs class="EmbeddedBulletChars">
  <g id="bullet-char-template-57356" transform="scale(0.00048828125,-0.00048828125)">
   <path d="M 580,1141 L 1163,571 580,0 -4,571 580,1141 Z"/>
  </g>
  <g id="bullet-char-template-57354" transform="scale(0.00048828125,-0.00048828125)">
   <path d="M 8,1128 L 1137,1128 1137,0 8,0 8,1128 Z"/>
  </g>
  <g id="bullet-char-template-10146" transform="scale(0.00048828125,-0.00048828125)">
   <path d="M 174,0 L 602,739 174,1481 1456,739 174,0 Z M 1358,739 L 309,1346 659,739 1358,739 Z"/>
  </g>
  <g id="bullet-char-template-10132" transform="scale(0.00048828125,-0.00048828125)">
   <path d="M 2015,739 L 1276,0 717,0 1260,543 174,543 174,936 1260,936 717,1481 1274,1481 2015,739 Z"/>
  </g>
  <g id="bullet-char-template-10007" transform="scale(0.00048828125,-0.00048828125)">
   <path d="M 0,-2 C -7,14 -16,27 -25,37 L 356,567 C 262,823 215,952 215,954 215,979 228,992 255,992 264,992 276,990 289,987 310,991 331,999 354,1012 L 381,999 492,748 772,1049 836,1024 860,1049 C 881,1039 901,1025 922,1006 886,937 835,863 770,784 769,783 710,716 594,584 L 774,223 C 774,196 753,168 711,139 L 727,119 C 717,90 699,76 672,76 641,76 570,178 457,381 L 164,-76 C 142,-110 111,-127 72,-127 30,-127 9,-110 8,-76 1,-67 -2,-52 -2,-32 -2,-23 -1,-13 0,-2 Z"/>
  </g>
  <g id="bullet-char-template-10004" transform="scale(0.00048828125,-0.00048828125)">
   <path d="M 285,-33 C 182,-33 111,30 74,156 52,228 41,333 41,471 41,549 55,616 82,672 116,743 169,778 240,778 293,778 328,747 346,684 L 369,508 C 377,444 397,411 428,410 L 1163,1116 C 1174,1127 1196,1133 1229,1133 1271,1133 1292,1118 1292,1087 L 1292,965 C 1292,929 1282,901 1262,881 L 442,47 C 390,-6 338,-33 285,-33 Z"/>
  </g>
  <g id="bullet-char-template-9679" transform="scale(0.00048828125,-0.00048828125)">
   <path d="M 813,0 C 632,0 489,54 383,161 276,268 223,411 223,592 223,773 276,916 383,1023 489,1130 632,1184 813,1184 992,1184 1136,1130 1245,1023 1353,916 1407,772 1407,592 1407,412 1353,268 1245,161 1136,54 992,0 813,0 Z"/>
  </g>
  <g id="bullet-char-template-8226" transform="scale(0.00048828125,-0.00048828125)">
   <path d="M 346,457 C 273,457 209,483 155,535 101,586 74,649 74,723 74,796 101,859 155,911 209,963 273,989 346,989 419,989 480,963 531,910 582,859 608,796 608,723 608,648 583,586 532,535 482,483 420,457 346,457 Z"/>
  </g>
  <g id="bullet-char-template-8211" transform="scale(0.00048828125,-0.00048828125)">
   <path d="M -4,459 L 1135,459 1135,606 -4,606 -4,459 Z"/>
  </g>
  <g id="bullet-char-template-61548" transform="scale(0.00048828125,-0.00048828125)">
   <path d="M 173,740 C 173,903 231,1043 346,1159 462,1274 601,1332 765,1332 928,1332 1067,1274 1183,1159 1299,1043 1357,903 1357,740 1357,577 1299,437 1183,322 1067,206 928,148 765,148 601,148 462,206 346,322 231,437 173,577 173,740 Z"/>
  </g>
 </defs>
 <g>
  <g id="id2" class="Master_Slide">
   <g id="bg-id2" class="Background"/>
   <g id="bo-id2" class="BackgroundObjects"/>
  </g>
 </g>
 <g class="SlideGroup">
  <g>
   <g id="container-id1">
    <g id="id1" class="Slide" clip-path="url(#presentation_clip_path)">
     <g class="Page">
      <g class="com.sun.star.drawing.CustomShape">
       <g id="id3">
        <rect class="BoundingBox" stroke="none" fill="none" x="3000" y="1000" width="14001" height="18001"/>
        <path fill="rgb(189,189,189)" stroke="none" d="M 10000,19000 L 3000,19000 3000,1000 17000,1000 17000,19000 10000,19000 Z"/>
       </g>
      </g>
      <g class="com.sun.star.drawing.CustomShape">
       <g id="id4">
        <rect class="BoundingBox" stroke="none" fill="none" x="3250" y="1250" width="13501" height="17501"/>
        <path fill="rgb(250,250,250)" stroke="none" d="M 10000,18750 L 3250,18750 3250,1250 16750,1250 16750,18750 10000,18750 Z"/>
       </g>
      </g>
      <g class="com.sun.star.drawing.CustomShape">
       <g id="id5">
        <rect class="BoundingBox" stroke="none" fill="none" x="4750" y="5500" width="4751" height="501"/>
        <path fill="rgb(117,117,117)" stroke="none" d="M 7125,6000 L 4750,6000 4750,5500 9500,5500 9500,6000 7125,6000 Z"/>
       </g>
      </g>
      <g class="com.sun.star.drawing.CustomShape">
       <g id="id6">
        <rect class="BoundingBox" stroke="none" fill="none" x="4750" y="6250" width="3751" height="501"/>
        <path fill="rgb(117,117,117)" stroke="none" d="M 6625,6750 L 4750,6750 4750,6250 8500,6250 8500,6750 6625,6750 Z"/>
       </g>
      </g>
      <g class="com.sun.star.drawing.CustomShape">
       <g id="id7">
        <rect class="BoundingBox" stroke="none" fill="none" x="3750" y="5500" width="501" height="501"/>
        <path fill="rgb(117,117,117)" stroke="none" d="M 4000,6000 L 3750,6000 3750,5500 4250,5500 4250,6000 4000,6000 Z"/>
       </g>
      </g>
      <g class="com.sun.star.drawing.LineShape">
       <g id="id8">
        <rect class="BoundingBox" stroke="none" fill="none" x="6393" y="2893" width="1214" height="1214"/>
        <path fill="none" stroke="rgb(229,57,53)" stroke-width="212" stroke-linejoin="round" stroke-linecap="round" d="M 6500,3000 L 7500,4000"/>
       </g>
      </g>
      <g class="com.sun.star.drawing.LineShape">
       <g id="id9">
        <rect class="BoundingBox" stroke="none" fill="none" x="6393" y="2894" width="1214" height="1213"/>
        <path fill="none" stroke="rgb(229,57,53)" stroke-width="212" stroke-linejoin="round" stroke-linecap="round" d="M 6500,4000 L 7500,3000"/>
       </g>
      </g>
      <g class="com.sun.star.drawing.CustomShape">
       <g id="id10">
        <rect class="BoundingBox" stroke="none" fill="none" x="4750" y="7750" width="4751" height="501"/>
        <path fill="rgb(117,117,117)" stroke="none" d="M 7125,8250 L 4750,8250 4750,7750 9500,7750 9500,8250 7125,8250 Z"/>
       </g>
      </g>
      <g class="com.sun.star.drawing.CustomShape">
       <g id="id11">
        <rect class="BoundingBox" stroke="none" fill="none" x="4750" y="8500" width="4751" height="501"/>
        <path fill="rgb(117,117,117)" stroke="none" d="M 7125,9000 L 4750,9000 4750,8500 9500,8500 9500,9000 7125,9000 Z"/>
       </g>
      </g>
      <g class="com.sun.star.drawing.CustomShape">
       <g id="id12">
        <rect class="BoundingBox" stroke="none" fill="none" x="3750" y="7750" width="501" height="501"/>
        <path fill="rgb(117,117,117)" stroke="none" d="M 4000,8250 L 3750,8250 3750,7750 4250,7750 4250,8250 4000,8250 Z"/>
       </g>
      </g>
      <g class="com.sun.star.drawing.CustomShape">
       <g id="id13">
        <rect class="BoundingBox" stroke="none" fill="none" x="4750" y="9250" width="3751" height="501"/>
        <path fill="rgb(117,117,117)" stroke="none" d="M 6625,9750 L 4750,9750 4750,9250 8500,9250 8500,9750 6625,9750 Z"/>
       </g>
      </g>
      <g class="com.sun.star.drawing.LineShape">
       <g id="id14">
        <rect class="BoundingBox" stroke="none" fill="none" x="13144" y="3144" width="964" height="963"/>
        <path fill="none" stroke="rgb(67,160,71)" stroke-width="212" stroke-linejoin="round" stroke-linecap="round" d="M 13250,4000 L 14000,3250"/>
       </g>
      </g>
      <g class="com.sun.star.drawing.LineShape">
       <g id="id15">
        <rect class="BoundingBox" stroke="none" fill="none" x="12893" y="3643" width="464" height="464"/>
        <path fill="none" stroke="rgb(67,160,71)" stroke-width="212" stroke-linejoin="round" stroke-linecap="round" d="M 13250,4000 L 13000,3750"/>
       </g>
      </g>
      <g class="com.sun.star.drawing.LineShape">
       <g id="id16">
        <rect class="BoundingBox" stroke="none" fill="none" x="9973" y="1723" width="55" height="16555"/>
        <path fill="none" stroke="rgb(117,117,117)" stroke-width="53" stroke-linejoin="round" d="M 10000,1750 L 10000,18250"/>
       </g>
      </g>
      <g class="com.sun.star.drawing.CustomShape">
       <g id="id17">
        <rect class="BoundingBox" stroke="none" fill="none" x="11500" y="5500" width="4751" height="501"/>
        <path fill="rgb(117,117,117)" stroke="none" d="M 13875,6000 L 11500,6000 11500,5500 16250,5500 16250,6000 13875,6000 Z"/>
       </g>
      </g>
      <g class="com.sun.star.drawing.CustomShape">
       <g id="id18">
        <rect class="BoundingBox" stroke="none" fill="none" x="11500" y="6250" width="4751" height="501"/>
        <path fill="rgb(117,117,117)" stroke="none" d="M 13875,6750 L 11500,6750 11500,6250 16250,6250 16250,6750 13875,6750 Z"/>
       </g>
      </g>
      <g class="com.sun.star.drawing.CustomShape">
       <g id="id19">
        <rect class="BoundingBox" stroke="none" fill="none" x="10500" y="5500" width="501" height="501"/>
        <path fill="rgb(117,117,117)" stroke="none" d="M 10750,6000 L 10500,6000 10500,5500 11000,5500 11000,6000 10750,6000 Z"/>
       </g>
      </g>
      <g class="com.sun.star.drawing.CustomShape">
       <g id="id20">
        <rect class="BoundingBox" stroke="none" fill="none" x="11500" y="7000" width="1001" height="501"/>
        <path fill="rgb(117,117,117)" stroke="none" d="M 12000,7500 L 11500,7500 11500,7000 12500,7000 12500,7500 12000,7500 Z"/>
       </g>
      </g>
      <g class="com.sun.star.drawing.CustomShape">
       <g id="id21">
        <rect class="BoundingBox" stroke="none" fill="none" x="10500" y="8500" width="501" height="501"/>
        <path fill="rgb(117,117,117)" stroke="none" d="M 10750,9000 L 10500,9000 10500,8500 11000,8500 11000,9000 10750,9000 Z"/>
       </g>
      </g>
      <g class="com.sun.star.drawing.CustomShape">
       <g id="id22">
        <rect class="BoundingBox" stroke="none" fill="none" x="11500" y="8500" width="4751" height="501"/>
        <path fill="rgb(117,117,117)" stroke="none" d="M 13875,9000 L 11500,9000 11500,8500 16250,8500 16250,9000 13875,9000 Z"/>
       </g>
      </g>
      <g class="com.sun.star.drawing.CustomShape">
       <g id="id23">
        <rect class="BoundingBox" stroke="none" fill="none" x="11500" y="9250" width="1501" height="501"/>
        <path fill="rgb(117,117,117)" stroke="none" d="M 12250,9750 L 11500,9750 11500,9250 13000,9250 13000,9750 12250,9750 Z"/>
       </g>
      </g>
      <g class="com.sun.star.drawing.CustomShape">
       <g id="id24">
        <rect class="BoundingBox" stroke="none" fill="none" x="3750" y="10750" width="501" height="501"/>
        <path fill="rgb(117,117,117)" stroke="none" d="M 4000,11250 L 3750,11250 3750,10750 4250,10750 4250,11250 4000,11250 Z"/>
       </g>
      </g>
      <g class="com.sun.star.drawing.CustomShape">
       <g id="id25">
        <rect class="BoundingBox" stroke="none" fill="none" x="4750" y="10750" width="4751" height="501"/>
        <path fill="rgb(117,117,117)" stroke="none" d="M 7125,11250 L 4750,11250 4750,10750 9500,10750 9500,11250 7125,11250 Z"/>
       </g>
      </g>
      <g class="com.sun.star.drawing.CustomShape">
       <g id="id26">
        <rect class="BoundingBox" stroke="none" fill="none" x="4750" y="11500" width="1501" height="501"/>
        <path fill="rgb(117,117,117)" stroke="none" d="M 5500,12000 L 4750,12000 4750,11500 6250,11500 6250,12000 5500,12000 Z"/>
       </g>
      </g>
      <g class="com.sun.star.drawing.CustomShape">
       <g id="id27">
        <rect class="BoundingBox" stroke="none" fill="none" x="11500" y="10750" width="4751" height="501"/>
        <path fill="rgb(117,117,117)" stroke="none" d="M 13875,11250 L 11500,11250 11500,10750 16250,10750 16250,11250 13875,11250 Z"/>
       </g>
      </g>
      <g class="com.sun.star.drawing.CustomShape">
       <g id="id28">
        <rect class="BoundingBox" stroke="none" fill="none" x="11500" y="11500" width="3751" height="501"/>
        <path fill="rgb(117,117,117)" stroke="none" d="M 13375,12000 L 11500,12000 11500,11500 15250,11500 15250,12000 13375,12000 Z"/>
       </g>
      </g>
      <g class="com.sun.star.drawing.CustomShape">
       <g id="id29">
        <rect class="BoundingBox" stroke="none" fill="none" x="10500" y="10750" width="501" height="501"/>
        <path fill="rgb(117,117,117)" stroke="none" d="M 10750,11250 L 10500,11250 10500,10750 11000,10750 11000,11250 10750,11250 Z"/>
       </g>
      </g>
      <g class="com.sun.star.drawing.CustomShape">
       <g id="id30">
        <rect class="BoundingBox" stroke="none" fill="none" x="3750" y="13000" width="501" height="501"/>
        <path fill="rgb(117,117,117)" stroke="none" d="M 4000,13500 L 3750,13500 3750,13000 4250,13000 4250,13500 4000,13500 Z"/>
       </g>
      </g>
      <g class="com.sun.star.drawing.CustomShape">
       <g id="id31">
        <rect class="BoundingBox" stroke="none" fill="none" x="4750" y="13000" width="4751" height="501"/>
        <path fill="rgb(117,117,117)" stroke="none" d="M 7125,13500 L 4750,13500 4750,13000 9500,13000 9500,13500 7125,13500 Z"/>
       </g>
      </g>
      <g class="com.sun.star.drawing.CustomShape">
       <g id="id32">
        <rect class="BoundingBox" stroke="none" fill="none" x="4750" y="14500" width="2251" height="501"/>
        <path fill="rgb(117,117,117)" stroke="none" d="M 5875,15000 L 4750,15000 4750,14500 7000,14500 7000,15000 5875,15000 Z"/>
       </g>
      </g>
      <g class="com.sun.star.drawing.CustomShape">
       <g id="id33">
        <rect class="BoundingBox" stroke="none" fill="none" x="11500" y="13000" width="4751" height="501"/>
        <path fill="rgb(117,117,117)" stroke="none" d="M 13875,13500 L 11500,13500 11500,13000 16250,13000 16250,13500 13875,13500 Z"/>
       </g>
      </g>
      <g class="com.sun.star.drawing.CustomShape">
       <g id="id34">
        <rect class="BoundingBox" stroke="none" fill="none" x="10500" y="13000" width="501" height="501"/>
        <path fill="rgb(117,117,117)" stroke="none" d="M 10750,13500 L 10500,13500 10500,13000 11000,13000 11000,13500 10750,13500 Z"/>
       </g>
      </g>
      <g class="com.sun.star.drawing.CustomShape">
       <g id="id35">
        <rect class="BoundingBox" stroke="none" fill="none" x="11500" y="13750" width="1251" height="501"/>
        <path fill="rgb(117,117,117)" stroke="none" d="M 12125,14250 L 11500,14250 11500,13750 12750,13750 12750,14250 12125,14250 Z"/>
       </g>
      </g>
      <g class="com.sun.star.drawing.CustomShape">
       <g id="id36">
        <rect class="BoundingBox" stroke="none" fill="none" x="4750" y="13750" width="4751" height="501"/>
        <path fill="rgb(117,117,117)" stroke="none" d="M 7125,14250 L 4750,14250 4750,13750 9500,13750 9500,14250 7125,14250 Z"/>
       </g>
      </g>
     </g>
    </g>
   </g>
  </g>
 </g>
</svg>