<?xml version="1.0" encoding="UTF-8"?>
<!DOCTYPE svg PUBLIC "-//W3C//DTD SVG 1.1//EN" "http://www.w3.org/Graphics/SVG/1.1/DTD/svg11.dtd">
<svg version="1.2" width="200mm" height="200mm" viewBox="0 0 20000 20000" preserveAspectRatio="xMidYMid" fill-rule="evenodd" stroke-width="28.222" stroke-linejoin="round" xmlns="http://www.w3.org/2000/svg" xmlns:ooo="http://xml.openoffice.org/svg/export" xmlns:xlink="http://www.w3.org/1999/xlink" xmlns:presentation="http://sun.com/xmlns/staroffice/presentation" xmlns:smil="http://www.w3.org/2001/SMIL20/" xmlns:anim="urn:oasis:names:tc:opendocument:xmlns:animation:1.0" xml:space="preserve">
 <defs class="ClipPathGroup">
  <clipPath id="presentation_clip_path" clipPathUnits="userSpaceOnUse">
   <rect x="0" y="0" width="20000" height="20000"/>
  </clipPath>
  <clipPath id="presentation_clip_path_shrink" clipPathUnits="userSpaceOnUse">
   <rect x="20" y="20" width="19960" height="19960"/>
  </clipPath>
 </defs>
 <defs class="TextShapeIndex">
  <g ooo:slide="id1" ooo:id-list="id3 id4 id5 id6 id7 id8 id9 id10 id11 id12 id13 id14 id15 id16"/>
 </defs>
 <defs class="EmbeddedBulletChars">
  <g id="bullet-char-template-57356" transform="scale(0.00048828125,-0.00048828125)">
   <path d="M 580,1141 L 1163,571 580,0 -4,571 580,1141 Z"/>
  </g>
  <g id="bullet-char-template-57354" transform="scale(0.00048828125,-0.00048828125)">
   <path d="M 8,1128 L 1137,1128 1137,0 8,0 8,1128 Z"/>
  </g>
  <g id="bullet-char-template-10146" transform="scale(0.00048828125,-0.00048828125)">
   <path d="M 174,0 L 602,739 174,1481 1456,739 174,0 Z M 1358,739 L 309,1346 659,739 1358,739 Z"/>
  </g>
  <g id="bullet-char-template-10132" transform="scale(0.00048828125,-0.00048828125)">
   <path d="M 2015,739 L 1276,0 717,0 1260,543 174,543 174,936 1260,936 717,1481 1274,1481 2015,739 Z"/>
  </g>
  <g id="bullet-char-template-10007" transform="scale(0.00048828125,-0.00048828125)">
   <path d="M 0,-2 C -7,14 -16,27 -25,37 L 356,567 C 262,823 215,952 215,954 215,979 228,992 255,992 264,992 276,990 289,987 310,991 331,999 354,1012 L 381,999 492,748 772,1049 836,1024 860,1049 C 881,1039 901,1025 922,1006 886,937 835,863 770,784 769,783 710,716 594,584 L 774,223 C 774,196 753,168 711,139 L 727,119 C 717,90 699,76 672,76 641,76 570,178 457,381 L 164,-76 C 142,-110 111,-127 72,-127 30,-127 9,-110 8,-76 1,-67 -2,-52 -2,-32 -2,-23 -1,-13 0,-2 Z"/>
  </g>
  <g id="bullet-char-template-10004" transform="scale(0.00048828125,-0.00048828125)">
   <path d="M 285,-33 C 182,-33 111,30 74,156 52,228 41,333 41,471 41,549 55,616 82,672 116,743 169,778 240,778 293,778 328,747 346,684 L 369,508 C 377,444 397,411 428,410 L 1163,1116 C 1174,1127 1196,1133 1229,1133 1271,1133 1292,1118 1292,1087 L 1292,965 C 1292,929 1282,901 1262,881 L 442,47 C 390,-6 338,-33 285,-33 Z"/>
  </g>
  <g id="bullet-char-template-9679" transform="scale(0.00048828125,-0.00048828125)">
   <path d="M 813,0 C 632,0 489,54 383,161 276,268 223,411 223,592 223,773 276,916 383,1023 489,1130 632,1184 813,1184 992,1184 1136,1130 1245,1023 1353,916 1407,772 1407,592 1407,412 1353,268 1245,161 1136,54 992,0 813,0 Z"/>
  </g>
  <g id="bullet-char-template-8226" transform="scale(0.00048828125,-0.00048828125)">
   <path d="M 346,457 C 273,457 209,483 155,535 101,586 74,649 74,723 74,796 101,859 155,911 209,963 273,989 346,989 419,989 480,963 531,910 582,859 608,796 608,723 608,648 583,586 532,535 482,483 420,457 346,457 Z"/>
  </g>
  <g id="bullet-char-template-8211" transform="scale(0.00048828125,-0.00048828125)">
   <path d="M -4,459 L 1135,459 1135,606 -4,606 -4,459 Z"/>
  </g>
  <g id="bullet-char-template-61548" transform="scale(0.00048828125,-0.00048828125)">
   <path d="M 173,740 C 173,903 231,1043 346,1159 462,1274 601,1332 765,1332 928,1332 1067,1274 1183,1159 1299,1043 1357,903 1357,740 1357,577 1299,437 1183,322 1067,206 928,148 765,148 601,148 462,206 346,322 231,437 173,577 173,740 Z"/>
  </g>
 </defs>
 <g>
  <g id="id2" class="Master_Slide">
   <g id="bg-id2" class="Background"/>
   <g id="bo-id2" class="BackgroundObjects"/>
  </g>
 </g>
 <g class="SlideGroup">
  <g>
   <g id="container-id1">
    <g id="id1" class="Slide" clip-path="url(#presentation_clip_path)">
     <g class="Page">
      <g class="com.sun.star.drawing.CustomShape">
       <g id="id3">
        <rect class="BoundingBox" stroke="none" fill="none" x="2000" y="12000" width="4001" height="4001"/>
        <path fill="rgb(239,83,80)" stroke="none" d="M 4000,16000 L 2000,16000 2000,12000 6000,12000 6000,16000 4000,16000 Z"/>
       </g>
      </g>
      <g class="com.sun.star.drawing.CustomShape">
       <g id="id4">
        <rect class="BoundingBox" stroke="none" fill="none" x="5972" y="10000" width="4028" height="4001"/>
        <path fill="rgb(255,238,88)" stroke="none" d="M 7986,14000 L 5972,14000 5972,10000 9999,10000 9999,14000 7986,14000 Z"/>
       </g>
      </g>
      <g class="com.sun.star.drawing.CustomShape">
       <g id="id5">
        <rect class="BoundingBox" stroke="none" fill="none" x="10000" y="8000" width="4001" height="4001"/>
        <path fill="rgb(102,187,106)" stroke="none" d="M 12000,12000 L 10000,12000 10000,8000 14000,8000 14000,12000 12000,12000 Z"/>
       </g>
      </g>
      <g class="com.sun.star.drawing.CustomShape">
       <g id="id6">
        <rect class="BoundingBox" stroke="none" fill="none" x="14000" y="6000" width="4001" height="4001"/>
        <path fill="rgb(41,182,246)" stroke="none" d="M 16000,10000 L 14000,10000 14000,6000 18000,6000 18000,10000 16000,10000 Z"/>
       </g>
      </g>
      <g class="com.sun.star.drawing.CustomShape">
       <g id="id7">
        <rect class="BoundingBox" stroke="none" fill="none" x="5750" y="3750" width="1252" height="1252"/>
        <path fill="rgb(117,117,117)" stroke="none" d="M 7001,4376 C 7001,4485 6972,4593 6917,4688 6862,4783 6783,4862 6688,4917 6593,4972 6485,5001 6375,5001 6266,5001 6158,4972 6063,4917 5968,4862 5889,4783 5834,4688 5779,4593 5750,4485 5750,4376 5750,4266 5779,4158 5834,4063 5889,3968 5968,3889 6063,3834 6158,3779 6266,3750 6375,3750 6485,3750 6593,3779 6688,3834 6783,3889 6862,3968 6917,4063 6972,4158 7001,4266 7001,4375 L 7001,4376 Z"/>
       </g>
      </g>
      <g class="com.sun.star.drawing.LineShape">
       <g id="id8">
        <rect class="BoundingBox" stroke="none" fill="none" x="5144" y="4644" width="1213" height="3463"/>
        <path fill="none" stroke="rgb(117,117,117)" stroke-width="212" stroke-linejoin="round" stroke-linecap="round" d="M 6250,4750 L 5250,8000"/>
       </g>
      </g>
      <g class="com.sun.star.drawing.LineShape">
       <g id="id9">
        <rect class="BoundingBox" stroke="none" fill="none" x="4894" y="5144" width="1213" height="1214"/>
        <path fill="none" stroke="rgb(117,117,117)" stroke-width="212" stroke-linejoin="round" stroke-linecap="round" d="M 6000,5250 L 5000,6250"/>
       </g>
      </g>
      <g class="com.sun.star.drawing.LineShape">
       <g id="id10">
        <rect class="BoundingBox" stroke="none" fill="none" x="6144" y="5143" width="463" height="1214"/>
        <path fill="none" stroke="rgb(117,117,117)" stroke-width="212" stroke-linejoin="round" stroke-linecap="round" d="M 6250,5250 L 6500,6250"/>
       </g>
      </g>
      <g class="com.sun.star.drawing.LineShape">
       <g id="id11">
        <rect class="BoundingBox" stroke="none" fill="none" x="5144" y="7894" width="463" height="2213"/>
        <path fill="none" stroke="rgb(117,117,117)" stroke-width="212" stroke-linejoin="round" stroke-linecap="round" d="M 5250,8000 L 5500,10000"/>
       </g>
      </g>
      <g class="com.sun.star.drawing.LineShape">
       <g id="id12">
        <rect class="BoundingBox" stroke="none" fill="none" x="4894" y="9894" width="715" height="2213"/>
        <path fill="none" stroke="rgb(117,117,117)" stroke-width="212" stroke-linejoin="round" stroke-linecap="round" d="M 5000,12000 L 5501,10000"/>
       </g>
      </g>
      <g class="com.sun.star.drawing.LineShape">
       <g id="id13">
        <rect class="BoundingBox" stroke="none" fill="none" x="5145" y="7894" width="1712" height="463"/>
        <path fill="none" stroke="rgb(117,117,117)" stroke-width="212" stroke-linejoin="round" stroke-linecap="round" d="M 5251,8000 L 6750,8250"/>
       </g>
      </g>
      <g class="com.sun.star.drawing.LineShape">
       <g id="id14">
        <rect class="BoundingBox" stroke="none" fill="none" x="6644" y="8143" width="964" height="1714"/>
        <path fill="none" stroke="rgb(117,117,117)" stroke-width="212" stroke-linejoin="round" stroke-linecap="round" d="M 6750,8250 L 7500,9750"/>
       </g>
      </g>
      <g class="com.sun.star.drawing.LineShape">
       <g id="id15">
        <rect class="BoundingBox" stroke="none" fill="none" x="4894" y="6144" width="213" height="1463"/>
        <path fill="none" stroke="rgb(117,117,117)" stroke-width="212" stroke-linejoin="round" stroke-linecap="round" d="M 5000,6250 L 5000,7500"/>
       </g>
      </g>
      <g class="com.sun.star.drawing.LineShape">
       <g id="id16">
        <rect class="BoundingBox" stroke="none" fill="none" x="6394" y="6144" width="1214" height="1213"/>
        <path fill="none" stroke="rgb(117,117,117)" stroke-width="212" stroke-linejoin="round" stroke-linecap="round" d="M 6500,6250 L 7500,7250"/>
       </g>
      </g>
     </g>
    </g>
   </g>
  </g>
 </g>
</svg>