<?xml version="1.0" encoding="UTF-8"?>
<!DOCTYPE svg PUBLIC "-//W3C//DTD SVG 1.1//EN" "http://www.w3.org/Graphics/SVG/1.1/DTD/svg11.dtd">
<svg version="1.2" width="200.26mm" height="100.26mm" viewBox="0 0 20026 10026" preserveAspectRatio="xMidYMid" fill-rule="evenodd" stroke-width="28.222" stroke-linejoin="round" xmlns="http://www.w3.org/2000/svg" xmlns:ooo="http://xml.openoffice.org/svg/export" xmlns:xlink="http://www.w3.org/1999/xlink" xmlns:presentation="http://sun.com/xmlns/staroffice/presentation" xmlns:smil="http://www.w3.org/2001/SMIL20/" xmlns:anim="urn:oasis:names:tc:opendocument:xmlns:animation:1.0" xml:space="preserve">
 <defs class="ClipPathGroup">
  <clipPath id="presentation_clip_path" clipPathUnits="userSpaceOnUse">
   <rect x="0" y="0" width="20026" height="10026"/>
  </clipPath>
  <clipPath id="presentation_clip_path_shrink" clipPathUnits="userSpaceOnUse">
   <rect x="20" y="10" width="19986" height="10006"/>
  </clipPath>
 </defs>
 <defs class="TextShapeIndex">
  <g ooo:slide="id1" ooo:id-list="id3"/>
 </defs>
 <defs class="EmbeddedBulletChars">
  <g id="bullet-char-template-57356" transform="scale(0.00048828125,-0.00048828125)">
   <path d="M 580,1141 L 1163,571 580,0 -4,571 580,1141 Z"/>
  </g>
  <g id="bullet-char-template-57354" transform="scale(0.00048828125,-0.00048828125)">
   <path d="M 8,1128 L 1137,1128 1137,0 8,0 8,1128 Z"/>
  </g>
  <g id="bullet-char-template-10146" transform="scale(0.00048828125,-0.00048828125)">
   <path d="M 174,0 L 602,739 174,1481 1456,739 174,0 Z M 1358,739 L 309,1346 659,739 1358,739 Z"/>
  </g>
  <g id="bullet-char-template-10132" transform="scale(0.00048828125,-0.00048828125)">
   <path d="M 2015,739 L 1276,0 717,0 1260,543 174,543 174,936 1260,936 717,1481 1274,1481 2015,739 Z"/>
  </g>
  <g id="bullet-char-template-10007" transform="scale(0.00048828125,-0.00048828125)">
   <path d="M 0,-2 C -7,14 -16,27 -25,37 L 356,567 C 262,823 215,952 215,954 215,979 228,992 255,992 264,992 276,990 289,987 310,991 331,999 354,1012 L 381,999 492,748 772,1049 836,1024 860,1049 C 881,1039 901,1025 922,1006 886,937 835,863 770,784 769,783 710,716 594,584 L 774,223 C 774,196 753,168 711,139 L 727,119 C 717,90 699,76 672,76 641,76 570,178 457,381 L 164,-76 C 142,-110 111,-127 72,-127 30,-127 9,-110 8,-76 1,-67 -2,-52 -2,-32 -2,-23 -1,-13 0,-2 Z"/>
  </g>
  <g id="bullet-char-template-10004" transform="scale(0.00048828125,-0.00048828125)">
   <path d="M 285,-33 C 182,-33 111,30 74,156 52,228 41,333 41,471 41,549 55,616 82,672 116,743 169,778 240,778 293,778 328,747 346,684 L 369,508 C 377,444 397,411 428,410 L 1163,1116 C 1174,1127 1196,1133 1229,1133 1271,1133 1292,1118 1292,1087 L 1292,965 C 1292,929 1282,901 1262,881 L 442,47 C 390,-6 338,-33 285,-33 Z"/>
  </g>
  <g id="bullet-char-template-9679" transform="scale(0.00048828125,-0.00048828125)">
   <path d="M 813,0 C 632,0 489,54 383,161 276,268 223,411 223,592 223,773 276,916 383,1023 489,1130 632,1184 813,1184 992,1184 1136,1130 1245,1023 1353,916 1407,772 1407,592 1407,412 1353,268 1245,161 1136,54 992,0 813,0 Z"/>
  </g>
  <g id="bullet-char-template-8226" transform="scale(0.00048828125,-0.00048828125)">
   <path d="M 346,457 C 273,457 209,483 155,535 101,586 74,649 74,723 74,796 101,859 155,911 209,963 273,989 346,989 419,989 480,963 531,910 582,859 608,796 608,723 608,648 583,586 532,535 482,483 420,457 346,457 Z"/>
  </g>
  <g id="bullet-char-template-8211" transform="scale(0.00048828125,-0.00048828125)">
   <path d="M -4,459 L 1135,459 1135,606 -4,606 -4,459 Z"/>
  </g>
  <g id="bullet-char-template-61548" transform="scale(0.00048828125,-0.00048828125)">
   <path d="M 173,740 C 173,903 231,1043 346,1159 462,1274 601,1332 765,1332 928,1332 1067,1274 1183,1159 1299,1043 1357,903 1357,740 1357,577 1299,437 1183,322 1067,206 928,148 765,148 601,148 462,206 346,322 231,437 173,577 173,740 Z"/>
  </g>
 </defs>
 <g>
  <g id="id2" class="Master_Slide">
   <g id="bg-id2" class="Background"/>
   <g id="bo-id2" class="BackgroundObjects"/>
  </g>
 </g>
 <g class="SlideGroup">
  <g>
   <g id="container-id1">
    <g id="id1" class="Slide" clip-path="url(#presentation_clip_path)">
     <g class="Page">
      <g class="Graphic">
       <g id="id3">
        <rect class="BoundingBox" stroke="none" fill="none" x="0" y="0" width="20026" height="10026"/>
        <defs>
         <clipPath id="clip_path_1" clipPathUnits="userSpaceOnUse">
          <path d="M 13,13 L 20012,13 20012,10012 13,10012 13,13 Z"/>
         </clipPath>
        </defs>
        <g clip-path="url(#clip_path_1)">
         <path fill="rgb(251,192,45)" stroke="none" d="M 1638,3513 L 3388,3513 4264,5013 3388,6513 1638,6513 763,5013 1638,3513 1638,3513 Z"/>
         <path fill="rgb(2,136,209)" stroke="none" d="M 7638,3513 L 9388,3513 10263,5013 9388,6513 7638,6513 6763,5013 7638,3513 7638,3513 Z"/>
         <path fill="rgb(56,142,60)" stroke="none" d="M 4638,5262 L 6388,5262 7264,6762 6388,8263 4638,8263 3763,6762 4638,5262 4638,5262 Z"/>
         <path fill="rgb(102,187,106)" stroke="none" d="M 4638,1763 L 6388,1763 7264,3263 6388,4764 4638,4764 3763,3263 4638,1763 4638,1763 Z"/>
         <path fill="rgb(1,87,155)" stroke="none" d="M 7638,7012 L 9388,7012 10263,8512 9388,10013 7638,10013 6763,8512 7638,7012 7638,7012 Z"/>
         <path fill="rgb(41,182,246)" stroke="none" d="M 7638,13 L 9388,13 10263,1513 9388,3014 7638,3014 6763,1513 7638,13 7638,13 Z"/>
         <path fill="rgb(245,127,23)" stroke="none" d="M 1638,7012 L 3388,7012 4264,8512 3388,10013 1638,10013 763,8512 1638,7012 1638,7012 Z"/>
         <path fill="rgb(255,238,88)" stroke="none" d="M 1638,13 L 3388,13 4264,1513 3388,3014 1638,3014 763,1513 1638,13 1638,13 Z"/>
         <path fill="rgb(165,214,167)" stroke="none" d="M 4638,-1737 L 6388,-1737 7264,-237 6388,1264 4638,1264 3763,-237 4638,-1737 4638,-1737 Z"/>
         <path fill="rgb(27,94,32)" stroke="none" d="M 4638,8762 L 6388,8762 7264,10262 6388,11763 4638,11763 3763,10262 4638,8762 4638,8762 Z"/>
         <path fill="rgb(211,47,47)" stroke="none" d="M -1362,5262 L 388,5262 1264,6762 388,8263 -1362,8263 -2237,6762 -1362,5262 -1362,5262 Z"/>
         <path fill="rgb(239,83,80)" stroke="none" d="M -1362,1763 L 388,1763 1264,3263 388,4764 -1362,4764 -2237,3263 -1362,1763 -1362,1763 Z"/>
         <path fill="rgb(239,154,154)" stroke="none" d="M -1362,-1737 L 388,-1737 1264,-237 388,1264 -1362,1264 -2237,-237 -1362,-1737 -1362,-1737 Z"/>
         <path fill="rgb(183,28,28)" stroke="none" d="M -1362,8762 L 388,8762 1264,10262 388,11763 -1362,11763 -2237,10262 -1362,8762 -1362,8762 Z"/>
         <path fill="rgb(251,192,45)" stroke="none" d="M 13637,3513 L 15387,3513 16263,5013 15387,6513 13637,6513 12762,5013 13637,3513 13637,3513 Z"/>
         <path fill="rgb(2,136,209)" stroke="none" d="M 19637,3513 L 21387,3513 22263,5013 21387,6513 19637,6513 18762,5013 19637,3513 19637,3513 Z"/>
         <path fill="rgb(56,142,60)" stroke="none" d="M 16637,5262 L 18387,5262 19263,6762 18387,8263 16637,8263 15762,6762 16637,5262 16637,5262 Z"/>
         <path fill="rgb(102,187,106)" stroke="none" d="M 16637,1763 L 18387,1763 19263,3263 18387,4764 16637,4764 15762,3263 16637,1763 16637,1763 Z"/>
         <path fill="rgb(1,87,155)" stroke="none" d="M 19637,7012 L 21387,7012 22263,8512 21387,10013 19637,10013 18762,8512 19637,7012 19637,7012 Z"/>
         <path fill="rgb(41,182,246)" stroke="none" d="M 19637,13 L 21387,13 22263,1513 21387,3014 19637,3014 18762,1513 19637,13 19637,13 Z"/>
         <path fill="rgb(245,127,23)" stroke="none" d="M 13637,7012 L 15387,7012 16263,8512 15387,10013 13637,10013 12762,8512 13637,7012 13637,7012 Z"/>
         <path fill="rgb(255,238,88)" stroke="none" d="M 13637,13 L 15387,13 16263,1513 15387,3014 13637,3014 12762,1513 13637,13 13637,13 Z"/>
         <path fill="rgb(165,214,167)" stroke="none" d="M 16637,-1737 L 18387,-1737 19263,-237 18387,1264 16637,1264 15762,-237 16637,-1737 16637,-1737 Z"/>
         <path fill="rgb(27,94,32)" stroke="none" d="M 16637,8762 L 18387,8762 19263,10262 18387,11763 16637,11763 15762,10262 16637,8762 16637,8762 Z"/>
         <path fill="rgb(211,47,47)" stroke="none" d="M 10637,5262 L 12387,5262 13263,6762 12387,8263 10637,8263 9763,6762 10637,5262 10637,5262 Z"/>
         <path fill="rgb(239,83,80)" stroke="none" d="M 10637,1763 L 12387,1763 13263,3263 12387,4764 10637,4764 9763,3263 10637,1763 10637,1763 Z"/>
         <path fill="rgb(239,154,154)" stroke="none" d="M 10637,-1737 L 12387,-1737 13263,-237 12387,1264 10637,1264 9763,-237 10637,-1737 10637,-1737 Z"/>
         <path fill="rgb(183,28,28)" stroke="none" d="M 10637,8762 L 12387,8762 13263,10262 12387,11763 10637,11763 9763,10262 10637,8762 10637,8762 Z"/>
        </g>
       </g>
      </g>
     </g>
    </g>
   </g>
  </g>
 </g>
</svg>