<?xml version="1.0" standalone="no"?>
<!DOCTYPE svg PUBLIC "-//W3C//DTD SVG 20010904//EN"
 "http://www.w3.org/TR/2001/REC-SVG-20010904/DTD/svg10.dtd">
<svg version="1.0" xmlns="http://www.w3.org/2000/svg"
 width="510.000000pt" height="510.000000pt" viewBox="0 0 510.000000 510.000000"
 preserveAspectRatio="xMidYMid meet">
<metadata>
Created by potrace 1.14, written by Peter Selinger 2001-2017
</metadata>
<g transform="translate(0.000000,510.000000) scale(0.100000,-0.100000)"
fill="#000000" stroke="none">
<path d="M2445 5004 c-162 -34 -293 -110 -430 -249 -185 -189 -352 -484 -464
-825 -62 -190 -73 -168 109 -206 206 -42 426 -67 706 -80 l140 -6 0 686 0 686
-20 -1 c-12 -1 -30 -3 -41 -5z"/>
<path d="M2599 5008 c-1 -2 -2 -311 -3 -687 l-1 -683 150 7 c153 7 167 8 290
19 62 6 118 13 165 21 8 1 40 6 70 10 80 10 102 14 183 31 39 9 86 18 102 21
17 2 34 9 39 14 9 8 -66 251 -103 334 -10 22 -22 51 -26 64 -11 35 -102 215
-151 298 -166 282 -392 479 -617 539 -47 12 -95 18 -98 12z"/>
<path d="M2109 4976 c-2 -2 -21 -7 -41 -10 -21 -3 -81 -17 -135 -32 -510 -135
-920 -394 -1272 -804 -29 -34 -29 -34 -9 -48 115 -81 616 -281 736 -294 26 -3
21 -14 77 162 38 119 107 285 170 411 121 241 262 423 425 552 88 68 86 67 69
67 -9 0 -18 -2 -20 -4z"/>
<path d="M2966 4972 c5 -4 35 -28 67 -51 31 -24 94 -83 140 -130 187 -198 343
-482 467 -853 28 -84 53 -154 54 -155 3 -3 168 45 267 77 139 45 414 170 488
222 21 15 21 15 -25 69 -158 182 -391 381 -584 499 -212 130 -509 250 -753
304 -125 28 -136 30 -121 18z"/>
<path d="M528 3958 c-47 -70 -43 -62 -114 -185 -137 -239 -251 -552 -287 -788
-3 -16 -7 -46 -11 -65 -13 -77 -16 -109 -22 -215 l-6 -110 581 0 c574 0 581 0
582 20 1 11 2 53 4 93 4 92 15 264 20 317 20 187 19 184 71 480 3 17 14 65 24
108 9 42 15 79 11 81 -3 2 -42 14 -86 26 -236 65 -516 180 -675 278 -19 12
-38 22 -42 22 -4 0 -27 -28 -50 -62z"/>
<path d="M4495 4007 c-114 -78 -407 -204 -624 -268 -75 -22 -141 -42 -148 -44
-9 -3 -9 -13 -2 -41 6 -20 12 -44 14 -53 2 -9 8 -36 14 -61 14 -63 49 -274 56
-340 3 -30 8 -66 10 -80 14 -82 30 -319 34 -495 l1 -30 581 0 582 0 -7 115
c-8 146 -12 178 -41 325 -65 324 -207 659 -392 923 -24 34 -47 62 -51 62 -4 0
-16 -6 -27 -13z"/>
<path d="M1451 3573 c-12 -54 -26 -123 -31 -153 -5 -30 -12 -68 -15 -85 -3
-16 -8 -46 -10 -65 -3 -19 -9 -66 -15 -105 -21 -150 -33 -325 -34 -480 l-1
-90 580 0 580 0 1 478 1 477 -26 1 c-14 1 -59 2 -98 4 -151 5 -322 20 -488 41
-76 10 -280 45 -343 60 -35 7 -67 14 -71 14 -4 0 -18 -44 -30 -97z"/>
<path d="M3570 3659 c-29 -7 -110 -21 -370 -64 -14 -3 -56 -7 -95 -11 -38 -3
-77 -8 -86 -9 -31 -6 -245 -18 -329 -19 -47 -1 -87 -4 -90 -8 -3 -3 -5 -219
-5 -480 l0 -473 580 0 580 0 -1 100 c0 103 -11 297 -19 350 -2 17 -6 50 -9 75
-13 110 -28 218 -36 255 -5 22 -11 56 -15 75 -16 102 -48 220 -58 219 -7 -1
-28 -5 -47 -10z"/>
<path d="M93 2406 c6 -113 31 -287 54 -386 8 -36 17 -76 20 -90 14 -75 105
-322 166 -450 53 -111 196 -347 238 -394 4 -4 34 7 66 27 84 51 227 119 345
165 115 45 349 122 370 122 30 1 38 15 28 51 -12 40 -56 255 -64 314 -4 22 -8
51 -11 65 -6 37 -13 88 -20 155 -3 33 -8 74 -10 90 -7 55 -18 249 -19 340 l-2
90 -583 1 -583 2 5 -102z"/>
<path d="M1345 2371 c3 -75 7 -163 10 -196 11 -123 15 -171 21 -210 3 -22 7
-51 9 -65 4 -28 16 -107 20 -130 1 -8 6 -35 10 -60 8 -50 56 -273 60 -278 1
-1 40 6 86 17 89 20 181 36 264 46 28 4 57 8 65 10 8 2 42 7 75 10 33 3 74 8
90 10 55 8 278 22 386 24 l65 1 0 479 0 479 -583 0 -583 -1 5 -136z"/>
<path d="M2599 2506 c-1 0 -2 -216 -3 -478 l-1 -478 70 -1 c136 -2 326 -16
475 -35 126 -16 177 -24 265 -39 111 -20 135 -24 179 -36 21 -6 39 -9 41 -7 3
4 42 169 50 213 3 17 7 40 9 51 6 31 17 96 20 119 2 11 7 45 11 75 4 30 9 62
10 71 2 9 6 52 10 95 4 43 9 90 11 104 1 14 6 98 9 186 l6 161 -580 1 c-320 0
-582 -1 -582 -2z"/>
<path d="M3849 2456 c-2 -97 -13 -289 -25 -411 -4 -46 -24 -191 -39 -290 -12
-80 -55 -283 -65 -310 -5 -14 -10 -28 -10 -30 0 -2 19 -9 43 -15 235 -61 573
-198 728 -296 21 -13 41 -24 43 -24 12 0 159 235 213 340 96 188 173 388 199
520 3 14 9 41 14 60 5 19 12 51 15 70 3 19 8 42 10 50 8 27 13 64 29 215 5 41
8 127 7 156 -1 15 -52 17 -581 17 l-580 0 -1 -52z"/>
<path d="M2489 1466 c-2 -2 -74 -6 -159 -10 -85 -3 -166 -8 -180 -11 -14 -2
-61 -7 -105 -10 -73 -5 -136 -13 -250 -30 -67 -10 -289 -56 -294 -60 -5 -5 73
-247 107 -330 146 -362 336 -637 543 -787 95 -69 264 -138 330 -134 l24 1 1
683 c0 376 -3 685 -6 687 -4 3 -9 3 -11 1z"/>
<path d="M2599 1462 c-1 -4 -2 -314 -3 -690 l-1 -683 44 6 c365 49 709 463
920 1104 40 123 47 151 35 151 -3 0 -52 9 -107 21 -145 30 -276 49 -432 65
-38 3 -81 8 -95 9 -14 2 -95 6 -180 10 -85 4 -161 8 -167 10 -7 3 -14 1 -14
-3z"/>
<path d="M1215 1265 c-182 -60 -399 -152 -510 -215 l-75 -43 58 -66 c278 -320
645 -570 1052 -717 62 -22 303 -85 379 -98 31 -6 29 -3 -30 40 -99 71 -233
217 -322 349 -124 185 -265 494 -334 735 -14 50 -23 65 -38 67 -11 1 -92 -22
-180 -52z"/>
<path d="M3686 1308 c-95 -311 -181 -518 -297 -710 -105 -173 -239 -329 -358
-418 -33 -25 -60 -48 -61 -52 -1 -17 285 58 435 114 253 94 542 262 735 428
98 84 250 236 298 297 l32 41 -42 25 c-153 89 -397 190 -627 261 -95 29 -110
31 -115 14z"/>
</g>
</svg>
